<svg width="44" height="49" viewBox="0 0 44 49" fill="none" xmlns="http://www.w3.org/2000/svg">
<path d="M16.1567 33.5056C16.1567 30.5662 16.1131 27.6268 16.1567 24.6898C16.1929 22.1226 17.576 20.0196 19.8778 19.2847C22.199 18.545 24.6579 19.3524 26.1014 21.3297C28.558 24.6994 26.5221 29.3406 22.2304 30.0199C21.372 30.1552 21.1834 30.4695 21.1955 31.2406C21.2318 33.4137 21.2608 35.5893 21.1834 37.7624C21.1472 38.7825 21.5679 38.9566 22.4553 38.9541C29.559 38.9493 34.9436 33.9504 35.8649 26.4592C36.7063 19.611 32.7047 13.1787 26.2683 11.0369C19.5901 8.81546 12.5637 11.4696 9.1206 17.5539C7.91166 19.6908 7.32411 22.0114 7.32895 24.477C7.3362 28.8644 7.33137 33.2518 7.33137 37.6416C7.33137 39.0533 7.17904 39.2031 5.74282 39.2539C1.70253 39.3941 -1.11431 35.4297 0.433134 31.7386C2.44723 26.9354 2.45207 22.154 0.466985 17.3412C-0.872525 14.09 1.11256 10.5462 4.56772 9.8839C5.67028 9.67359 6.78976 9.5068 7.8633 9.1853C11.628 8.05643 14.7857 6.04042 17.1335 2.80851C19.3918 -0.302536 23.8455 -0.246939 26.1208 2.84235C29.0512 6.81878 33.0698 9.00159 37.8838 9.7026C41.97 10.2973 44.0905 13.8386 42.5817 17.6821C40.7683 22.3015 40.7708 26.9499 42.6132 31.5621C44.0301 35.1058 41.8927 38.7293 38.1207 39.2708C33.1762 39.9791 29.0512 42.1885 26.0168 46.2447C24.6676 48.048 22.3634 48.8843 20.2453 48.326C18.0644 47.7506 16.2945 45.9788 16.1929 43.75C16.0406 40.3441 16.1567 36.9236 16.1567 33.5056C16.2171 33.508 16.0938 33.508 16.1567 33.5056Z" fill="url(#paint0_linear)"/>
<defs>
<linearGradient id="paint0_linear" x1="6" y1="3" x2="43" y2="48" gradientUnits="userSpaceOnUse">
<stop offset="0.114583" stop-color="#1B64F3"/>
<stop offset="0.817708" stop-color="#AC59FF"/>
</linearGradient>
</defs>
</svg>
