<svg width="1027" height="1131" viewBox="0 0 1027 1131" fill="none" xmlns="http://www.w3.org/2000/svg">
<mask id="mask0" style="mask-type:alpha" maskUnits="userSpaceOnUse" x="113" y="131" width="1352" height="922">
<path d="M1353.2 620.188C1364.6 606.07 1375.22 592.158 1384.99 578.52C1438.63 503.632 1465.48 439.562 1464.8 388.087C1464.1 335.422 1434.25 297.281 1376.07 274.723C1199.45 206.234 1078.33 178.229 998.18 159.698C962.106 151.357 933.613 144.769 913.015 137.354L912.732 138.329L913.015 137.354C878.747 125.016 813.232 133.426 742.039 159.303C665.424 187.149 599.064 228.746 559.973 273.426C506.056 335.053 428.644 387.856 373.197 421.3C308.609 460.258 235.387 495.904 177.33 516.655C139.849 530.05 117.904 556.107 113.867 592.01C106.878 654.177 154.356 737.746 237.773 810.105C277.312 844.403 318.196 879.868 359.421 911.906C404.999 947.327 446.106 974.604 485.092 995.295C531.644 1020 576.47 1036.23 622.129 1044.91C673.111 1054.6 724.006 1054.73 777.722 1045.32C869.468 1029.26 1040.13 922.767 1192.75 786.362C1255.17 730.564 1309.85 673.887 1353.2 620.188ZM133.846 548.608C144.387 535.552 159.331 525.432 178.359 518.632C236.535 497.839 309.888 462.13 374.58 423.11C430.14 389.598 507.718 336.677 561.788 274.876C600.682 230.422 666.76 189.015 743.079 161.277C813.798 135.573 878.697 127.154 912.448 139.305C933.192 146.773 961.751 153.376 997.908 161.737C1077.98 180.251 1198.99 208.231 1375.44 276.651C1432.56 298.797 1461.86 336.208 1462.55 387.846C1463.23 438.921 1436.48 502.63 1383.06 577.204C1336.22 642.602 1269.83 714.373 1191.08 784.757C1038.71 920.948 868.449 1027.25 777.04 1043.25C723.605 1052.61 672.99 1052.48 622.302 1042.85C576.904 1034.22 532.321 1018.08 486.006 993.498C399.117 947.38 317.814 876.854 239.188 808.65C156.356 736.799 109.194 653.971 116.106 592.488C118.015 575.515 124.015 560.784 133.846 548.608Z" fill="url(#paint0_linear)"/>
</mask>
<g mask="url(#mask0)">
<path d="M1354.42 618.535C1365.95 604.424 1376.7 590.521 1386.59 576.895C1440.91 502.069 1468.29 438.106 1467.97 386.783C1467.65 334.274 1437.99 296.33 1379.81 274.007C1203.2 206.232 1081.95 178.663 1001.72 160.418C965.607 152.207 937.085 145.721 916.484 138.388L916.192 139.362L916.484 138.388C882.211 126.186 816.459 134.763 744.889 160.771C667.867 188.76 601.032 230.429 561.516 275.094C507.014 336.698 429.016 389.573 373.181 423.082C308.141 462.115 234.467 497.871 176.104 518.731C138.427 532.196 116.236 558.241 111.933 594.052C104.482 656.058 151.492 739.246 234.62 811.151C274.021 845.234 314.763 880.477 355.872 912.302C401.321 947.487 442.345 974.564 481.288 995.082C527.791 1019.58 572.622 1035.63 618.343 1044.15C669.394 1053.66 720.425 1053.65 774.354 1044.11C866.462 1027.82 1038.35 921.146 1192.35 784.693C1255.34 728.875 1310.57 672.204 1354.42 618.535ZM132.275 550.718C142.938 537.669 157.995 527.535 177.122 520.699C235.604 499.797 309.41 463.978 374.555 424.883C430.504 391.306 508.669 338.314 563.326 276.534C602.642 232.096 669.194 190.617 745.917 162.737C817.011 136.902 882.145 128.318 915.901 140.335C936.648 147.721 965.237 154.222 1001.43 162.452C1081.59 180.68 1202.73 208.225 1379.17 275.932C1436.28 297.847 1465.4 335.064 1465.72 386.549C1466.04 437.474 1438.77 501.076 1384.67 575.588C1337.23 640.932 1270.15 712.689 1190.69 783.098C1036.94 919.337 865.455 1025.82 773.685 1042.05C720.038 1051.54 669.287 1051.55 618.531 1042.1C573.072 1033.63 528.483 1017.66 482.218 993.287C395.423 947.557 314.402 877.473 236.049 809.697C153.505 738.296 106.806 655.847 114.175 594.523C116.21 577.593 122.331 562.887 132.275 550.718Z" fill="url(#paint1_linear)"/>
</g>
<mask id="mask1" style="mask-type:alpha" maskUnits="userSpaceOnUse" x="166" y="156" width="1250" height="849">
<path d="M1315.81 606.046C1324.82 594.881 1333.29 583.863 1341.17 573.031C1390.86 504.711 1415.93 446.268 1415.67 399.324C1415.42 351.864 1388.97 317.398 1337.05 296.883C1180.59 233.888 1066.34 205.002 990.737 185.887C955.246 176.914 927.213 169.827 906.426 162.231C872.824 149.972 810.772 156.784 744.484 180.008C673.505 204.877 611.242 243.182 573.658 285.102C523.587 341.692 452.744 390.658 402.131 421.772C342.673 458.324 277.846 490.907 224.272 511.166C190.47 523.957 170.803 548.231 167.396 581.364C161.483 638.881 205.188 715.748 281.454 781.968L281.453 781.967C353.353 844.502 427.703 909.168 509.146 952.28C552.043 974.988 593.373 989.938 635.496 997.987C682.486 1006.96 729.385 1007.21 778.871 998.752C863.915 984.492 1022.01 887.443 1163.32 762.745C1222.95 710.129 1275 656.597 1315.81 606.046ZM186.112 540.056C195.5 528.425 208.641 519.304 225.273 513.01C278.951 492.711 343.892 460.072 403.444 423.463C454.157 392.287 525.148 343.214 575.353 286.473C612.745 244.768 674.74 206.639 745.438 181.868C811.283 158.799 872.761 151.974 905.882 164.058C926.786 171.697 954.874 178.799 990.433 187.789C1065.97 206.888 1180.13 235.749 1336.44 298.685C1387.36 318.809 1413.31 352.586 1413.56 399.083C1413.81 445.652 1388.85 503.758 1339.37 571.785C1295.89 631.566 1234.48 697.074 1161.77 761.23C1020.68 885.727 862.973 982.6 778.244 996.806C729.016 1005.22 682.378 1004.98 635.662 996.053C593.781 988.052 552.678 973.181 510.004 950.59C428.817 907.613 354.58 843.045 282.786 780.603L282.786 780.602C207.063 714.854 163.655 638.676 169.503 581.797C171.166 565.626 176.789 551.603 186.112 540.056Z" fill="url(#paint2_linear)"/>
</mask>
<g mask="url(#mask1)">
<path d="M1316.95 604.506C1326.07 593.347 1334.63 582.336 1342.61 571.513C1392.92 503.246 1418.48 444.9 1418.56 398.094C1418.64 350.773 1392.36 316.483 1340.45 296.179C1184.02 233.823 1069.66 205.354 993.992 186.516C958.468 177.672 930.41 170.687 909.621 163.174C876.016 151.048 813.747 158.021 747.113 181.372C675.765 206.375 613.06 244.751 575.076 286.658C524.465 343.229 453.082 392.26 402.11 423.431C342.23 460.05 276.995 492.728 223.132 513.084C189.148 525.936 169.254 550.197 165.602 583.244C159.262 640.611 202.538 717.127 278.539 782.932L278.538 782.931C350.187 845.075 424.278 909.336 505.634 952.085C548.486 974.603 589.821 989.389 632.001 997.291C679.054 1006.11 726.078 1006.22 775.759 997.636C861.135 983.17 1020.35 885.941 1162.93 761.194C1223.1 708.558 1275.67 655.029 1316.95 604.506ZM184.663 542.001C194.16 530.377 207.401 521.244 224.122 514.919C278.091 494.523 343.44 461.79 403.415 425.113C454.487 393.881 526.02 344.743 576.765 288.021C614.556 246.327 676.991 208.128 748.057 183.224C814.244 160.029 875.938 153.045 909.062 164.998C929.969 172.554 958.082 179.553 993.673 188.413C1069.28 207.236 1183.54 235.681 1339.83 297.978C1390.75 317.895 1416.52 351.498 1416.44 397.859C1416.36 444.292 1390.91 502.302 1340.82 570.276C1296.8 630.01 1234.75 695.507 1161.39 759.688C1019.03 884.235 860.203 981.286 775.144 995.698C725.722 1004.23 678.96 1004.12 632.18 995.362C590.244 987.507 549.135 972.799 506.506 950.398C425.406 907.783 351.428 843.619 279.885 781.567L279.884 781.566C204.425 716.23 161.442 640.4 167.711 583.669C169.494 567.54 175.232 553.542 184.663 542.001Z" fill="url(#paint3_linear)"/>
</g>
<mask id="mask2" style="mask-type:alpha" maskUnits="userSpaceOnUse" x="220" y="180" width="1147" height="778">
<path d="M1278.41 592.048C1285.09 583.779 1291.41 575.611 1297.39 567.546C1343.13 505.793 1366.41 452.978 1366.59 410.567C1366.76 368.312 1343.7 337.522 1298.04 319.053C1160.74 261.151 1057.35 232.589 981.86 211.734C947.6 202.269 920.542 194.794 899.843 187.118C866.397 174.75 809.237 179.837 746.94 200.724C681.59 222.636 623.425 257.649 587.358 296.787C503.578 390.223 352.406 472.904 271.234 505.684C241.103 517.87 223.711 540.367 220.941 570.743C216.12 623.607 256.054 693.764 325.159 753.835C387.198 807.964 457.519 869.318 533.22 909.265C572.46 929.972 610.294 943.645 648.88 951.064C691.879 959.333 734.78 959.698 780.037 952.18C819.348 945.929 874.741 921.623 940.223 881.89C1003.12 843.721 1071.92 793.022 1133.94 739.129C1190.76 689.749 1240.18 639.397 1278.41 592.048ZM238.392 531.458C246.621 521.265 257.959 513.156 272.207 507.395C353.523 474.556 504.977 391.715 588.933 298.083C624.814 259.149 682.726 224.297 747.811 202.474C809.689 181.726 866.33 176.624 899.326 188.826C920.116 196.535 947.218 204.022 981.528 213.501C1056.96 234.34 1160.27 262.88 1297.44 320.727C1342.19 338.826 1364.78 368.97 1364.61 410.325C1364.43 452.387 1341.25 504.887 1295.71 566.368C1255.6 620.524 1199.16 679.774 1132.5 737.702C1070.55 791.537 1001.83 842.179 939.003 880.301C873.714 919.917 818.545 944.142 779.462 950.356C734.442 957.834 691.782 957.473 649.038 949.254C610.676 941.879 573.053 928.28 534.019 907.682C458.561 867.863 388.351 806.604 326.406 752.558L326.405 752.557C257.802 692.923 218.147 623.403 222.914 571.129C224.317 555.73 229.563 542.394 238.392 531.458Z" fill="url(#paint4_linear)"/>
</mask>
<g mask="url(#mask2)">
<path d="M1279.47 590.621C1286.22 582.356 1292.63 574.193 1298.67 566.134C1344.98 504.428 1368.7 451.698 1369.18 409.409C1369.66 367.276 1346.75 336.643 1301.1 318.36C1163.84 261.027 1060.38 232.849 984.827 212.275C950.543 202.937 923.464 195.563 902.763 187.97C869.315 175.735 811.964 180.973 749.349 201.982C683.665 224.02 625.093 259.102 588.649 298.231C503.976 391.64 351.805 474.522 270.179 507.443C239.879 519.682 222.279 542.164 219.285 572.46C214.074 625.185 253.616 695.022 322.48 754.717C384.302 808.508 454.376 869.479 529.998 909.09C569.197 929.622 607.035 943.145 645.674 950.43C688.73 958.549 731.746 958.788 777.179 951.16C816.641 944.813 872.357 920.416 938.3 880.608C1001.64 842.366 1070.99 791.613 1133.56 737.696C1190.89 688.294 1240.8 637.943 1279.47 590.621ZM237.063 533.238C245.387 523.051 256.814 514.932 271.142 509.146C352.913 476.166 505.368 393.124 590.219 299.519C626.475 260.593 684.792 225.674 750.21 203.724C812.403 182.856 869.234 177.604 902.233 189.674C923.024 197.3 950.146 204.687 984.483 214.038C1059.97 234.596 1163.35 262.752 1300.49 320.032C1345.23 337.948 1367.67 367.938 1367.2 409.174C1366.72 451.114 1343.11 503.529 1297.01 564.965C1256.4 619.081 1199.38 678.323 1132.12 736.278C1069.62 790.137 1000.36 840.832 937.088 879.026C871.339 918.718 815.849 943.033 776.616 949.344C731.42 956.931 688.647 956.695 645.845 948.625C607.432 941.383 569.804 927.933 530.81 907.509C455.431 868.025 385.468 807.149 323.74 753.44L323.739 753.439C255.375 694.179 216.108 624.976 221.261 572.839C222.778 557.481 228.133 544.168 237.063 533.238Z" fill="url(#paint5_linear)"/>
</g>
<mask id="mask3" style="mask-type:alpha" maskUnits="userSpaceOnUse" x="274" y="204" width="1044" height="707">
<path d="M1241 578.226C1245.39 572.785 1249.61 567.395 1253.66 562.053C1295.44 506.868 1316.94 459.681 1317.55 421.803C1318.14 384.75 1298.45 357.637 1259.02 341.219C1139.63 287.838 1041.95 258.366 970.632 236.847C939.9 227.575 913.359 219.566 893.259 212.004C860.458 199.708 806.678 203.235 749.396 221.439C689.663 240.421 635.596 272.143 601.057 308.471C567.541 345.262 518.779 384.768 460.033 422.731C412.879 453.203 361.182 481.44 318.195 500.201C291.719 511.781 276.599 532.51 274.475 560.145C270.768 608.355 306.934 671.791 368.859 725.698C433.692 782.481 492.622 832.252 557.29 866.248C592.873 884.955 627.21 897.349 662.261 904.14C701.266 911.697 740.172 912.177 781.199 905.606C817.372 900.222 868.123 878.614 927.955 843.115C985.194 809.156 1047.92 763.837 1104.59 715.509C1158.63 669.425 1205.41 622.312 1241 578.226ZM290.661 522.789C297.719 514.046 307.263 506.974 319.143 501.777C362.204 482.982 413.984 454.701 461.206 424.187C520.06 386.154 568.922 346.563 602.513 309.69C636.871 273.553 690.697 241.979 750.182 223.076C807.078 204.995 860.381 201.449 892.769 213.59C912.935 221.177 939.508 229.195 970.276 238.479C1041.54 259.981 1139.14 289.43 1258.44 342.765C1297.03 358.836 1316.29 385.342 1315.71 421.559C1315.1 459.114 1293.71 506.009 1252.11 560.944C1215.35 609.48 1163.88 662.467 1103.26 714.172C1046.66 762.447 984.001 807.712 926.834 841.628C867.184 877.019 816.644 898.555 780.679 903.907C739.866 910.443 701.185 909.968 662.412 902.457C627.567 895.705 593.424 883.379 558.031 864.773C493.577 830.89 434.752 781.205 370.022 724.512L370.019 724.511C308.554 671.004 272.647 608.152 276.313 560.483C277.441 545.817 282.309 533.135 290.661 522.789Z" fill="url(#paint6_linear)"/>
</mask>
<g mask="url(#mask3)">
<path d="M1241.98 576.91C1246.43 571.472 1250.69 566.086 1254.79 560.748C1297.08 505.601 1318.97 458.488 1319.85 420.718C1320.71 383.771 1301.16 356.794 1261.74 340.538C1142.41 287.659 1044.67 258.558 973.312 237.309C942.563 228.153 916.007 220.245 895.906 212.764C863.104 200.599 809.152 204.272 751.585 222.591C691.554 241.692 637.114 273.479 602.222 309.803C568.353 346.585 519.177 386.119 460 424.143C412.501 454.664 360.462 482.969 317.224 501.802C290.593 513.425 275.284 534.138 272.958 561.699C268.897 609.78 304.709 672.927 366.418 726.497C431.022 782.927 489.758 832.383 554.359 866.091C589.905 884.64 624.247 896.898 659.345 903.567C698.402 910.989 737.411 911.354 778.596 904.683C814.906 899.209 865.949 877.515 926.196 841.945C983.832 807.917 1047.06 762.547 1104.22 714.194C1158.73 668.085 1205.98 620.972 1241.98 576.91ZM289.454 524.404C296.594 515.666 306.214 508.586 318.163 503.37C361.476 484.505 413.598 456.154 461.166 425.591C520.451 387.497 569.729 347.877 603.673 311.014C638.382 274.881 692.58 243.242 752.361 224.221C809.541 206.026 863.014 202.335 895.404 214.347C915.57 221.853 942.159 229.77 972.944 238.937C1044.25 260.169 1141.91 289.248 1261.14 342.081C1299.72 357.993 1318.85 384.367 1318.01 420.48C1317.14 457.927 1295.35 504.75 1253.24 559.647C1216.04 608.149 1164.05 661.133 1102.9 712.865C1045.8 761.165 982.647 806.481 925.082 840.466C865.018 875.928 814.187 897.548 778.087 902.99C737.116 909.626 698.333 909.265 659.508 901.889C624.617 895.258 590.469 883.067 555.113 864.619C490.724 831.021 432.094 781.652 367.592 725.312L367.59 725.311C306.339 672.137 270.783 609.573 274.799 562.031C276.034 547.404 281.006 534.744 289.454 524.404Z" fill="url(#paint7_linear)"/>
</g>
<mask id="mask4" style="mask-type:alpha" maskUnits="userSpaceOnUse" x="327" y="228" width="942" height="635">
<path d="M1203.59 564.646C1205.78 561.939 1207.91 559.246 1210 556.567C1247.83 507.95 1267.54 466.393 1268.58 433.049C1269.57 401.194 1253.23 377.758 1220.02 363.395C1117.02 313.694 1023.72 282.985 955.601 260.561C928.588 251.669 905.259 243.99 886.686 236.9C854.029 224.49 804.889 226.409 751.865 242.166C697.73 258.253 647.761 286.683 614.772 320.166C551.6 388.191 441.106 458.335 365.172 494.728C342.334 505.706 329.487 524.679 328.02 549.596C325.454 593.144 357.855 649.844 412.578 697.568L412.575 697.564C467.742 746.11 522.164 792.252 581.377 823.235C613.302 839.938 644.141 851.055 675.659 857.218C710.67 864.065 745.577 864.659 782.375 859.034C815.422 854.517 861.538 835.606 915.726 804.347C967.309 774.59 1023.98 734.654 1075.3 691.896C1126.56 649.191 1170.7 605.383 1203.59 564.646ZM342.937 514.028C348.809 506.754 356.564 500.748 366.099 496.165C442.149 459.716 552.826 389.451 616.106 321.307C648.921 288.003 698.662 259.707 752.564 243.69C805.227 228.04 853.944 226.1 886.222 238.366C904.837 245.471 928.186 253.156 955.224 262.056C1023.29 284.463 1116.52 315.149 1219.43 364.809C1251.89 378.847 1267.84 401.718 1266.88 432.802C1265.85 465.848 1246.23 507.139 1208.57 555.528C1175.16 598.431 1128.67 645.167 1074.08 690.649C1022.82 733.357 966.217 773.244 914.702 802.962C860.683 834.123 814.764 852.968 781.91 857.46C745.303 863.055 710.599 862.466 675.801 855.662C644.474 849.535 613.811 838.482 582.061 821.868C523.048 790.99 468.73 744.934 413.659 696.473L413.656 696.47C359.349 649.109 327.188 592.941 329.725 549.884C330.547 535.892 335.038 523.812 342.937 514.028Z" fill="url(#paint8_linear)"/>
</mask>
<g mask="url(#mask4)">
<path d="M1204.49 563.442C1206.7 560.736 1208.86 558.045 1210.97 555.368C1249.26 506.781 1269.32 465.286 1270.59 432.036C1271.81 400.27 1255.6 376.95 1222.4 362.725C1119.47 313.468 1026.14 283.119 957.992 260.958C930.969 252.171 907.631 244.582 889.057 237.567C856.4 225.287 807.112 227.345 753.832 243.21C699.434 259.408 649.127 287.902 615.808 321.385C551.979 389.397 440.683 459.66 364.283 496.169C341.304 507.182 328.287 526.138 326.638 550.987C323.754 594.416 355.839 650.859 410.371 698.284L410.368 698.281C465.339 746.526 519.58 792.376 578.734 823.096C610.627 839.659 641.471 850.653 673.03 856.707C708.088 863.431 743.086 863.922 780.024 858.206C813.193 853.606 859.57 834.615 914.128 803.289C966.065 773.468 1023.18 733.482 1074.94 690.698C1126.64 647.967 1171.22 604.157 1204.49 563.442ZM341.849 515.478C347.789 508.208 355.608 502.197 365.202 497.599C441.72 461.034 553.199 390.649 617.138 322.519C650.28 289.215 700.359 260.856 754.521 244.728C807.44 228.97 856.304 226.893 888.582 239.03C907.197 246.06 930.555 253.655 957.602 262.451C1025.7 284.594 1118.95 314.92 1221.8 364.136C1254.25 378.04 1270.08 400.797 1268.89 431.794C1267.62 464.748 1247.66 505.977 1209.55 554.336C1175.74 597.212 1128.79 643.949 1073.72 689.458C1022.02 732.192 964.98 772.128 913.112 801.91C858.724 833.139 812.545 852.063 779.569 856.638C742.823 862.324 708.028 861.838 673.183 855.154C641.815 849.137 611.148 838.204 579.43 821.732C520.476 791.115 466.338 745.35 411.463 697.19L411.46 697.186C357.343 650.121 325.495 594.209 328.346 551.269C329.27 537.315 333.859 525.257 341.849 515.478Z" fill="url(#paint9_linear)"/>
</g>
<mask id="mask5" style="mask-type:alpha" maskUnits="userSpaceOnUse" x="381" y="252" width="839" height="564">
<path d="M1166.19 551.387C1166.27 551.287 1166.35 551.189 1166.43 551.088C1200.32 509.039 1218.25 473.111 1219.72 444.303C1221.07 417.634 1208.05 397.872 1181.01 385.57C1092.8 338.335 1001.3 305.601 934.483 281.7C913.562 274.216 895.493 267.752 880.115 261.799C848.06 249.448 802.218 249.848 754.341 262.895C705.777 276.13 659.908 301.268 628.495 331.864C600.814 360.968 563.635 391.864 517.975 423.712C483.627 447.669 445.058 471.559 412.156 489.258C392.933 499.641 382.354 516.878 381.563 539.109C380.177 577.985 408.817 627.924 456.305 669.435C502.305 710.158 551.718 752.26 605.472 780.219C633.737 794.921 661.079 804.759 689.062 810.295C720.078 816.431 750.987 817.139 783.557 812.46C842.872 805.224 948.377 747.285 1046.08 668.288C1094.57 629.078 1136.09 588.661 1166.19 551.387ZM395.199 505.122C399.864 499.342 405.84 494.452 413.063 490.549C446.007 472.828 484.624 448.909 519.012 424.924C564.742 393.028 601.985 362.076 629.708 332.928C660.95 302.499 706.606 277.48 754.951 264.306C802.502 251.347 847.964 250.923 879.68 263.144C895.079 269.105 913.159 275.572 934.092 283.061C1000.85 306.942 1092.28 339.649 1180.43 386.846C1206.8 398.847 1219.47 418.084 1218.15 444.048C1216.7 472.586 1198.86 508.272 1165.13 550.115C1165.05 550.213 1164.97 550.316 1164.89 550.414C1134.85 587.623 1093.4 627.971 1044.97 667.128C947.449 745.979 842.231 803.8 783.146 811.007C750.746 815.662 720.02 814.959 689.196 808.861C661.385 803.36 634.203 793.578 606.096 778.958C552.531 751.096 503.218 709.078 457.301 668.429L457.297 668.425C410.181 627.238 381.761 577.775 383.131 539.341C383.607 525.939 387.718 514.388 395.199 505.122Z" fill="url(#paint10_linear)"/>
</mask>
<g mask="url(#mask5)">
<path d="M1167 550.294C1167.08 550.194 1167.16 550.095 1167.24 549.994C1201.53 507.968 1219.76 472.092 1221.44 443.362C1222.99 416.766 1210.08 397.099 1183.05 384.911C1094.93 338.069 1003.41 305.696 936.587 282.059C915.661 274.657 897.589 268.264 882.211 262.374C850.157 250.151 804.186 250.684 756.086 263.833C707.295 277.171 661.12 302.37 629.403 332.969C601.439 362.07 563.937 392.986 517.925 424.874C483.313 448.862 444.467 472.796 411.349 490.54C391.999 500.949 381.268 518.167 380.316 540.336C378.649 579.104 407.011 628.816 454.333 670.07C500.168 710.541 549.416 752.377 603.117 780.1C631.354 794.677 658.701 804.407 686.721 809.845C717.778 815.873 748.766 816.489 781.459 811.729C840.988 804.341 947.195 746.261 1045.73 667.207C1094.63 627.969 1136.56 587.548 1167 550.294ZM394.232 506.407C398.951 500.631 404.978 495.738 412.249 491.825C445.41 474.059 484.303 450.096 518.956 426.081C565.039 394.143 602.605 363.172 630.611 334.027C662.156 303.594 708.116 278.515 756.687 265.238C804.461 252.178 850.051 251.622 881.766 263.716C897.165 269.615 915.247 276.01 936.185 283.417C1002.95 307.035 1094.4 339.381 1182.45 386.185C1208.81 398.075 1221.38 417.219 1219.87 443.113C1218.21 471.573 1200.07 507.207 1165.95 549.028C1165.87 549.126 1165.79 549.229 1165.71 549.326C1135.32 586.516 1093.46 626.869 1044.62 666.054C946.274 744.961 840.355 802.923 781.057 810.281C748.535 815.017 717.73 814.405 686.865 808.415C659.018 803.011 631.831 793.336 603.751 778.84C550.239 751.215 501.091 709.461 455.339 669.063L455.334 669.059C408.383 628.128 380.239 578.89 381.887 540.564C382.46 527.198 386.665 515.669 394.232 506.407Z" fill="url(#paint11_linear)"/>
</g>
<mask id="mask6" style="mask-type:alpha" maskUnits="userSpaceOnUse" x="435" y="276" width="737" height="493">
<path d="M1128.94 538.434C1155.09 506.045 1169.23 478.206 1171.01 455.592C1172.7 434.094 1162.96 418.006 1142.06 407.77C1067.32 361.217 972.791 324.905 903.771 298.391C892.941 294.23 882.71 290.3 873.552 286.705C841.592 274.219 800.14 273.128 756.83 283.634C713.161 294.228 672.462 315.513 642.233 343.569C622.419 363.778 564.956 417.857 459.155 483.794C443.516 493.594 435.203 509.13 435.116 528.727C434.963 562.906 459.844 606.041 500.046 641.299C537.407 674.634 581.311 712.287 629.584 737.203C680.599 763.535 731.354 772.916 784.751 765.885C811.582 763.099 848.468 749.593 891.402 726.826C932.296 705.141 975.711 676.743 1016.95 644.702C1059.54 611.614 1096.21 577.36 1122.99 545.639C1125.04 543.214 1127.02 540.811 1128.94 538.434ZM447.448 495.997C450.873 491.754 455.085 488.048 460.053 484.935C476.978 474.387 510.905 452.612 547.939 425.298C586.817 396.627 618.91 369.461 643.326 344.556C673.39 316.655 713.891 295.473 757.351 284.93C800.367 274.496 841.491 275.561 873.148 287.929C882.311 291.525 892.544 295.456 903.378 299.618C972.346 326.112 1066.8 362.398 1141.41 408.876L1141.49 408.919C1161.77 418.838 1171.22 434.452 1169.58 455.327C1167.72 479.018 1151.2 509.932 1121.82 544.732C1095.09 576.393 1058.48 610.591 1015.96 643.629C974.768 675.629 931.413 703.988 890.58 725.641C847.792 748.33 811.074 761.787 784.397 764.556C731.304 771.548 680.855 762.223 630.148 736.05C582.053 711.226 538.247 673.656 500.962 640.388L500.957 640.383C461.077 605.409 436.397 562.692 436.548 528.902C436.607 515.952 440.33 504.814 447.448 495.997Z" fill="url(#paint12_linear)"/>
</mask>
<g mask="url(#mask6)">
<path d="M1129.66 537.449C1156.12 505.077 1170.5 477.277 1172.44 454.722C1174.29 433.281 1164.64 417.268 1143.75 407.122C1069.14 360.921 974.612 324.987 905.592 298.75C894.762 294.634 884.53 290.744 875.372 287.186C843.414 274.829 801.855 273.862 758.351 284.464C714.487 295.154 673.524 316.497 643.011 344.561C622.999 364.769 564.991 418.86 458.428 484.917C442.676 494.735 434.229 510.25 434.002 529.791C433.605 563.872 458.246 606.811 498.306 641.851C535.532 674.981 579.287 712.399 627.515 737.102C678.482 763.21 729.31 772.417 782.904 765.25C809.829 762.394 846.913 748.819 890.128 725.992C931.289 704.251 975.027 675.808 1016.61 643.738C1059.55 610.622 1096.56 576.359 1123.65 544.651C1125.72 542.227 1127.72 539.825 1129.66 537.449ZM446.602 497.119C450.067 492.878 454.317 489.17 459.32 486.052C476.367 475.485 510.543 453.673 547.874 426.33C587.064 397.628 619.439 370.447 644.101 345.542C674.446 317.633 715.21 296.394 758.865 285.755C802.074 275.225 843.304 276.167 874.959 288.408C884.121 291.967 894.354 295.857 905.188 299.976C974.156 326.192 1068.61 362.099 1143.09 408.227L1143.17 408.269C1163.44 418.101 1172.81 433.643 1171.01 454.462C1168.97 478.09 1152.19 508.964 1122.48 543.75C1095.45 575.398 1058.5 609.604 1015.62 642.672C974.089 674.7 930.412 703.103 889.312 724.813C846.244 747.562 809.329 761.088 782.558 763.926C729.27 771.052 678.749 761.901 628.09 735.951C580.039 711.338 536.381 674.003 499.232 640.94L499.226 640.935C459.486 606.177 435.043 563.655 435.436 529.961C435.588 517.048 439.401 505.931 446.602 497.119Z" fill="url(#paint13_linear)"/>
</g>
<mask id="mask7" style="mask-type:alpha" maskUnits="userSpaceOnUse" x="488" y="299" width="635" height="422">
<path d="M1091.3 526.752C1109.86 503.76 1120.59 483.297 1122.57 466.969C1124.55 450.578 1118 438.129 1103.1 429.966C1041.68 381.128 919.28 332.42 867.003 311.618C801.646 285.721 714.878 303.678 655.997 355.284C611.99 398.41 552.387 443.429 516.777 470.326C512.996 473.182 509.448 475.862 506.177 478.343C494.074 487.585 488.032 501.484 488.699 518.534C489.851 547.966 510.972 584.23 543.815 613.17C576.86 642.971 613.047 673.414 653.716 694.186C697.117 716.354 740.375 724.572 785.962 719.308C832.637 715.539 911.933 677.018 987.957 621.174C1024.51 594.323 1056.25 566.348 1079.74 540.274C1083.87 535.682 1087.73 531.167 1091.3 526.752ZM499.652 486.51C501.785 483.868 504.259 481.465 507.069 479.319C510.338 476.839 513.884 474.161 517.666 471.304C553.296 444.391 612.932 399.347 656.967 356.193C715.503 304.891 801.729 287.006 866.63 312.723C918.859 333.505 1041.17 382.174 1102.38 430.884L1102.44 430.925L1102.49 430.958C1116.88 438.814 1123.2 450.833 1121.28 466.683C1118.95 485.936 1104.23 511.093 1078.7 539.427C1055.26 565.45 1023.58 593.377 987.079 620.187C911.213 675.915 832.154 714.35 785.666 718.104C684.427 729.794 611.09 672.27 544.648 612.349L544.641 612.342C512.071 583.646 491.131 547.742 489.992 518.642C489.495 505.916 492.809 494.987 499.652 486.51Z" fill="url(#paint14_linear)"/>
</mask>
<g mask="url(#mask7)">
<path d="M1091.92 525.874C1110.7 502.894 1121.61 482.457 1123.71 466.17C1125.81 449.82 1119.33 437.425 1104.45 429.329C1043.22 380.81 920.82 332.596 868.547 312.006C803.194 286.373 716.057 304.531 656.644 356.161C612.206 399.293 552.116 444.356 516.215 471.281C512.403 474.14 508.827 476.822 505.529 479.306C493.326 488.557 487.168 502.434 487.715 519.433C488.659 548.778 509.579 584.877 542.307 613.639C575.23 643.259 611.3 673.509 651.933 694.105C695.296 716.083 738.615 724.151 784.366 718.769C831.197 714.876 910.988 676.234 987.623 620.328C1024.47 593.446 1056.5 565.459 1080.24 539.391C1084.42 534.8 1088.32 530.287 1091.92 525.874ZM498.927 487.468C501.085 484.828 503.583 482.424 506.416 480.276C509.712 477.793 513.287 475.113 517.099 472.254C553.021 445.314 613.144 400.224 657.61 357.065C716.675 305.738 803.268 287.654 868.165 313.108C920.39 333.679 1042.69 381.854 1103.73 430.247L1103.78 430.288L1103.84 430.32C1118.2 438.112 1124.45 450.078 1122.42 465.889C1119.95 485.094 1105 510.222 1079.2 538.55C1055.51 564.566 1023.54 592.506 986.75 619.345C910.274 675.136 830.721 713.691 784.078 717.57C682.474 729.521 609.345 672.375 543.148 612.818L543.141 612.811C510.686 584.291 489.944 548.55 489.011 519.537C488.603 506.848 492.005 495.941 498.927 487.468Z" fill="url(#paint15_linear)"/>
</g>
<mask id="mask8" style="mask-type:alpha" maskUnits="userSpaceOnUse" x="542" y="322" width="534" height="352">
<path d="M1054.05 516.007C1065.39 501.958 1072.5 489.207 1074.57 478.592C1076.81 467.161 1073.31 458.272 1064.18 452.173C1050.75 434.826 1020.95 413.794 975.592 389.657C942.553 372.073 900.592 352.706 860.466 336.523C796.05 310.636 724.767 322.028 669.783 366.995C651.768 383.701 632.568 400.752 613.999 417.242C589.985 438.568 567.303 458.711 553.212 472.897C541.406 484.879 538.841 503.44 545.977 525.15C552.74 545.728 567.909 567.552 587.598 585.029C632.072 625.764 659.2 641.77 677.865 651.162C713.632 669.158 749.391 676.211 787.187 672.722C827.765 670.671 893.643 641.965 959.084 597.809C1000.89 569.603 1034.04 540.788 1054.05 516.007ZM551.718 476.362C552.466 475.435 553.263 474.544 554.107 473.684C568.177 459.52 590.848 439.387 614.851 418.071C633.423 401.578 652.627 384.523 670.627 367.829C725.282 323.133 796.131 311.792 860.126 337.509C900.207 353.675 942.121 373.019 975.119 390.581C1020.37 414.666 1050.05 435.604 1063.33 452.816L1063.4 452.903L1063.49 452.966C1072.24 458.761 1075.58 467.276 1073.43 478.27C1067.75 507.379 1023.64 552.837 958.331 596.905C893.035 640.963 827.367 669.602 786.954 671.645C749.376 675.114 713.846 668.106 678.308 650.225C642.927 632.422 611.647 605.644 588.35 584.304L588.342 584.297C568.818 566.968 553.778 545.34 547.08 524.958C540.582 505.182 542.25 488.092 551.718 476.362Z" fill="url(#paint16_linear)"/>
</mask>
<g mask="url(#mask8)">
<path d="M1054.57 515.233C1066.04 501.191 1073.27 488.455 1075.42 477.864C1077.74 466.458 1074.3 457.605 1065.18 451.549C1051.84 434.29 1022.11 413.405 976.8 389.467C943.795 372.029 901.854 352.839 861.732 336.818C797.321 311.192 725.756 322.758 670.296 367.758C652.111 384.47 632.735 401.529 613.996 418.026C589.762 439.361 566.872 459.513 552.64 473.7C540.715 485.683 538.01 504.199 545.01 525.827C551.645 546.327 566.7 568.045 586.32 585.416C630.626 625.907 657.716 641.789 676.366 651.1C712.104 668.941 747.913 675.87 785.839 672.281C826.546 670.118 892.814 641.302 958.755 597.08C1000.88 568.832 1034.33 540.002 1054.57 515.233ZM551.117 477.16C551.874 476.233 552.679 475.342 553.532 474.483C567.742 460.318 590.622 440.175 614.844 418.85C633.587 402.349 652.966 385.287 671.137 368.587C726.265 323.858 797.393 312.344 861.384 337.802C901.462 353.806 943.354 372.973 976.319 390.39C1021.53 414.275 1051.14 435.069 1064.33 452.193L1064.4 452.28L1064.49 452.342C1073.22 458.096 1076.51 466.576 1074.28 477.546C1068.37 506.589 1023.82 552.047 958.007 596.181C892.212 640.304 826.155 669.053 785.614 671.208C747.906 674.776 712.326 667.892 676.817 650.164C641.464 632.514 610.289 605.903 587.078 584.691L587.07 584.684C567.616 567.46 552.689 545.937 546.118 525.632C539.743 505.931 541.538 488.885 551.117 477.16Z" fill="url(#paint17_linear)"/>
</g>
<mask id="mask9" style="mask-type:alpha" maskUnits="userSpaceOnUse" x="595" y="345" width="434" height="282">
<path d="M1017.49 507.164C1022.17 501.357 1025.51 495.986 1027.29 491.217C1029.9 484.242 1029.24 478.602 1025.33 474.449C1024.23 456.735 991.13 432.988 963.499 416.158C932.344 397.182 891.395 376.717 853.958 361.415C821.726 348.276 792.446 343.191 764.444 345.867C735.847 348.6 709.407 359.341 683.615 378.701C647.096 409.936 614.393 444.771 600.288 467.464C593.475 478.557 593.28 494.187 599.738 511.478C605.778 527.653 617.326 544.202 631.419 556.879C667.966 591.185 718.842 630.058 788.447 626.127C822.666 625.811 875.542 606.738 929.864 575.108C969.559 551.992 1001.44 527.041 1017.49 507.164ZM614.736 449.329C631.558 428.488 656.865 402.952 684.334 379.457C709.97 360.214 736.257 349.532 764.673 346.816C792.495 344.157 821.6 349.216 853.653 362.281C923.626 390.883 1022.84 444.625 1024.32 474.556L1024.33 474.742L1024.47 474.889C1028.21 478.746 1028.83 484.1 1026.32 490.804C1018.49 511.737 980.385 544.502 929.245 574.278C875.055 605.832 822.358 624.858 788.279 625.173C719.081 629.08 668.461 590.389 632.09 556.246L632.08 556.237C618.117 543.678 606.679 527.288 600.696 511.269C594.339 494.244 594.513 478.884 601.188 468.015C604.652 462.444 609.241 456.136 614.736 449.329Z" fill="url(#paint18_linear)"/>
</mask>
<g mask="url(#mask9)">
<path d="M1017.89 506.487C1022.63 500.682 1026.02 495.317 1027.84 490.556C1030.51 483.592 1029.89 477.97 1025.99 473.84C1025.02 456.178 991.993 432.594 964.404 415.891C933.297 397.058 892.377 376.769 854.943 361.618C822.714 348.609 793.386 343.622 765.285 346.372C736.587 349.181 709.995 359.969 683.991 379.35C647.143 410.604 614.098 445.437 599.789 468.108C592.877 479.189 592.569 494.777 598.921 512.001C604.863 528.114 616.325 544.583 630.367 557.184C666.772 591.289 717.514 629.906 787.346 625.784C821.665 625.37 874.828 606.196 929.532 574.496C969.506 551.329 1001.66 526.356 1017.89 506.487ZM614.408 449.981C631.428 429.149 656.991 403.611 684.706 380.102C710.554 360.838 736.992 350.109 765.509 347.318C793.429 344.586 822.58 349.547 854.631 362.483C924.599 390.801 1023.71 444.107 1024.98 473.95L1024.99 474.136L1025.13 474.281C1028.85 478.117 1029.43 483.454 1026.87 490.146C1018.86 511.044 980.416 543.829 928.917 573.67C874.347 605.294 821.363 624.42 787.185 624.833C717.761 628.93 667.275 590.493 631.045 556.55L631.035 556.542C617.123 544.059 605.769 527.747 599.884 511.79C593.631 494.831 593.916 479.512 600.687 468.655C604.201 463.089 608.849 456.786 614.408 449.981Z" fill="url(#paint19_linear)"/>
</g>
<mask id="mask10" style="mask-type:alpha" maskUnits="userSpaceOnUse" x="646" y="366" width="346" height="214">
<path d="M983.238 503.302C985.26 500.797 986.459 498.56 986.728 496.665C990.818 493.021 992.121 488.374 990.607 482.857C986.179 466.715 958.955 446.497 936.896 432.38C910.648 415.58 877.319 398.237 847.742 385.986C814.274 372.144 789.446 366.064 767.238 366.274C743.546 366.499 721.416 374.07 697.591 390.104C671.78 409.462 652.099 437.616 647.432 461.843C643.342 483.627 658.391 512.883 675.303 528.586C709.414 562.074 747.969 579.19 789.895 579.458C806.459 580.297 826.736 577.458 850.138 571.02C870.4 565.445 892.425 557.275 913.831 547.394C947.343 531.923 973.957 514.8 983.238 503.302ZM985.881 496.204L985.866 496.337C985.645 498.172 984.49 500.35 982.52 502.791C962.094 528.103 853.947 581.879 789.809 578.632C748.131 578.365 709.814 561.348 675.901 528.053L675.891 528.042C659.16 512.511 644.266 483.593 648.305 462.087C652.941 438.022 672.517 410.033 698.182 390.785C721.857 374.853 743.843 367.324 767.359 367.101C789.429 366.893 814.138 372.947 847.474 386.735C876.996 398.964 910.264 416.275 936.462 433.042C958.372 447.064 985.402 467.109 989.751 482.964C991.195 488.225 989.926 492.653 985.982 496.117L985.881 496.204Z" fill="url(#paint20_linear)"/>
</mask>
<g mask="url(#mask10)">
<path d="M983.46 502.711C985.505 500.208 986.723 497.974 987.007 496.083C991.134 492.438 992.475 487.8 990.996 482.303C986.671 466.219 959.515 446.137 937.495 432.123C911.294 415.447 877.995 398.249 848.422 386.118C814.958 372.412 790.104 366.421 767.831 366.695C744.071 366.988 721.824 374.603 697.817 390.661C671.794 410.04 651.856 438.172 647.002 462.345C642.744 484.079 657.626 513.21 674.474 528.82C708.44 562.114 746.982 579.07 789.024 579.216C805.629 580.005 825.984 577.114 849.498 570.626C869.857 565.008 892.003 556.797 913.54 546.882C947.257 531.356 974.069 514.204 983.46 502.711ZM986.161 495.626L986.144 495.758C985.91 497.589 984.736 499.765 982.743 502.204C962.078 527.504 853.24 581.444 788.944 578.392C747.15 578.247 708.847 561.389 675.077 528.286L675.066 528.275C658.4 512.836 643.672 484.043 647.876 462.585C652.697 438.574 672.53 410.607 698.405 391.338C722.261 375.382 744.363 367.81 767.947 367.52C790.081 367.248 814.816 373.214 848.147 386.865C877.665 398.975 910.903 416.141 937.055 432.785C958.926 446.704 985.889 466.614 990.137 482.412C991.547 487.654 990.242 492.073 986.262 495.538L986.161 495.626Z" fill="url(#paint21_linear)"/>
</g>
<mask id="mask11" style="mask-type:alpha" maskUnits="userSpaceOnUse" x="691" y="385" width="274" height="150">
<path d="M961.443 510.387C963.465 507.882 964.393 504.978 964.214 501.686C963.766 493.433 955.966 478.512 921.36 454.294C898.163 438.061 868.221 421.616 841.266 410.305C809.41 396.938 788.708 388.663 769.847 386.459C750.337 384.179 733.415 388.468 711.441 401.261C699.328 408.311 692.596 418.563 691.428 431.726C688.904 460.191 712.982 493.252 719.077 499.911C730.463 512.349 746.8 521.622 767.635 527.474C785.568 532.51 806.876 535.042 830.965 534.999C874.509 534.921 919.748 526.295 947.567 518.249C954.115 516.355 958.75 513.725 961.443 510.387ZM700.036 411.81C703.115 407.994 707.071 404.675 711.892 401.868C733.725 389.158 750.516 384.895 769.849 387.154C788.598 389.345 809.249 397.601 841.034 410.939C890.179 431.561 962.057 475.725 963.466 501.634C963.866 508.988 958.416 514.354 947.263 517.579C919.493 525.612 874.332 534.223 830.867 534.3C806.853 534.344 785.622 531.822 767.763 526.806C747.091 521 730.893 511.813 719.62 499.499C713.57 492.89 689.672 460.085 692.174 431.871C692.859 424.147 695.493 417.438 700.036 411.81Z" fill="url(#paint22_linear)"/>
</mask>
<g mask="url(#mask11)">
<path d="M961.466 509.842C963.512 507.337 964.463 504.439 964.308 501.157C963.917 492.928 956.202 478.07 921.671 454.019C898.523 437.898 868.613 421.585 841.662 410.383C809.81 397.146 789.107 388.953 770.209 386.81C750.658 384.593 733.657 388.919 711.528 401.74C699.329 408.806 692.504 419.049 691.238 432.179C688.502 460.573 712.412 493.474 718.477 500.097C729.806 512.468 746.123 521.668 766.976 527.443C784.925 532.414 806.276 534.877 830.435 534.764C874.105 534.56 919.536 525.827 947.493 517.722C954.073 515.815 958.741 513.178 961.466 509.842ZM700.014 412.293C703.129 408.479 707.12 405.157 711.976 402.345C733.963 389.606 750.833 385.306 770.205 387.503C788.992 389.633 809.644 397.807 841.425 411.016C890.563 431.439 962.331 475.273 963.558 501.107C963.906 508.439 958.402 513.806 947.194 517.055C919.285 525.146 873.933 533.864 830.342 534.067C806.258 534.18 784.984 531.727 767.11 526.777C746.42 521.047 730.241 511.932 719.024 499.684C713.004 493.111 689.273 460.465 691.985 432.322C692.728 424.617 695.417 417.919 700.014 412.293Z" fill="url(#paint23_linear)"/>
</g>
<defs>
<linearGradient id="paint0_linear" x1="679.782" y1="161.292" x2="829.212" y2="1036.54" gradientUnits="userSpaceOnUse">
<stop stop-color="white"/>
<stop offset="0.0436" stop-color="#B4B4B4"/>
<stop offset="0.1507"/>
<stop offset="0.1714" stop-color="#171717"/>
<stop offset="0.3859" stop-color="white"/>
<stop offset="0.6326" stop-color="#E6E6E6"/>
<stop offset="0.8567" stop-color="#1A1A1A"/>
<stop offset="0.9987"/>
</linearGradient>
<linearGradient id="paint1_linear" x1="682.449" y1="162.937" x2="832.692" y2="1034.05" gradientUnits="userSpaceOnUse">
<stop stop-color="#0522AC"/>
<stop offset="1" stop-color="#34384C" stop-opacity="0"/>
</linearGradient>
<linearGradient id="paint2_linear" x1="689.248" y1="182.577" x2="827.184" y2="990.504" gradientUnits="userSpaceOnUse">
<stop stop-color="white"/>
<stop offset="0.0436" stop-color="#B4B4B4"/>
<stop offset="0.1507"/>
<stop offset="0.1714" stop-color="#171717"/>
<stop offset="0.3859" stop-color="white"/>
<stop offset="0.6326" stop-color="#E6E6E6"/>
<stop offset="0.8567" stop-color="#1A1A1A"/>
<stop offset="0.9987"/>
</linearGradient>
<linearGradient id="paint3_linear" x1="691.709" y1="184.095" x2="830.396" y2="988.213" gradientUnits="userSpaceOnUse">
<stop stop-color="#0522AC"/>
<stop offset="1" stop-color="#34384C" stop-opacity="0"/>
</linearGradient>
<linearGradient id="paint4_linear" x1="698.661" y1="203.621" x2="825.148" y2="944.487" gradientUnits="userSpaceOnUse">
<stop stop-color="white"/>
<stop offset="0.0436" stop-color="#B4B4B4"/>
<stop offset="0.1507"/>
<stop offset="0.1714" stop-color="#171717"/>
<stop offset="0.3859" stop-color="white"/>
<stop offset="0.6326" stop-color="#E6E6E6"/>
<stop offset="0.8567" stop-color="#1A1A1A"/>
<stop offset="0.9987"/>
</linearGradient>
<linearGradient id="paint5_linear" x1="700.918" y1="205.012" x2="828.094" y2="942.389" gradientUnits="userSpaceOnUse">
<stop stop-color="#0522AC"/>
<stop offset="1" stop-color="#34384C" stop-opacity="0"/>
</linearGradient>
<linearGradient id="paint6_linear" x1="708.096" y1="224.66" x2="823.137" y2="898.481" gradientUnits="userSpaceOnUse">
<stop stop-color="white"/>
<stop offset="0.0436" stop-color="#B4B4B4"/>
<stop offset="0.1507"/>
<stop offset="0.1714" stop-color="#171717"/>
<stop offset="0.3859" stop-color="white"/>
<stop offset="0.6326" stop-color="#E6E6E6"/>
<stop offset="0.8567" stop-color="#1A1A1A"/>
<stop offset="0.9987"/>
</linearGradient>
<linearGradient id="paint7_linear" x1="710.15" y1="225.922" x2="825.817" y2="896.572" gradientUnits="userSpaceOnUse">
<stop stop-color="#0522AC"/>
<stop offset="1" stop-color="#34384C" stop-opacity="0"/>
</linearGradient>
<linearGradient id="paint8_linear" x1="717.493" y1="245.448" x2="821.134" y2="852.495" gradientUnits="userSpaceOnUse">
<stop stop-color="white"/>
<stop offset="0.0436" stop-color="#B4B4B4"/>
<stop offset="0.1507"/>
<stop offset="0.1714" stop-color="#171717"/>
<stop offset="0.3859" stop-color="white"/>
<stop offset="0.6326" stop-color="#E6E6E6"/>
<stop offset="0.8567" stop-color="#1A1A1A"/>
<stop offset="0.9987"/>
</linearGradient>
<linearGradient id="paint9_linear" x1="719.342" y1="246.583" x2="823.547" y2="850.778" gradientUnits="userSpaceOnUse">
<stop stop-color="#0522AC"/>
<stop offset="1" stop-color="#34384C" stop-opacity="0"/>
</linearGradient>
<linearGradient id="paint10_linear" x1="726.904" y1="266.116" x2="819.168" y2="806.527" gradientUnits="userSpaceOnUse">
<stop stop-color="white"/>
<stop offset="0.0436" stop-color="#B4B4B4"/>
<stop offset="0.1507"/>
<stop offset="0.1714" stop-color="#171717"/>
<stop offset="0.3859" stop-color="white"/>
<stop offset="0.6326" stop-color="#E6E6E6"/>
<stop offset="0.8567" stop-color="#1A1A1A"/>
<stop offset="0.9987"/>
</linearGradient>
<linearGradient id="paint11_linear" x1="728.551" y1="267.125" x2="821.317" y2="805.001" gradientUnits="userSpaceOnUse">
<stop stop-color="#0522AC"/>
<stop offset="1" stop-color="#34384C" stop-opacity="0"/>
</linearGradient>
<linearGradient id="paint12_linear" x1="736.306" y1="286.49" x2="817.252" y2="760.605" gradientUnits="userSpaceOnUse">
<stop stop-color="white"/>
<stop offset="0.0436" stop-color="#B4B4B4"/>
<stop offset="0.1507"/>
<stop offset="0.1714" stop-color="#171717"/>
<stop offset="0.3859" stop-color="white"/>
<stop offset="0.6326" stop-color="#E6E6E6"/>
<stop offset="0.8567" stop-color="#1A1A1A"/>
<stop offset="0.9987"/>
</linearGradient>
<linearGradient id="paint13_linear" x1="737.75" y1="287.372" x2="819.137" y2="759.27" gradientUnits="userSpaceOnUse">
<stop stop-color="#0522AC"/>
<stop offset="1" stop-color="#34384C" stop-opacity="0"/>
</linearGradient>
<linearGradient id="paint14_linear" x1="745.737" y1="306.525" x2="815.431" y2="714.733" gradientUnits="userSpaceOnUse">
<stop stop-color="white"/>
<stop offset="0.0436" stop-color="#B4B4B4"/>
<stop offset="0.1507"/>
<stop offset="0.1714" stop-color="#171717"/>
<stop offset="0.3859" stop-color="white"/>
<stop offset="0.6326" stop-color="#E6E6E6"/>
<stop offset="0.8567" stop-color="#1A1A1A"/>
<stop offset="0.9987"/>
</linearGradient>
<linearGradient id="paint15_linear" x1="746.981" y1="307.281" x2="817.055" y2="713.588" gradientUnits="userSpaceOnUse">
<stop stop-color="#0522AC"/>
<stop offset="1" stop-color="#34384C" stop-opacity="0"/>
</linearGradient>
<linearGradient id="paint16_linear" x1="755.305" y1="326.252" x2="813.821" y2="668.985" gradientUnits="userSpaceOnUse">
<stop stop-color="white"/>
<stop offset="0.0436" stop-color="#B4B4B4"/>
<stop offset="0.1507"/>
<stop offset="0.1714" stop-color="#171717"/>
<stop offset="0.3859" stop-color="white"/>
<stop offset="0.6326" stop-color="#E6E6E6"/>
<stop offset="0.8567" stop-color="#1A1A1A"/>
<stop offset="0.9987"/>
</linearGradient>
<linearGradient id="paint17_linear" x1="756.35" y1="326.88" x2="815.185" y2="668.025" gradientUnits="userSpaceOnUse">
<stop stop-color="#0522AC"/>
<stop offset="1" stop-color="#34384C" stop-opacity="0"/>
</linearGradient>
<linearGradient id="paint18_linear" x1="765.225" y1="345.32" x2="812.716" y2="623.472" gradientUnits="userSpaceOnUse">
<stop stop-color="white"/>
<stop offset="0.0436" stop-color="#B4B4B4"/>
<stop offset="0.1507"/>
<stop offset="0.1714" stop-color="#171717"/>
<stop offset="0.3859" stop-color="white"/>
<stop offset="0.6326" stop-color="#E6E6E6"/>
<stop offset="0.8567" stop-color="#1A1A1A"/>
<stop offset="0.9987"/>
</linearGradient>
<linearGradient id="paint19_linear" x1="766.074" y1="345.825" x2="813.824" y2="622.701" gradientUnits="userSpaceOnUse">
<stop stop-color="#0522AC"/>
<stop offset="1" stop-color="#34384C" stop-opacity="0"/>
</linearGradient>
<linearGradient id="paint20_linear" x1="780.384" y1="362.6" x2="817.179" y2="578.108" gradientUnits="userSpaceOnUse">
<stop stop-color="white"/>
<stop offset="0.0436" stop-color="#B4B4B4"/>
<stop offset="0.1507"/>
<stop offset="0.1714" stop-color="#171717"/>
<stop offset="0.3859" stop-color="white"/>
<stop offset="0.6326" stop-color="#E6E6E6"/>
<stop offset="0.8567" stop-color="#1A1A1A"/>
<stop offset="0.9987"/>
</linearGradient>
<linearGradient id="paint21_linear" x1="781.041" y1="362.994" x2="818.037" y2="577.507" gradientUnits="userSpaceOnUse">
<stop stop-color="#0522AC"/>
<stop offset="1" stop-color="#34384C" stop-opacity="0"/>
</linearGradient>
<linearGradient id="paint22_linear" x1="797.103" y1="378.477" x2="824.963" y2="541.644" gradientUnits="userSpaceOnUse">
<stop stop-color="white"/>
<stop offset="0.0436" stop-color="#B4B4B4"/>
<stop offset="0.1507"/>
<stop offset="0.1714" stop-color="#171717"/>
<stop offset="0.3859" stop-color="white"/>
<stop offset="0.6326" stop-color="#E6E6E6"/>
<stop offset="0.8567" stop-color="#1A1A1A"/>
<stop offset="0.9987"/>
</linearGradient>
<linearGradient id="paint23_linear" x1="797.6" y1="378.77" x2="825.612" y2="541.194" gradientUnits="userSpaceOnUse">
<stop stop-color="#0522AC"/>
<stop offset="1" stop-color="#34384C" stop-opacity="0"/>
</linearGradient>
</defs>
</svg>
