<svg width="776" height="1083" viewBox="0 0 776 1083" fill="none" xmlns="http://www.w3.org/2000/svg">
<mask id="mask0" style="mask-type:alpha" maskUnits="userSpaceOnUse" x="-376" y="221" width="1044" height="698">
<path d="M-35.3646 864.71C-56.6024 857.848 -77.9471 850.361 -99.3551 842.261C-219.789 796.695 -290.438 740.994 -315.339 671.973C-336.916 612.166 -321.048 551.564 -307.048 498.095C-297.703 462.406 -288.877 428.694 -292.983 400.813C-306.651 307.998 -339.818 277.592 -359.634 259.425C-371.11 248.905 -378.689 241.956 -374.652 229.382C-370.695 217.06 -308.297 219.877 -178.284 238.247C-122.054 246.191 -82.3009 267.893 -50.3573 285.331C-34.355 294.067 -20.5124 301.624 -7.73193 305.72L-7.94505 306.58L-7.73193 305.72C27.4534 317.01 37.822 317.087 60.5399 317.256C79.4844 317.397 108.114 317.61 167.764 324.729C220.184 330.984 298.679 354.113 372.621 385.094C414.693 402.722 453.95 422.184 489.303 442.941C528.876 466.177 562.619 490.532 589.595 515.331C639.565 561.269 665.672 607.927 667.194 654.008C668.692 699.405 656.464 741.4 630.849 778.824C605.405 815.998 568.061 846.772 519.858 870.293C449.69 904.53 359.354 921.224 258.617 918.568C204.914 917.154 148.149 910.279 89.8979 898.136C48.9676 889.604 7.03159 878.407 -35.3646 864.71ZM-128.724 251.485C-143.705 246.645 -160.111 242.636 -178.233 240.075C-237.362 231.721 -281.678 226.691 -313.713 224.695C-359.921 221.817 -371.185 226.083 -372.497 230.17C-376.215 241.747 -369.79 247.636 -358.129 258.328C-338.089 276.7 -304.547 307.449 -290.779 400.943C-286.629 429.129 -295.491 462.977 -304.873 498.811C-318.819 552.072 -334.625 612.439 -313.221 671.767C-288.566 740.104 -218.425 795.327 -98.7853 840.593C-34.7835 864.808 28.7421 883.563 90.0269 896.338C148.116 908.447 204.717 915.302 258.259 916.714C358.625 919.359 448.607 902.735 518.479 868.643C566.429 845.247 603.569 814.644 628.866 777.684C654.314 740.506 666.462 698.791 664.973 653.701C663.469 608.131 637.601 561.944 588.086 516.424C561.256 491.759 527.675 467.524 488.278 444.391C453.04 423.702 413.903 404.299 371.954 386.723C298.249 355.841 220.05 332.79 167.877 326.564C108.375 319.463 79.8345 319.251 60.9484 319.11C37.9441 318.939 27.4446 318.861 -8.15697 307.438C-8.21728 307.418 -8.27973 307.398 -8.33964 307.379C-21.3622 303.171 -35.2402 295.595 -51.3007 286.828C-72.711 275.14 -97.6539 261.524 -128.724 251.485Z" fill="url(#paint0_linear)"/>
</mask>
<g mask="url(#mask0)">
<path d="M-35.9458 864.714C-57.1864 857.868 -78.5329 850.398 -99.942 842.315C-220.381 796.845 -290.99 741.208 -315.802 672.225C-337.302 612.451 -321.333 551.857 -307.244 498.394C-297.839 462.709 -288.956 429.002 -293.023 401.132C-306.559 308.354 -339.701 277.98 -359.502 259.832C-370.969 249.323 -378.542 242.381 -374.484 229.808C-370.505 217.487 -308.073 220.262 -178.008 238.538C-121.755 246.441 -82.0097 268.11 -50.0727 285.521C-34.0737 294.243 -20.2339 301.788 -7.45172 305.874L-7.66627 306.734L-7.45172 305.874C27.7383 317.137 38.1132 317.207 60.8449 317.361C79.8009 317.489 108.447 317.683 168.125 324.759C220.568 330.976 299.076 354.046 373.017 384.967C415.089 402.561 454.34 421.991 489.683 442.718C529.246 465.92 562.973 490.244 589.928 515.017C639.86 560.908 665.913 607.534 667.366 653.6C668.797 698.983 656.497 740.973 630.81 778.403C605.294 815.583 567.881 846.373 519.612 869.919C449.349 904.193 358.932 920.943 258.137 918.357C204.403 916.979 147.613 910.145 89.3438 898.045C48.401 889.543 6.45596 878.378 -35.9458 864.714ZM-128.437 251.738C-143.42 246.91 -159.829 242.912 -177.959 240.365C-237.112 232.054 -281.448 227.055 -313.5 225.081C-359.732 222.235 -371.009 226.508 -372.329 230.594C-376.066 242.17 -369.647 248.054 -357.994 258.734C-337.969 277.087 -304.453 307.804 -290.818 401.261C-286.707 429.435 -295.627 463.279 -305.069 499.109C-319.104 552.363 -335.011 612.723 -313.683 672.017C-289.116 740.318 -219.014 795.476 -99.3693 840.647C-35.3645 864.812 28.1721 883.518 89.4756 896.248C147.582 908.313 204.208 915.129 257.781 916.503C358.205 919.08 448.268 902.4 518.235 868.271C566.25 844.849 603.459 814.23 628.827 777.264C654.347 740.08 666.565 698.371 665.144 653.295C663.708 607.739 637.893 561.584 588.417 516.112C561.607 491.472 528.042 467.267 488.656 444.168C453.427 423.508 414.295 404.138 372.347 386.596C298.643 355.773 220.43 332.782 168.234 326.594C108.707 319.535 80.1484 319.342 61.2509 319.214C38.2326 319.058 27.7267 318.987 -7.8796 307.592C-7.93994 307.572 -8.0024 307.552 -8.06229 307.533C-21.0866 303.336 -34.9617 295.771 -51.019 287.018C-72.4248 275.348 -97.3626 261.753 -128.437 251.738Z" fill="url(#paint1_linear)"/>
</g>
<mask id="mask1" style="mask-type:alpha" maskUnits="userSpaceOnUse" x="-340" y="247" width="965" height="639">
<path d="M-16.0681 836.49C-33.2339 830.944 -50.4778 824.951 -67.7729 818.516C-176.704 778.19 -241.696 728.707 -266.461 667.245C-287.976 613.85 -276.125 559.14 -265.669 510.871C-258.385 477.248 -251.506 445.489 -256.963 418.937C-273 334.386 -304.703 304.819 -323.644 287.153C-335.092 276.476 -342.656 269.422 -338.951 257.148C-337.01 250.165 -318.837 246.874 -284.944 247.379C-254.453 247.834 -212.431 251.359 -163.419 257.576C-112.208 263.904 -75.7225 282.663 -46.4069 297.735C-32.2345 305.021 -19.995 311.313 -8.44792 315.057L-8.44709 315.056C28.151 326.971 37.8041 327.619 66.4278 329.583C85.6603 330.903 111.999 332.709 159.856 338.734C208.88 344.896 282.063 366.535 350.843 395.208C390.183 411.607 426.824 429.657 459.75 448.86C496.692 470.405 528.121 492.957 553.166 515.888C598.348 557.257 622.271 599.264 624.272 640.74C626.162 682.44 615.49 721.088 592.551 755.612C569.757 789.919 536.037 818.388 492.33 840.228C429.175 871.785 347.663 887.513 256.607 885.712C208.058 884.751 156.678 878.846 103.898 868.16C64.7659 860.237 24.5865 849.625 -16.0681 836.49ZM-112.419 270.579C-127.643 265.66 -144.483 261.627 -163.329 259.298C-266.995 246.15 -333.509 245.596 -336.917 257.852C-340.349 269.224 -333.523 275.59 -322.214 286.137C-303.079 303.983 -271.052 333.852 -254.905 418.985C-249.389 445.827 -256.299 477.722 -263.612 511.49C-274.025 559.561 -285.828 614.046 -264.495 666.991C-239.977 727.834 -175.46 776.884 -67.2524 816.943C-9.12851 838.568 48.4911 855.23 104.006 866.47C156.635 877.124 207.858 883.011 256.256 883.969C346.964 885.764 428.144 870.104 491.025 838.685C534.493 816.964 568.023 788.659 590.683 754.555C613.467 720.263 624.068 681.88 622.19 640.47C620.212 599.47 596.515 557.9 551.754 516.917C518.673 486.627 456.856 441.189 350.223 396.738C281.657 368.156 208.745 346.59 159.946 340.455C112.161 334.439 85.863 332.636 66.6614 331.319C38.5787 329.392 28.0519 328.658 -8.85606 316.667C-20.6176 312.853 -32.9507 306.513 -47.2314 299.171C-65.534 289.762 -86.658 278.903 -112.419 270.579Z" fill="url(#paint2_linear)"/>
</mask>
<g mask="url(#mask1)">
<path d="M-16.601 836.494C-33.7692 830.961 -51.0147 824.981 -68.3109 818.56C-177.249 778.319 -242.207 728.896 -266.895 667.468C-288.343 614.104 -276.402 559.403 -265.867 511.14C-258.528 477.522 -251.597 445.768 -257.017 419.228C-272.936 334.713 -304.614 305.176 -323.541 287.528C-334.98 276.862 -342.537 269.816 -338.812 257.542C-336.859 250.561 -318.67 247.258 -284.757 247.74C-254.248 248.174 -212.204 251.67 -163.172 257.852C-111.938 264.144 -75.4582 282.872 -46.147 297.92C-31.9768 305.194 -19.7391 311.476 -8.19049 315.211L-8.18966 315.211C28.4133 327.097 38.0714 327.738 66.71 329.682C85.9525 330.988 112.305 332.776 160.183 338.767C209.228 344.894 282.423 366.478 351.204 395.095C390.543 411.463 427.18 429.483 460.097 448.658C497.029 470.171 528.445 492.695 553.47 515.603C598.618 556.93 622.493 598.907 624.432 640.37C626.261 682.056 615.524 720.7 592.518 755.229C569.659 789.541 535.875 818.025 492.108 839.887C428.866 871.478 347.28 887.257 256.17 885.517C207.592 884.589 156.189 878.72 103.392 868.074C64.2476 860.179 24.0591 849.598 -16.601 836.494ZM-112.159 270.817C-127.386 265.91 -144.23 261.889 -163.084 259.573C-266.795 246.5 -333.349 245.99 -336.778 258.245C-340.229 269.616 -333.408 275.976 -322.108 286.512C-302.988 304.339 -270.987 334.178 -254.958 419.274C-249.478 446.105 -256.44 477.995 -263.81 511.758C-274.302 559.822 -286.193 614.298 -264.927 667.213C-240.486 728.021 -176.002 777.014 -67.7877 816.988C-9.66021 838.567 47.9701 855.185 103.503 866.384C156.148 877 207.395 882.85 255.821 883.775C346.582 885.508 427.837 869.798 490.804 838.346C534.332 816.602 567.926 788.283 590.651 754.174C613.501 719.877 624.166 681.498 622.349 640.102C620.433 599.115 596.783 557.573 552.056 516.633C519 486.374 457.213 440.992 350.58 396.626C282.015 368.099 209.09 346.588 160.27 340.488C112.464 334.506 86.1526 332.721 66.941 331.417C38.8438 329.51 28.3116 328.784 -8.60129 316.821C-20.3645 313.016 -32.6956 306.687 -46.9742 299.356C-65.274 289.962 -86.3948 279.12 -112.159 270.817Z" fill="url(#paint3_linear)"/>
</g>
<mask id="mask2" style="mask-type:alpha" maskUnits="userSpaceOnUse" x="-305" y="271" width="887" height="582">
<path d="M3.80654 808.522C-9.43777 804.244 -22.7563 799.664 -36.1789 794.773C-133.68 759.641 -192.994 716.328 -217.508 662.362C-238.869 615.337 -230.945 566.52 -223.954 523.45C-218.847 491.985 -214.023 462.265 -220.91 437.07C-239.183 360.84 -269.419 332.173 -287.485 315.045C-298.982 304.143 -306.577 296.942 -303.209 284.931C-299.274 268.317 -220.259 269.132 -148.515 276.93C-102.063 281.635 -68.7062 297.532 -41.9034 310.306C-29.7483 316.099 -19.2504 321.102 -9.12502 324.424L-9.12281 324.424C32.3865 338.126 40.3914 339.07 84.8243 344.347C101.555 346.334 122.378 348.807 151.973 352.761C182.234 356.793 222.878 367.104 266.417 381.797C315.411 398.33 363.751 418.968 406.214 441.482C456.467 468.125 496.869 496.378 526.297 525.456C560.577 559.329 579.101 593.656 581.352 627.483C583.641 665.49 574.528 700.796 554.268 732.427C534.125 763.873 504.028 790.041 464.815 810.204C408.665 839.073 335.973 853.829 254.597 852.873C176.304 851.955 92.0992 837.049 3.80654 808.522ZM-95.2046 289.746C-110.85 284.692 -128.399 280.57 -148.382 278.547C-233.828 269.259 -298.135 272.208 -301.297 285.557C-304.437 296.754 -297.548 303.287 -286.133 314.109C-267.903 331.393 -237.393 360.32 -219.004 437.034C-212.043 462.501 -216.888 492.357 -222.02 523.967C-228.98 566.848 -236.869 615.45 -215.697 662.057C-191.435 715.47 -132.561 758.398 -35.7116 793.296C66.937 830.698 164.486 850.192 254.251 851.245C335.3 852.197 407.683 837.508 463.577 808.771C502.569 788.723 532.49 762.711 552.51 731.457C572.63 700.046 581.68 664.988 579.407 627.255C577.184 593.839 558.849 559.891 524.913 526.359C495.654 497.448 455.448 469.339 405.413 442.811C363.075 420.363 314.869 399.782 266.006 383.293C222.619 368.656 182.147 358.381 152.038 354.369C122.461 350.417 101.648 347.945 84.9251 345.959C40.2804 340.656 32.241 339.698 -9.51612 325.926C-19.8008 322.552 -30.3677 317.516 -42.603 311.685C-57.6669 304.507 -74.8182 296.333 -95.2046 289.746Z" fill="url(#paint4_linear)"/>
</mask>
<g mask="url(#mask2)">
<path d="M3.32163 808.526C-9.9245 804.258 -23.2446 799.688 -36.6682 794.808C-134.177 759.752 -193.464 716.491 -217.912 662.558C-239.216 615.56 -231.214 566.753 -224.154 523.69C-218.996 492.231 -214.125 462.516 -220.978 437.334C-239.148 361.138 -269.36 332.499 -287.411 315.388C-298.899 304.498 -306.488 297.304 -303.1 285.294C-299.137 268.682 -220.075 269.444 -148.297 277.191C-101.823 281.863 -68.4691 297.734 -41.6687 310.486C-29.5146 316.269 -19.0177 321.264 -8.89095 324.578L-8.88877 324.578C32.626 338.248 40.6344 339.186 85.0873 344.432C101.826 346.407 122.658 348.865 152.265 352.799C182.539 356.808 223.194 367.089 266.737 381.748C315.737 398.244 364.077 418.844 406.532 441.322C456.777 467.923 497.161 496.142 526.564 525.191C560.815 559.031 579.299 593.336 581.501 627.151C583.734 665.145 574.563 700.448 554.242 732.083C534.039 763.533 503.884 789.713 464.617 809.897C408.388 838.796 335.628 853.596 254.202 852.695C175.862 851.83 91.6268 836.985 3.32163 808.526ZM-94.9724 289.968C-110.62 284.925 -128.174 280.817 -148.166 278.808C-233.652 269.58 -298.004 272.572 -301.188 285.919C-304.346 297.115 -297.462 303.641 -286.057 314.452C-267.842 331.718 -237.356 360.617 -219.07 437.296C-212.143 462.751 -217.037 492.602 -222.219 524.205C-229.248 567.079 -237.215 615.672 -216.1 662.251C-191.903 715.632 -133.056 758.509 -36.1983 793.331C66.4584 830.653 164.039 850.075 253.858 851.068C334.957 851.965 407.408 837.232 463.38 808.465C502.426 788.397 532.405 762.373 552.484 731.114C572.664 699.699 581.772 664.645 579.555 626.924C577.381 593.52 559.085 559.594 525.178 526.095C495.945 497.212 455.756 469.138 405.729 442.651C363.398 420.238 315.192 399.696 266.324 383.245C222.931 368.641 182.45 358.396 152.328 354.406C122.738 350.475 101.916 348.018 85.1857 346.043C40.521 340.772 32.4781 339.82 -9.28458 326.08C-19.5706 322.714 -30.1366 317.686 -42.3708 311.865C-57.4333 304.699 -74.5831 296.539 -94.9724 289.968Z" fill="url(#paint5_linear)"/>
</g>
<mask id="mask3" style="mask-type:alpha" maskUnits="userSpaceOnUse" x="-269" y="294" width="808" height="527">
<path d="M22.9635 780.372C13.8346 777.423 4.65922 774.312 -4.56991 771.037C-90.7368 741.043 -144.352 703.834 -168.474 657.286C-189.57 616.575 -185.638 575.497 -181.835 535.771C-179.041 506.584 -176.402 479.016 -184.811 455.219C-205.135 387.392 -232.785 360.78 -251.081 343.171C-263.154 331.551 -270.441 324.539 -267.409 312.74C-264.384 297.403 -205.585 290.177 -133.555 296.322C-91.3808 299.369 -60.8762 312.56 -36.3646 323.158C-26.988 327.213 -18.1307 331.043 -9.74765 333.831L-9.74498 333.832L-5.50404 335.256C43.2715 351.636 47.2535 352.971 144.125 366.82C171.345 370.693 209.312 380.409 248.279 393.455C293.099 408.469 337.292 427.065 376.08 447.233C422.167 471.196 459.33 496.564 486.535 522.63C518.271 553.036 535.733 583.859 538.436 614.243C541.131 648.563 533.583 680.535 516.002 709.279C498.514 737.873 472.04 761.747 437.316 780.237C388.162 806.41 324.283 820.183 252.586 820.064C181.279 819.946 104.153 806.604 22.9635 780.372ZM-76.398 309.045C-92.7701 303.755 -111.495 299.412 -133.373 297.831C-203.442 291.854 -262.762 298.79 -265.623 313.29C-268.467 324.357 -261.445 331.115 -249.813 342.311C-232.493 358.981 -203.504 386.881 -183.065 455.095C-174.566 479.144 -177.219 506.846 -180.026 536.176C-183.811 575.714 -187.724 616.598 -166.826 656.925C-142.957 702.987 -89.7469 739.861 -4.15658 769.654C86.9088 801.967 173.172 818.418 252.245 818.549C323.638 818.667 387.231 804.962 436.149 778.914C470.667 760.534 496.98 736.808 514.356 708.397C531.81 679.859 539.303 648.119 536.629 614.057C533.961 584.058 516.682 553.586 485.273 523.494C458.224 497.578 421.241 472.339 375.354 448.48C336.677 428.369 292.606 409.825 247.904 394.851C209.069 381.841 171.254 372.169 144.167 368.314C47.0828 354.436 43.0798 353.093 -5.87995 336.65L-10.1183 335.228C-18.6017 332.407 -27.5058 328.556 -36.9328 324.48C-48.5361 319.463 -61.4918 313.861 -76.398 309.045Z" fill="url(#paint6_linear)"/>
</mask>
<g mask="url(#mask3)">
<path d="M22.5266 780.376C13.3963 777.433 4.21978 774.329 -5.01028 771.062C-91.1868 741.134 -144.781 703.971 -168.848 657.453C-189.897 616.767 -185.9 575.698 -182.036 535.981C-179.196 506.801 -176.515 479.239 -184.893 455.454C-205.128 387.66 -232.756 361.075 -251.038 343.483C-263.101 331.874 -270.382 324.868 -267.33 313.071C-264.281 297.736 -205.434 290.474 -133.367 296.568C-91.1709 299.586 -60.6666 312.753 -36.1554 323.332C-26.7789 327.379 -17.9219 331.202 -9.5376 333.983L-9.53494 333.984L-5.29345 335.405C43.4885 351.748 47.4709 353.08 144.383 366.86C171.615 370.714 209.591 380.401 248.563 393.418C293.389 408.398 337.582 426.959 376.365 447.095C422.445 471.021 459.594 496.356 486.777 522.396C518.487 552.773 535.914 583.576 538.573 613.949C541.218 648.257 533.618 680.225 515.983 708.973C498.441 737.571 471.915 761.456 437.141 779.964C387.917 806.162 323.977 819.974 252.235 819.903C180.883 819.833 103.728 806.545 22.5266 780.376ZM-76.193 309.249C-92.5675 303.971 -111.298 299.643 -133.188 298.077C-203.291 292.149 -262.659 299.122 -265.544 313.62C-268.406 324.686 -261.39 331.437 -249.767 342.622C-232.461 359.275 -203.496 387.148 -183.146 455.329C-174.677 479.366 -177.374 507.062 -180.226 536.385C-184.072 575.915 -188.049 616.789 -167.199 657.091C-143.383 703.124 -90.1945 739.951 -4.59463 769.679C86.48 801.922 172.773 818.311 251.896 818.388C323.333 818.458 386.987 804.714 435.975 778.641C470.543 760.243 496.907 736.507 514.337 708.092C531.844 679.551 539.39 647.815 536.766 613.764C534.141 583.776 516.896 553.324 485.512 523.261C458.485 497.371 421.516 472.163 375.636 448.342C336.965 428.263 292.893 409.753 248.185 394.813C209.346 381.833 171.522 372.189 144.423 368.354C47.2979 354.545 43.2944 353.204 -5.6717 336.8L-9.91065 335.38C-18.3951 332.566 -27.2991 328.722 -36.726 324.654C-48.3291 319.645 -61.2846 314.053 -76.193 309.249Z" fill="url(#paint7_linear)"/>
</g>
<mask id="mask4" style="mask-type:alpha" maskUnits="userSpaceOnUse" x="-233" y="315" width="730" height="473">
<path d="M42.0999 752.31C37.1116 750.699 32.1108 749.034 27.0861 747.311C-140.886 691.457 -139.984 615.11 -139.189 547.75C-138.874 521.004 -138.576 495.743 -148.607 473.404C-170.709 414.106 -196.92 388.567 -214.264 371.667C-226.681 359.569 -234.176 352.265 -231.481 340.611C-230.282 333.079 -217.898 325.995 -197.508 321.213C-175.857 316.136 -147.79 314.21 -118.473 315.793C-79.4816 317.082 -52.3832 327.457 -28.4737 336.611C-22.1305 339.04 -16.1381 341.334 -10.2572 343.321L-10.2525 343.323C-1.40663 346.348 6.2663 349.117 13.036 351.559C44.305 362.84 63.1771 369.647 136.354 380.942C183.031 388.102 268.544 413.718 345.987 453.038C387.904 474.319 421.821 496.798 446.794 519.848C475.98 546.785 492.377 574.101 495.53 601.038C498.64 631.677 492.665 660.323 477.772 686.189C462.944 711.943 440.093 733.531 409.855 750.355C367.686 773.817 312.615 786.592 250.595 787.296C186.306 788.028 116.231 776.261 42.0999 752.31ZM-54.9922 328.44C-72.6447 322.736 -92.9211 318.03 -118.237 317.193C-181.223 313.794 -227.59 327.058 -229.823 341.088C-232.366 352.091 -225.108 359.163 -213.083 370.88C-195.624 387.891 -169.239 413.6 -147.03 473.19C-136.895 495.755 -137.195 521.148 -137.512 548.032C-137.915 582.148 -138.331 617.425 -117.845 651.545C-94.5401 690.361 -47.0175 721.264 27.4393 746.023C106.905 773.257 181.87 786.671 250.25 785.894C311.988 785.193 366.795 772.485 408.748 749.142C438.797 732.423 461.501 710.976 476.23 685.395C491.013 659.722 496.943 631.291 493.857 600.895C489.81 566.325 460.757 512.804 345.331 454.2C268.107 414.992 182.875 389.455 136.365 382.32C62.9786 370.992 44.0279 364.157 12.636 352.831C5.87481 350.393 -1.78783 347.628 -10.6143 344.609C-16.5382 342.607 -22.5507 340.305 -28.915 337.868C-37.1106 334.731 -45.6881 331.447 -54.9922 328.44Z" fill="url(#paint8_linear)"/>
</mask>
<g mask="url(#mask4)">
<path d="M41.7107 752.314C36.7217 750.706 31.7201 749.045 26.6948 747.326C-141.302 691.599 -140.286 615.272 -139.391 547.93C-139.035 521.191 -138.699 495.936 -148.704 473.61C-170.732 414.343 -196.922 388.828 -214.252 371.945C-226.659 359.858 -234.148 352.562 -231.434 340.909C-230.223 333.377 -217.82 326.288 -197.41 321.493C-175.738 316.403 -147.65 314.459 -118.317 316.022C-79.3023 317.285 -52.2021 327.639 -28.2908 336.775C-21.9472 339.199 -15.9544 341.489 -10.0727 343.471L-10.0679 343.473C-1.22094 346.491 6.45281 349.254 13.2232 351.691C44.4954 362.948 63.3695 369.741 136.576 380.985C183.273 388.112 268.802 413.664 346.236 452.921C388.149 474.169 422.054 496.619 447.009 519.646C476.174 546.556 492.54 573.855 495.655 600.782C498.722 631.41 492.7 660.052 477.759 685.921C462.884 711.678 439.986 733.275 409.704 750.115C367.473 773.599 312.347 786.406 250.288 787.152C185.956 787.926 115.854 776.209 41.7107 752.314ZM-54.8141 328.624C-72.4695 322.933 -92.7518 318.241 -118.083 317.422C-181.104 314.065 -227.52 327.357 -229.776 341.385C-232.337 352.386 -225.085 359.452 -213.069 371.157C-195.624 388.152 -169.26 413.837 -147.126 473.395C-137.018 495.948 -137.355 521.334 -137.713 548.211C-138.166 582.318 -138.636 617.585 -118.187 651.682C-94.9246 690.472 -47.4176 721.336 27.0501 746.038C106.526 773.212 181.519 786.573 249.944 785.751C311.722 785.009 366.584 772.267 408.598 748.903C438.691 732.169 461.441 710.712 476.217 685.129C491.048 659.453 497.024 631.026 493.981 600.64C489.983 566.082 460.991 512.595 345.579 454.084C268.363 414.938 183.115 389.464 136.586 382.362C63.1689 371.086 44.2162 364.265 12.821 352.964C6.05917 350.53 -1.60426 347.771 -10.4319 344.759C-16.3566 342.761 -22.3696 340.464 -28.7343 338.032C-36.9305 334.901 -45.5085 331.623 -54.8141 328.624Z" fill="url(#paint9_linear)"/>
</g>
<mask id="mask5" style="mask-type:alpha" maskUnits="userSpaceOnUse" x="-196" y="335" width="650" height="420">
<path d="M53.3936 721.896C-7.5051 702.221 -47.9191 677.472 -70.0444 646.332C-90.17 618.007 -93.0905 588.133 -95.9159 559.242C-98.2698 535.168 -100.493 512.428 -112.249 491.646C-135.7 441.08 -160.42 416.811 -176.779 400.752C-189.83 387.939 -197.708 380.205 -195.354 368.58C-193.388 352.526 -153.558 334.899 -103.205 335.394C-64.0266 334.495 -38.2967 343.381 -13.4129 351.977L-10.5858 352.953C1.39494 357.143 11.2957 361.176 20.8723 365.077C46.5416 375.532 70.7879 385.407 128.7 395.174C170.902 402.237 247.501 425.202 315.956 458.935C373.65 487.366 444.196 532.818 452.636 587.897C459.716 641.804 434.133 690.174 382.448 720.613C347.246 741.345 300.972 753.1 248.628 754.606C191.402 756.254 128.351 746.088 61.1957 724.391C60.3995 724.134 59.6058 723.876 58.8092 723.616C56.9852 723.046 55.1809 722.474 53.3936 721.896ZM-28.7496 348.09C-49.2018 341.482 -71.7836 335.968 -102.899 336.682C-156.729 336.154 -192.131 355.142 -193.827 368.988C-196.062 380.033 -188.394 387.56 -175.689 400.033C-159.244 416.178 -134.392 440.575 -110.85 491.342C-98.9816 512.318 -96.7464 535.18 -94.3794 559.384C-91.5713 588.113 -88.6655 617.822 -68.7567 645.842C-46.2247 677.555 -4.41437 702.587 59.1007 722.42C59.8914 722.678 60.6923 722.938 61.4821 723.193C128.44 744.827 191.265 754.958 248.282 753.316C300.367 751.817 346.402 740.127 381.409 719.51C406.993 704.443 426.086 685.261 438.158 662.496C450.262 639.673 454.617 614.541 451.105 587.799C442.763 533.352 372.691 488.254 315.377 460.012C247.109 426.37 170.747 403.473 128.685 396.434C70.5514 386.63 46.2039 376.712 20.4277 366.214C10.8755 362.323 0.997872 358.3 -10.9331 354.127L-13.7537 353.153C-18.6847 351.452 -23.6522 349.737 -28.7496 348.09Z" fill="url(#paint10_linear)"/>
</mask>
<g mask="url(#mask5)">
<path d="M53.0503 721.906C-7.85902 702.275 -48.2629 677.56 -70.3568 646.442C-90.454 618.137 -93.3326 588.273 -96.1174 559.391C-98.4375 535.324 -100.628 512.592 -112.362 491.823C-135.754 441.285 -160.455 417.039 -176.8 400.995C-189.841 388.193 -197.713 380.467 -195.34 368.843C-193.349 352.792 -153.467 335.144 -103.083 335.605C-63.8776 334.68 -38.144 343.548 -13.2567 352.125L-10.4292 353.099C1.55321 357.28 11.4545 361.306 21.0316 365.2C46.7022 375.635 70.9497 385.492 128.885 395.218C171.104 402.251 247.719 425.161 316.169 458.84C373.859 487.226 444.384 532.62 452.748 587.679C459.754 641.568 434.083 689.942 382.32 720.407C347.065 741.157 300.744 752.939 248.364 754.479C191.098 756.164 128.021 746.042 60.8538 724.395C60.0574 724.138 59.2637 723.88 58.4669 723.621C56.6426 723.053 54.8379 722.482 53.0503 721.906ZM-28.5976 348.249C-49.0534 341.656 -71.6418 336.159 -102.779 336.893C-156.642 336.4 -192.095 355.407 -193.813 369.25C-196.065 380.293 -188.403 387.814 -175.708 400.276C-159.276 416.405 -134.445 440.78 -110.962 491.518C-99.1161 512.481 -96.913 535.336 -94.5801 559.532C-91.8123 588.252 -88.9482 617.951 -69.0676 645.951C-46.5676 677.641 -4.76683 702.64 58.7603 722.425C59.5511 722.682 60.3522 722.942 61.1422 723.196C128.112 744.781 190.962 754.868 248.019 753.19C300.14 751.657 346.222 739.939 381.282 719.305C406.904 704.225 426.038 685.035 438.152 662.268C450.297 639.443 454.692 614.315 451.217 587.582C442.949 533.155 372.898 488.115 315.588 459.917C247.325 426.328 170.947 403.487 128.869 396.477C70.7113 386.714 46.3625 376.815 20.5849 366.336C11.0323 362.452 1.15418 358.437 -10.7784 354.273L-13.5994 353.302C-18.5311 351.604 -23.4993 349.892 -28.5976 348.249Z" fill="url(#paint11_linear)"/>
</g>
<mask id="mask6" style="mask-type:alpha" maskUnits="userSpaceOnUse" x="-160" y="353" width="572" height="370">
<path d="M74.1743 695.146C29.7255 680.786 -1.47574 662.785 -20.9268 640.341C-40.291 617.996 -46.3402 593.615 -52.1883 570.037C-57.1856 549.893 -62.3523 529.063 -75.8971 510.011C-99.9877 468.503 -123.097 445.844 -138.388 430.851C-152.614 416.902 -161.202 408.483 -159.193 396.697C-157.855 381.375 -129.405 357.554 -87.8779 355.187C-58.2197 351.942 -35.1718 354.218 -10.8418 362.793L-10.8366 362.796C2.06057 367.426 12.9597 372.475 24.5001 377.819C48.888 389.113 74.1079 400.793 121.081 409.583C159.017 416.615 226.788 436.958 285.943 465.005C337.205 489.309 400.292 528.109 409.733 574.93C417.749 621.654 397.831 664.029 355.085 691.204C326.809 709.181 289.296 719.887 246.601 722.164C199.375 724.683 146.838 717.251 90.4489 700.074C84.8406 698.482 79.4117 696.838 74.1743 695.146ZM-15.4994 362.398C-37.9955 355.129 -59.8177 353.329 -87.4796 356.354C-128.453 358.691 -156.483 382.01 -157.796 397.039C-159.716 408.31 -151.788 416.084 -137.395 430.195C-122.043 445.247 -98.8423 467.995 -74.6885 509.619C-61.0327 528.823 -55.8383 549.765 -50.8143 570.018C-45.0001 593.455 -38.9885 617.69 -19.8429 639.781C1.66916 664.604 37.8175 683.96 90.6753 698.974C146.881 716.094 199.218 723.501 246.247 720.992C288.708 718.728 326.005 708.087 354.107 690.22C396.525 663.252 416.295 621.215 408.346 574.887C399.018 528.634 336.36 490.143 285.44 466C226.438 438.026 158.857 417.738 121.036 410.726C73.8328 401.895 48.5063 390.166 24.0132 378.821C12.5128 373.495 1.64957 368.464 -11.1684 363.861C-12.6163 363.35 -14.0597 362.863 -15.4994 362.398Z" fill="url(#paint12_linear)"/>
</mask>
<g mask="url(#mask6)">
<path d="M73.8789 695.151C29.4215 680.824 -1.77437 662.846 -21.2059 640.42C-40.5507 618.093 -46.5687 593.722 -52.3867 570.153C-57.3582 550.017 -62.4982 529.196 -76.0245 510.156C-100.071 468.674 -123.163 446.036 -138.443 431.055C-152.657 417.119 -161.239 408.708 -159.211 396.923C-157.85 381.604 -129.348 357.77 -87.7899 355.377C-58.1075 352.114 -35.0476 354.374 -10.7139 362.932L-10.7088 362.934C2.19028 367.556 13.0894 372.596 24.6296 377.931C49.0174 389.207 74.2371 400.868 121.229 409.626C159.179 416.632 226.966 436.927 286.12 464.929C337.38 489.194 400.453 527.945 409.833 574.748C417.787 621.455 397.794 663.834 354.981 691.03C326.66 709.021 289.107 719.748 246.38 722.052C199.119 724.601 146.558 717.204 90.1571 700.068C84.5475 698.48 79.1174 696.84 73.8789 695.151ZM-15.374 362.54C-37.8744 355.287 -59.7085 353.501 -87.393 356.544C-128.397 358.907 -156.479 382.238 -157.814 397.264C-159.752 408.534 -151.83 416.3 -137.448 430.399C-122.107 445.438 -98.9242 468.165 -74.8145 509.764C-61.1775 528.954 -56.0099 549.889 -51.0117 570.134C-45.2275 593.561 -39.2468 617.786 -20.1205 639.86C1.36997 664.663 37.5142 683.992 90.3853 698.968C146.604 716.047 198.964 723.419 246.028 720.881C288.52 718.589 325.857 707.927 354.003 690.047C396.488 663.058 416.332 621.018 408.444 574.706C399.177 528.47 336.533 490.028 285.614 465.924C226.614 437.994 159.017 417.755 121.182 410.769C73.9602 401.97 48.6338 390.26 24.141 378.933C12.6407 373.616 1.77752 368.593 -11.0423 364C-12.4904 363.49 -13.934 363.004 -15.374 362.54Z" fill="url(#paint13_linear)"/>
</g>
<mask id="mask7" style="mask-type:alpha" maskUnits="userSpaceOnUse" x="-126" y="368" width="496" height="325">
<path d="M92.9512 669.979C21.2813 646.824 6.06199 614.41 -9.95434 580.305C-17.8534 563.485 -26.0209 546.092 -41.2762 529.091C-64.7636 497.164 -85.1599 477.54 -100.052 463.212C-117.231 446.684 -126.693 437.579 -125.036 425.227C-124.585 416.755 -119.209 405.688 -111.006 396.377C-101.092 385.124 -88.0742 377.644 -74.352 375.315C-51.9046 369.477 -33.0756 365.592 -12.6348 373.006L-12.6297 373.008C0.238603 377.775 12.2922 384.074 25.0535 390.74C48.0868 402.774 74.1944 416.413 112.321 424.493C138.735 430.032 198.578 446.22 255.302 471.75C284.813 485.033 309.039 498.882 327.307 512.91C348.887 529.483 362.108 546.319 366.603 562.951C375.719 602.708 361.468 639.3 327.51 663.362C306.017 678.591 277.099 688.224 243.882 691.22C207.149 694.535 165.768 690.02 120.889 677.805C110.723 675.335 101.44 672.722 92.9512 669.979ZM-15.2048 373.193C-34.3624 367.003 -52.4072 370.777 -73.8254 376.346C-105.198 381.674 -123.005 411.181 -123.768 425.507C-125.363 437.399 -116.057 446.353 -99.1634 462.607C-84.2331 476.972 -63.785 496.646 -40.2693 528.617C-24.9259 545.713 -16.7177 563.19 -8.78103 580.092C0.268113 599.362 8.81584 617.563 27.0941 634.059C47.6916 652.648 77.5433 666.226 121.04 676.794C165.758 688.965 206.955 693.461 243.512 690.164C276.518 687.186 305.245 677.62 326.586 662.498C360.258 638.639 374.391 602.362 365.36 562.971C360.94 546.617 347.881 530.01 326.55 513.628C308.383 499.678 284.269 485.896 254.878 472.668C198.287 447.198 138.593 431.05 112.243 425.524C73.8892 417.397 47.67 403.699 24.5393 391.614C11.8286 384.973 -0.178639 378.7 -12.9449 373.969C-13.6998 373.694 -14.4528 373.435 -15.2048 373.193Z" fill="url(#paint14_linear)"/>
</mask>
<g mask="url(#mask7)">
<path d="M92.7082 669.97C21.025 646.868 5.84269 614.471 -10.1346 580.384C-18.0144 563.574 -26.1621 546.19 -41.4026 529.203C-64.8591 497.3 -85.2402 477.694 -100.121 463.378C-117.287 446.865 -126.742 437.769 -125.066 425.419C-124.603 416.948 -119.207 405.881 -110.985 396.567C-101.048 385.311 -88.0114 377.824 -74.2768 375.486C-51.8062 369.635 -32.9592 365.739 -12.5158 373.137L-12.5107 373.14C0.359116 377.898 12.4115 384.187 25.1715 390.843C48.2023 402.859 74.3073 416.478 112.448 424.532C138.871 430.052 198.729 446.197 255.453 471.685C284.965 484.945 309.186 498.774 327.445 512.788C349.016 529.342 362.221 546.166 366.695 562.791C375.759 602.533 361.446 639.125 327.431 663.202C305.901 678.442 276.95 688.092 243.707 691.109C206.945 694.446 165.543 689.959 120.653 677.777C110.484 675.314 101.198 672.707 92.7082 669.97ZM-15.0877 373.326C-34.249 367.15 -52.311 370.936 -73.7514 376.517C-105.152 381.864 -123.014 411.375 -123.798 425.698C-125.411 437.588 -116.112 446.534 -99.2312 462.773C-84.312 477.125 -63.8791 496.781 -40.3944 528.729C-25.0658 545.811 -16.8775 563.278 -8.96021 580.171C0.0668758 599.43 8.59378 617.622 26.8601 634.101C47.4441 652.672 77.2956 666.228 120.806 676.765C165.535 688.905 206.753 693.373 243.338 690.053C276.371 687.054 305.13 677.472 326.507 662.34C360.236 638.464 374.431 602.187 365.451 562.812C361.052 546.465 348.008 529.87 326.687 513.506C308.529 499.571 284.419 485.808 255.027 472.602C198.436 447.175 138.727 431.07 112.367 425.562C74.0005 417.462 47.7839 403.784 24.6556 391.717C11.9463 385.086 -0.059746 378.822 -12.8275 374.101C-13.5825 373.826 -14.3356 373.568 -15.0877 373.326Z" fill="url(#paint15_linear)"/>
</g>
<mask id="mask8" style="mask-type:alpha" maskUnits="userSpaceOnUse" x="-91" y="381" width="419" height="282">
<path d="M110.624 645.656C67.354 631.678 50.7715 611.669 30.8873 587.68C20.5064 575.158 9.77364 562.211 -6.07441 548.359C-25.8865 527.539 -42.5241 512.394 -55.8936 500.225C-78.8307 479.346 -91.4658 467.844 -90.1831 454.077C-89.863 438.363 -80.4815 404.001 -60.259 395.848C-59.0005 395.107 -57.7452 394.352 -56.4902 393.599C-43.3769 385.729 -29.81 377.594 -13.8836 383.584L-13.8784 383.587C-1.50939 388.346 11.6638 396.032 25.6115 404.17C48.1793 417.337 73.7557 432.26 103.941 439.71C136.633 447.688 300.86 490.555 323.494 551.09C333.955 583.993 325.526 614.946 300.379 636.035C285.375 648.619 265.54 656.862 241.427 660.538C215.148 664.544 184.957 662.865 151.694 655.547C135.71 652.711 122.208 649.399 110.624 645.656ZM-15.6202 383.936C-30.3443 379.179 -43.2354 386.916 -55.7172 394.408C-56.9836 395.169 -58.2513 395.929 -59.5212 396.678L-59.5828 396.709C-79.4909 404.701 -88.7283 438.715 -89.0473 454.302C-90.2903 467.65 -77.8004 479.019 -55.1259 499.659C-41.7414 511.843 -25.083 527.007 -5.28386 547.818C10.6016 561.698 21.3685 574.687 31.7815 587.248C56.803 617.434 76.5698 641.277 151.746 654.625C184.873 661.912 214.898 663.584 241.023 659.603C264.949 655.955 284.624 647.78 299.501 635.303C324.411 614.413 332.759 583.753 322.406 551.185C313.387 527.066 280.444 502.964 224.501 479.571C175.258 458.979 123.704 445.471 103.824 440.619C73.4286 433.116 47.7471 418.135 25.0904 404.916C11.1981 396.81 -1.92524 389.154 -14.1782 384.439C-14.6602 384.258 -15.141 384.091 -15.6202 383.936Z" fill="url(#paint16_linear)"/>
</mask>
<g mask="url(#mask8)">
<path d="M110.43 645.633C67.1516 631.686 50.5871 611.693 30.7245 587.723C20.3549 575.211 9.63381 562.273 -6.20463 548.435C-25.9996 527.632 -42.6263 512.503 -55.9869 500.345C-78.9089 479.485 -91.5357 467.995 -90.2323 454.23C-89.8892 438.519 -80.4518 404.159 -60.2042 395.996C-58.9438 395.253 -57.6865 394.498 -56.4297 393.745C-43.2964 385.867 -29.7087 377.726 -13.7805 383.705L-13.7754 383.707C-1.40507 388.457 11.7657 396.133 25.7108 404.26C48.2744 417.409 73.846 432.312 104.041 439.741C136.742 447.696 301.015 490.447 323.577 550.953C333.997 583.841 325.518 614.792 300.324 635.892C285.292 648.482 265.432 656.737 241.297 660.428C214.995 664.45 184.787 662.791 151.513 655.496C135.522 652.67 122.016 649.368 110.43 645.633ZM-15.5188 384.057C-30.2457 379.311 -43.1565 387.055 -55.6574 394.553C-56.9257 395.314 -58.1953 396.075 -59.4671 396.824L-59.5288 396.855C-79.4616 404.859 -88.7542 438.87 -89.096 454.454C-90.3592 467.8 -77.8775 479.158 -55.218 499.778C-41.8422 511.951 -25.1949 527.1 -5.41278 547.894C10.4631 561.76 21.2183 574.739 31.6199 587.29C56.6142 617.452 76.3595 641.277 151.566 654.574C184.704 661.838 214.747 663.49 240.894 659.493C264.841 655.83 284.541 647.645 299.446 635.161C324.402 614.26 332.8 583.602 322.488 551.048C313.498 526.941 280.568 502.866 224.622 479.514C175.376 458.959 123.808 445.488 103.922 440.65C73.5175 433.168 47.8407 418.207 25.1882 405.006C11.2985 396.911 -1.82237 389.265 -14.0765 384.559C-14.5587 384.379 -15.0395 384.212 -15.5188 384.057Z" fill="url(#paint17_linear)"/>
</g>
<mask id="mask9" style="mask-type:alpha" maskUnits="userSpaceOnUse" x="-56" y="393" width="345" height="242">
<path d="M123.55 623.43C98.0151 615.181 79.1609 602.061 53.0967 583.923C45.6892 578.769 38.0301 573.438 29.3496 567.601C23.2722 562.826 17.572 558.372 12.2047 554.178C-34.4965 517.687 -55.8118 501.032 -54.977 483.016C-55.1272 469.409 -55.5822 427.967 -45.7722 416.625C-38.7238 403.345 -28.8131 388.843 -14.7886 394.375L-14.7835 394.377C-3.11753 399.082 11.4008 408.457 26.7724 418.381C48.4512 432.377 73.019 448.237 95.7529 455.053C100.082 456.336 105.277 457.81 111.293 459.517C135.939 466.511 173.184 477.081 206.605 490.517C246.591 506.592 271.393 522.988 280.321 539.247C292.545 565.163 290.274 591.497 274.259 609.718C256.499 629.922 223.921 638.267 182.524 633.22C158.016 631.829 139.482 628.578 123.55 623.43ZM-16.1074 394.747C-28.8559 390.628 -38.1479 404.461 -44.8593 417.111L-44.8999 417.17C-54.5777 428.295 -54.1249 469.611 -53.9746 483.189C-54.7909 500.799 -33.6062 517.352 12.8106 553.62C18.1783 557.815 23.8799 562.27 29.9194 567.017C38.5699 572.833 46.2332 578.165 53.6454 583.323C95.7745 612.639 118.98 628.787 182.439 632.389C223.539 637.399 255.833 629.143 273.413 609.145C289.254 591.123 291.496 565.067 279.41 539.444C270.624 523.444 246.03 507.225 206.322 491.261C172.966 477.852 135.763 467.294 111.144 460.308C105.124 458.599 99.9253 457.124 95.5862 455.838C72.6608 448.965 48.0145 433.053 26.2618 419.009C10.9477 409.121 -3.5191 399.78 -15.0644 395.123C-15.4144 394.983 -15.7629 394.858 -16.1074 394.747Z" fill="url(#paint18_linear)"/>
</mask>
<g mask="url(#mask9)">
<path d="M123.399 623.397C97.8588 615.166 79.0107 602.06 52.9549 583.943C45.5498 578.795 37.8931 573.471 29.2152 567.64C23.1405 562.87 17.4428 558.42 12.0779 554.231C-34.6025 517.777 -55.9084 501.139 -55.0474 483.127C-55.1784 469.523 -55.5748 428.09 -45.7421 416.744C-38.67 403.463 -28.7321 388.958 -14.7061 394.48L-14.701 394.482C-3.03396 399.179 11.4807 408.542 26.8485 418.454C48.5218 432.434 73.0834 448.275 95.8229 455.074C100.153 456.355 105.349 457.825 111.367 459.528C136.02 466.504 173.274 477.048 206.698 490.46C246.688 506.507 271.484 522.883 280.394 539.133C292.59 565.036 290.279 591.366 274.228 609.593C256.428 629.803 223.816 638.167 182.399 633.147C157.876 631.773 139.334 628.534 123.399 623.397ZM-16.0264 394.853C-28.7775 390.743 -38.0954 404.579 -44.8292 417.23L-44.8699 417.289C-54.57 428.418 -54.1757 469.725 -54.0446 483.299C-54.8865 500.906 -33.7111 517.442 12.685 553.673C18.0503 557.863 23.7493 562.314 29.7862 567.056C38.4341 572.865 46.095 578.191 53.5048 583.343C95.6204 612.626 118.819 628.755 182.314 632.317C223.434 637.3 255.762 629.025 273.382 609.02C289.259 590.992 291.54 564.94 279.483 539.331C270.713 523.34 246.126 507.14 206.414 491.205C173.055 477.82 135.843 467.287 111.216 460.318C105.195 458.614 99.995 457.143 95.6549 455.86C72.724 449.003 48.0838 433.11 26.3367 419.082C11.0264 409.206 -3.43679 399.877 -14.9832 395.228C-15.3332 395.089 -15.6818 394.964 -16.0264 394.853Z" fill="url(#paint19_linear)"/>
</g>
<mask id="mask10" style="mask-type:alpha" maskUnits="userSpaceOnUse" x="-32" y="404" width="287" height="213">
<path d="M111.934 606.258C97.1417 601.479 81.4255 594.899 64.5285 586.43C5.53927 553.645 -19.6816 531.287 -19.827 511.658C-20.2015 502.551 -23.423 484.282 -26.2665 468.163C-28.5165 455.4 -30.6436 443.345 -31.1147 437.303C-32.1848 431.949 -31.9342 425.027 -30.4378 418.826C-28.7991 412.035 -25.9893 407.238 -22.5265 405.321C-20.3888 404.137 -18.0545 404.065 -15.5909 405.102L-15.5882 405.103C-4.59044 409.814 11.9862 421.585 29.5356 434.047C50.3884 448.854 71.951 464.166 87.4824 470.208C95.9388 473.47 109.659 477.267 125.547 481.663C164.981 492.576 218.993 507.522 236.861 527.175C252.447 546.535 258.131 568.822 251.711 585.359C246.319 599.255 232.902 607.969 212.911 610.561C189.451 616.231 168.402 617.468 146.716 614.445C135.654 612.905 124.107 610.191 111.934 606.258ZM-16.576 405.468C-18.47 404.857 -20.2775 405.017 -21.9601 405.948C-29.024 409.859 -32.4265 426.487 -30.2574 437.357C-29.7832 443.407 -27.6598 455.447 -25.4116 468.195C-22.565 484.333 -19.3393 502.625 -18.9626 511.782C-18.8191 531.11 6.25558 553.255 64.8816 585.839C95.5443 601.207 122.312 610.335 146.694 613.733C168.251 616.738 189.187 615.505 212.577 609.855C232.342 607.289 245.573 598.706 250.882 585.024C257.223 568.687 251.593 546.652 236.19 527.517C218.552 508.119 164.727 493.225 125.423 482.348C109.507 477.943 95.7621 474.141 87.25 470.856C71.5843 464.76 49.9627 449.408 29.0535 434.561C11.5546 422.135 -4.97467 410.398 -15.8582 405.736C-16.0978 405.634 -16.3376 405.545 -16.576 405.468Z" fill="url(#paint20_linear)"/>
</mask>
<g mask="url(#mask10)">
<path d="M111.806 606.233C97.0103 601.463 81.2924 594.894 64.3955 586.437C5.41084 553.694 -19.7966 531.355 -19.9153 511.73C-20.2776 502.625 -23.4764 484.362 -26.2998 468.247C-28.5339 455.488 -30.646 443.436 -31.1091 437.396C-32.1727 432.043 -31.9124 425.123 -30.4065 418.922C-28.7575 412.131 -25.9391 407.334 -22.4714 405.415C-20.3306 404.23 -17.9946 404.157 -15.5307 405.192L-15.5281 405.193C-4.52924 409.896 12.0426 421.655 29.5869 434.104C50.4337 448.896 71.99 464.191 87.5238 470.223C95.9814 473.479 109.706 477.267 125.598 481.653C165.044 492.54 219.073 507.45 236.926 527.088C252.497 546.435 258.153 568.715 251.707 585.253C246.292 599.149 232.854 607.87 212.846 610.473C189.363 616.157 168.297 617.407 146.6 614.397C135.533 612.864 123.982 610.158 111.806 606.233ZM-16.5171 405.558C-18.4114 404.948 -20.2204 405.109 -21.9055 406.041C-28.9795 409.955 -32.407 426.583 -30.2513 437.45C-29.7851 443.497 -27.6767 455.534 -25.4444 468.279C-22.6179 484.412 -19.415 502.698 -19.0505 511.853C-18.9333 531.178 6.12819 553.304 64.7496 585.846C95.4121 601.193 122.186 610.302 146.58 613.685C168.148 616.676 189.099 615.431 212.513 609.768C232.295 607.191 245.546 598.601 250.878 584.919C257.246 568.58 251.642 546.553 236.254 527.431C218.63 508.047 164.79 493.189 125.474 482.337C109.553 477.943 95.8038 474.15 87.2903 470.871C71.6223 464.786 50.007 449.449 29.1038 434.618C11.6099 422.204 -4.91452 410.48 -15.7991 405.826C-16.0387 405.724 -16.2786 405.634 -16.5171 405.558Z" fill="url(#paint21_linear)"/>
</g>
<mask id="mask11" style="mask-type:alpha" maskUnits="userSpaceOnUse" x="-25" y="414" width="270" height="202">
<path d="M104.669 605.615C102.827 605.02 100.993 604.399 99.1631 603.752C69.3833 593.225 47.0858 581.534 32.8888 569.006C21.7434 559.169 15.7327 549.035 15.0255 538.884C13.8676 522.262 -4.9105 473.124 -16.3691 456.73C-20.6394 450.621 -23.4514 441.883 -24.0832 432.758C-24.6551 424.501 -23.261 417.637 -20.5312 415.27C-19.3169 414.217 -17.8397 414.048 -16.2706 414.776C-5.27732 419.874 16.9561 437.257 38.4569 454.067C55.1286 467.101 70.8762 479.413 79.1359 484.152C88.5024 489.526 109.829 493.722 132.407 498.165C155.665 502.742 179.716 507.474 193.234 513.979C207.374 520.784 222.342 533.081 232.297 546.072C243.931 561.255 247.583 575.622 242.583 586.527C236.731 599.288 217.926 609.403 192.281 613.585C165.152 618.009 134.253 615.173 104.669 605.615ZM-17.0218 415.1C-18.1044 414.75 -19.0709 414.96 -19.9637 415.735C-25.2526 420.321 -25.1516 443.064 -15.7582 456.502C-4.25724 472.956 14.5893 522.279 15.7517 538.964C16.4471 548.948 22.375 558.93 33.3706 568.633C47.4761 581.082 69.6693 592.71 99.3323 603.197C130.413 614.186 163.336 617.664 192.016 612.986C217.088 608.898 236.2 598.641 241.897 586.22C246.817 575.492 243.198 561.325 231.706 546.327C221.83 533.437 206.986 521.24 192.969 514.494C179.563 508.043 155.574 503.323 132.374 498.758C109.717 494.3 88.3169 490.09 78.8083 484.635C70.4913 479.864 54.7179 467.531 38.0189 454.476C16.5598 437.698 -5.62934 420.349 -16.5218 415.299C-16.6912 415.219 -16.8577 415.153 -17.0218 415.1Z" fill="url(#paint22_linear)"/>
</mask>
<g mask="url(#mask11)">
<path d="M104.549 605.602C102.707 605.008 100.872 604.388 99.0417 603.743C69.2546 593.233 46.9564 581.556 32.7654 569.037C21.6247 559.208 15.6226 549.079 14.9276 538.929C13.7899 522.311 -4.93933 473.189 -16.3852 456.804C-20.6508 450.698 -23.4537 441.963 -24.0745 432.839C-24.6364 424.583 -23.2327 417.72 -20.4981 415.351C-19.2816 414.298 -17.8031 414.128 -16.2338 414.855C-5.23941 419.946 16.9874 437.314 38.4819 454.11C55.1487 467.134 70.8917 479.436 79.1511 484.169C88.5173 489.537 109.854 493.721 132.441 498.151C155.71 502.713 179.772 507.431 193.29 513.928C207.432 520.724 222.394 533.012 232.339 545.996C243.962 561.17 247.6 575.534 242.582 586.44C236.71 599.202 217.879 609.326 192.212 613.522C165.058 617.961 134.141 615.143 104.549 605.602ZM-16.986 415.18C-18.0689 414.831 -19.0364 415.041 -19.9307 415.816C-25.229 420.404 -25.1566 443.144 -15.7736 456.576C-4.28542 473.021 14.5121 522.327 15.6542 539.009C16.3376 548.992 22.257 558.969 33.248 568.665C47.3475 581.104 69.5414 592.718 99.2116 603.187C130.3 614.158 163.241 617.616 191.947 612.924C217.041 608.822 236.18 598.555 241.896 586.133C246.833 575.404 243.229 561.24 231.748 546.251C221.881 533.368 207.043 521.181 193.024 514.443C179.617 508.001 155.618 503.294 132.408 498.744C109.74 494.299 88.3309 490.101 78.8226 484.652C70.506 479.886 54.7372 467.564 38.0431 454.519C16.5903 437.756 -5.59227 420.422 -16.4859 415.378C-16.6553 415.298 -16.8218 415.233 -16.986 415.18Z" fill="url(#paint23_linear)"/>
</g>
<defs>
<linearGradient id="paint0_linear" x1="-103.905" y1="156.025" x2="111.035" y2="984.82" gradientUnits="userSpaceOnUse">
<stop stop-color="white"/>
<stop offset="0.0436" stop-color="#B4B4B4"/>
<stop offset="0.1507"/>
<stop offset="0.1714" stop-color="#171717"/>
<stop offset="0.3859" stop-color="white"/>
<stop offset="0.6326" stop-color="#E6E6E6"/>
<stop offset="0.8567" stop-color="#1A1A1A"/>
<stop offset="0.9987"/>
</linearGradient>
<linearGradient id="paint1_linear" x1="-103.458" y1="156.291" x2="111.576" y2="984.375" gradientUnits="userSpaceOnUse">
<stop stop-color="#0522AC"/>
<stop offset="1" stop-color="#34384C" stop-opacity="0"/>
</linearGradient>
<linearGradient id="paint2_linear" x1="-79.5689" y1="185.887" x2="117.537" y2="945.854" gradientUnits="userSpaceOnUse">
<stop stop-color="white"/>
<stop offset="0.0436" stop-color="#B4B4B4"/>
<stop offset="0.1507"/>
<stop offset="0.1714" stop-color="#171717"/>
<stop offset="0.3859" stop-color="white"/>
<stop offset="0.6326" stop-color="#E6E6E6"/>
<stop offset="0.8567" stop-color="#1A1A1A"/>
<stop offset="0.9987"/>
</linearGradient>
<linearGradient id="paint3_linear" x1="-79.1614" y1="186.128" x2="118.031" y2="945.448" gradientUnits="userSpaceOnUse">
<stop stop-color="#0522AC"/>
<stop offset="1" stop-color="#34384C" stop-opacity="0"/>
</linearGradient>
<linearGradient id="paint4_linear" x1="-55.4834" y1="215.382" x2="123.913" y2="906.995" gradientUnits="userSpaceOnUse">
<stop stop-color="white"/>
<stop offset="0.0436" stop-color="#B4B4B4"/>
<stop offset="0.1507"/>
<stop offset="0.1714" stop-color="#171717"/>
<stop offset="0.3859" stop-color="white"/>
<stop offset="0.6326" stop-color="#E6E6E6"/>
<stop offset="0.8567" stop-color="#1A1A1A"/>
<stop offset="0.9987"/>
</linearGradient>
<linearGradient id="paint5_linear" x1="-55.115" y1="215.598" x2="124.361" y2="906.628" gradientUnits="userSpaceOnUse">
<stop stop-color="#0522AC"/>
<stop offset="1" stop-color="#34384C" stop-opacity="0"/>
</linearGradient>
<linearGradient id="paint6_linear" x1="-31.7375" y1="244.36" x2="130.125" y2="868.282" gradientUnits="userSpaceOnUse">
<stop stop-color="white"/>
<stop offset="0.0436" stop-color="#B4B4B4"/>
<stop offset="0.1507"/>
<stop offset="0.1714" stop-color="#171717"/>
<stop offset="0.3859" stop-color="white"/>
<stop offset="0.6326" stop-color="#E6E6E6"/>
<stop offset="0.8567" stop-color="#1A1A1A"/>
<stop offset="0.9987"/>
</linearGradient>
<linearGradient id="paint7_linear" x1="-31.4082" y1="244.553" x2="130.526" y2="867.954" gradientUnits="userSpaceOnUse">
<stop stop-color="#0522AC"/>
<stop offset="1" stop-color="#34384C" stop-opacity="0"/>
</linearGradient>
<linearGradient id="paint8_linear" x1="-8.70133" y1="272.176" x2="135.999" y2="829.809" gradientUnits="userSpaceOnUse">
<stop stop-color="white"/>
<stop offset="0.0436" stop-color="#B4B4B4"/>
<stop offset="0.1507"/>
<stop offset="0.1714" stop-color="#171717"/>
<stop offset="0.3859" stop-color="white"/>
<stop offset="0.6326" stop-color="#E6E6E6"/>
<stop offset="0.8567" stop-color="#1A1A1A"/>
<stop offset="0.9987"/>
</linearGradient>
<linearGradient id="paint9_linear" x1="-8.41034" y1="272.343" x2="136.354" y2="829.521" gradientUnits="userSpaceOnUse">
<stop stop-color="#0522AC"/>
<stop offset="1" stop-color="#34384C" stop-opacity="0"/>
</linearGradient>
<linearGradient id="paint10_linear" x1="13.0595" y1="298.08" x2="141.211" y2="791.745" gradientUnits="userSpaceOnUse">
<stop stop-color="white"/>
<stop offset="0.0436" stop-color="#B4B4B4"/>
<stop offset="0.1507"/>
<stop offset="0.1714" stop-color="#171717"/>
<stop offset="0.3859" stop-color="white"/>
<stop offset="0.6326" stop-color="#E6E6E6"/>
<stop offset="0.8567" stop-color="#1A1A1A"/>
<stop offset="0.9987"/>
</linearGradient>
<linearGradient id="paint11_linear" x1="13.312" y1="298.225" x2="141.521" y2="791.498" gradientUnits="userSpaceOnUse">
<stop stop-color="#0522AC"/>
<stop offset="1" stop-color="#34384C" stop-opacity="0"/>
</linearGradient>
<linearGradient id="paint12_linear" x1="31.7572" y1="321.823" x2="144.203" y2="754.729" gradientUnits="userSpaceOnUse">
<stop stop-color="white"/>
<stop offset="0.0436" stop-color="#B4B4B4"/>
<stop offset="0.1507"/>
<stop offset="0.1714" stop-color="#171717"/>
<stop offset="0.3859" stop-color="white"/>
<stop offset="0.6326" stop-color="#E6E6E6"/>
<stop offset="0.8567" stop-color="#1A1A1A"/>
<stop offset="0.9987"/>
</linearGradient>
<linearGradient id="paint13_linear" x1="31.9728" y1="321.945" x2="144.468" y2="754.521" gradientUnits="userSpaceOnUse">
<stop stop-color="#0522AC"/>
<stop offset="1" stop-color="#34384C" stop-opacity="0"/>
</linearGradient>
<linearGradient id="paint14_linear" x1="35.7657" y1="346.503" x2="133.524" y2="722.955" gradientUnits="userSpaceOnUse">
<stop stop-color="white"/>
<stop offset="0.0436" stop-color="#B4B4B4"/>
<stop offset="0.1507"/>
<stop offset="0.1714" stop-color="#171717"/>
<stop offset="0.3859" stop-color="white"/>
<stop offset="0.6326" stop-color="#E6E6E6"/>
<stop offset="0.8567" stop-color="#1A1A1A"/>
<stop offset="0.9987"/>
</linearGradient>
<linearGradient id="paint15_linear" x1="35.9553" y1="346.61" x2="133.756" y2="722.771" gradientUnits="userSpaceOnUse">
<stop stop-color="#0522AC"/>
<stop offset="1" stop-color="#34384C" stop-opacity="0"/>
</linearGradient>
<linearGradient id="paint16_linear" x1="36.4704" y1="364.432" x2="121.681" y2="692.524" gradientUnits="userSpaceOnUse">
<stop stop-color="white"/>
<stop offset="0.0436" stop-color="#B4B4B4"/>
<stop offset="0.1507"/>
<stop offset="0.1714" stop-color="#171717"/>
<stop offset="0.3859" stop-color="white"/>
<stop offset="0.6326" stop-color="#E6E6E6"/>
<stop offset="0.8567" stop-color="#1A1A1A"/>
<stop offset="0.9987"/>
</linearGradient>
<linearGradient id="paint17_linear" x1="36.6335" y1="364.524" x2="121.882" y2="692.363" gradientUnits="userSpaceOnUse">
<stop stop-color="#0522AC"/>
<stop offset="1" stop-color="#34384C" stop-opacity="0"/>
</linearGradient>
<linearGradient id="paint18_linear" x1="35.2297" y1="378.114" x2="109.555" y2="664.124" gradientUnits="userSpaceOnUse">
<stop stop-color="white"/>
<stop offset="0.0436" stop-color="#B4B4B4"/>
<stop offset="0.1507"/>
<stop offset="0.1714" stop-color="#171717"/>
<stop offset="0.3859" stop-color="white"/>
<stop offset="0.6326" stop-color="#E6E6E6"/>
<stop offset="0.8567" stop-color="#1A1A1A"/>
<stop offset="0.9987"/>
</linearGradient>
<linearGradient id="paint19_linear" x1="35.369" y1="378.191" x2="109.727" y2="663.989" gradientUnits="userSpaceOnUse">
<stop stop-color="#0522AC"/>
<stop offset="1" stop-color="#34384C" stop-opacity="0"/>
</linearGradient>
<linearGradient id="paint20_linear" x1="34.2475" y1="390.292" x2="99.424" y2="640.749" gradientUnits="userSpaceOnUse">
<stop stop-color="white"/>
<stop offset="0.0436" stop-color="#B4B4B4"/>
<stop offset="0.1507"/>
<stop offset="0.1714" stop-color="#171717"/>
<stop offset="0.3859" stop-color="white"/>
<stop offset="0.6326" stop-color="#E6E6E6"/>
<stop offset="0.8567" stop-color="#1A1A1A"/>
<stop offset="0.9987"/>
</linearGradient>
<linearGradient id="paint21_linear" x1="34.3627" y1="390.354" x2="99.5668" y2="640.64" gradientUnits="userSpaceOnUse">
<stop stop-color="#0522AC"/>
<stop offset="1" stop-color="#34384C" stop-opacity="0"/>
</linearGradient>
<linearGradient id="paint22_linear" x1="41.1998" y1="398.732" x2="103.478" y2="637.378" gradientUnits="userSpaceOnUse">
<stop stop-color="white"/>
<stop offset="0.0436" stop-color="#B4B4B4"/>
<stop offset="0.1507"/>
<stop offset="0.1714" stop-color="#171717"/>
<stop offset="0.3859" stop-color="white"/>
<stop offset="0.6326" stop-color="#E6E6E6"/>
<stop offset="0.8567" stop-color="#1A1A1A"/>
<stop offset="0.9987"/>
</linearGradient>
<linearGradient id="paint23_linear" x1="41.2962" y1="398.781" x2="103.599" y2="637.289" gradientUnits="userSpaceOnUse">
<stop stop-color="#0522AC"/>
<stop offset="1" stop-color="#34384C" stop-opacity="0"/>
</linearGradient>
</defs>
</svg>
