<svg width="790" height="913" viewBox="0 0 790 913" fill="none" xmlns="http://www.w3.org/2000/svg">
<mask id="mask0" style="mask-type:alpha" maskUnits="userSpaceOnUse" x="-328" y="115" width="808" height="662">
<path d="M478.911 308.147C479.548 297.118 479.785 286.44 479.614 276.17C478.678 219.776 465.833 177.411 441.438 150.252C416.478 122.466 379.844 111.41 332.551 117.392C188.967 135.551 99.3315 158.087 40.0184 172.998C13.3219 179.71 -7.76402 185.011 -24.2427 187.433L-23.9678 188.04L-24.2427 187.433C-51.6578 191.462 -89.1753 216.178 -122.153 251.935C-157.642 290.415 -180.245 333.038 -184.167 368.874C-189.576 418.302 -213.952 470.298 -233.448 505.214C-256.159 545.886 -285.871 587.465 -312.928 616.438C-330.395 635.142 -332.144 655.777 -317.983 676.115C-293.462 711.329 -224.533 741.094 -138.093 753.793C-97.1215 759.812 -54.7557 766.036 -13.7695 770.333C31.5439 775.083 70.2389 776.884 104.527 775.84C145.47 774.594 181.373 769.372 214.288 759.876C251.039 749.274 283.289 733.62 312.88 712.019C363.421 675.126 421.78 565.77 454.795 446.084C468.3 397.126 476.493 350.096 478.911 308.147ZM-325.552 646.864C-324.964 636.665 -320.224 626.666 -311.357 617.171C-284.245 588.139 -254.478 546.486 -231.731 505.749C-212.195 470.762 -187.769 418.652 -182.344 369.084C-178.442 333.429 -155.929 290.995 -120.576 252.663C-87.818 217.144 -50.6944 192.614 -23.6929 188.646C-7.09751 186.207 14.0376 180.894 40.796 174.167C100.056 159.268 189.61 136.753 333.051 118.611C379.48 112.739 415.429 123.575 439.902 150.819C464.108 177.767 476.854 219.906 477.787 276.064C478.605 325.312 470.033 383.987 452.997 445.744C420.034 565.242 361.842 674.373 311.486 711.13C282.049 732.617 249.978 748.186 213.438 758.728C180.712 768.169 145.002 773.361 104.268 774.602C27.8491 776.929 -56.4005 764.552 -137.876 752.582C-223.709 739.972 -292.093 710.505 -316.344 675.678C-323.038 666.063 -326.101 656.376 -325.552 646.864Z" fill="url(#paint0_linear)"/>
</mask>
<g mask="url(#mask0)">
<path d="M479.231 308.399C479.862 297.37 480.094 286.694 479.917 276.425C478.95 220.034 466.069 177.664 441.631 150.491C416.629 122.691 379.947 111.611 332.604 117.561C188.868 135.623 99.144 158.097 39.772 172.968C13.049 179.662 -8.05784 184.948 -24.5538 187.359L-24.2783 187.966L-24.5538 187.359C-51.9976 191.369 -89.5442 216.058 -122.54 251.79C-158.049 290.244 -180.654 332.848 -184.562 368.678C-189.951 418.099 -214.326 470.075 -233.826 504.975C-256.54 545.628 -286.264 587.184 -313.336 616.137C-330.812 634.827 -332.552 655.46 -318.364 675.806C-293.798 711.034 -224.775 740.842 -138.231 753.597C-97.2102 759.644 -54.7933 765.895 -13.7586 770.219C31.6083 774.999 70.3479 776.826 104.673 775.805C145.662 774.586 181.603 769.388 214.55 759.915C251.337 749.338 283.615 733.707 313.228 712.128C363.806 675.271 422.172 565.963 455.161 446.309C468.655 397.363 476.832 350.342 479.231 308.399ZM-325.958 646.552C-325.375 636.354 -320.635 626.36 -311.762 616.871C-284.635 587.859 -254.857 546.23 -232.106 505.511C-212.567 470.54 -188.141 418.45 -182.737 368.89C-178.849 333.24 -156.333 290.824 -120.961 252.52C-88.1849 217.025 -51.0325 192.522 -24.0027 188.572C-7.38994 186.144 13.7662 180.845 40.5511 174.137C99.8698 159.279 189.513 136.826 333.106 118.781C379.583 112.939 415.579 123.799 440.094 151.057C464.342 178.019 477.125 220.163 478.088 276.317C478.933 325.562 470.383 384.227 453.361 445.968C420.424 565.434 362.224 674.517 311.832 711.238C282.373 732.704 250.274 748.25 213.699 758.766C180.941 768.185 145.193 773.353 104.414 774.566C27.9103 776.842 -56.4407 764.41 -138.014 752.387C-223.95 739.721 -292.427 710.21 -316.724 675.37C-323.431 665.751 -326.502 656.063 -325.958 646.552Z" fill="url(#paint1_linear)"/>
</g>
<mask id="mask1" style="mask-type:alpha" maskUnits="userSpaceOnUse" x="-300" y="139" width="749" height="607">
<path d="M447.642 312.08C448.145 303.358 448.368 294.884 448.308 286.69C447.929 235.007 436.576 196.184 414.562 171.301C392.307 146.144 359.532 135.99 317.149 141.123C188.872 155.974 103.166 175.919 46.4533 189.117C19.8297 195.313 -1.19872 200.207 -17.8812 202.591C-44.8394 206.456 -80.9121 229.252 -112.023 262.085C-145.336 297.242 -166.881 336.85 -171.135 370.753C-176.457 416.317 -198.465 464.245 -215.99 496.429C-236.577 534.237 -262.407 571.595 -286.858 598.922C-302.28 616.169 -303.418 635.153 -290.148 653.824C-267.111 686.235 -203.686 713.603 -124.624 725.247L-124.625 725.247C-50.0406 736.281 27.0856 747.692 98.6632 745.45C136.365 744.269 169.463 739.447 199.851 730.71C233.748 720.963 263.525 706.604 290.882 686.813C338.029 652.952 392.833 552.495 424.154 442.522C437.369 396.119 445.364 351.571 447.642 312.08ZM-297.542 626.075C-297.019 616.99 -292.955 608.079 -285.366 599.593C-260.868 572.213 -234.992 534.791 -214.372 496.922C-196.813 464.674 -174.761 416.644 -169.424 370.959C-165.192 337.228 -143.734 297.797 -110.554 262.779C-79.6511 230.166 -43.9473 207.54 -17.3748 203.731C-0.597524 201.333 20.4721 196.43 47.1462 190.222C103.812 177.035 189.444 157.107 317.601 142.271C359.175 137.236 391.308 147.18 413.112 171.826C434.95 196.511 446.214 235.121 446.591 286.583C446.925 331.805 438.582 385.616 422.467 442.195C391.197 551.992 336.552 652.237 289.58 685.972C262.365 705.66 232.755 719.94 199.055 729.631C168.843 738.318 135.925 743.112 98.4193 744.286C27.0664 746.521 -49.943 735.128 -124.417 724.11L-124.418 724.109C-202.916 712.548 -265.833 685.455 -288.614 653.403C-295.091 644.291 -298.063 635.097 -297.542 626.075Z" fill="url(#paint2_linear)"/>
</mask>
<g mask="url(#mask1)">
<path d="M447.939 312.315C448.438 303.594 448.657 295.121 448.593 286.927C448.186 235.248 436.799 196.421 414.747 171.525C392.454 146.354 359.637 136.18 317.209 141.285C188.796 156.048 103.004 175.935 46.2339 189.094C19.5835 195.272 -1.4659 200.151 -18.1659 202.524C-45.1524 206.37 -81.2536 229.141 -112.383 261.951C-145.714 297.082 -167.262 336.673 -171.502 370.571C-176.807 416.127 -198.814 464.036 -216.341 496.206C-236.931 533.998 -262.771 571.335 -287.234 598.644C-302.666 615.879 -303.794 634.861 -290.5 653.539C-267.42 685.963 -203.909 713.371 -124.752 725.067L-124.753 725.067C-50.0779 736.15 27.1411 747.611 98.7981 745.417C136.542 744.261 169.675 739.462 200.091 730.746C234.022 721.023 263.825 706.684 291.202 686.913C338.384 653.086 393.197 552.674 424.494 442.73C437.7 396.34 445.68 351.801 447.939 312.315ZM-297.917 625.788C-297.398 616.704 -293.334 607.797 -285.741 599.316C-261.23 571.954 -235.344 534.552 -214.721 496.7C-197.159 464.467 -175.108 416.455 -169.79 370.777C-165.571 337.052 -144.11 297.638 -110.911 262.646C-79.9907 230.056 -44.2587 207.455 -17.6583 203.664C-0.86345 201.278 20.2273 196.389 46.9282 190.2C103.651 177.052 189.369 157.182 317.662 142.432C359.28 137.425 391.454 147.39 413.296 172.049C435.172 196.747 446.469 235.361 446.874 286.819C447.233 332.038 438.908 385.838 422.806 442.403C391.558 552.169 336.905 652.37 289.898 686.071C262.663 705.74 233.027 719.999 199.294 729.666C169.053 738.332 136.101 743.104 98.5533 744.253C27.1213 746.44 -49.9809 734.997 -124.545 723.93L-124.545 723.929C-203.138 712.317 -266.141 685.184 -288.964 653.119C-295.453 644.003 -298.433 634.808 -297.917 625.788Z" fill="url(#paint3_linear)"/>
</g>
<mask id="mask2" style="mask-type:alpha" maskUnits="userSpaceOnUse" x="-272" y="163" width="690" height="553">
<path d="M416.43 316.09C416.803 309.63 417.002 303.331 417.025 297.196C417.204 250.224 407.34 214.943 387.708 192.336C368.147 169.811 339.226 160.564 301.747 164.854C187.954 176.492 109.265 193.253 51.8091 205.492C25.7345 211.045 5.14042 215.432 -11.5245 217.747C-38.4366 221.505 -72.2204 241.874 -101.897 272.233C-133.028 304.079 -153.515 340.673 -158.105 372.631C-167.593 448.207 -224.711 538.89 -260.79 581.405C-274.173 597.197 -274.699 614.534 -262.31 631.544C-240.747 661.145 -182.827 686.112 -111.154 696.701C-46.7148 706.313 26.3253 717.209 92.802 715.058C127.261 713.943 157.555 709.523 185.415 701.544C216.459 692.653 243.763 679.59 268.887 661.607C290.84 646.135 314.558 616.091 337.476 574.728C359.49 534.992 379.397 486.772 393.532 438.948C406.482 395.13 414.295 353.082 416.43 316.09ZM-269.562 605.26C-269.103 597.297 -265.707 589.481 -259.378 582.014C-223.236 539.423 -166.014 448.568 -156.506 372.833C-151.938 341.041 -131.536 304.612 -100.531 272.894C-71.0553 242.739 -37.6061 222.523 -11.0565 218.814C5.68137 216.489 26.3087 212.096 52.4224 206.534C109.832 194.305 188.458 177.558 302.149 165.929C338.877 161.725 367.2 170.773 386.344 192.818C405.815 215.24 415.597 250.321 415.419 297.087C415.26 338.282 407.149 387.23 391.955 438.635C377.837 486.407 357.952 534.573 335.964 574.259C313.114 615.502 289.5 645.432 267.675 660.814C242.681 678.703 215.532 691.694 184.671 700.533C156.975 708.465 126.848 712.86 92.5706 713.969C26.3069 716.113 -46.6187 705.234 -110.959 695.636L-110.96 695.636C-182.113 685.125 -239.56 660.41 -260.882 631.139C-267.164 622.517 -270.055 613.804 -269.562 605.26Z" fill="url(#paint4_linear)"/>
</mask>
<g mask="url(#mask2)">
<path d="M416.705 316.308C417.075 309.848 417.271 303.55 417.291 297.416C417.445 250.448 407.551 215.164 387.885 192.545C368.29 170.008 339.332 160.743 301.813 165.008C187.897 176.569 109.129 193.276 51.6152 205.476C25.5143 211.012 4.89928 215.384 -11.7832 217.688C-38.7236 221.428 -72.5345 241.773 -102.228 272.109C-133.377 303.932 -153.868 340.509 -158.446 372.461C-167.905 448.025 -225.039 538.663 -261.136 581.151C-274.526 596.932 -275.043 614.268 -262.631 631.284C-241.028 660.898 -183.03 685.901 -111.27 696.536C-46.7534 706.191 26.3746 717.135 92.925 715.028C127.422 713.936 157.748 709.537 185.635 701.577C216.709 692.707 244.037 679.663 269.18 661.698C291.149 646.242 314.878 616.217 337.799 574.872C359.817 535.155 379.722 486.951 393.846 439.141C406.788 395.335 414.588 353.296 416.705 316.308ZM-269.905 604.998C-269.45 597.035 -266.054 589.223 -259.722 581.761C-223.562 539.197 -166.323 448.387 -156.845 372.665C-152.289 340.878 -131.884 304.466 -100.861 272.771C-71.3676 242.638 -37.8916 222.446 -11.3141 218.755C5.4414 216.442 26.0896 212.063 52.2297 206.518C109.698 194.329 188.403 177.635 302.216 166.083C338.983 161.904 367.343 170.97 386.52 193.026C406.025 215.459 415.836 250.544 415.683 297.306C415.546 338.498 407.451 387.436 392.268 438.827C378.159 486.586 358.277 534.734 336.286 574.403C313.432 615.627 289.807 645.539 267.965 660.905C242.954 678.776 215.781 691.748 184.89 700.565C157.166 708.479 127.009 712.853 92.6927 713.939C26.3557 716.039 -46.6578 705.112 -111.076 695.472L-111.077 695.472C-182.315 684.914 -239.84 660.163 -261.202 630.88C-267.495 622.254 -270.394 613.54 -269.905 604.998Z" fill="url(#paint5_linear)"/>
</g>
<mask id="mask3" style="mask-type:alpha" maskUnits="userSpaceOnUse" x="-244" y="187" width="630" height="498">
<path d="M385.293 320.197C385.539 315.945 385.698 311.776 385.768 307.685C386.506 265.422 378.132 233.685 360.881 213.354C344.005 193.465 318.927 185.131 286.345 188.584C185.973 197.093 110.469 211.606 55.3387 222.204C31.5831 226.77 11.0668 230.713 -5.16751 232.903C-31.6392 236.501 -64.0141 254.997 -91.7702 282.381C-120.714 310.936 -140.143 344.515 -145.075 374.509C-149.145 404.432 -161.594 440.512 -181.076 478.856C-196.715 509.634 -216.267 540.627 -234.721 563.89C-246.077 578.23 -245.989 593.926 -234.465 609.279C-214.364 636.064 -161.954 658.623 -97.6867 668.154C-30.2414 678.315 30.2062 686.572 86.9376 684.666C118.154 683.618 145.643 679.598 170.976 672.377C199.165 664.342 223.997 652.574 246.888 636.4C267.261 622.357 289.301 595.181 310.618 557.813C331.011 522.063 349.589 478.576 362.93 435.362C375.652 394.155 383.307 354.641 385.293 320.197ZM-241.621 584.411C-241.227 577.58 -238.483 570.87 -233.389 564.434C-214.902 541.131 -195.318 510.089 -179.657 479.267C-160.139 440.853 -147.666 404.697 -143.587 374.707C-138.68 344.871 -119.335 311.444 -90.5108 283.009C-62.9419 255.809 -30.8777 237.451 -4.73896 233.898C11.5485 231.701 32.0899 227.753 55.8733 223.181C110.961 212.592 186.406 198.09 286.693 189.588C318.584 186.209 343.107 194.353 359.603 213.792C376.707 233.95 385.007 265.503 384.273 307.573C383.62 344.745 375.738 388.83 361.465 435.063C348.14 478.229 329.584 521.664 309.216 557.368C287.965 594.624 266.024 621.696 245.768 635.657C222.996 651.746 198.309 663.448 170.287 671.435C145.104 678.613 117.769 682.61 86.7198 683.653C30.1754 685.553 -30.1648 677.309 -97.503 667.164L-97.5052 667.164C-161.296 657.704 -213.27 635.375 -233.146 608.891C-239.261 600.743 -242.087 592.494 -241.621 584.411Z" fill="url(#paint6_linear)"/>
</mask>
<g mask="url(#mask3)">
<path d="M385.546 320.397C385.79 316.146 385.947 311.977 386.016 307.886C386.732 265.628 378.332 233.888 361.05 213.547C344.144 193.649 319.034 185.298 286.418 188.729C185.937 197.171 110.356 211.633 55.1692 222.193C31.3893 226.743 10.852 230.672 -5.39939 232.851C-31.8989 236.431 -64.3005 254.904 -92.0733 282.267C-121.035 310.8 -140.468 344.364 -145.389 374.352C-149.448 404.27 -161.892 440.338 -181.376 478.666C-197.015 509.431 -216.573 540.409 -235.036 563.657C-246.397 577.989 -246.301 593.684 -234.756 609.044C-214.618 635.839 -162.137 658.431 -97.7922 668.004C-30.2657 678.21 30.2542 686.506 87.0483 684.638C118.299 683.611 145.817 679.609 171.174 672.406C199.391 664.39 224.245 652.639 247.153 636.482C267.542 622.454 289.592 595.295 310.913 557.944C331.31 522.211 349.886 478.74 363.219 435.538C375.933 394.343 383.576 354.838 385.546 320.397ZM-241.932 584.172C-241.542 577.342 -238.799 570.634 -233.702 564.203C-215.206 540.914 -195.617 509.887 -179.954 479.079C-160.435 440.681 -147.967 404.536 -143.899 374.551C-139.003 344.72 -119.653 311.31 -90.8121 282.896C-63.2266 255.717 -31.1361 237.381 -4.96983 233.846C11.3348 231.66 31.8972 227.726 55.7049 223.17C110.849 212.619 186.371 198.168 286.766 189.733C318.692 186.376 343.246 194.536 359.771 213.984C376.905 234.152 385.231 265.707 384.519 307.774C383.884 344.943 376.017 389.018 361.753 435.238C348.435 478.391 329.881 521.811 309.51 557.499C288.254 594.737 266.303 621.792 246.031 635.738C223.243 651.811 198.533 663.495 170.484 671.464C145.277 678.624 117.913 682.602 86.8297 683.625C30.2229 685.487 -30.1895 677.204 -97.6088 667.014L-97.6111 667.014C-161.478 657.512 -213.523 635.151 -233.435 608.656C-239.561 600.505 -242.394 592.255 -241.932 584.172Z" fill="url(#paint7_linear)"/>
</g>
<mask id="mask4" style="mask-type:alpha" maskUnits="userSpaceOnUse" x="-216" y="211" width="571" height="444">
<path d="M354.264 324.43C354.386 322.315 354.483 320.223 354.554 318.154C355.851 280.601 348.97 252.406 334.099 234.351C319.891 217.103 298.643 209.688 270.946 212.314C182.648 217.714 109.333 230.215 55.7992 239.343C34.571 242.962 16.2382 246.089 1.18783 248.058C-25.2489 251.551 -55.4399 267.76 -81.6449 292.528C-108.399 317.816 -126.77 348.381 -132.047 376.386C-140.334 432.091 -177.568 503.55 -208.656 546.375C-217.992 559.273 -217.284 573.335 -206.61 587.041C-187.956 610.996 -141.058 631.139 -84.2199 639.608L-84.2234 639.607C-26.7215 648.377 29.1898 656.098 81.0734 654.275C109.046 653.293 133.73 649.674 156.537 643.211C181.872 636.031 204.231 625.558 224.889 611.193C243.69 598.577 264.057 574.266 283.779 540.892C302.554 509.122 319.807 470.366 332.362 431.763C344.9 393.207 352.428 356.262 354.264 324.43ZM-213.735 563.513C-213.408 557.829 -211.299 552.238 -207.401 546.853C-176.265 503.962 -138.972 432.382 -130.672 376.581C-125.421 348.725 -107.132 318.302 -80.4934 293.123C-54.4664 268.522 -24.5525 252.433 1.57696 248.981C16.6607 247.006 35.0094 243.878 56.2567 240.255C109.748 231.135 183.008 218.643 271.234 213.247C298.304 210.681 319.042 217.915 332.905 234.746C347.643 252.64 354.461 280.664 353.171 318.041C352.012 351.186 344.362 390.414 331.008 431.477C318.469 470.035 301.237 508.743 282.487 540.471C262.826 573.741 242.553 597.956 223.862 610.5C203.311 624.79 181.084 635.203 155.902 642.339C133.233 648.763 108.69 652.36 80.8697 653.337C29.1615 655.154 -26.6441 647.446 -84.0457 638.691L-84.0492 638.691C-140.455 630.286 -186.953 610.351 -205.397 586.667C-211.392 578.97 -214.176 571.158 -213.735 563.513Z" fill="url(#paint8_linear)"/>
</mask>
<g mask="url(#mask4)">
<path d="M354.496 324.614C354.617 322.499 354.713 320.407 354.783 318.338C356.062 280.789 349.157 252.592 334.26 234.529C320.028 217.272 298.752 209.844 271.025 212.451C182.631 217.792 109.24 230.243 55.6511 239.335C34.4009 242.94 16.0492 246.054 0.982986 248.013C-25.4816 251.488 -55.6979 267.675 -81.9192 292.424C-108.69 317.692 -127.065 348.243 -132.334 376.242C-140.6 431.937 -177.839 503.365 -208.939 546.166C-218.278 559.056 -217.562 573.117 -206.869 586.829C-188.181 610.795 -141.22 630.967 -84.3138 639.473L-84.3172 639.473C-26.7462 648.28 29.232 656.037 81.1729 654.25C109.176 653.286 133.886 649.683 156.716 643.236C182.075 636.074 204.453 625.617 225.127 611.267C243.943 598.664 264.319 574.368 284.046 541.01C302.826 509.256 320.078 470.514 332.625 431.923C345.158 393.379 352.675 356.442 354.496 324.614ZM-214.015 563.298C-213.69 557.615 -211.581 552.026 -207.682 546.644C-176.534 503.777 -139.236 432.229 -130.957 376.437C-125.715 348.587 -107.421 318.179 -80.7661 293.02C-54.7229 268.439 -24.7839 252.371 1.37303 248.937C16.4726 246.972 34.8403 243.856 56.1096 240.247C109.656 231.163 182.991 218.721 271.314 213.384C298.413 210.837 319.178 218.084 333.066 234.923C347.83 252.825 354.67 280.851 353.398 318.224C352.256 351.366 344.618 390.586 331.27 431.636C318.737 470.183 301.507 508.876 282.752 540.589C263.087 573.843 242.804 598.043 224.098 610.573C203.532 624.848 181.285 635.245 156.08 642.364C133.389 648.772 108.819 652.353 80.9685 653.311C29.2031 655.093 -26.6692 647.349 -84.1398 638.557L-84.1432 638.556C-140.617 630.115 -187.178 610.151 -205.655 586.456C-211.661 578.756 -214.452 570.943 -214.015 563.298Z" fill="url(#paint9_linear)"/>
</g>
<mask id="mask5" style="mask-type:alpha" maskUnits="userSpaceOnUse" x="-188" y="235" width="512" height="390">
<path d="M323.385 328.833C323.39 328.755 323.394 328.678 323.399 328.6C325.26 295.755 319.871 271.101 307.384 255.323C295.824 240.716 278.383 234.229 255.547 236.043C177.741 238.184 104.606 249.056 51.2068 256.994C34.4855 259.48 20.0434 261.627 7.54274 263.214C-18.4888 266.552 -47.3053 280.935 -71.5186 302.675C-96.0799 324.727 -113.393 352.278 -119.019 378.263C-122.978 402.302 -132.112 430.23 -146.167 461.285C-156.742 484.646 -170.017 509.277 -182.591 528.863C-189.917 540.328 -188.583 552.767 -178.731 564.838C-161.504 585.946 -120.129 603.658 -70.753 611.062C-22.687 618.505 28.1811 625.627 75.2093 623.884C99.938 622.968 121.818 619.75 142.099 614.045C164.579 607.721 184.464 598.544 202.89 585.987C237.047 563.803 276.814 500.369 301.837 428.146C314.256 392.299 321.706 357.963 323.385 328.833ZM-185.931 542.543C-185.671 538.026 -184.168 533.578 -181.416 529.269C-168.826 509.659 -155.534 484.998 -144.947 461.61C-130.869 430.507 -121.721 402.529 -117.756 378.455C-112.161 352.61 -94.9268 325.189 -70.4761 303.237C-46.427 281.644 -17.8625 267.366 7.89394 264.063C20.4122 262.474 34.8619 260.326 51.5931 257.839C104.949 249.907 178.022 239.045 255.77 236.904C278.043 235.136 295.02 241.451 306.274 255.672C318.644 271.302 323.977 295.799 322.126 328.482C322.122 328.559 322.118 328.639 322.113 328.716C320.437 357.794 312.999 392.072 300.595 427.872C275.619 499.961 235.978 563.243 201.954 585.341C183.623 597.833 163.857 606.956 141.516 613.241C121.359 618.911 99.607 622.11 75.0164 623.021C28.1535 624.757 -22.6123 617.648 -70.5916 610.218L-70.5961 610.218C-119.585 602.872 -160.6 585.345 -177.63 564.477C-183.571 557.2 -186.349 549.784 -185.931 542.543Z" fill="url(#paint10_linear)"/>
</mask>
<g mask="url(#mask5)">
<path d="M323.595 329.001C323.6 328.922 323.604 328.845 323.609 328.767C325.454 295.926 320.046 271.271 307.537 255.486C295.956 240.872 278.493 234.374 255.633 236.173C177.74 238.262 104.529 249.085 51.0737 256.987C34.335 259.461 19.8778 261.598 7.36392 263.177C-18.6951 266.497 -47.5363 280.86 -71.7653 302.582C-96.3426 324.616 -113.661 352.153 -119.279 378.133C-123.23 402.166 -132.359 430.086 -146.415 461.129C-156.988 484.481 -170.266 509.101 -182.843 528.677C-190.172 540.136 -188.829 552.575 -178.96 564.651C-161.703 585.769 -120.272 603.508 -70.8367 610.943C-22.7128 618.418 28.2161 625.573 75.2962 623.862C100.052 622.962 121.954 619.758 142.256 614.067C164.758 607.759 184.66 598.596 203.1 586.052C237.284 563.892 277.062 500.49 302.075 428.29C314.489 392.454 321.93 358.127 323.595 329.001ZM-186.18 542.354C-185.922 537.838 -184.42 533.39 -181.667 529.084C-169.073 509.484 -155.779 484.834 -145.193 461.455C-131.115 430.363 -121.971 402.395 -118.015 378.325C-112.427 352.486 -95.188 325.079 -70.7213 303.144C-46.6566 281.57 -18.0677 267.312 7.71596 264.027C20.2474 262.446 34.7122 260.307 51.4608 257.832C104.873 249.936 178.022 239.123 255.855 237.034C278.153 235.281 295.152 241.607 306.426 255.834C318.819 271.471 324.171 295.969 322.335 328.649C322.33 328.725 322.326 328.806 322.321 328.882C320.659 357.957 313.23 392.227 300.832 428.016C275.865 500.082 236.213 563.333 202.162 585.406C183.818 597.884 164.034 606.994 141.671 613.263C121.495 618.919 99.7203 622.103 75.1026 622.998C28.188 624.703 -22.6385 617.561 -70.6755 610.1L-70.68 610.099C-119.728 602.722 -160.797 585.169 -177.858 564.291C-183.81 557.011 -186.594 549.594 -186.18 542.354Z" fill="url(#paint11_linear)"/>
</g>
<mask id="mask6" style="mask-type:alpha" maskUnits="userSpaceOnUse" x="-160" y="259" width="454" height="335">
<path d="M292.746 333.349C294.206 308.031 290.189 288.846 280.782 276.264C271.839 264.302 258.183 258.753 240.187 259.77C171.21 258.108 94.4832 268.012 38.4596 275.243C29.6688 276.378 21.3639 277.449 13.8943 278.368C-12.145 281.606 -38.8831 293.841 -61.3955 312.821C-84.0942 331.959 -99.9333 355.867 -105.994 380.141C-109.119 397.019 -120.293 443.559 -156.53 511.353C-161.861 521.402 -159.886 532.239 -150.813 542.692C-134.991 560.925 -99.1551 576.184 -57.2945 582.515C-18.1266 588.7 27.1923 595.161 69.3437 593.494C113.889 591.732 150.376 581.032 180.89 560.782C196.57 551.004 213.62 532.414 230.184 507.026C245.96 482.845 260.206 454.313 271.379 424.514C282.916 393.742 290.164 364.18 292.337 339.022C292.503 337.099 292.64 335.206 292.746 333.349ZM-158.254 521.465C-158.063 518.148 -157.124 514.874 -155.431 511.682C-149.633 500.837 -138.308 478.762 -127.595 452.779C-116.348 425.504 -108.693 401.128 -104.843 380.328C-98.8147 356.188 -83.052 332.396 -60.4615 313.35C-38.1021 294.498 -11.5834 282.351 14.2087 279.144C21.6821 278.225 29.9881 277.153 38.7822 276.018C94.7635 268.792 171.434 258.896 240.293 260.559L240.361 260.558C257.817 259.564 271.071 264.95 279.755 276.564C289.609 289.746 293.559 311.3 291.175 338.9C289.007 364.011 281.771 393.525 270.249 424.251C259.09 454.012 244.865 482.504 229.112 506.65C212.604 531.951 195.638 550.463 180.046 560.184C149.707 580.319 113.44 590.954 69.1639 592.706C27.1677 594.367 -18.0509 587.92 -57.1389 581.747L-57.1446 581.746C-98.6696 575.467 -134.183 560.368 -149.826 542.343C-155.82 535.434 -158.652 528.357 -158.254 521.465Z" fill="url(#paint12_linear)"/>
</mask>
<g mask="url(#mask6)">
<path d="M292.935 333.498C294.384 308.184 290.352 288.998 280.928 276.411C271.969 264.444 258.294 258.887 240.279 259.892C171.224 258.184 94.4166 268.036 38.3341 275.229C29.5341 276.358 21.2205 277.424 13.7431 278.338C-12.3237 281.558 -39.0853 293.775 -61.6129 312.738C-84.3269 331.859 -100.171 355.754 -106.226 380.022C-109.346 396.897 -120.507 443.425 -156.75 511.189C-162.082 521.234 -160.099 532.071 -151.01 542.53C-135.16 560.771 -99.2769 576.053 -57.3661 582.411C-18.1513 588.622 27.2216 595.112 69.4193 593.472C114.014 591.74 150.535 581.065 181.073 560.837C196.766 551.071 213.825 532.494 230.394 507.119C246.176 482.951 260.422 454.43 271.592 424.642C283.126 393.88 290.367 364.325 292.528 339.171C292.694 337.248 292.83 335.356 292.935 333.498ZM-158.471 521.299C-158.281 517.983 -157.343 514.71 -155.649 511.519C-149.851 500.679 -138.524 478.613 -127.813 452.64C-116.568 425.375 -108.917 401.006 -105.073 380.21C-99.0512 356.076 -83.2834 332.297 -60.6776 313.267C-38.3031 294.432 -11.7611 282.303 14.0582 279.114C21.5395 278.2 29.8542 277.133 38.6575 276.005C94.6977 268.816 171.449 258.972 240.385 260.681L240.454 260.68C257.929 259.698 271.2 265.091 279.9 276.71C289.772 289.898 293.737 311.452 291.366 339.049C289.208 364.155 281.979 393.662 270.461 424.378C259.305 454.129 245.078 482.609 229.32 506.742C212.808 532.03 195.832 550.53 180.228 560.24C149.865 580.352 113.564 590.963 69.2389 592.685C27.1967 594.318 -18.0759 587.842 -57.2108 581.643L-57.2165 581.642C-98.7912 575.336 -134.352 560.215 -150.022 542.181C-156.027 535.269 -158.865 528.191 -158.471 521.299Z" fill="url(#paint13_linear)"/>
</g>
<mask id="mask7" style="mask-type:alpha" maskUnits="userSpaceOnUse" x="-132" y="281" width="395" height="283">
<path d="M262.438 338.663C263.474 320.687 260.737 306.474 254.379 297.174C247.997 287.836 238.051 283.237 224.816 283.5C163.192 276.498 63.023 288.427 20.2425 293.522C-33.1906 299.95 -79.7456 336.341 -92.9722 382.017C-100.735 418.58 -117.488 460.974 -127.496 486.302C-128.559 488.992 -129.556 491.515 -130.471 493.847C-133.826 502.509 -131.175 511.775 -122.809 520.643C-108.368 535.953 -78.105 548.722 -43.8335 553.969C-9.03372 559.611 28.0544 564.623 63.4738 563.102C101.273 561.479 132.482 552.475 158.884 535.576C186.671 519.135 218.916 474.11 241.019 420.877C251.647 395.281 258.703 370.576 261.422 349.435C261.9 345.712 262.238 342.116 262.438 338.663ZM-130.796 500.212C-130.677 498.146 -130.231 496.102 -129.452 494.091C-128.538 491.759 -127.541 489.238 -126.478 486.548C-116.464 461.205 -99.7026 418.788 -91.9349 382.201C-78.7852 336.793 -32.5397 300.609 20.5212 294.225C63.2616 289.135 163.353 277.214 224.793 284.209L224.846 284.215L224.898 284.214C237.66 283.948 247.26 288.39 253.431 297.419C260.928 308.387 263.329 326.329 260.373 349.304C257.659 370.404 250.616 395.066 240.004 420.623C217.946 473.746 185.811 518.652 158.135 535.026C99.5013 572.557 26.2824 564.62 -43.689 553.274L-43.6964 553.273C-77.6808 548.071 -107.663 535.437 -121.94 520.301C-128.184 513.682 -131.178 506.84 -130.796 500.212Z" fill="url(#paint14_linear)"/>
</mask>
<g mask="url(#mask7)">
<path d="M262.61 338.797C263.638 320.822 260.89 306.61 254.52 297.306C248.126 287.965 238.166 283.359 224.917 283.614C163.221 276.572 62.9462 288.433 20.1207 293.499C-33.3685 299.892 -79.9565 336.249 -93.1741 381.912C-100.927 418.467 -117.676 460.845 -127.683 486.164C-128.745 488.853 -129.742 491.375 -130.656 493.707C-134.011 502.366 -131.352 511.633 -122.973 520.506C-108.508 535.823 -78.2038 548.611 -43.8914 553.88C-9.04992 559.545 28.0821 564.581 63.5402 563.084C101.38 561.486 132.62 552.503 159.042 535.623C186.852 519.202 219.109 474.203 241.21 420.989C251.836 395.402 258.886 370.704 261.598 349.567C262.075 345.844 262.411 342.249 262.61 338.797ZM-130.979 500.071C-130.861 498.005 -130.415 495.961 -129.636 493.951C-128.722 491.621 -127.726 489.1 -126.663 486.411C-116.651 461.077 -99.8929 418.675 -92.1356 382.097C-78.9949 336.701 -32.7166 300.551 20.4002 294.203C63.1855 289.141 163.383 277.288 224.894 284.323L224.947 284.328L224.999 284.328C237.776 284.07 247.389 288.518 253.571 297.551C261.082 308.522 263.495 326.465 260.548 349.435C257.842 370.531 250.803 395.186 240.193 420.734C218.138 473.838 185.991 518.718 158.293 535.073C99.6128 572.561 26.3082 564.577 -43.7471 553.186L-43.7545 553.184C-77.7795 547.961 -107.801 535.308 -122.103 520.164C-128.357 513.541 -131.357 506.698 -130.979 500.071Z" fill="url(#paint15_linear)"/>
</g>
<mask id="mask8" style="mask-type:alpha" maskUnits="userSpaceOnUse" x="-105" y="301" width="338" height="233">
<path d="M232.818 344.362C233.452 333.372 232.013 324.382 228.379 318.088C224.465 311.31 218.107 307.659 209.482 307.236C192.895 302.154 164.222 300.174 124.253 301.352C95.1382 302.211 59.5412 304.88 26.5908 308.676C-26.2632 314.82 -66.0918 342.939 -79.9513 383.894C-83.5727 398.363 -87.7834 413.383 -91.8563 427.908C-97.1233 446.694 -102.098 464.437 -104.41 476.35C-106.301 486.383 -99.2745 497.06 -84.6382 506.413C-70.7654 515.278 -50.9889 522.207 -30.3759 525.422C16.7705 533.354 41.4079 533.484 57.604 532.711C88.6396 531.229 114.569 523.922 136.876 510.371C161.615 496.725 189.952 461.058 210.811 417.3C224.137 389.347 231.7 363.747 232.818 344.362ZM-103.74 478.658C-103.699 477.932 -103.61 477.211 -103.476 476.492C-101.168 464.597 -96.1953 446.862 -90.9306 428.086C-86.857 413.558 -82.6454 398.535 -79.0278 384.077C-65.2505 343.368 -25.6736 315.41 26.8351 309.306C59.7492 305.514 95.3047 302.848 124.384 301.991C164.266 300.815 192.818 302.783 209.247 307.84L209.331 307.866L209.42 307.87C217.656 308.251 223.742 311.75 227.506 318.269C237.472 335.529 230.731 373.38 209.913 417.051C189.1 460.713 160.865 496.279 136.227 509.869C114.049 523.342 88.2849 530.603 57.4482 532.075C26.7467 533.541 -5.53978 528.959 -30.2378 524.803L-30.2462 524.802C-50.6856 521.614 -70.2886 514.75 -84.0293 505.969C-97.3601 497.449 -104.269 487.833 -103.74 478.658Z" fill="url(#paint16_linear)"/>
</mask>
<g mask="url(#mask8)">
<path d="M232.969 344.479C233.598 333.491 232.154 324.5 228.512 318.204C224.591 311.425 218.224 307.77 209.589 307.342C192.981 302.248 164.275 300.25 124.263 301.402C95.1157 302.241 59.4806 304.886 26.4956 308.66C-26.4138 314.769 -66.2721 342.859 -80.126 383.801C-83.744 398.267 -87.9517 413.282 -92.0217 427.803C-97.2849 446.583 -102.256 464.322 -104.564 476.232C-106.452 486.263 -99.4126 496.943 -84.7554 506.305C-70.8626 515.179 -51.0607 522.119 -30.4232 525.347C16.7795 533.311 41.4443 533.457 57.6579 532.694C88.7271 531.232 114.682 523.943 137.007 510.408C161.766 496.78 190.115 461.135 210.976 417.395C224.302 389.454 231.86 363.861 232.969 344.479ZM-103.893 478.54C-103.852 477.815 -103.763 477.094 -103.629 476.375C-101.325 464.483 -96.3558 446.753 -91.0949 427.982C-87.0241 413.458 -82.8156 398.439 -79.2014 383.985C-65.4296 343.289 -25.8233 315.36 26.7405 309.291C59.6891 305.521 95.2827 302.878 124.394 302.04C164.319 300.891 192.904 302.878 209.354 307.945L209.438 307.971L209.526 307.975C217.773 308.362 223.867 311.865 227.638 318.385C237.624 335.65 230.895 373.492 210.076 417.146C189.262 460.789 161.015 496.333 136.357 509.906C114.161 523.363 88.3717 530.606 57.5016 532.058C26.7669 533.504 -5.55772 528.901 -30.2852 524.729L-30.2937 524.728C-50.7573 521.527 -70.3856 514.651 -84.146 505.862C-97.4959 497.334 -104.417 487.714 -103.893 478.54Z" fill="url(#paint17_linear)"/>
</g>
<mask id="mask9" style="mask-type:alpha" maskUnits="userSpaceOnUse" x="-79" y="319" width="284" height="184">
<path d="M204.515 350.878C204.776 346.333 204.384 342.439 203.291 339.345C201.692 334.82 198.644 332.019 194.229 331.016C185.273 321.917 153.225 319.51 127.87 319.095C99.2806 318.628 63.7912 320.399 32.935 323.833C6.38586 326.81 -14.5382 333.163 -31.0326 343.258C-47.8774 353.567 -59.6211 367.475 -66.9352 385.775C-75.5089 413.724 -79.9854 442.41 -78.3407 458.869C-77.4849 466.889 -70.3195 475.279 -58.1648 482.494C-46.7943 489.243 -31.761 494.487 -16.9196 496.879C22.2348 503.847 72.5974 508.812 114.867 485.171C136.401 474.41 161.01 447.878 180.679 414.208C195.051 389.602 203.617 366.437 204.515 350.878ZM-77.643 444.733C-76.703 428.42 -72.576 406.978 -66.1273 385.956C-58.8573 367.766 -47.1832 353.936 -30.4446 343.692C-14.0564 333.663 6.74407 327.35 33.1458 324.39C90.8192 317.97 178.742 315.896 193.639 331.387L193.732 331.483L193.89 331.517C198.056 332.416 200.947 335.076 202.483 339.425C207.282 353.005 198.418 382.26 179.9 413.957C160.279 447.546 135.762 473.997 114.316 484.714C72.293 508.217 22.177 503.269 -16.7898 496.334L-16.8 496.333C-31.5034 493.963 -46.3944 488.77 -57.6549 482.085C-69.622 474.981 -76.6743 466.742 -77.5137 458.884C-77.9165 454.844 -77.9499 450.061 -77.643 444.733Z" fill="url(#paint18_linear)"/>
</mask>
<g mask="url(#mask9)">
<path d="M204.649 350.979C204.908 346.434 204.513 342.541 203.417 339.447C201.814 334.921 198.762 332.118 194.342 331.113C185.371 322.009 153.287 319.581 127.903 319.15C99.2825 318.663 63.755 320.411 32.8666 323.825C6.28976 326.784 -14.6541 333.123 -31.1615 343.206C-48.0197 353.503 -59.7693 367.401 -67.0822 385.695C-75.6513 413.636 -80.1183 442.316 -78.4635 458.774C-77.6027 466.794 -70.4253 475.187 -58.2536 482.409C-46.8672 489.165 -31.8147 494.418 -16.9558 496.82C22.2451 503.813 72.6656 508.811 114.97 485.2C136.522 474.454 161.144 447.941 180.819 414.286C195.194 389.693 203.758 366.536 204.649 350.979ZM-77.7722 444.64C-76.8394 428.329 -72.7186 406.892 -66.2733 385.876C-59.0046 367.693 -47.3245 353.872 -30.5727 343.641C-14.1715 333.623 6.64864 327.324 33.0779 324.381C90.8115 318 178.83 315.984 193.751 331.483L193.844 331.579L194.003 331.613C198.173 332.515 201.069 335.177 202.609 339.526C207.42 353.107 198.561 382.354 180.038 414.036C160.413 447.608 135.882 474.04 114.418 484.743C72.3605 508.215 22.187 503.235 -16.8261 496.275L-16.8364 496.274C-31.5571 493.895 -46.467 488.692 -57.7433 482.001C-69.7271 474.89 -76.7913 466.647 -77.6356 458.79C-78.0408 454.749 -78.0767 449.967 -77.7722 444.64Z" fill="url(#paint19_linear)"/>
</g>
<mask id="mask10" style="mask-type:alpha" maskUnits="userSpaceOnUse" x="-59" y="335" width="239" height="138">
<path d="M179.78 359.587C179.893 357.628 179.609 356.065 178.896 354.972C179.788 351.766 178.447 348.887 174.917 346.417C164.587 339.188 137.918 336.844 117.364 336.15C92.9075 335.324 63.7118 336.4 39.2668 339.027C11.6149 342.01 -6.94535 346.455 -20.9137 353.44C-35.8154 360.891 -46.3031 371.772 -53.9191 387.686C-61.2432 405.985 -60.5846 427.072 -52.2464 441.421C-44.6821 454.29 -21.5117 465.217 -3.47885 468.348C33.7378 475.63 66.1378 472.816 92.8185 459.985C103.702 455.306 115.221 447.519 127.043 436.847C137.278 427.607 147.42 416.44 156.372 404.553C170.386 385.941 179.261 368.584 179.78 359.587ZM178.145 354.988L178.197 355.064C178.913 356.11 179.197 357.628 179.086 359.538C177.949 379.341 134.518 441.453 92.3789 459.571C65.8555 472.327 33.6527 475.12 -3.3492 467.879L-3.36064 467.877C-21.1979 464.781 -44.1124 453.986 -51.58 441.28C-59.862 427.027 -60.5103 406.06 -53.2272 387.866C-45.6588 372.053 -35.2424 361.238 -20.4514 353.843C-6.56942 346.902 11.9033 342.481 39.4456 339.509C63.8461 336.887 92.988 335.813 117.398 336.637C137.813 337.326 164.278 339.639 174.424 346.738C177.791 349.094 179.051 351.845 178.168 354.911L178.145 354.988Z" fill="url(#paint20_linear)"/>
</mask>
<g mask="url(#mask10)">
<path d="M179.899 359.673C180.011 357.714 179.727 356.151 179.012 355.058C179.903 351.852 178.56 348.973 175.024 346.501C164.679 339.267 137.979 336.905 117.403 336.197C92.9187 335.355 63.6913 336.412 39.2206 339.022C11.5397 341.988 -7.03879 346.42 -21.019 353.394C-35.9334 360.835 -46.4271 371.709 -54.0434 387.615C-61.3663 405.908 -60.6963 426.993 -52.3416 441.347C-44.7624 454.22 -21.5608 465.161 -3.5064 468.303C33.755 475.609 66.1894 472.816 92.893 460.004C103.786 455.332 115.314 447.553 127.143 436.891C137.385 427.659 147.532 416.499 156.489 404.619C170.508 386.018 179.384 368.669 179.899 359.673ZM178.26 355.074L178.312 355.15C179.029 356.196 179.315 357.714 179.205 359.623C178.076 379.424 134.629 441.501 92.4527 459.59C65.9066 472.327 33.6696 475.098 -3.37686 467.834L-3.3883 467.831C-21.2468 464.724 -44.1922 453.916 -51.6745 441.206C-59.9729 426.949 -60.6325 405.984 -53.3506 387.796C-45.7819 371.989 -35.3596 361.183 -20.556 353.798C-6.66222 346.867 11.8286 342.458 39.3999 339.505C63.826 336.899 92.9995 335.845 117.437 336.685C137.875 337.387 164.37 339.717 174.531 346.822C177.903 349.18 179.166 351.932 178.283 354.996L178.26 355.074Z" fill="url(#paint21_linear)"/>
</g>
<mask id="mask11" style="mask-type:alpha" maskUnits="userSpaceOnUse" x="-44" y="352" width="213" height="91">
<path d="M168.494 370.388C168.607 368.426 167.84 366.59 166.192 364.891C162.057 360.63 150.152 355.09 116.919 352.896C94.6422 351.425 67.9916 351.931 45.6288 354.248C19.2009 356.987 2.21728 358.986 -10.7658 363.652C-24.1968 368.479 -32.9224 376.005 -40.8833 389.63C-45.2724 397.14 -44.7573 404.69 -39.3576 412.07C-27.679 428.026 3.00658 438.196 9.97648 439.859C22.9961 442.963 37.6773 442.848 53.614 439.515C67.3309 436.647 82.0186 431.398 97.2681 423.915C124.833 410.389 149.485 391.781 163.365 378.876C166.633 375.839 168.343 373.001 168.494 370.388ZM-43.1917 398.786C-43.0198 395.798 -42.0609 392.804 -40.3139 389.815C-32.4037 376.277 -23.7494 368.805 -10.4409 364.022C2.46558 359.384 19.4075 357.39 45.7776 354.658C86.5498 350.433 152.713 351.718 165.693 365.095C169.377 368.891 168.425 373.44 162.861 378.613C149.005 391.495 124.395 410.072 96.8801 423.573C81.6781 431.033 67.0441 436.263 53.3837 439.12C37.5716 442.426 23.0184 442.544 10.1282 439.47C3.2105 437.821 -27.2412 427.732 -38.8168 411.916C-41.9858 407.586 -43.4457 403.194 -43.1917 398.786Z" fill="url(#paint22_linear)"/>
</mask>
<g mask="url(#mask11)">
<path d="M168.611 370.464C168.722 368.502 167.954 366.666 166.303 364.966C162.162 360.703 150.241 355.156 116.971 352.94C94.6686 351.455 67.9891 351.943 45.603 354.246C19.1475 356.967 2.14626 358.955 -10.8487 363.612C-24.292 368.429 -33.0234 375.949 -40.9862 389.568C-45.3764 397.074 -44.8569 404.623 -39.4477 412.005C-27.7483 427.968 2.9759 438.156 9.95427 439.823C22.9897 442.936 37.6869 442.831 53.6394 439.509C67.3699 436.649 82.0711 431.411 97.3335 423.939C124.922 410.432 149.592 391.842 163.481 378.948C166.75 375.913 168.461 373.077 168.611 370.464ZM-43.2926 398.721C-43.122 395.734 -42.1635 392.74 -40.4161 389.752C-32.504 376.222 -23.8439 368.755 -10.5233 363.982C2.39503 359.353 19.3545 357.37 45.7521 354.655C86.5669 350.458 152.803 351.786 165.804 365.169C169.494 368.968 168.543 373.516 162.975 378.684C149.11 391.556 124.483 410.114 96.9449 423.596C81.73 431.045 67.0825 436.266 53.4086 439.113C37.5809 442.409 23.0118 442.517 10.1059 439.435C3.17986 437.781 -27.3102 427.674 -38.9064 411.852C-42.081 407.521 -43.5447 403.128 -43.2926 398.721Z" fill="url(#paint23_linear)"/>
</g>
<defs>
<linearGradient id="paint0_linear" x1="-160.599" y1="272.23" x2="210.756" y2="785.859" gradientUnits="userSpaceOnUse">
<stop stop-color="white"/>
<stop offset="0.0436" stop-color="#B4B4B4"/>
<stop offset="0.1507"/>
<stop offset="0.1714" stop-color="#171717"/>
<stop offset="0.3859" stop-color="white"/>
<stop offset="0.6326" stop-color="#E6E6E6"/>
<stop offset="0.8567" stop-color="#1A1A1A"/>
<stop offset="0.9987"/>
</linearGradient>
<linearGradient id="paint1_linear" x1="-161.019" y1="272.058" x2="210.247" y2="786.458" gradientUnits="userSpaceOnUse">
<stop stop-color="#0522AC"/>
<stop offset="1" stop-color="#34384C" stop-opacity="0"/>
</linearGradient>
<linearGradient id="paint2_linear" x1="-145.761" y1="280.519" x2="197.044" y2="754.659" gradientUnits="userSpaceOnUse">
<stop stop-color="white"/>
<stop offset="0.0436" stop-color="#B4B4B4"/>
<stop offset="0.1507"/>
<stop offset="0.1714" stop-color="#171717"/>
<stop offset="0.3859" stop-color="white"/>
<stop offset="0.6326" stop-color="#E6E6E6"/>
<stop offset="0.8567" stop-color="#1A1A1A"/>
<stop offset="0.9987"/>
</linearGradient>
<linearGradient id="paint3_linear" x1="-146.148" y1="280.362" x2="196.573" y2="755.212" gradientUnits="userSpaceOnUse">
<stop stop-color="#0522AC"/>
<stop offset="1" stop-color="#34384C" stop-opacity="0"/>
</linearGradient>
<linearGradient id="paint4_linear" x1="-131.083" y1="288.693" x2="183.287" y2="723.504" gradientUnits="userSpaceOnUse">
<stop stop-color="white"/>
<stop offset="0.0436" stop-color="#B4B4B4"/>
<stop offset="0.1507"/>
<stop offset="0.1714" stop-color="#171717"/>
<stop offset="0.3859" stop-color="white"/>
<stop offset="0.6326" stop-color="#E6E6E6"/>
<stop offset="0.8567" stop-color="#1A1A1A"/>
<stop offset="0.9987"/>
</linearGradient>
<linearGradient id="paint5_linear" x1="-131.439" y1="288.548" x2="182.855" y2="724.012" gradientUnits="userSpaceOnUse">
<stop stop-color="#0522AC"/>
<stop offset="1" stop-color="#34384C" stop-opacity="0"/>
</linearGradient>
<linearGradient id="paint6_linear" x1="-116.393" y1="296.857" x2="169.548" y2="692.347" gradientUnits="userSpaceOnUse">
<stop stop-color="white"/>
<stop offset="0.0436" stop-color="#B4B4B4"/>
<stop offset="0.1507"/>
<stop offset="0.1714" stop-color="#171717"/>
<stop offset="0.3859" stop-color="white"/>
<stop offset="0.6326" stop-color="#E6E6E6"/>
<stop offset="0.8567" stop-color="#1A1A1A"/>
<stop offset="0.9987"/>
</linearGradient>
<linearGradient id="paint7_linear" x1="-116.717" y1="296.725" x2="169.153" y2="692.808" gradientUnits="userSpaceOnUse">
<stop stop-color="#0522AC"/>
<stop offset="1" stop-color="#34384C" stop-opacity="0"/>
</linearGradient>
<linearGradient id="paint8_linear" x1="-101.859" y1="304.897" x2="155.773" y2="661.233" gradientUnits="userSpaceOnUse">
<stop stop-color="white"/>
<stop offset="0.0436" stop-color="#B4B4B4"/>
<stop offset="0.1507"/>
<stop offset="0.1714" stop-color="#171717"/>
<stop offset="0.3859" stop-color="white"/>
<stop offset="0.6326" stop-color="#E6E6E6"/>
<stop offset="0.8567" stop-color="#1A1A1A"/>
<stop offset="0.9987"/>
</linearGradient>
<linearGradient id="paint9_linear" x1="-102.15" y1="304.779" x2="155.417" y2="661.647" gradientUnits="userSpaceOnUse">
<stop stop-color="#0522AC"/>
<stop offset="1" stop-color="#34384C" stop-opacity="0"/>
</linearGradient>
<linearGradient id="paint10_linear" x1="-87.3772" y1="312.869" x2="142.006" y2="630.134" gradientUnits="userSpaceOnUse">
<stop stop-color="white"/>
<stop offset="0.0436" stop-color="#B4B4B4"/>
<stop offset="0.1507"/>
<stop offset="0.1714" stop-color="#171717"/>
<stop offset="0.3859" stop-color="white"/>
<stop offset="0.6326" stop-color="#E6E6E6"/>
<stop offset="0.8567" stop-color="#1A1A1A"/>
<stop offset="0.9987"/>
</linearGradient>
<linearGradient id="paint11_linear" x1="-87.6361" y1="312.765" x2="141.689" y2="630.503" gradientUnits="userSpaceOnUse">
<stop stop-color="#0522AC"/>
<stop offset="1" stop-color="#34384C" stop-opacity="0"/>
</linearGradient>
<linearGradient id="paint12_linear" x1="-73.052" y1="320.686" x2="128.233" y2="599.086" gradientUnits="userSpaceOnUse">
<stop stop-color="white"/>
<stop offset="0.0436" stop-color="#B4B4B4"/>
<stop offset="0.1507"/>
<stop offset="0.1714" stop-color="#171717"/>
<stop offset="0.3859" stop-color="white"/>
<stop offset="0.6326" stop-color="#E6E6E6"/>
<stop offset="0.8567" stop-color="#1A1A1A"/>
<stop offset="0.9987"/>
</linearGradient>
<linearGradient id="paint13_linear" x1="-73.2789" y1="320.595" x2="127.954" y2="599.41" gradientUnits="userSpaceOnUse">
<stop stop-color="#0522AC"/>
<stop offset="1" stop-color="#34384C" stop-opacity="0"/>
</linearGradient>
<linearGradient id="paint14_linear" x1="-58.8865" y1="328.313" x2="114.469" y2="568.085" gradientUnits="userSpaceOnUse">
<stop stop-color="white"/>
<stop offset="0.0436" stop-color="#B4B4B4"/>
<stop offset="0.1507"/>
<stop offset="0.1714" stop-color="#171717"/>
<stop offset="0.3859" stop-color="white"/>
<stop offset="0.6326" stop-color="#E6E6E6"/>
<stop offset="0.8567" stop-color="#1A1A1A"/>
<stop offset="0.9987"/>
</linearGradient>
<linearGradient id="paint15_linear" x1="-59.0784" y1="328.235" x2="114.231" y2="568.362" gradientUnits="userSpaceOnUse">
<stop stop-color="#0522AC"/>
<stop offset="1" stop-color="#34384C" stop-opacity="0"/>
</linearGradient>
<linearGradient id="paint16_linear" x1="-44.7857" y1="335.74" x2="100.826" y2="537.139" gradientUnits="userSpaceOnUse">
<stop stop-color="white"/>
<stop offset="0.0436" stop-color="#B4B4B4"/>
<stop offset="0.1507"/>
<stop offset="0.1714" stop-color="#171717"/>
<stop offset="0.3859" stop-color="white"/>
<stop offset="0.6326" stop-color="#E6E6E6"/>
<stop offset="0.8567" stop-color="#1A1A1A"/>
<stop offset="0.9987"/>
</linearGradient>
<linearGradient id="paint17_linear" x1="-44.9465" y1="335.675" x2="100.625" y2="537.369" gradientUnits="userSpaceOnUse">
<stop stop-color="#0522AC"/>
<stop offset="1" stop-color="#34384C" stop-opacity="0"/>
</linearGradient>
<linearGradient id="paint18_linear" x1="-30.7929" y1="342.724" x2="87.4596" y2="506.282" gradientUnits="userSpaceOnUse">
<stop stop-color="white"/>
<stop offset="0.0436" stop-color="#B4B4B4"/>
<stop offset="0.1507"/>
<stop offset="0.1714" stop-color="#171717"/>
<stop offset="0.3859" stop-color="white"/>
<stop offset="0.6326" stop-color="#E6E6E6"/>
<stop offset="0.8567" stop-color="#1A1A1A"/>
<stop offset="0.9987"/>
</linearGradient>
<linearGradient id="paint19_linear" x1="-30.9208" y1="342.673" x2="87.2974" y2="506.468" gradientUnits="userSpaceOnUse">
<stop stop-color="#0522AC"/>
<stop offset="1" stop-color="#34384C" stop-opacity="0"/>
</linearGradient>
<linearGradient id="paint20_linear" x1="-14.3" y1="347.414" x2="77.2875" y2="474.091" gradientUnits="userSpaceOnUse">
<stop stop-color="white"/>
<stop offset="0.0436" stop-color="#B4B4B4"/>
<stop offset="0.1507"/>
<stop offset="0.1714" stop-color="#171717"/>
<stop offset="0.3859" stop-color="white"/>
<stop offset="0.6326" stop-color="#E6E6E6"/>
<stop offset="0.8567" stop-color="#1A1A1A"/>
<stop offset="0.9987"/>
</linearGradient>
<linearGradient id="paint21_linear" x1="-14.4006" y1="347.374" x2="77.1609" y2="474.236" gradientUnits="userSpaceOnUse">
<stop stop-color="#0522AC"/>
<stop offset="1" stop-color="#34384C" stop-opacity="0"/>
</linearGradient>
<linearGradient id="paint22_linear" x1="2.78723" y1="350.956" x2="72.1854" y2="446.942" gradientUnits="userSpaceOnUse">
<stop stop-color="white"/>
<stop offset="0.0436" stop-color="#B4B4B4"/>
<stop offset="0.1507"/>
<stop offset="0.1714" stop-color="#171717"/>
<stop offset="0.3859" stop-color="white"/>
<stop offset="0.6326" stop-color="#E6E6E6"/>
<stop offset="0.8567" stop-color="#1A1A1A"/>
<stop offset="0.9987"/>
</linearGradient>
<linearGradient id="paint23_linear" x1="2.71282" y1="350.926" x2="72.0901" y2="447.051" gradientUnits="userSpaceOnUse">
<stop stop-color="#0522AC"/>
<stop offset="1" stop-color="#34384C" stop-opacity="0"/>
</linearGradient>
</defs>
</svg>
