<svg width="871" height="321" viewBox="0 0 871 321" fill="none" xmlns="http://www.w3.org/2000/svg">
<g filter="url(#filter0_d)">
<rect x="357" y="30" width="227" height="143.574" fill="#172634" fill-opacity="0.6" shape-rendering="crispEdges"/>
<g clip-path="url(#clip0)">
<path d="M400.321 77.2116C400.321 74.7882 400.285 72.3647 400.321 69.9433C400.351 67.8268 401.491 66.093 403.389 65.4871C405.302 64.8773 407.33 65.5429 408.52 67.1732C410.545 69.9513 408.867 73.7777 405.328 74.3378C404.621 74.4494 404.465 74.7084 404.475 75.3442C404.505 77.1358 404.529 78.9295 404.465 80.7211C404.435 81.5621 404.782 81.7056 405.514 81.7036C411.37 81.6997 415.81 77.5783 416.569 71.4022C417.263 65.7562 413.964 60.453 408.657 58.6872C403.151 56.8557 397.359 59.044 394.52 64.0602C393.523 65.8219 393.039 67.7352 393.043 69.768C393.049 73.3851 393.045 77.0023 393.045 80.6215C393.045 81.7853 392.919 81.9089 391.735 81.9508C388.404 82.0664 386.082 78.7979 387.357 75.7547C389.018 71.7948 389.022 67.8527 387.385 63.8848C386.281 61.2043 387.918 58.2827 390.766 57.7366C391.675 57.5632 392.598 57.4257 393.483 57.1606C396.587 56.2299 399.19 54.5678 401.126 51.9033C402.988 49.3384 406.66 49.3842 408.536 51.9312C410.952 55.2096 414.265 57.0092 418.234 57.5871C421.603 58.0774 423.351 60.997 422.107 64.1658C420.612 67.9743 420.614 71.8067 422.133 75.6092C423.301 78.5309 421.539 81.5183 418.429 81.9647C414.353 82.5486 410.952 84.3702 408.45 87.7143C407.338 89.2011 405.438 89.8906 403.692 89.4302C401.894 88.9559 400.434 87.4951 400.351 85.6576C400.225 82.8496 400.321 80.0296 400.321 77.2116C400.269 77.2136 400.371 77.2136 400.321 77.2116Z" fill="url(#paint0_linear)"/>
</g>
<path d="M432.511 80.7606H437.339V74.1763H441.008C445.93 74.1763 449.881 71.5427 449.881 66.4634V66.4007C449.881 61.9171 446.714 58.8131 441.478 58.8131H432.511V80.7606ZM437.339 69.8809V63.1713H441.07C443.485 63.1713 444.99 64.3313 444.99 66.4947V66.5574C444.99 68.4387 443.579 69.8809 441.165 69.8809H437.339Z" fill="white"/>
<path d="M464.114 81.1368C470.887 81.1368 475.809 76.0262 475.809 69.7869V69.7242C475.809 63.4848 470.949 58.4369 464.177 58.4369C457.405 58.4369 452.482 63.5475 452.482 69.7869V69.8496C452.482 76.0889 457.342 81.1368 464.114 81.1368ZM464.177 76.6846C460.289 76.6846 457.53 73.5493 457.53 69.7869V69.7242C457.53 65.9617 460.227 62.8891 464.114 62.8891C468.002 62.8891 470.761 66.0244 470.761 69.7869V69.8496C470.761 73.612 468.065 76.6846 464.177 76.6846Z" fill="white"/>
<path d="M480.092 80.7606H488.652C495.55 80.7606 500.315 75.9635 500.315 69.7869V69.7242C500.315 63.5475 495.55 58.8131 488.652 58.8131H480.092V80.7606ZM484.921 76.4024V63.1713H488.652C492.602 63.1713 495.267 65.899 495.267 69.7869V69.8496C495.267 73.7374 492.602 76.4024 488.652 76.4024H484.921Z" fill="white"/>
<path d="M393.958 103.104V101.928H388.344V111.574H389.618V107.43H393.062V106.24H389.618V103.104H393.958ZM396.049 103.44C396.525 103.44 396.917 103.09 396.917 102.628C396.917 102.166 396.525 101.816 396.049 101.816C395.587 101.816 395.195 102.166 395.195 102.628C395.195 103.09 395.587 103.44 396.049 103.44ZM395.447 111.574H396.665V105.036H395.447V111.574ZM398.783 111.574H400.001V101.466H398.783V111.574ZM402.119 111.574H403.337V101.466H402.119V111.574ZM407.373 111.714C408.731 111.714 409.907 110.972 409.907 109.754C409.907 109.012 409.557 108.2 408.199 107.864L407.233 107.626C406.813 107.528 406.393 107.29 406.393 106.842C406.393 106.338 406.813 105.96 407.443 105.96C407.961 105.96 408.479 106.296 408.493 106.8H409.669C409.669 105.484 408.521 104.896 407.415 104.896C406.099 104.896 405.175 105.722 405.175 106.8C405.175 107.85 405.805 108.382 406.897 108.676L407.793 108.886C408.311 108.998 408.689 109.25 408.689 109.74C408.689 110.272 408.199 110.65 407.373 110.65C406.575 110.65 406.085 110.188 406.071 109.628H404.937C404.993 110.972 406.197 111.714 407.373 111.714ZM418.229 105.036H416.815V102.558H415.597V105.036H414.421V106.086H415.597V111.574H416.815V106.086H418.229V105.036ZM422.979 104.896C422.265 104.896 421.201 105.232 420.809 106.03V101.466H419.591V111.574H420.809V108.032C420.809 106.618 421.901 106.1 422.811 106.1C423.721 106.1 424.393 106.772 424.393 107.864V111.574H425.611V107.794C425.625 105.96 424.603 104.896 422.979 104.896ZM433.804 108.284C433.804 106.212 432.418 104.896 430.556 104.896C428.694 104.896 427.196 106.212 427.196 108.284C427.196 110.356 428.694 111.714 430.556 111.714C431.816 111.714 432.992 111.126 433.566 109.992L432.502 109.572C432.138 110.23 431.396 110.566 430.598 110.566C429.478 110.566 428.638 109.992 428.456 108.83H433.776C433.79 108.648 433.804 108.466 433.804 108.284ZM428.47 107.78C428.666 106.604 429.45 106.044 430.556 106.044C431.634 106.044 432.432 106.66 432.586 107.78H428.47ZM444.158 105.036V106.058C443.724 105.302 442.8 104.896 441.82 104.896C440.028 104.896 438.558 106.226 438.558 108.298C438.558 110.356 440.042 111.714 441.834 111.714C442.772 111.714 443.724 111.294 444.158 110.538V110.664C444.158 112.876 443.262 113.688 441.82 113.688C441.092 113.688 440.322 113.282 439.916 112.54L438.88 113.086C439.524 114.234 440.63 114.836 441.82 114.836C443.976 114.836 445.376 113.674 445.376 110.58V105.036H444.158ZM441.932 110.566C440.742 110.566 439.79 109.586 439.79 108.284C439.79 106.968 440.742 106.044 441.932 106.044C443.01 106.044 444.158 106.87 444.158 108.284C444.158 109.684 443.108 110.566 441.932 110.566ZM452.675 105.036V106.058C452.241 105.288 451.317 104.896 450.337 104.896C448.545 104.896 447.075 106.226 447.075 108.298C447.075 110.356 448.559 111.714 450.351 111.714C451.289 111.714 452.241 111.294 452.675 110.538V111.574H453.893V105.036H452.675ZM450.449 110.566C449.259 110.566 448.307 109.586 448.307 108.284C448.307 106.968 449.259 106.044 450.449 106.044C451.527 106.044 452.675 106.87 452.675 108.284C452.675 109.684 451.625 110.566 450.449 110.566ZM459.569 104.896C458.631 104.896 457.679 105.316 457.245 106.072V105.036H456.027V114.752H457.245V110.552C457.679 111.322 458.603 111.714 459.583 111.714C461.375 111.714 462.845 110.384 462.845 108.312C462.845 106.254 461.361 104.896 459.569 104.896ZM459.457 110.566C458.393 110.566 457.245 109.74 457.245 108.326C457.245 106.926 458.295 106.044 459.457 106.044C460.661 106.044 461.613 107.024 461.613 108.326C461.613 109.642 460.661 110.566 459.457 110.566ZM466.462 111.714C467.82 111.714 468.996 110.972 468.996 109.754C468.996 109.012 468.646 108.2 467.288 107.864L466.322 107.626C465.902 107.528 465.482 107.29 465.482 106.842C465.482 106.338 465.902 105.96 466.532 105.96C467.05 105.96 467.568 106.296 467.582 106.8H468.758C468.758 105.484 467.61 104.896 466.504 104.896C465.188 104.896 464.264 105.722 464.264 106.8C464.264 107.85 464.894 108.382 465.986 108.676L466.882 108.886C467.4 108.998 467.778 109.25 467.778 109.74C467.778 110.272 467.288 110.65 466.462 110.65C465.664 110.65 465.174 110.188 465.16 109.628H464.026C464.082 110.972 465.286 111.714 466.462 111.714ZM474.785 103.44C475.261 103.44 475.653 103.09 475.653 102.628C475.653 102.166 475.261 101.816 474.785 101.816C474.323 101.816 473.931 102.166 473.931 102.628C473.931 103.09 474.323 103.44 474.785 103.44ZM474.183 111.574H475.401V105.036H474.183V111.574ZM480.907 104.896C480.193 104.896 479.129 105.232 478.737 106.03V105.036H477.519V111.574H478.737V108.032C478.737 106.618 479.829 106.1 480.739 106.1C481.649 106.1 482.321 106.772 482.321 107.864V111.574H483.539V107.794C483.553 105.96 482.531 104.896 480.907 104.896ZM492.249 105.036H490.835V102.558H489.617V105.036H488.441V106.086H489.617V111.574H490.835V106.086H492.249V105.036ZM496.999 104.896C496.285 104.896 495.221 105.232 494.829 106.03V101.466H493.611V111.574H494.829V108.032C494.829 106.618 495.921 106.1 496.831 106.1C497.741 106.1 498.413 106.772 498.413 107.864V111.574H499.631V107.794C499.645 105.96 498.623 104.896 496.999 104.896ZM507.824 108.284C507.824 106.212 506.438 104.896 504.576 104.896C502.714 104.896 501.216 106.212 501.216 108.284C501.216 110.356 502.714 111.714 504.576 111.714C505.836 111.714 507.012 111.126 507.586 109.992L506.522 109.572C506.158 110.23 505.416 110.566 504.618 110.566C503.498 110.566 502.658 109.992 502.476 108.83H507.796C507.81 108.648 507.824 108.466 507.824 108.284ZM502.49 107.78C502.686 106.604 503.47 106.044 504.576 106.044C505.654 106.044 506.452 106.66 506.606 107.78H502.49ZM515.979 111.714C517.841 111.714 519.409 110.356 519.409 108.284C519.409 106.212 517.841 104.896 515.979 104.896C514.117 104.896 512.563 106.212 512.563 108.284C512.563 110.356 514.117 111.714 515.979 111.714ZM515.979 110.566C514.789 110.566 513.795 109.642 513.795 108.284C513.795 106.94 514.789 106.044 515.979 106.044C517.183 106.044 518.191 106.94 518.191 108.284C518.191 109.642 517.183 110.566 515.979 110.566ZM524.493 104.896C523.779 104.896 522.715 105.232 522.323 106.03V105.036H521.105V111.574H522.323V108.032C522.323 106.618 523.415 106.1 524.325 106.1C525.235 106.1 525.907 106.772 525.907 107.864V111.574H527.125V107.794C527.139 105.96 526.117 104.896 524.493 104.896ZM391.13 129.7C392.152 129.7 393.048 129.308 393.622 128.664L392.852 127.866C392.446 128.286 391.858 128.552 391.172 128.552C389.884 128.552 388.848 127.642 388.848 126.298C388.848 124.954 389.884 124.044 391.172 124.044C391.858 124.044 392.446 124.31 392.852 124.73L393.622 123.932C393.048 123.302 392.152 122.896 391.13 122.896C389.254 122.896 387.616 124.226 387.616 126.298C387.616 128.37 389.254 129.7 391.13 129.7ZM398.548 122.896C397.834 122.896 396.77 123.232 396.378 124.03V119.466H395.16V129.574H396.378V126.032C396.378 124.618 397.47 124.1 398.38 124.1C399.29 124.1 399.962 124.772 399.962 125.864V129.574H401.18V125.794C401.194 123.96 400.172 122.896 398.548 122.896ZM408.378 123.036V124.058C407.944 123.288 407.02 122.896 406.04 122.896C404.248 122.896 402.778 124.226 402.778 126.298C402.778 128.356 404.262 129.714 406.054 129.714C406.992 129.714 407.944 129.294 408.378 128.538V129.574H409.596V123.036H408.378ZM406.152 128.566C404.962 128.566 404.01 127.586 404.01 126.284C404.01 124.968 404.962 124.044 406.152 124.044C407.23 124.044 408.378 124.87 408.378 126.284C408.378 127.684 407.328 128.566 406.152 128.566ZM412.332 121.44C412.808 121.44 413.2 121.09 413.2 120.628C413.2 120.166 412.808 119.816 412.332 119.816C411.87 119.816 411.478 120.166 411.478 120.628C411.478 121.09 411.87 121.44 412.332 121.44ZM411.73 129.574H412.948V123.036H411.73V129.574ZM418.454 122.896C417.74 122.896 416.676 123.232 416.284 124.03V123.036H415.066V129.574H416.284V126.032C416.284 124.618 417.376 124.1 418.286 124.1C419.196 124.1 419.868 124.772 419.868 125.864V129.574H421.086V125.794C421.1 123.96 420.078 122.896 418.454 122.896ZM431.826 119.466V124.058C431.392 123.288 430.468 122.896 429.488 122.896C427.696 122.896 426.226 124.226 426.226 126.298C426.226 128.356 427.71 129.714 429.502 129.714C430.44 129.714 431.392 129.294 431.826 128.538V129.574H433.044V119.466H431.826ZM429.6 128.566C428.41 128.566 427.458 127.586 427.458 126.284C427.458 124.968 428.41 124.044 429.6 124.044C430.678 124.044 431.826 124.87 431.826 126.284C431.826 127.684 430.776 128.566 429.6 128.566ZM440.343 123.036V124.058C439.909 123.288 438.985 122.896 438.005 122.896C436.213 122.896 434.743 124.226 434.743 126.298C434.743 128.356 436.227 129.714 438.019 129.714C438.957 129.714 439.909 129.294 440.343 128.538V129.574H441.561V123.036H440.343ZM438.117 128.566C436.927 128.566 435.975 127.586 435.975 126.284C435.975 124.968 436.927 124.044 438.117 124.044C439.195 124.044 440.343 124.87 440.343 126.284C440.343 127.684 439.293 128.566 438.117 128.566ZM446.831 123.036H445.417V120.558H444.199V123.036H443.023V124.086H444.199V129.574H445.417V124.086H446.831V123.036ZM453.222 123.036V124.058C452.788 123.288 451.864 122.896 450.884 122.896C449.092 122.896 447.622 124.226 447.622 126.298C447.622 128.356 449.106 129.714 450.898 129.714C451.836 129.714 452.788 129.294 453.222 128.538V129.574H454.44V123.036H453.222ZM450.996 128.566C449.806 128.566 448.854 127.586 448.854 126.284C448.854 124.968 449.806 124.044 450.996 124.044C452.074 124.044 453.222 124.87 453.222 126.284C453.222 127.684 452.172 128.566 450.996 128.566ZM463.181 129.7C464.203 129.7 465.099 129.308 465.673 128.664L464.903 127.866C464.497 128.286 463.909 128.552 463.223 128.552C461.935 128.552 460.899 127.642 460.899 126.298C460.899 124.954 461.935 124.044 463.223 124.044C463.909 124.044 464.497 124.31 464.903 124.73L465.673 123.932C465.099 123.302 464.203 122.896 463.181 122.896C461.305 122.896 459.667 124.226 459.667 126.298C459.667 128.37 461.305 129.7 463.181 129.7ZM470.014 129.714C471.876 129.714 473.444 128.356 473.444 126.284C473.444 124.212 471.876 122.896 470.014 122.896C468.152 122.896 466.598 124.212 466.598 126.284C466.598 128.356 468.152 129.714 470.014 129.714ZM470.014 128.566C468.824 128.566 467.83 127.642 467.83 126.284C467.83 124.94 468.824 124.044 470.014 124.044C471.218 124.044 472.226 124.94 472.226 126.284C472.226 127.642 471.218 128.566 470.014 128.566ZM475.14 129.574H476.358V119.466H475.14V129.574ZM478.476 129.574H479.694V119.466H478.476V129.574ZM486.978 123.036V124.058C486.544 123.288 485.62 122.896 484.64 122.896C482.848 122.896 481.378 124.226 481.378 126.298C481.378 128.356 482.862 129.714 484.654 129.714C485.592 129.714 486.544 129.294 486.978 128.538V129.574H488.196V123.036H486.978ZM484.752 128.566C483.562 128.566 482.61 127.586 482.61 126.284C482.61 124.968 483.562 124.044 484.752 124.044C485.83 124.044 486.978 124.87 486.978 126.284C486.978 127.684 485.928 128.566 484.752 128.566ZM493.886 122.896C492.906 122.896 491.982 123.288 491.548 124.058V119.466H490.33V129.574H491.548V128.538C491.982 129.294 492.934 129.714 493.872 129.714C495.664 129.714 497.148 128.356 497.148 126.298C497.148 124.226 495.678 122.896 493.886 122.896ZM493.76 128.566C492.598 128.566 491.548 127.684 491.548 126.284C491.548 124.87 492.696 124.044 493.76 124.044C494.964 124.044 495.916 124.968 495.916 126.284C495.916 127.586 494.964 128.566 493.76 128.566ZM501.802 129.714C503.664 129.714 505.232 128.356 505.232 126.284C505.232 124.212 503.664 122.896 501.802 122.896C499.94 122.896 498.386 124.212 498.386 126.284C498.386 128.356 499.94 129.714 501.802 129.714ZM501.802 128.566C500.612 128.566 499.618 127.642 499.618 126.284C499.618 124.94 500.612 124.044 501.802 124.044C503.006 124.044 504.014 124.94 504.014 126.284C504.014 127.642 503.006 128.566 501.802 128.566ZM509.993 122.896C509.125 122.896 508.495 123.372 508.159 124.52V123.036H506.927V129.574H508.159V127.18C508.159 125.458 508.677 124.072 509.979 124.072C510.231 124.072 510.581 124.128 510.931 124.296L511.127 123.148C510.931 123.022 510.455 122.896 509.993 122.896ZM517.316 123.036V124.058C516.882 123.288 515.958 122.896 514.978 122.896C513.186 122.896 511.716 124.226 511.716 126.298C511.716 128.356 513.2 129.714 514.992 129.714C515.93 129.714 516.882 129.294 517.316 128.538V129.574H518.534V123.036H517.316ZM515.09 128.566C513.9 128.566 512.948 127.586 512.948 126.284C512.948 124.968 513.9 124.044 515.09 124.044C516.168 124.044 517.316 124.87 517.316 126.284C517.316 127.684 516.266 128.566 515.09 128.566ZM523.804 123.036H522.39V120.558H521.172V123.036H519.996V124.086H521.172V129.574H522.39V124.086H523.804V123.036ZM525.768 121.44C526.244 121.44 526.636 121.09 526.636 120.628C526.636 120.166 526.244 119.816 525.768 119.816C525.306 119.816 524.914 120.166 524.914 120.628C524.914 121.09 525.306 121.44 525.768 121.44ZM525.166 129.574H526.384V123.036H525.166V129.574ZM531.47 129.714C533.332 129.714 534.9 128.356 534.9 126.284C534.9 124.212 533.332 122.896 531.47 122.896C529.608 122.896 528.054 124.212 528.054 126.284C528.054 128.356 529.608 129.714 531.47 129.714ZM531.47 128.566C530.28 128.566 529.285 127.642 529.285 126.284C529.285 124.94 530.28 124.044 531.47 124.044C532.674 124.044 533.682 124.94 533.682 126.284C533.682 127.642 532.674 128.566 531.47 128.566ZM539.983 122.896C539.269 122.896 538.205 123.232 537.813 124.03V123.036H536.595V129.574H537.813V126.032C537.813 124.618 538.905 124.1 539.815 124.1C540.725 124.1 541.397 124.772 541.397 125.864V129.574H542.615V125.794C542.629 123.96 541.607 122.896 539.983 122.896ZM388.666 139.44C389.142 139.44 389.534 139.09 389.534 138.628C389.534 138.166 389.142 137.816 388.666 137.816C388.204 137.816 387.812 138.166 387.812 138.628C387.812 139.09 388.204 139.44 388.666 139.44ZM388.064 147.574H389.282V141.036H388.064V147.574ZM394.788 140.896C394.074 140.896 393.01 141.232 392.618 142.03V141.036H391.4V147.574H392.618V144.032C392.618 142.618 393.71 142.1 394.62 142.1C395.53 142.1 396.202 142.772 396.202 143.864V147.574H397.42V143.794C397.434 141.96 396.412 140.896 394.788 140.896ZM402.577 138.614H403.067V137.466H402.367C400.617 137.466 399.903 138.642 399.903 140.35V141.036H398.643V142.086H399.903V147.574H401.121V142.086H402.647V141.036H401.121V140.182C401.107 139.328 401.415 138.614 402.577 138.614ZM407.044 140.896C406.176 140.896 405.546 141.372 405.21 142.52V141.036H403.978V147.574H405.21V145.18C405.21 143.458 405.728 142.072 407.03 142.072C407.282 142.072 407.632 142.128 407.982 142.296L408.178 141.148C407.982 141.022 407.506 140.896 407.044 140.896ZM414.367 141.036V142.058C413.933 141.288 413.009 140.896 412.029 140.896C410.237 140.896 408.767 142.226 408.767 144.298C408.767 146.356 410.251 147.714 412.043 147.714C412.981 147.714 413.933 147.294 414.367 146.538V147.574H415.585V141.036H414.367ZM412.141 146.566C410.951 146.566 409.999 145.586 409.999 144.284C409.999 142.968 410.951 142.044 412.141 142.044C413.219 142.044 414.367 142.87 414.367 144.284C414.367 145.684 413.317 146.566 412.141 146.566ZM419.636 147.714C420.994 147.714 422.17 146.972 422.17 145.754C422.17 145.012 421.82 144.2 420.462 143.864L419.496 143.626C419.076 143.528 418.656 143.29 418.656 142.842C418.656 142.338 419.076 141.96 419.706 141.96C420.224 141.96 420.742 142.296 420.756 142.8H421.932C421.932 141.484 420.784 140.896 419.678 140.896C418.362 140.896 417.438 141.722 417.438 142.8C417.438 143.85 418.068 144.382 419.16 144.676L420.056 144.886C420.574 144.998 420.952 145.25 420.952 145.74C420.952 146.272 420.462 146.65 419.636 146.65C418.838 146.65 418.348 146.188 418.334 145.628H417.2C417.256 146.972 418.46 147.714 419.636 147.714ZM426.952 141.036H425.538V138.558H424.32V141.036H423.144V142.086H424.32V147.574H425.538V142.086H426.952V141.036ZM431.38 140.896C430.512 140.896 429.882 141.372 429.546 142.52V141.036H428.314V147.574H429.546V145.18C429.546 143.458 430.064 142.072 431.366 142.072C431.618 142.072 431.968 142.128 432.318 142.296L432.514 141.148C432.318 141.022 431.842 140.896 431.38 140.896ZM438.446 141.036V144.578C438.432 145.992 437.34 146.51 436.43 146.51C435.52 146.51 434.862 145.838 434.862 144.746V141.036H433.644V144.816C433.63 146.65 434.638 147.714 436.276 147.714C437.004 147.714 438.054 147.364 438.446 146.552V147.574H439.664V141.036H438.446ZM444.847 147.7C445.869 147.7 446.765 147.308 447.339 146.664L446.569 145.866C446.163 146.286 445.575 146.552 444.889 146.552C443.601 146.552 442.565 145.642 442.565 144.298C442.565 142.954 443.601 142.044 444.889 142.044C445.575 142.044 446.163 142.31 446.569 142.73L447.339 141.932C446.765 141.302 445.869 140.896 444.847 140.896C442.971 140.896 441.333 142.226 441.333 144.298C441.333 146.37 442.971 147.7 444.847 147.7ZM452.013 141.036H450.599V138.558H449.381V141.036H448.205V142.086H449.381V147.574H450.599V142.086H452.013V141.036ZM458.093 141.036V144.578C458.079 145.992 456.987 146.51 456.077 146.51C455.167 146.51 454.509 145.838 454.509 144.746V141.036H453.291V144.816C453.277 146.65 454.285 147.714 455.923 147.714C456.651 147.714 457.701 147.364 458.093 146.552V147.574H459.311V141.036H458.093ZM464.493 140.896C463.625 140.896 462.995 141.372 462.659 142.52V141.036H461.427V147.574H462.659V145.18C462.659 143.458 463.177 142.072 464.479 142.072C464.731 142.072 465.081 142.128 465.431 142.296L465.627 141.148C465.431 141.022 464.955 140.896 464.493 140.896ZM472.81 144.284C472.81 142.212 471.424 140.896 469.562 140.896C467.7 140.896 466.202 142.212 466.202 144.284C466.202 146.356 467.7 147.714 469.562 147.714C470.822 147.714 471.998 147.126 472.572 145.992L471.508 145.572C471.144 146.23 470.402 146.566 469.604 146.566C468.484 146.566 467.644 145.992 467.462 144.83H472.782C472.796 144.648 472.81 144.466 472.81 144.284ZM467.476 143.78C467.672 142.604 468.456 142.044 469.562 142.044C470.64 142.044 471.438 142.66 471.592 143.78H467.476Z" fill="#45CCF7"/>
<rect x="357.5" y="30.5" width="226" height="142.574" stroke="#45CCF7" shape-rendering="crispEdges"/>
</g>
<rect x="0.5" y="245.5" width="225" height="59" fill="#172634" fill-opacity="0.6"/>
<path d="M38.2033 280.18C40.5433 280.18 42.5833 279.04 43.8233 277.32L41.7033 275.76C40.9233 276.88 39.7633 277.56 38.2833 277.56C35.7833 277.56 33.9833 275.56 33.9833 273.1C33.9833 270.64 35.8033 268.68 38.3033 268.68C39.7633 268.68 40.9233 269.36 41.7033 270.46L43.8233 268.92C42.5833 267.18 40.5433 266.06 38.2033 266.06C34.3033 266.06 31.2033 269.22 31.2033 273.1C31.2033 277.02 34.3033 280.18 38.2033 280.18ZM50.01 280.18C52.67 280.18 55.03 278.26 55.03 275.32C55.03 272.36 52.67 270.44 50.01 270.44C47.35 270.44 44.99 272.36 44.99 275.32C44.99 278.26 47.35 280.18 50.01 280.18ZM50.01 277.74C48.71 277.74 47.65 276.76 47.65 275.32C47.65 273.86 48.71 272.88 50.01 272.88C51.31 272.88 52.37 273.86 52.37 275.32C52.37 276.76 51.31 277.74 50.01 277.74ZM68.4734 270.44C67.5134 270.44 66.0734 270.88 65.3534 272.24C64.8134 271.1 63.7334 270.44 62.3534 270.44C61.3134 270.44 59.9934 271.06 59.7134 272.34V270.68H57.0934V280H59.7134V275.14C59.7134 273.46 60.6734 273.02 61.6134 273.02C62.4934 273.02 63.2534 273.6 63.2534 275.06V280H65.8734V275.06C65.9334 273.66 66.6734 273 67.7134 273.02C68.6334 273.02 69.3934 273.62 69.3934 275.08V280H72.0334V274.88C72.0334 272.08 70.8134 270.44 68.4734 270.44ZM80.1548 270.44C79.0948 270.44 77.8148 270.86 77.1548 271.8V270.68H74.5348V284.58H77.1548V278.84C77.8148 279.78 79.0948 280.18 80.1548 280.18C82.5548 280.18 84.7348 278.32 84.7348 275.32C84.7348 272.32 82.5548 270.44 80.1548 270.44ZM79.6548 277.72C78.4348 277.72 77.2348 276.76 77.2348 275.32C77.2348 273.9 78.3748 272.9 79.6548 272.9C80.9748 272.9 82.0548 273.96 82.0548 275.32C82.0548 276.7 80.9748 277.72 79.6548 277.72ZM86.82 280H89.44V265.7H86.82V280ZM101.314 275.18C101.314 272.32 99.1339 270.44 96.4739 270.44C93.7939 270.44 91.5139 272.32 91.5139 275.34C91.5139 278.22 93.6139 280.18 96.4739 280.18C98.1139 280.18 99.7539 279.54 100.634 278.36L99.0939 276.82C98.5339 277.48 97.5939 277.86 96.6539 277.86C95.3939 277.86 94.5139 277.26 94.2339 276.18H101.274C101.294 275.76 101.314 275.44 101.314 275.18ZM94.2339 274.48C94.5139 273.22 95.4539 272.72 96.5139 272.72C97.6939 272.72 98.6139 273.38 98.6939 274.48H94.2339ZM108.707 270.68H106.727V267.26H104.107V270.68H102.407V272.7H104.107V280H106.727V272.7H108.707V270.68ZM119.478 275.18C119.478 272.32 117.298 270.44 114.638 270.44C111.958 270.44 109.678 272.32 109.678 275.34C109.678 278.22 111.778 280.18 114.638 280.18C116.278 280.18 117.918 279.54 118.798 278.36L117.258 276.82C116.698 277.48 115.758 277.86 114.818 277.86C113.558 277.86 112.678 277.26 112.398 276.18H119.438C119.458 275.76 119.478 275.44 119.478 275.18ZM112.398 274.48C112.678 273.22 113.618 272.72 114.678 272.72C115.858 272.72 116.778 273.38 116.858 274.48H112.398ZM136.978 270.68L135.218 276.36L133.438 270.68H131.238L129.458 276.36L127.698 270.68H124.858L128.258 280H130.498L132.358 273.94L134.278 280H136.518L139.818 270.68H136.978ZM150.376 275.18C150.376 272.32 148.196 270.44 145.536 270.44C142.856 270.44 140.576 272.32 140.576 275.34C140.576 278.22 142.676 280.18 145.536 280.18C147.176 280.18 148.816 279.54 149.696 278.36L148.156 276.82C147.596 277.48 146.656 277.86 145.716 277.86C144.456 277.86 143.576 277.26 143.296 276.18H150.336C150.356 275.76 150.376 275.44 150.376 275.18ZM143.296 274.48C143.576 273.22 144.516 272.72 145.576 272.72C146.756 272.72 147.676 273.38 147.756 274.48H143.296ZM158.026 270.46C156.966 270.46 155.686 270.86 155.026 271.8V265.7H152.406V280H155.026V278.84C155.686 279.78 156.966 280.18 158.026 280.18C160.426 280.18 162.606 278.32 162.606 275.32C162.606 272.32 160.426 270.46 158.026 270.46ZM157.526 277.74C156.246 277.74 155.106 276.74 155.106 275.32C155.106 273.88 156.306 272.92 157.526 272.92C158.846 272.92 159.926 273.94 159.926 275.32C159.926 276.68 158.846 277.74 157.526 277.74ZM175.457 272.94C176.517 272.4 177.177 271.44 177.177 270.34C177.217 268.12 175.417 266.72 173.117 266.72C171.437 266.72 170.077 267.48 169.157 268.56L170.597 270.2C171.097 269.56 171.997 269.14 172.817 269.14C173.777 269.14 174.457 269.64 174.497 270.44C174.557 271.36 173.737 272.12 172.317 272.12H171.577V274.14H172.837C174.177 274.14 175.097 274.9 175.097 276C175.097 277.06 174.197 277.78 172.817 277.78C171.857 277.78 171.097 277.3 170.477 276.46L168.637 277.88C169.577 279.38 171.077 280.18 172.937 280.18C175.777 280.18 177.777 278.56 177.777 276.2C177.777 274.66 176.877 273.46 175.457 272.94ZM181.323 280.18C182.243 280.18 183.023 279.5 183.023 278.56C183.023 277.64 182.243 276.96 181.323 276.96C180.423 276.96 179.663 277.64 179.663 278.56C179.663 279.5 180.423 280.18 181.323 280.18ZM189.76 280.18C193.56 280.18 194.6 277.2 194.6 273.48C194.6 269.7 193.56 266.72 189.76 266.72C185.94 266.72 184.88 269.7 184.88 273.48C184.88 277.2 185.94 280.18 189.76 280.18ZM189.76 277.74C188.06 277.74 187.54 275.86 187.54 273.48C187.54 271.06 188.06 269.16 189.76 269.16C191.44 269.16 191.94 271.06 191.94 273.48C191.94 275.86 191.44 277.74 189.76 277.74Z" fill="#45CCF7"/>
<rect x="0.5" y="245.5" width="225" height="59" stroke="#45CCF7"/>
<path d="M247 273.44H260.8V270.56H247V273.44ZM247 279.44H260.8V276.56H247V279.44Z" fill="#45CCF7"/>
<rect x="280.3" y="245.5" width="153" height="59" fill="#172634" fill-opacity="0.6"/>
<path d="M320.058 280H322.978L317.858 266.22H314.858L309.718 280H312.678L313.778 276.7H318.938L320.058 280ZM314.598 274.28L316.338 269.1L318.098 274.28H314.598ZM327.504 280.18C329.424 280.18 331.424 279.22 331.424 277.26C331.424 276.5 331.144 275.1 328.904 274.5L327.364 274.1C326.844 273.96 326.444 273.74 326.444 273.3C326.444 272.82 326.924 272.52 327.524 272.52C328.144 272.52 328.664 272.86 328.664 273.48H331.164C331.184 271.28 329.184 270.44 327.484 270.44C325.324 270.44 323.824 271.78 323.824 273.22C323.824 274.2 324.144 275.54 326.544 276.18L327.784 276.48C328.484 276.66 328.804 276.86 328.804 277.26C328.804 277.8 328.224 278.12 327.464 278.12C326.544 278.12 326.084 277.54 326.084 277H323.624C323.644 279.06 325.544 280.18 327.504 280.18ZM336.801 280.18C338.721 280.18 340.721 279.22 340.721 277.26C340.721 276.5 340.441 275.1 338.201 274.5L336.661 274.1C336.141 273.96 335.741 273.74 335.741 273.3C335.741 272.82 336.221 272.52 336.821 272.52C337.441 272.52 337.961 272.86 337.961 273.48H340.461C340.481 271.28 338.481 270.44 336.781 270.44C334.621 270.44 333.121 271.78 333.121 273.22C333.121 274.2 333.441 275.54 335.841 276.18L337.081 276.48C337.781 276.66 338.101 276.86 338.101 277.26C338.101 277.8 337.521 278.12 336.761 278.12C335.841 278.12 335.381 277.54 335.381 277H332.921C332.941 279.06 334.841 280.18 336.801 280.18ZM352.038 275.18C352.038 272.32 349.858 270.44 347.198 270.44C344.518 270.44 342.238 272.32 342.238 275.34C342.238 278.22 344.338 280.18 347.198 280.18C348.838 280.18 350.478 279.54 351.358 278.36L349.818 276.82C349.258 277.48 348.318 277.86 347.378 277.86C346.118 277.86 345.238 277.26 344.958 276.18H351.998C352.018 275.76 352.038 275.44 352.038 275.18ZM344.958 274.48C345.238 273.22 346.178 272.72 347.238 272.72C348.418 272.72 349.338 273.38 349.418 274.48H344.958ZM359.431 270.68H357.451V267.26H354.831V270.68H353.131V272.7H354.831V280H357.451V272.7H359.431V270.68ZM375.883 265.7H370.923C368.263 265.7 366.823 267.3 366.823 270.1V270.68H365.063V272.7H366.823V280H369.443V272.7H371.483V270.68H369.443V270.08C369.463 268.96 369.943 268.14 371.443 268.14H373.243V280H375.883V265.7ZM382.96 280.18C385.62 280.18 387.98 278.26 387.98 275.32C387.98 272.36 385.62 270.44 382.96 270.44C380.3 270.44 377.94 272.36 377.94 275.32C377.94 278.26 380.3 280.18 382.96 280.18ZM382.96 277.74C381.66 277.74 380.6 276.76 380.6 275.32C380.6 273.86 381.66 272.88 382.96 272.88C384.26 272.88 385.32 273.86 385.32 275.32C385.32 276.76 384.26 277.74 382.96 277.74ZM400.807 270.68L399.047 276.36L397.267 270.68H395.067L393.287 276.36L391.527 270.68H388.687L392.087 280H394.327L396.187 273.94L398.107 280H400.347L403.647 270.68H400.807Z" fill="#45CCF7"/>
<rect x="280.3" y="245.5" width="153" height="59" stroke="#45CCF7"/>
<g filter="url(#filter1_d)">
<rect x="449.8" y="259.5" width="31" height="31" rx="15.5" fill="#172634" fill-opacity="0.6" shape-rendering="crispEdges"/>
<path d="M470.8 273.648H466.625V269.5H463.948V273.648H459.8V276.325H463.948V280.5H466.625V276.325H470.8V273.648Z" fill="#45CCF7"/>
<rect x="450.3" y="260" width="30" height="30" rx="15" stroke="#45CCF7" shape-rendering="crispEdges"/>
</g>
<rect x="497.3" y="245.5" width="153" height="59" fill="#172634" fill-opacity="0.6"/>
<path d="M528.908 280H534.308C538.268 280 540.568 277.04 540.568 273.14C540.568 269.22 538.268 266.22 534.308 266.22H528.908V280ZM531.688 277.54V268.68H534.308C536.608 268.68 537.788 270.78 537.788 273.14C537.788 275.5 536.608 277.54 534.308 277.54H531.688ZM549.747 270.68V271.8C549.087 270.86 547.827 270.46 546.747 270.46C544.347 270.46 542.167 272.32 542.167 275.32C542.167 278.32 544.347 280.18 546.747 280.18C547.787 280.18 549.087 279.76 549.747 278.84V280H552.367V270.68H549.747ZM547.247 277.74C545.927 277.74 544.827 276.68 544.827 275.32C544.827 273.94 545.927 272.92 547.247 272.92C548.467 272.92 549.667 273.88 549.667 275.32C549.667 276.74 548.527 277.74 547.247 277.74ZM560.513 270.68H558.533V267.26H555.913V270.68H554.213V272.7H555.913V280H558.533V272.7H560.513V270.68ZM569.064 270.68V271.8C568.404 270.86 567.144 270.46 566.064 270.46C563.664 270.46 561.484 272.32 561.484 275.32C561.484 278.32 563.664 280.18 566.064 280.18C567.104 280.18 568.404 279.76 569.064 278.84V280H571.684V270.68H569.064ZM566.564 277.74C565.244 277.74 564.144 276.68 564.144 275.32C564.144 273.94 565.244 272.92 566.564 272.92C567.784 272.92 568.984 273.88 568.984 275.32C568.984 276.74 567.844 277.74 566.564 277.74ZM587.975 268.68V266.22H579.455V280H582.235V274.44H586.795V272H582.235V268.68H587.975ZM589.856 280H592.476V265.7H589.856V280ZM599.55 280.18C602.21 280.18 604.57 278.26 604.57 275.32C604.57 272.36 602.21 270.44 599.55 270.44C596.89 270.44 594.53 272.36 594.53 275.32C594.53 278.26 596.89 280.18 599.55 280.18ZM599.55 277.74C598.25 277.74 597.19 276.76 597.19 275.32C597.19 273.86 598.25 272.88 599.55 272.88C600.85 272.88 601.91 273.86 601.91 275.32C601.91 276.76 600.85 277.74 599.55 277.74ZM617.397 270.68L615.637 276.36L613.857 270.68H611.657L609.877 276.36L608.117 270.68H605.277L608.677 280H610.917L612.777 273.94L614.697 280H616.937L620.237 270.68H617.397Z" fill="#45CCF7"/>
<rect x="497.3" y="245.5" width="153" height="59" stroke="#45CCF7"/>
<rect x="685.5" y="31.5" width="185" height="59" fill="#172634" fill-opacity="0.6"/>
<path d="M745.863 66L744.183 52.22H741.783L737.563 61.26L733.303 52.22H730.943L729.243 66H732.083L733.083 57.46L736.483 64.44H738.663L742.023 57.46L743.023 66H745.863ZM757.261 61.18C757.261 58.32 755.081 56.44 752.421 56.44C749.741 56.44 747.461 58.32 747.461 61.34C747.461 64.22 749.561 66.18 752.421 66.18C754.061 66.18 755.701 65.54 756.581 64.36L755.041 62.82C754.481 63.48 753.541 63.86 752.601 63.86C751.341 63.86 750.461 63.26 750.181 62.18H757.221C757.241 61.76 757.261 61.44 757.261 61.18ZM750.181 60.48C750.461 59.22 751.401 58.72 752.461 58.72C753.641 58.72 754.561 59.38 754.641 60.48H750.181ZM764.654 56.68H762.674V53.26H760.054V56.68H758.354V58.7H760.054V66H762.674V58.7H764.654V56.68ZM773.205 56.68V57.8C772.545 56.86 771.285 56.46 770.205 56.46C767.805 56.46 765.625 58.32 765.625 61.32C765.625 64.32 767.805 66.18 770.205 66.18C771.245 66.18 772.545 65.76 773.205 64.84V66H775.825V56.68H773.205ZM770.705 63.74C769.385 63.74 768.285 62.68 768.285 61.32C768.285 59.94 769.385 58.92 770.705 58.92C771.925 58.92 773.125 59.88 773.125 61.32C773.125 62.74 771.985 63.74 770.705 63.74ZM783.596 66H788.996C792.956 66 795.256 63.04 795.256 59.14C795.256 55.22 792.956 52.22 788.996 52.22H783.596V66ZM786.376 63.54V54.68H788.996C791.296 54.68 792.476 56.78 792.476 59.14C792.476 61.5 791.296 63.54 788.996 63.54H786.376ZM804.436 56.68V57.8C803.776 56.86 802.516 56.46 801.436 56.46C799.036 56.46 796.856 58.32 796.856 61.32C796.856 64.32 799.036 66.18 801.436 66.18C802.476 66.18 803.776 65.76 804.436 64.84V66H807.056V56.68H804.436ZM801.936 63.74C800.616 63.74 799.516 62.68 799.516 61.32C799.516 59.94 800.616 58.92 801.936 58.92C803.156 58.92 804.356 59.88 804.356 61.32C804.356 62.74 803.216 63.74 801.936 63.74ZM815.201 56.68H813.221V53.26H810.601V56.68H808.901V58.7H810.601V66H813.221V58.7H815.201V56.68ZM823.752 56.68V57.8C823.092 56.86 821.832 56.46 820.752 56.46C818.352 56.46 816.172 58.32 816.172 61.32C816.172 64.32 818.352 66.18 820.752 66.18C821.792 66.18 823.092 65.76 823.752 64.84V66H826.372V56.68H823.752ZM821.252 63.74C819.932 63.74 818.832 62.68 818.832 61.32C818.832 59.94 819.932 58.92 821.252 58.92C822.472 58.92 823.672 59.88 823.672 61.32C823.672 62.74 822.532 63.74 821.252 63.74Z" fill="#45CCF7"/>
<rect x="685.5" y="31.5" width="185" height="59" stroke="#45CCF7"/>
<rect x="685.5" y="125.5" width="185" height="59" fill="#172634" fill-opacity="0.6"/>
<path d="M717.092 160H722.492C726.452 160 728.752 157.04 728.752 153.14C728.752 149.22 726.452 146.22 722.492 146.22H717.092V160ZM719.872 157.54V148.68H722.492C724.792 148.68 725.972 150.78 725.972 153.14C725.972 155.5 724.792 157.54 722.492 157.54H719.872ZM737.932 150.68V151.8C737.272 150.86 736.012 150.46 734.932 150.46C732.532 150.46 730.352 152.32 730.352 155.32C730.352 158.32 732.532 160.18 734.932 160.18C735.972 160.18 737.272 159.76 737.932 158.84V160H740.552V150.68H737.932ZM735.432 157.74C734.112 157.74 733.012 156.68 733.012 155.32C733.012 153.94 734.112 152.92 735.432 152.92C736.652 152.92 737.852 153.88 737.852 155.32C737.852 156.74 736.712 157.74 735.432 157.74ZM748.697 150.68H746.717V147.26H744.097V150.68H742.397V152.7H744.097V160H746.717V152.7H748.697V150.68ZM757.248 150.68V151.8C756.588 150.86 755.328 150.46 754.248 150.46C751.848 150.46 749.668 152.32 749.668 155.32C749.668 158.32 751.848 160.18 754.248 160.18C755.288 160.18 756.588 159.76 757.248 158.84V160H759.868V150.68H757.248ZM754.748 157.74C753.428 157.74 752.328 156.68 752.328 155.32C752.328 153.94 753.428 152.92 754.748 152.92C755.968 152.92 757.168 153.88 757.168 155.32C757.168 156.74 756.028 157.74 754.748 157.74ZM771.819 160.18C774.419 160.18 776.759 158.74 776.759 156C776.759 153.66 774.939 152.56 772.859 151.98L771.319 151.54C769.879 151.14 769.779 150.42 769.779 150.08C769.779 149.16 770.599 148.5 771.679 148.5C772.879 148.5 773.559 149.26 773.559 150.24H776.339C776.339 147.62 774.339 146.04 771.739 146.04C769.099 146.04 766.979 147.68 766.979 150.14C766.979 151.38 767.519 153.2 770.539 154L772.219 154.48C773.399 154.84 773.959 155.38 773.959 156.14C773.959 157.12 773.139 157.76 771.899 157.76C770.619 157.76 769.659 156.94 769.639 155.94H766.859C766.859 158.38 768.879 160.18 771.819 160.18ZM783.46 160.18C785.16 160.18 786.52 159.4 787.4 158.18L785.44 156.8C785.02 157.38 784.24 157.74 783.48 157.74C782 157.74 781 156.68 781 155.3C781 153.94 782 152.88 783.48 152.88C784.24 152.88 785.02 153.24 785.44 153.82L787.4 152.44C786.52 151.24 785.16 150.44 783.46 150.44C780.74 150.44 778.34 152.34 778.34 155.3C778.34 158.26 780.74 160.18 783.46 160.18ZM794.691 150.44C793.791 150.44 792.291 150.96 791.891 152.14V145.7H789.271V160H791.891V155.22C791.891 153.52 793.051 153.02 793.991 153.02C794.891 153.02 795.771 153.68 795.771 155.16V160H798.391V154.88C798.411 152.08 797.131 150.44 794.691 150.44ZM810.152 155.18C810.152 152.32 807.972 150.44 805.312 150.44C802.632 150.44 800.352 152.32 800.352 155.34C800.352 158.22 802.452 160.18 805.312 160.18C806.952 160.18 808.592 159.54 809.472 158.36L807.932 156.82C807.372 157.48 806.432 157.86 805.492 157.86C804.232 157.86 803.352 157.26 803.072 156.18H810.112C810.132 155.76 810.152 155.44 810.152 155.18ZM803.072 154.48C803.352 153.22 804.292 152.72 805.352 152.72C806.532 152.72 807.452 153.38 807.532 154.48H803.072ZM823.561 150.44C822.601 150.44 821.161 150.88 820.441 152.24C819.901 151.1 818.821 150.44 817.441 150.44C816.401 150.44 815.081 151.06 814.801 152.34V150.68H812.181V160H814.801V155.14C814.801 153.46 815.761 153.02 816.701 153.02C817.581 153.02 818.341 153.6 818.341 155.06V160H820.961V155.06C821.021 153.66 821.761 153 822.801 153.02C823.721 153.02 824.481 153.62 824.481 155.08V160H827.121V154.88C827.121 152.08 825.901 150.44 823.561 150.44ZM836.643 150.68V151.8C835.983 150.86 834.723 150.46 833.643 150.46C831.243 150.46 829.063 152.32 829.063 155.32C829.063 158.32 831.243 160.18 833.643 160.18C834.683 160.18 835.983 159.76 836.643 158.84V160H839.263V150.68H836.643ZM834.143 157.74C832.823 157.74 831.723 156.68 831.723 155.32C831.723 153.94 832.823 152.92 834.143 152.92C835.363 152.92 836.563 153.88 836.563 155.32C836.563 156.74 835.423 157.74 834.143 157.74Z" fill="#45CCF7"/>
<rect x="685.5" y="125.5" width="185" height="59" stroke="#45CCF7"/>
<line x1="641" y1="59.5" x2="685" y2="59.5" stroke="#45CCF7"/>
<line x1="641" y1="148.5" x2="685" y2="148.5" stroke="#45CCF7"/>
<line x1="641.5" y1="59" x2="641.5" y2="149" stroke="#45CCF7"/>
<line x1="584" y1="103.5" x2="641" y2="103.5" stroke="#45CCF7"/>
<line x1="465.5" y1="173" x2="465.5" y2="260" stroke="#45CCF7"/>
<defs>
<filter id="filter0_d" x="327" y="0" width="287" height="203.574" filterUnits="userSpaceOnUse" color-interpolation-filters="sRGB">
<feFlood flood-opacity="0" result="BackgroundImageFix"/>
<feColorMatrix in="SourceAlpha" type="matrix" values="0 0 0 0 0 0 0 0 0 0 0 0 0 0 0 0 0 0 127 0" result="hardAlpha"/>
<feOffset/>
<feGaussianBlur stdDeviation="15"/>
<feComposite in2="hardAlpha" operator="out"/>
<feColorMatrix type="matrix" values="0 0 0 0 0.270588 0 0 0 0 0.8 0 0 0 0 0.968627 0 0 0 0.25 0"/>
<feBlend mode="normal" in2="BackgroundImageFix" result="effect1_dropShadow"/>
<feBlend mode="normal" in="SourceGraphic" in2="effect1_dropShadow" result="shape"/>
</filter>
<filter id="filter1_d" x="419.8" y="229.5" width="91" height="91" filterUnits="userSpaceOnUse" color-interpolation-filters="sRGB">
<feFlood flood-opacity="0" result="BackgroundImageFix"/>
<feColorMatrix in="SourceAlpha" type="matrix" values="0 0 0 0 0 0 0 0 0 0 0 0 0 0 0 0 0 0 127 0" result="hardAlpha"/>
<feOffset/>
<feGaussianBlur stdDeviation="15"/>
<feComposite in2="hardAlpha" operator="out"/>
<feColorMatrix type="matrix" values="0 0 0 0 0.270588 0 0 0 0 0.8 0 0 0 0 0.968627 0 0 0 0.25 0"/>
<feBlend mode="normal" in2="BackgroundImageFix" result="effect1_dropShadow"/>
<feBlend mode="normal" in="SourceGraphic" in2="effect1_dropShadow" result="shape"/>
</filter>
<linearGradient id="paint0_linear" x1="391.947" y1="52.0612" x2="422.452" y2="89.1615" gradientUnits="userSpaceOnUse">
<stop offset="0.114583" stop-color="#2F5EE9"/>
<stop offset="0.817708" stop-color="#AC59FF"/>
</linearGradient>
<clipPath id="clip0">
<rect width="35.511" height="39.5737" fill="white" transform="translate(387 50)"/>
</clipPath>
</defs>
</svg>
