<svg width="904" height="1373" viewBox="0 0 904 1373" fill="none" xmlns="http://www.w3.org/2000/svg">
<mask id="mask0" style="mask-type:alpha" maskUnits="userSpaceOnUse" x="223" y="151" width="1118" height="999">
<path d="M975.409 1098.08C994.697 1104.56 1013.45 1110.49 1031.56 1115.81C1131.01 1145.03 1208.14 1155.56 1260.79 1147.11C1314.66 1138.46 1341.4 1109.91 1340.27 1062.23C1336.83 917.484 1314.97 821.146 1300.51 757.397C1294 728.704 1288.86 706.041 1287.87 689.249L1286.75 689.184L1287.87 689.249C1286.22 661.312 1250.17 612.831 1193.78 562.727C1133.1 508.807 1062.56 464.797 1000.26 441.98C914.332 410.51 827.649 359.829 770.062 322.854C702.982 279.784 635.696 229.644 590.072 188.73C560.62 162.317 524.643 149.658 486.03 152.122C419.172 156.39 353.083 205.337 313.555 279.863C294.819 315.188 275.445 351.715 259.738 387.973C242.373 428.059 231.514 463.493 226.539 496.301C220.598 535.477 222.656 572.035 232.832 608.062C244.192 648.289 265.339 686.979 297.482 726.342C352.381 793.572 533.28 906.833 737.397 1001.77C820.893 1040.6 902.05 1073.41 975.409 1098.08ZM539.023 160.615C556.859 166.613 573.517 176.408 588.469 189.816C634.186 230.814 701.591 281.045 768.78 324.184C826.483 361.234 913.356 412.023 999.531 443.582C1061.52 466.284 1131.74 510.109 1192.19 563.821C1248.2 613.592 1284 661.603 1285.62 689.119C1286.62 706.03 1291.77 728.746 1298.3 757.505C1312.75 821.196 1334.59 917.448 1338.02 1062.05C1339.13 1108.86 1312.92 1136.88 1260.1 1145.36C1207.85 1153.75 1131.14 1143.24 1032.11 1114.15C945.255 1088.63 843.676 1049.25 738.352 1000.26C534.556 905.472 354.021 792.489 299.325 725.505C267.35 686.348 246.317 647.871 235.022 607.876C224.905 572.055 222.861 535.695 228.771 496.719C239.858 423.598 278.385 350.96 315.643 280.714C354.894 206.711 420.351 158.118 486.474 153.897C504.729 152.733 522.388 155.022 539.023 160.615Z" fill="url(#paint0_linear)"/>
</mask>
<g mask="url(#mask0)">
<path d="M975.405 1098.08C994.694 1104.56 1013.44 1110.49 1031.55 1115.81C1131.01 1145.03 1208.13 1155.56 1260.79 1147.11C1314.66 1138.46 1341.4 1109.9 1340.27 1062.23C1336.83 917.482 1314.97 821.143 1300.51 757.395C1294 728.702 1288.86 706.039 1287.87 689.247L1286.75 689.181L1287.87 689.247C1286.23 661.31 1250.18 612.829 1193.79 562.725C1133.1 508.806 1062.57 464.796 1000.27 441.98C914.336 410.51 827.652 359.829 770.066 322.855C702.986 279.786 635.7 229.646 590.077 188.732C560.624 162.319 524.647 149.66 486.034 152.125C419.175 156.393 353.086 205.34 313.557 279.867C294.82 315.192 275.446 351.718 259.739 387.976C242.373 428.062 231.513 463.497 226.538 496.305C220.597 535.481 222.655 572.039 232.83 608.066C244.19 648.293 265.336 686.983 297.479 726.345C352.378 793.575 533.276 906.835 737.393 1001.77C820.889 1040.61 902.046 1073.41 975.405 1098.08ZM539.027 160.617C556.863 166.615 573.521 176.41 588.474 189.818C634.19 230.815 701.595 281.046 768.783 324.185C826.486 361.234 913.36 412.023 999.534 443.582C1061.52 466.283 1131.74 510.108 1192.19 563.82C1248.2 613.59 1284.01 661.601 1285.63 689.116C1286.62 706.028 1291.78 728.743 1298.3 757.502C1312.75 821.194 1334.59 917.445 1338.02 1062.05C1339.13 1108.85 1312.91 1136.88 1260.09 1145.36C1207.85 1153.74 1131.14 1143.24 1032.1 1114.14C945.251 1088.63 843.672 1049.25 738.349 1000.26C534.552 905.475 354.018 792.492 299.322 725.509C267.347 686.352 246.314 647.875 235.02 607.88C224.904 572.059 222.859 535.699 228.77 496.723C239.858 423.602 278.386 350.964 315.645 280.718C354.897 206.714 420.355 158.121 486.478 153.9C504.733 152.735 522.393 155.024 539.027 160.617Z" fill="url(#paint1_linear)"/>
</g>
<mask id="mask1" style="mask-type:alpha" maskUnits="userSpaceOnUse" x="278" y="189" width="1025" height="924">
<path d="M975.235 1066.12C990.488 1071.25 1005.36 1075.99 1019.8 1080.3C1110.85 1107.53 1181.44 1117.58 1229.62 1110.15C1278.33 1102.65 1302.71 1077.24 1302.1 1034.63C1301.44 906.049 1283.36 814.787 1271.4 754.398C1265.78 726.049 1261.35 703.657 1260.46 686.693C1259.02 659.273 1226.06 613.175 1174.44 566.386C1119.18 516.287 1053.74 474.881 994.9 452.783C915.754 423.456 835.76 377.173 782.589 343.511C720.125 303.965 659.498 259.729 616.252 222.144C588.958 198.432 555.766 187.228 520.263 189.744C458.634 194.113 397.857 239.163 361.65 307.313L361.651 307.312C327.407 371.577 291.997 438.032 281.722 506.555C276.31 542.648 278.221 576.354 287.562 609.599C297.984 646.686 317.344 682.359 346.746 718.655C396.984 781.076 562.927 886.245 750.288 974.405C829.343 1011.6 906.172 1042.9 975.235 1066.12ZM570.578 197.601C586.466 202.943 601.344 211.521 614.775 223.189C658.104 260.847 718.837 305.161 781.399 344.769C834.675 378.498 914.841 424.877 994.199 454.282C1052.73 476.267 1117.88 517.497 1172.93 567.398C1224.2 613.873 1256.93 659.534 1258.36 686.561C1259.24 703.621 1263.69 726.057 1269.32 754.46C1281.27 814.799 1299.33 905.982 1299.99 1034.45C1300.59 1076.24 1276.7 1101.15 1228.98 1108.51C1181.19 1115.87 1110.99 1105.86 1020.33 1078.74C940.655 1054.92 847.592 1018.35 751.197 972.993C564.138 884.974 398.536 780.068 348.485 717.879C319.236 681.772 299.982 646.298 289.621 609.427C280.332 576.373 278.433 542.852 283.819 506.947C294.062 438.639 329.419 372.285 363.611 308.115L363.612 308.115C399.56 240.45 459.753 195.732 520.699 191.412C538.027 190.184 554.801 192.296 570.578 197.601Z" fill="url(#paint2_linear)"/>
</mask>
<g mask="url(#mask1)">
<path d="M975.231 1066.12C990.485 1071.25 1005.36 1075.99 1019.79 1080.3C1110.85 1107.53 1181.44 1117.57 1229.62 1110.15C1278.32 1102.64 1302.71 1077.24 1302.09 1034.63C1301.44 906.047 1283.36 814.785 1271.4 754.396C1265.78 726.047 1261.35 703.655 1260.47 686.691C1259.02 659.271 1226.06 613.173 1174.45 566.385C1119.18 516.286 1053.74 474.88 994.904 452.782C915.757 423.456 835.763 377.174 782.592 343.512C720.129 303.967 659.501 259.731 616.256 222.146C588.962 198.434 555.77 187.231 520.267 189.747C458.637 194.116 397.859 239.166 361.652 307.317L361.652 307.316C327.408 371.581 291.997 438.036 281.721 506.559C276.309 542.652 278.219 576.357 287.561 609.603C297.982 646.69 317.342 682.363 346.743 718.658C396.981 781.079 562.924 886.247 750.284 974.406C829.34 1011.6 906.169 1042.9 975.231 1066.12ZM570.582 197.603C586.47 202.945 601.348 211.523 614.778 223.191C658.108 260.849 718.84 305.162 781.402 344.77C834.678 378.499 914.844 424.877 994.202 454.281C1052.74 476.266 1117.88 517.496 1172.93 567.397C1224.2 613.872 1256.93 659.532 1258.36 686.559C1259.25 703.62 1263.69 726.055 1269.32 754.458C1281.27 814.797 1299.33 905.98 1299.98 1034.44C1300.59 1076.24 1276.7 1101.15 1228.98 1108.51C1181.19 1115.87 1110.99 1105.86 1020.32 1078.74C940.652 1054.92 847.588 1018.35 751.194 972.994C564.134 884.977 398.533 780.071 348.482 717.882C319.233 681.776 299.98 646.301 289.619 609.431C280.33 576.377 278.432 542.855 283.818 506.951C294.062 438.643 329.419 372.289 363.613 308.119L363.614 308.118C399.563 240.453 459.757 195.735 520.703 191.415C538.031 190.187 554.805 192.298 570.582 197.603Z" fill="url(#paint3_linear)"/>
</g>
<mask id="mask2" style="mask-type:alpha" maskUnits="userSpaceOnUse" x="334" y="226" width="931" height="850">
<path d="M974.921 1034.18C986.22 1037.98 997.268 1041.53 1008.06 1044.83C1090.71 1070.07 1154.78 1079.62 1198.48 1073.22C1242.02 1066.85 1264.04 1044.58 1263.93 1007.03C1266.06 893.785 1252.19 810.822 1242.06 750.245C1237.46 722.754 1233.83 701.041 1233.07 684.13C1231.8 656.81 1202.66 614.16 1155.11 570.04C1105.24 523.758 1044.89 484.955 989.548 463.579C858.393 414.313 710.11 312.18 642.438 255.55C617.298 234.532 586.883 224.783 554.479 227.358C498.086 231.839 442.628 272.993 409.747 334.759C380.022 390.241 346.33 453.128 336.907 516.806C332.023 549.813 333.785 580.669 342.295 611.133C351.777 645.08 369.348 677.736 396.013 710.967C418.886 739.875 467.06 778.222 535.321 821.858C600.894 863.775 681.822 908.24 763.2 947.062C837.762 982.633 910.227 1012.43 974.921 1034.18ZM602.188 234.565C616.115 239.248 629.198 246.614 641.085 256.554C708.878 313.284 857.444 415.606 988.874 464.975C1043.93 486.241 1104 524.877 1153.68 570.972C1200.9 614.794 1229.85 657.048 1231.1 684.001C1231.87 700.986 1235.5 722.733 1240.1 750.266C1250.22 810.794 1264.08 893.69 1261.96 1006.84C1262.06 1043.63 1240.51 1065.44 1197.9 1071.68C1154.56 1078.03 1090.86 1068.5 1008.57 1043.37C936.088 1021.23 851.536 987.477 764.064 945.746C682.774 906.966 601.938 862.552 536.445 820.686C468.385 777.178 420.389 738.99 397.648 710.249C371.124 677.191 353.65 644.72 344.223 610.973C335.762 580.687 334.012 550.004 338.87 517.169C348.262 453.696 381.903 390.907 411.582 335.51L411.583 335.509C444.224 274.192 499.144 233.348 554.908 228.917C571.334 227.61 587.246 229.542 602.188 234.565Z" fill="url(#paint4_linear)"/>
</mask>
<g mask="url(#mask2)">
<path d="M974.918 1034.18C986.217 1037.98 997.265 1041.53 1008.06 1044.83C1090.71 1070.07 1154.78 1079.62 1198.47 1073.22C1242.01 1066.84 1264.04 1044.58 1263.93 1007.03C1266.06 893.783 1252.19 810.821 1242.06 750.243C1237.47 722.752 1233.84 701.04 1233.07 684.129C1231.8 656.808 1202.66 614.158 1155.12 570.039C1105.24 523.757 1044.9 484.955 989.551 463.578C858.396 414.313 710.113 312.182 642.441 255.552C617.302 234.534 586.887 224.785 554.483 227.36C498.089 231.842 442.631 272.996 409.749 334.762C380.023 390.244 346.33 453.132 336.906 516.809C332.022 549.817 333.784 580.672 342.293 611.137C351.775 645.083 369.346 677.739 396.01 710.97C418.884 739.878 467.057 778.225 535.317 821.86C600.891 863.777 681.819 908.241 763.196 947.063C837.758 982.634 910.224 1012.43 974.918 1034.18ZM602.191 234.567C616.118 239.25 629.202 246.616 641.088 256.555C708.881 313.285 857.447 415.606 988.876 464.975C1043.93 486.241 1104.01 524.877 1153.68 570.971C1200.91 614.792 1229.85 657.046 1231.1 683.999C1231.87 700.984 1235.5 722.732 1240.1 750.264C1250.22 810.792 1264.08 893.689 1261.96 1006.84C1262.06 1043.63 1240.51 1065.44 1197.9 1071.68C1154.56 1078.03 1090.86 1068.5 1008.57 1043.37C936.085 1021.23 851.532 987.478 764.06 945.747C682.771 906.968 601.935 862.554 536.442 820.689C468.382 777.181 420.387 738.993 397.645 710.253C371.122 677.195 353.648 644.724 344.221 610.977C335.761 580.691 334.01 550.007 338.869 517.173C348.262 453.699 381.904 390.91 411.584 335.513L411.584 335.512C444.227 274.195 499.147 233.351 554.911 228.919C571.338 227.612 587.25 229.544 602.191 234.567Z" fill="url(#paint5_linear)"/>
</g>
<mask id="mask3" style="mask-type:alpha" maskUnits="userSpaceOnUse" x="389" y="264" width="839" height="774">
<path d="M974.421 1002.26C981.857 1004.76 989.165 1007.13 996.353 1009.38C1070.61 1032.64 1128.14 1041.7 1167.36 1036.33C1205.72 1031.07 1225.38 1011.93 1225.77 979.436C1230.74 880.479 1220.19 801.709 1212.49 744.194C1209.17 719.41 1206.31 698.007 1205.68 681.567C1204.6 654.746 1178.47 614.419 1135.78 573.693C1091.27 531.224 1036.01 495.024 984.194 474.374C932.325 454.572 871.285 423.603 807.655 384.808C756.581 353.669 705.905 318.733 668.621 288.956C645.633 270.62 617.983 262.323 588.666 264.968C537.521 269.578 487.394 306.836 457.847 362.201C426.557 420.219 400.01 472.672 392.093 527.053C387.736 556.976 389.351 584.98 397.029 612.664C405.573 643.469 421.356 673.11 445.28 703.275C465.952 729.935 509.413 765.174 570.961 805.173C629.842 843.438 702.705 884.127 776.128 919.744C846.142 953.708 914.18 982.001 974.421 1002.26ZM633.866 271.512C645.813 275.529 657.081 281.692 667.397 289.919C704.746 319.748 755.502 354.74 806.648 385.924C870.395 424.789 931.565 455.822 983.549 475.668C1035.1 496.21 1090.1 532.25 1134.43 574.542C1176.83 614.994 1202.78 654.955 1203.84 681.439C1204.47 697.933 1207.34 719.362 1210.66 744.175C1218.36 801.645 1228.9 880.354 1223.94 979.227C1223.55 1011.03 1204.34 1029.75 1166.84 1034.89C1127.95 1040.22 1070.76 1031.18 996.846 1008.04C931.538 987.578 855.499 956.631 776.946 918.527C703.605 882.95 630.828 842.31 572.022 804.092C510.66 764.214 467.362 729.125 446.81 702.618C423.012 672.61 407.317 643.141 398.824 612.519C391.192 584.998 389.587 557.153 393.92 527.389C401.811 473.187 428.312 420.828 459.553 362.903L459.553 362.9C488.882 307.946 538.516 270.975 589.087 266.416C604.646 265.014 619.729 266.759 633.866 271.512Z" fill="url(#paint6_linear)"/>
</mask>
<g mask="url(#mask3)">
<path d="M974.418 1002.26C981.854 1004.76 989.162 1007.13 996.35 1009.38C1070.6 1032.63 1128.14 1041.7 1167.36 1036.32C1205.72 1031.07 1225.38 1011.93 1225.77 979.434C1230.74 880.477 1220.19 801.707 1212.49 744.192C1209.17 719.408 1206.31 698.005 1205.68 681.565C1204.6 654.744 1178.48 614.417 1135.79 573.691C1091.27 531.223 1036.02 495.023 984.197 474.373C932.328 454.572 871.287 423.603 807.657 384.809C756.584 353.67 705.908 318.734 668.624 288.957C645.636 270.621 617.986 262.325 588.669 264.969C537.524 269.58 487.396 306.838 457.848 362.204C426.557 420.222 400.01 472.674 392.092 527.056C387.735 556.979 389.35 584.983 397.027 612.666C405.571 643.472 421.354 673.112 445.277 703.278C465.949 729.938 509.41 765.176 570.958 805.175C629.839 843.44 702.702 884.128 776.125 919.745C846.139 953.708 914.177 982.001 974.418 1002.26ZM633.869 271.514C645.816 275.53 657.084 281.693 667.4 289.92C704.749 319.749 755.505 354.741 806.651 385.925C870.397 424.79 931.568 455.822 983.552 475.667C1035.1 496.209 1090.1 532.249 1134.43 574.541C1176.83 614.992 1202.78 654.953 1203.84 681.437C1204.47 697.931 1207.34 719.361 1210.66 744.173C1218.36 801.643 1228.9 880.352 1223.93 979.225C1223.55 1011.03 1204.34 1029.75 1166.84 1034.89C1127.95 1040.22 1070.76 1031.18 996.843 1008.03C931.535 987.577 855.496 956.631 776.943 918.527C703.602 882.951 630.825 842.311 572.019 804.093C510.658 764.216 467.36 729.127 446.808 702.621C423.009 672.612 407.315 643.144 398.822 612.521C391.19 585.001 389.586 557.156 393.919 527.392C401.811 473.19 428.313 420.831 459.554 362.905L459.554 362.903C488.884 307.948 538.519 270.977 589.09 266.418C604.649 265.015 619.732 266.76 633.869 271.514Z" fill="url(#paint7_linear)"/>
</g>
<mask id="mask4" style="mask-type:alpha" maskUnits="userSpaceOnUse" x="445" y="301" width="747" height="700">
<path d="M973.684 970.363C977.384 971.607 981.048 972.815 984.677 973.986C1050.53 995.253 1101.53 1003.83 1136.27 999.48C1169.46 995.324 1186.74 979.294 1187.62 951.838C1195.66 865.895 1188.22 790.255 1182.79 735.024C1180.63 713.122 1178.77 694.208 1178.29 678.999C1177.4 652.266 1154.86 615.213 1116.46 577.34C1077.26 538.673 1027.1 505.075 978.847 485.161C882.425 447.629 764.021 374.456 694.805 322.35C673.953 306.684 649.057 299.843 622.807 302.567C576.928 307.327 532.147 340.69 505.944 389.635L505.946 389.633C479.081 439.042 454.379 487.516 447.278 537.295C443.45 564.133 444.916 589.285 451.762 614.189C459.368 641.854 473.363 668.477 494.547 695.579C513.022 720 551.776 752.136 606.611 788.505C658.811 823.126 723.613 860.045 789.079 892.462C854.464 924.839 918.01 951.643 973.684 970.363ZM665.644 308.424C675.585 311.767 685.009 316.735 693.714 323.276C763.037 375.462 881.642 448.755 978.231 486.351C1026.23 506.16 1076.15 539.606 1115.19 578.106C1153.32 615.721 1175.71 652.45 1176.59 678.872C1177.07 694.115 1178.93 713.046 1181.09 734.967C1186.52 790.155 1193.95 865.737 1185.92 951.611C1185.06 978.445 1168.2 994.091 1135.82 998.147C1101.39 1002.46 1050.69 993.912 985.151 972.745C927.028 953.962 859.487 925.824 789.851 891.342C724.461 858.962 659.739 822.089 607.608 787.514C552.944 751.258 514.341 719.261 495.972 694.982C474.899 668.022 460.983 641.554 453.424 614.057C446.619 589.304 445.162 564.295 448.97 537.604C456.046 487.993 480.705 439.612 507.522 390.289L507.525 390.286C533.529 341.712 577.863 308.614 623.224 303.908C637.965 302.377 652.272 303.928 665.644 308.424Z" fill="url(#paint8_linear)"/>
</mask>
<g mask="url(#mask4)">
<path d="M973.681 970.362C977.381 971.606 981.045 972.814 984.674 973.985C1050.53 995.252 1101.53 1003.83 1136.27 999.479C1169.46 995.322 1186.74 979.293 1187.62 951.836C1195.66 865.893 1188.22 790.253 1182.79 735.022C1180.63 713.12 1178.77 694.206 1178.29 678.997C1177.4 652.264 1154.86 615.211 1116.47 577.338C1077.26 538.672 1027.1 505.074 978.849 485.161C882.427 447.628 764.024 374.457 694.808 322.351C673.956 306.685 649.06 299.844 622.81 302.568C576.93 307.328 532.149 340.692 505.945 389.638L505.947 389.635C479.082 439.044 454.379 487.518 447.277 537.297C443.449 564.135 444.915 589.287 451.761 614.192C459.366 641.856 473.361 668.479 494.545 695.581C513.02 720.002 551.773 752.138 606.608 788.506C658.808 823.127 723.61 860.046 789.076 892.463C854.461 924.839 918.007 951.643 973.681 970.362ZM665.647 308.425C675.588 311.768 685.012 316.736 693.717 323.277C763.04 375.463 881.644 448.755 978.233 486.35C1026.23 506.159 1076.16 539.605 1115.19 578.104C1153.33 615.72 1175.71 652.448 1176.59 678.87C1177.07 694.114 1178.93 713.044 1181.09 734.965C1186.52 790.153 1193.95 865.735 1185.92 951.609C1185.06 978.443 1168.2 994.089 1135.81 998.146C1101.38 1002.46 1050.69 993.911 985.148 972.744C927.025 953.961 859.485 925.824 789.848 891.342C724.458 858.963 659.737 822.09 607.605 787.515C552.942 751.26 514.339 719.263 495.97 694.984C474.897 668.024 460.981 641.557 453.422 614.06C446.618 589.306 445.161 564.298 448.969 537.606C456.046 487.995 480.705 439.614 507.524 390.291L507.526 390.288C533.531 341.714 577.865 308.615 623.227 303.909C637.968 302.378 652.275 303.929 665.647 308.425Z" fill="url(#paint9_linear)"/>
</g>
<mask id="mask5" style="mask-type:alpha" maskUnits="userSpaceOnUse" x="500" y="339" width="657" height="625">
<path d="M972.62 938.519C972.757 938.566 972.891 938.61 973.029 938.657C1030.49 957.942 1074.96 966.034 1105.22 962.711C1133.24 959.634 1148.12 946.69 1149.47 924.24C1161.16 849.901 1156.55 775.297 1153.18 720.824C1152.13 703.767 1151.22 689.035 1150.91 676.428C1150.21 650.157 1130.61 615.369 1097.14 580.985C1063.2 546.106 1018.13 515.11 973.5 495.945C931.964 479.387 884.609 455.885 832.726 426.083C793.697 403.664 752.969 378.025 720.985 355.74C702.255 342.728 680.089 337.342 656.88 340.165C616.293 345.102 576.887 374.57 554.042 417.067C531.386 458.31 508.739 502.361 502.462 547.533C499.162 571.285 500.481 593.586 506.495 615.711C513.161 640.235 525.368 663.841 543.814 687.879C576.085 731.855 679.866 803.13 802.05 865.228C862.696 896.049 921.667 921.388 972.62 938.519ZM697.563 345.294C705.464 347.95 712.997 351.739 720.036 356.629C752.06 378.942 792.837 404.612 831.912 427.057C883.875 456.906 931.314 480.449 972.913 497.031C1017.3 516.092 1062.16 546.944 1095.95 581.666C1129.18 615.817 1148.65 650.311 1149.34 676.304C1149.66 688.929 1150.57 703.669 1151.62 720.737C1154.98 775.165 1159.59 849.707 1147.91 923.989C1146.6 945.886 1132.1 958.485 1104.83 961.481C1074.85 964.773 1030.66 956.712 973.488 937.522C973.354 937.477 973.214 937.43 973.08 937.385C922.217 920.284 863.344 894.987 802.779 864.206C680.821 802.224 577.282 731.148 545.137 687.342C526.787 663.429 514.652 639.964 508.027 615.592C502.049 593.603 500.739 571.432 504.021 547.812C510.276 502.8 532.879 458.838 555.494 417.669L555.496 417.665C578.164 375.501 617.172 346.274 657.297 341.394C671.289 339.69 684.897 341.036 697.563 345.294Z" fill="url(#paint10_linear)"/>
</mask>
<g mask="url(#mask5)">
<path d="M972.617 938.519C972.754 938.565 972.889 938.61 973.027 938.656C1030.48 957.941 1074.96 966.033 1105.22 962.71C1133.24 959.633 1148.12 946.689 1149.47 924.238C1161.16 849.9 1156.55 775.295 1153.19 720.823C1152.13 703.766 1151.22 689.033 1150.91 676.426C1150.21 650.155 1130.61 615.368 1097.15 580.984C1063.2 546.105 1018.14 515.11 973.503 495.945C931.967 479.387 884.611 455.885 832.728 426.083C793.699 403.664 752.972 378.026 720.988 355.741C702.258 342.729 680.092 337.343 656.882 340.167C616.295 345.104 576.889 374.572 554.043 417.069C531.386 458.312 508.739 502.364 502.462 547.535C499.161 571.287 500.48 593.589 506.494 615.714C513.16 640.237 525.367 663.843 543.813 687.881C576.083 731.857 679.864 803.132 802.048 865.228C862.693 896.049 921.665 921.388 972.617 938.519ZM697.566 345.296C705.466 347.951 712.999 351.741 720.038 356.63C752.063 378.943 792.84 404.613 831.914 427.058C883.877 456.906 931.316 480.449 972.915 497.031C1017.31 516.092 1062.16 546.943 1095.95 581.665C1129.19 615.816 1148.65 650.31 1149.35 676.303C1149.66 688.928 1150.57 703.668 1151.62 720.735C1154.98 775.164 1159.59 849.705 1147.91 923.988C1146.59 945.885 1132.1 958.484 1104.83 961.479C1074.85 964.772 1030.66 956.711 973.485 937.522C973.352 937.477 973.211 937.43 973.078 937.385C922.214 920.284 863.342 894.987 802.777 864.206C680.819 802.225 577.28 731.15 545.135 687.345C526.786 663.432 514.65 639.966 508.025 615.594C502.048 593.605 500.738 571.434 504.021 547.815C510.276 502.802 532.88 458.84 555.495 417.671L555.498 417.667C578.165 375.503 617.174 346.276 657.299 341.395C671.291 339.691 684.899 341.037 697.566 345.296Z" fill="url(#paint11_linear)"/>
</g>
<mask id="mask6" style="mask-type:alpha" maskUnits="userSpaceOnUse" x="556" y="376" width="570" height="551">
<path d="M971.316 906.837C1015.6 921.728 1050.18 928.191 1074.21 926.059C1097.05 924.033 1109.53 914.147 1111.32 896.673C1127.95 832.667 1125.76 755.194 1124.16 698.625C1123.91 689.749 1123.67 681.364 1123.54 673.846C1123.01 647.619 1106.78 615.931 1077.83 584.617C1048.65 553.044 1009.7 525.377 968.16 506.715C939.062 494.763 859.335 459.402 747.164 389.113C730.529 378.732 711.056 374.804 690.846 377.759C655.598 382.91 621.609 408.477 602.143 444.48C583.469 478.026 563.087 517.213 557.648 557.76C551.898 600.61 563.488 640.65 593.081 680.169C607.181 700.142 636.527 726.108 677.938 755.247C717.381 783 764.789 811.637 815.039 838.058C866.929 865.343 917.542 887.946 961.408 903.422C964.761 904.606 968.066 905.744 971.316 906.837ZM729.702 382.092C735.504 384.042 741.082 386.674 746.366 389.971C764.31 401.216 800.929 423.658 844.551 447.609C890.342 472.753 931.742 492.97 967.602 507.698C1008.91 526.258 1047.67 553.791 1076.72 585.214C1105.47 616.315 1121.59 647.75 1122.11 673.727C1122.24 681.249 1122.48 689.636 1122.73 698.515C1124.33 755.041 1126.52 832.457 1109.91 896.352L1109.89 896.417C1108.18 913.37 1096.06 922.964 1073.88 924.933C1048.71 927.166 1009.98 919.373 961.853 902.394C918.07 886.947 867.54 864.381 815.726 837.136C765.541 810.748 718.198 782.151 678.814 754.439C637.544 725.4 608.319 699.553 594.3 679.695C564.876 640.4 553.356 600.602 559.07 558.012C564.49 517.614 584.828 478.514 603.465 445.036L603.468 445.031C622.776 409.317 656.418 383.967 691.266 378.874C704.621 376.923 717.645 378.038 729.702 382.092Z" fill="url(#paint12_linear)"/>
</mask>
<g mask="url(#mask6)">
<path d="M971.314 906.837C1015.6 921.728 1050.18 928.191 1074.21 926.059C1097.05 924.033 1109.53 914.147 1111.32 896.673C1127.95 832.667 1125.76 755.194 1124.16 698.625C1123.91 689.749 1123.67 681.363 1123.54 673.845C1123.01 647.619 1106.78 615.931 1077.83 584.617C1048.65 553.044 1009.7 525.378 968.161 506.715C939.063 494.764 859.337 459.404 747.166 389.115C730.53 378.734 711.057 374.806 690.847 377.761C655.599 382.912 621.609 408.479 602.144 444.482C583.468 478.029 563.087 517.216 557.646 557.763C551.896 600.612 563.487 640.652 593.078 680.171C607.179 700.144 636.525 726.11 677.936 755.249C717.378 783.002 764.787 811.638 815.036 838.06C866.927 865.344 917.54 887.947 961.406 903.423C964.759 904.606 968.064 905.745 971.314 906.837ZM729.703 382.094C735.505 384.044 741.083 386.676 746.367 389.973C764.311 401.217 800.93 423.659 844.552 447.611C890.343 472.754 931.743 492.971 967.603 507.699C1008.91 526.259 1047.67 553.791 1076.72 585.214C1105.47 616.315 1121.59 647.749 1122.11 673.727C1122.24 681.249 1122.48 689.636 1122.73 698.515C1124.33 755.041 1126.52 832.457 1109.91 896.352L1109.89 896.417C1108.17 913.37 1096.06 922.964 1073.88 924.933C1048.71 927.166 1009.98 919.373 961.851 902.395C918.067 886.948 867.537 864.382 815.724 837.137C765.539 810.749 718.196 782.153 678.811 754.441C637.542 725.402 608.317 699.556 594.298 679.697C564.874 640.403 553.354 600.605 559.069 558.014C564.49 517.617 584.827 478.517 603.465 445.039L603.468 445.034C622.776 409.319 656.418 383.969 691.267 378.876C704.622 376.925 717.646 378.04 729.703 382.094Z" fill="url(#paint13_linear)"/>
</g>
<mask id="mask7" style="mask-type:alpha" maskUnits="userSpaceOnUse" x="611" y="414" width="486" height="476">
<path d="M968.543 875.04C999.995 885.614 1025.57 890.628 1043.21 889.613C1060.92 888.594 1071 881.691 1073.17 869.098C1097.74 814.854 1096.64 714.233 1096.17 671.26C1095.47 617.551 1040.63 554.314 962.823 517.478C899.975 490.648 828.647 452.247 786.031 429.304C781.505 426.868 777.26 424.583 773.334 422.477C758.747 414.694 741.901 412.24 724.622 415.376C694.792 420.788 666.289 442.445 650.24 471.89C633.387 501.62 617.191 533.841 612.83 567.979C608.177 604.412 617.832 638.585 642.346 672.451C665.776 707.376 738.661 761.759 828.016 810.984C870.98 834.652 913.085 854.483 949.775 868.331C956.237 870.77 962.502 873.008 968.543 875.04ZM762.191 418.772C765.805 419.987 769.316 421.499 772.703 423.305C776.627 425.41 780.87 427.695 785.395 430.131C828.036 453.087 899.404 491.509 962.292 518.355C1039.65 554.976 1094.18 617.812 1094.88 671.147C1095.35 714.08 1096.45 814.623 1071.92 868.698L1071.9 868.744L1071.89 868.794C1069.82 880.944 1060.09 887.605 1042.97 888.589C1022.16 889.786 990.087 882.464 950.214 867.414C913.595 853.593 871.564 833.797 828.665 810.164C739.495 761.041 666.799 706.825 643.463 672.041C589.021 596.83 617.549 532.175 651.434 472.397L651.438 472.39C667.352 443.191 695.559 421.728 725.052 416.376C737.95 414.037 750.594 414.873 762.191 418.772Z" fill="url(#paint14_linear)"/>
</mask>
<g mask="url(#mask7)">
<path d="M968.541 875.04C999.994 885.615 1025.57 890.628 1043.21 889.613C1060.92 888.594 1071 881.691 1073.16 869.098C1097.74 814.854 1096.64 714.233 1096.17 671.26C1095.47 617.551 1040.63 554.314 962.824 517.478C899.976 490.649 828.648 452.249 786.032 429.306C781.507 426.87 777.262 424.584 773.336 422.479C758.748 414.696 741.903 412.242 724.623 415.378C694.793 420.791 666.29 442.447 650.24 471.892C633.387 501.623 617.19 533.843 612.83 567.982C608.176 604.414 617.83 638.587 642.344 672.454C665.775 707.378 738.659 761.761 828.014 810.985C870.978 834.653 913.082 854.484 949.773 868.332C956.235 870.77 962.5 873.008 968.541 875.04ZM762.192 418.774C765.806 419.989 769.317 421.5 772.704 423.307C776.628 425.412 780.871 427.697 785.397 430.133C828.038 453.089 899.406 491.51 962.294 518.356C1039.65 554.976 1094.18 617.812 1094.88 671.147C1095.35 714.08 1096.45 814.623 1071.92 868.698L1071.9 868.744L1071.89 868.794C1069.82 880.944 1060.09 887.605 1042.96 888.59C1022.16 889.787 990.085 882.464 950.212 867.415C913.593 853.594 871.562 833.798 828.663 810.165C739.493 761.043 666.797 706.828 643.461 672.043C589.02 596.832 617.548 532.178 651.434 472.399L651.438 472.393C667.352 443.194 695.56 421.73 725.053 416.378C737.952 414.039 750.595 414.875 762.192 418.774Z" fill="url(#paint15_linear)"/>
</g>
<mask id="mask8" style="mask-type:alpha" maskUnits="userSpaceOnUse" x="667" y="451" width="402" height="403">
<path d="M964.954 843.679C984.186 850.146 1000.31 853.594 1012.12 853.535C1024.83 853.473 1032.53 849.439 1034.99 841.548C1047.24 828.654 1056.42 802.727 1062.29 764.485C1066.56 736.628 1068.94 701.703 1068.8 668.667C1068.48 615.646 1026.87 563.145 957.48 528.228C932.712 517.091 907.093 505.106 882.317 493.515C850.274 478.525 820.009 464.366 799.484 455.828C782.187 448.69 761.984 449.599 742.6 458.377C724.228 466.697 708.093 481.607 698.334 499.288C674.991 539.419 669.865 562.535 668.009 578.19C664.452 608.188 672.17 636.493 691.606 664.723C710.726 695.293 767.919 741.009 840.852 784.012C887.441 811.483 931.031 832.273 964.954 843.679ZM795.286 455.225C796.555 455.652 797.808 456.12 799.048 456.631C819.541 465.156 849.792 479.308 881.819 494.291C906.601 505.885 932.225 517.872 956.974 528.999C1025.94 563.708 1067.32 615.885 1067.64 668.56C1067.78 701.56 1065.41 736.444 1061.14 764.268C1055.28 802.427 1046.14 828.245 1033.97 841.005L1033.91 841.07L1033.88 841.151C1031.57 848.699 1024.2 852.557 1011.97 852.617C979.588 852.777 914.256 826.216 841.467 783.299C768.697 740.392 711.661 694.825 692.618 664.38C673.294 636.313 665.625 608.189 669.16 578.383C672.679 548.708 687.167 520.771 699.396 499.749L699.4 499.741C709.076 482.209 725.063 467.428 743.261 459.187C760.918 451.192 779.229 449.827 795.286 455.225Z" fill="url(#paint16_linear)"/>
</mask>
<g mask="url(#mask8)">
<path d="M964.952 843.679C984.184 850.145 1000.31 853.593 1012.12 853.535C1024.83 853.472 1032.53 849.439 1034.99 841.547C1047.23 828.653 1056.42 802.727 1062.29 764.484C1066.56 736.627 1068.94 701.702 1068.8 668.666C1068.48 615.645 1026.87 563.145 957.481 528.227C932.714 517.091 907.094 505.107 882.318 493.516C850.276 478.526 820.011 464.367 799.486 455.829C782.189 448.69 761.985 449.6 742.602 458.378C724.228 466.698 708.094 481.609 698.334 499.29C674.991 539.421 669.865 562.537 668.008 578.191C664.451 608.19 672.169 636.494 691.604 664.724C710.724 695.294 767.917 741.01 840.85 784.012C887.439 811.483 931.029 832.273 964.952 843.679ZM795.288 455.226C796.557 455.652 797.809 456.121 799.049 456.631C819.543 465.157 849.794 479.309 881.821 494.292C906.602 505.885 932.227 517.872 956.975 528.999C1025.94 563.708 1067.32 615.885 1067.64 668.559C1067.78 701.559 1065.41 736.443 1061.14 764.267C1055.28 802.426 1046.14 828.244 1033.97 841.004L1033.91 841.069L1033.88 841.15C1031.57 848.698 1024.2 852.556 1011.97 852.616C979.587 852.777 914.254 826.216 841.466 783.3C768.695 740.393 711.659 694.826 692.616 664.381C673.293 636.314 665.624 608.19 669.159 578.384C672.679 548.709 687.167 520.773 699.396 499.75L699.4 499.743C709.077 482.21 725.064 467.429 743.262 459.188C760.919 451.193 779.231 449.828 795.288 455.226Z" fill="url(#paint17_linear)"/>
</g>
<mask id="mask9" style="mask-type:alpha" maskUnits="userSpaceOnUse" x="722" y="487" width="320" height="332">
<path d="M959.655 813.115C967.612 815.789 974.551 817.5 980.219 818.124C988.51 819.037 994.052 817.665 996.696 814.045C1014.51 810.476 1025.12 781.595 1030.89 757.95C1037.4 731.289 1041.33 696.936 1041.41 666.056C1041.44 639.475 1034.41 616.384 1019.9 595.465C1005.08 574.101 982.91 555.615 952.117 538.952C904.574 515.949 854.918 496.408 825.59 489.162C811.289 485.683 795.082 487.945 779.953 495.531C765.8 502.628 753.573 513.977 746.407 526.669C726.347 559.802 707.588 604.556 740.843 656.976C755.525 682.996 797.383 720.335 852.803 756.841C893.302 783.516 932.417 803.956 959.655 813.115ZM850.36 497.372C878.918 506.973 915.878 522.314 951.639 539.617C982.246 556.179 1004.29 574.557 1019.02 595.786C1033.43 616.571 1040.42 639.524 1040.39 665.957C1040.24 723.676 1026.42 807.546 996.161 813.291L995.972 813.327L995.881 813.459C993.469 816.899 988.207 818.199 980.239 817.322C955.357 814.583 905.57 790.608 853.399 756.241C798.114 719.825 756.379 682.614 741.758 656.701C708.698 604.587 727.377 560.056 747.342 527.082L747.347 527.074C754.445 514.5 766.555 503.257 780.571 496.229C795.467 488.76 811.387 486.524 825.399 489.932C832.599 491.712 841.032 494.236 850.36 497.372Z" fill="url(#paint18_linear)"/>
</mask>
<g mask="url(#mask9)">
<path d="M959.653 813.115C967.61 815.789 974.549 817.5 980.218 818.124C988.509 819.037 994.051 817.664 996.694 814.045C1014.51 810.475 1025.12 781.595 1030.89 757.949C1037.4 731.288 1041.33 696.936 1041.41 666.055C1041.44 639.474 1034.41 616.384 1019.9 595.464C1005.08 574.1 982.912 555.615 952.119 538.952C904.576 515.949 854.92 496.408 825.592 489.163C811.29 485.683 795.083 487.945 779.954 495.532C765.801 502.629 753.573 513.978 746.407 526.67C726.347 559.803 707.588 604.557 740.842 656.977C755.524 682.997 797.382 720.336 852.802 756.841C893.301 783.516 932.416 803.956 959.653 813.115ZM850.361 497.372C878.919 506.973 915.879 522.314 951.64 539.616C982.247 556.178 1004.29 574.556 1019.02 595.785C1033.43 616.57 1040.42 639.523 1040.39 665.957C1040.24 723.675 1026.42 807.545 996.159 813.291L995.971 813.327L995.88 813.458C993.468 816.899 988.205 818.198 980.237 817.321C955.356 814.583 905.569 790.608 853.398 756.242C798.113 719.826 756.378 682.615 741.757 656.702C708.697 604.588 727.377 560.058 747.342 527.083L747.347 527.075C754.445 514.5 766.556 503.258 780.572 496.23C795.468 488.761 811.388 486.525 825.4 489.933C832.601 491.713 841.034 494.236 850.361 497.372Z" fill="url(#paint19_linear)"/>
</g>
<mask id="mask10" style="mask-type:alpha" maskUnits="userSpaceOnUse" x="778" y="522" width="236" height="267">
<path d="M949.554 784.567C952.984 785.72 955.793 786.288 957.86 786.201C963.332 788.753 968.67 789.029 973.723 787.026C988.51 781.165 997.941 757.317 1003.25 738.343C1009.57 715.767 1013.47 687.714 1013.7 663.303C1013.94 635.684 1009.8 615.841 1000.27 598.963C990.107 580.957 973.022 565.274 946.501 549.605C915.718 532.936 878.438 522.291 851.501 522.473C827.326 522.718 803.47 538.688 794.371 553.988C774.145 585.125 772.662 617.122 789.965 649.088C796.045 661.831 807.474 676.833 823.925 693.66C838.169 708.229 855.827 723.74 874.99 738.516C904.993 761.648 933.807 779.273 949.554 784.567ZM957.981 785.485L957.837 785.494C955.853 785.609 953.122 785.065 949.779 783.941C915.117 772.291 814.325 698.234 790.781 648.896C773.581 617.118 775.061 585.318 795.172 554.36L795.178 554.351C804.177 539.217 827.748 523.416 851.617 523.176C878.372 522.995 915.439 533.585 946.046 550.16C972.4 565.73 989.381 581.311 999.471 599.183C1008.94 615.956 1013.06 635.704 1012.82 663.214C1012.59 687.58 1008.69 715.581 1002.38 738.115C997.112 756.961 987.779 780.634 973.255 786.391C968.435 788.301 963.338 788.017 958.113 785.548L957.981 785.485Z" fill="url(#paint20_linear)"/>
</mask>
<g mask="url(#mask10)">
<path d="M949.553 784.568C952.983 785.721 955.792 786.289 957.859 786.202C963.331 788.754 968.668 789.03 973.722 787.026C988.509 781.165 997.941 757.317 1003.25 738.344C1009.56 715.767 1013.47 687.714 1013.7 663.304C1013.94 635.684 1009.8 615.841 1000.27 598.964C990.108 580.958 973.022 565.275 946.501 549.606C915.719 532.937 878.439 522.293 851.501 522.475C827.326 522.719 803.47 538.69 794.37 553.989C774.144 585.127 772.661 617.124 789.964 649.09C796.044 661.832 807.473 676.834 823.924 693.661C838.167 708.23 855.825 723.741 874.989 738.517C904.992 761.648 933.806 779.273 949.553 784.568ZM957.979 785.486L957.836 785.494C955.851 785.609 953.121 785.066 949.778 783.942C915.115 772.292 814.324 698.236 790.78 648.897C773.58 617.12 775.06 585.319 795.171 554.362L795.178 554.353C804.177 539.218 827.749 523.418 851.617 523.177C878.373 522.996 915.44 533.587 946.046 550.161C972.4 565.731 989.382 581.312 999.471 599.184C1008.94 615.957 1013.06 635.704 1012.82 663.214C1012.59 687.58 1008.69 715.581 1002.38 738.115C997.111 756.961 987.778 780.634 973.253 786.391C968.434 788.302 963.336 788.018 958.111 785.549L957.979 785.486Z" fill="url(#paint21_linear)"/>
</g>
<mask id="mask11" style="mask-type:alpha" maskUnits="userSpaceOnUse" x="832" y="549" width="154" height="220">
<path d="M932.842 767.729C936.278 768.883 939.665 769.143 942.988 768.499C951.319 766.883 963.449 758.636 973.923 728.521C980.943 708.334 985.349 682.973 985.711 660.681C986.137 634.336 985.989 617.278 980.347 602.562C974.51 587.338 962.98 575.1 940.549 560.324C928.186 552.178 914.777 548.629 900.698 549.768C870.254 552.236 846.231 575.69 841.915 581.364C833.855 591.962 831.14 605.845 833.846 622.63C836.175 637.077 842.506 653.71 852.662 672.066C871.022 705.246 898.917 738.4 918.902 758.364C923.605 763.063 928.266 766.19 932.842 767.729ZM924.871 553.258C930.103 555.016 935.191 557.519 940.111 560.762C962.397 575.443 973.847 587.585 979.631 602.67C985.24 617.3 985.386 634.315 984.96 660.602C984.301 701.246 968.883 762.849 942.728 767.92C935.304 769.36 927.477 766.033 919.466 758.029C899.516 738.1 871.669 705.003 853.343 671.884C843.217 653.585 836.908 637.012 834.589 622.625C831.904 605.971 834.589 592.207 842.57 581.714C846.852 576.083 870.686 552.805 900.861 550.36C909.123 549.69 917.154 550.663 924.871 553.258Z" fill="url(#paint22_linear)"/>
</mask>
<g mask="url(#mask11)">
<path d="M932.841 767.729C936.277 768.884 939.664 769.144 942.987 768.5C951.318 766.884 963.448 758.637 973.922 728.521C980.942 708.335 985.349 682.974 985.711 660.682C986.137 634.337 985.99 617.279 980.348 602.563C974.511 587.339 962.98 575.101 940.55 560.325C928.187 552.18 914.778 548.63 900.699 549.77C870.254 552.237 846.231 575.692 841.915 581.365C833.855 591.964 831.14 605.847 833.845 622.632C836.174 637.079 842.505 653.712 852.662 672.067C871.021 705.247 898.916 738.401 918.901 758.365C923.604 763.064 928.265 766.191 932.841 767.729ZM924.872 553.259C930.104 555.017 935.191 557.521 940.112 560.763C962.398 575.444 973.848 587.586 979.631 602.671C985.24 617.301 985.386 634.316 984.96 660.603C984.3 701.246 968.882 762.85 942.727 767.921C935.303 769.361 927.476 766.034 919.464 758.03C899.515 738.101 871.668 705.005 853.342 671.885C843.216 653.586 836.907 637.014 834.588 622.626C831.904 605.973 834.589 592.208 842.569 581.716C846.852 576.084 870.686 552.807 900.862 550.361C909.123 549.692 917.155 550.664 924.872 553.259Z" fill="url(#paint23_linear)"/>
</g>
<defs>
<linearGradient id="paint0_linear" x1="1165.7" y1="515.732" x2="538.253" y2="1023.73" gradientUnits="userSpaceOnUse">
<stop stop-color="white"/>
<stop offset="0.0436" stop-color="#B4B4B4"/>
<stop offset="0.1507"/>
<stop offset="0.1714" stop-color="#171717"/>
<stop offset="0.3859" stop-color="white"/>
<stop offset="0.6326" stop-color="#E6E6E6"/>
<stop offset="0.8567" stop-color="#1A1A1A"/>
<stop offset="0.9987"/>
</linearGradient>
<linearGradient id="paint1_linear" x1="1165.7" y1="515.731" x2="538.249" y2="1023.73" gradientUnits="userSpaceOnUse">
<stop stop-color="#0522AC"/>
<stop offset="1" stop-color="#34384C" stop-opacity="0"/>
</linearGradient>
<linearGradient id="paint2_linear" x1="1148.7" y1="524.813" x2="569.484" y2="993.764" gradientUnits="userSpaceOnUse">
<stop stop-color="white"/>
<stop offset="0.0436" stop-color="#B4B4B4"/>
<stop offset="0.1507"/>
<stop offset="0.1714" stop-color="#171717"/>
<stop offset="0.3859" stop-color="white"/>
<stop offset="0.6326" stop-color="#E6E6E6"/>
<stop offset="0.8567" stop-color="#1A1A1A"/>
<stop offset="0.9987"/>
</linearGradient>
<linearGradient id="paint3_linear" x1="1148.7" y1="524.812" x2="569.479" y2="993.767" gradientUnits="userSpaceOnUse">
<stop stop-color="#0522AC"/>
<stop offset="1" stop-color="#34384C" stop-opacity="0"/>
</linearGradient>
<linearGradient id="paint4_linear" x1="1131.94" y1="533.801" x2="600.76" y2="963.866" gradientUnits="userSpaceOnUse">
<stop stop-color="white"/>
<stop offset="0.0436" stop-color="#B4B4B4"/>
<stop offset="0.1507"/>
<stop offset="0.1714" stop-color="#171717"/>
<stop offset="0.3859" stop-color="white"/>
<stop offset="0.6326" stop-color="#E6E6E6"/>
<stop offset="0.8567" stop-color="#1A1A1A"/>
<stop offset="0.9987"/>
</linearGradient>
<linearGradient id="paint5_linear" x1="1131.94" y1="533.8" x2="600.755" y2="963.869" gradientUnits="userSpaceOnUse">
<stop stop-color="#0522AC"/>
<stop offset="1" stop-color="#34384C" stop-opacity="0"/>
</linearGradient>
<linearGradient id="paint6_linear" x1="1115.19" y1="542.804" x2="632.039" y2="933.991" gradientUnits="userSpaceOnUse">
<stop stop-color="white"/>
<stop offset="0.0436" stop-color="#B4B4B4"/>
<stop offset="0.1507"/>
<stop offset="0.1714" stop-color="#171717"/>
<stop offset="0.3859" stop-color="white"/>
<stop offset="0.6326" stop-color="#E6E6E6"/>
<stop offset="0.8567" stop-color="#1A1A1A"/>
<stop offset="0.9987"/>
</linearGradient>
<linearGradient id="paint7_linear" x1="1115.2" y1="542.802" x2="632.036" y2="933.992" gradientUnits="userSpaceOnUse">
<stop stop-color="#0522AC"/>
<stop offset="1" stop-color="#34384C" stop-opacity="0"/>
</linearGradient>
<linearGradient id="paint8_linear" x1="1098.7" y1="551.721" x2="663.369" y2="904.198" gradientUnits="userSpaceOnUse">
<stop stop-color="white"/>
<stop offset="0.0436" stop-color="#B4B4B4"/>
<stop offset="0.1507"/>
<stop offset="0.1714" stop-color="#171717"/>
<stop offset="0.3859" stop-color="white"/>
<stop offset="0.6326" stop-color="#E6E6E6"/>
<stop offset="0.8567" stop-color="#1A1A1A"/>
<stop offset="0.9987"/>
</linearGradient>
<linearGradient id="paint9_linear" x1="1098.71" y1="551.72" x2="663.365" y2="904.199" gradientUnits="userSpaceOnUse">
<stop stop-color="#0522AC"/>
<stop offset="1" stop-color="#34384C" stop-opacity="0"/>
</linearGradient>
<linearGradient id="paint10_linear" x1="1082.35" y1="560.623" x2="694.727" y2="874.473" gradientUnits="userSpaceOnUse">
<stop stop-color="white"/>
<stop offset="0.0436" stop-color="#B4B4B4"/>
<stop offset="0.1507"/>
<stop offset="0.1714" stop-color="#171717"/>
<stop offset="0.3859" stop-color="white"/>
<stop offset="0.6326" stop-color="#E6E6E6"/>
<stop offset="0.8567" stop-color="#1A1A1A"/>
<stop offset="0.9987"/>
</linearGradient>
<linearGradient id="paint11_linear" x1="1082.35" y1="560.623" x2="694.724" y2="874.475" gradientUnits="userSpaceOnUse">
<stop stop-color="#0522AC"/>
<stop offset="1" stop-color="#34384C" stop-opacity="0"/>
</linearGradient>
<linearGradient id="paint12_linear" x1="1066.3" y1="569.451" x2="726.14" y2="844.882" gradientUnits="userSpaceOnUse">
<stop stop-color="white"/>
<stop offset="0.0436" stop-color="#B4B4B4"/>
<stop offset="0.1507"/>
<stop offset="0.1714" stop-color="#171717"/>
<stop offset="0.3859" stop-color="white"/>
<stop offset="0.6326" stop-color="#E6E6E6"/>
<stop offset="0.8567" stop-color="#1A1A1A"/>
<stop offset="0.9987"/>
</linearGradient>
<linearGradient id="paint13_linear" x1="1066.3" y1="569.451" x2="726.137" y2="844.884" gradientUnits="userSpaceOnUse">
<stop stop-color="#0522AC"/>
<stop offset="1" stop-color="#34384C" stop-opacity="0"/>
</linearGradient>
<linearGradient id="paint14_linear" x1="1050.63" y1="578.227" x2="757.632" y2="815.477" gradientUnits="userSpaceOnUse">
<stop stop-color="white"/>
<stop offset="0.0436" stop-color="#B4B4B4"/>
<stop offset="0.1507"/>
<stop offset="0.1714" stop-color="#171717"/>
<stop offset="0.3859" stop-color="white"/>
<stop offset="0.6326" stop-color="#E6E6E6"/>
<stop offset="0.8567" stop-color="#1A1A1A"/>
<stop offset="0.9987"/>
</linearGradient>
<linearGradient id="paint15_linear" x1="1050.63" y1="578.228" x2="757.63" y2="815.479" gradientUnits="userSpaceOnUse">
<stop stop-color="#0522AC"/>
<stop offset="1" stop-color="#34384C" stop-opacity="0"/>
</linearGradient>
<linearGradient id="paint16_linear" x1="1035.31" y1="587.041" x2="789.173" y2="786.363" gradientUnits="userSpaceOnUse">
<stop stop-color="white"/>
<stop offset="0.0436" stop-color="#B4B4B4"/>
<stop offset="0.1507"/>
<stop offset="0.1714" stop-color="#171717"/>
<stop offset="0.3859" stop-color="white"/>
<stop offset="0.6326" stop-color="#E6E6E6"/>
<stop offset="0.8567" stop-color="#1A1A1A"/>
<stop offset="0.9987"/>
</linearGradient>
<linearGradient id="paint17_linear" x1="1035.31" y1="587.04" x2="789.174" y2="786.363" gradientUnits="userSpaceOnUse">
<stop stop-color="#0522AC"/>
<stop offset="1" stop-color="#34384C" stop-opacity="0"/>
</linearGradient>
<linearGradient id="paint18_linear" x1="1020.79" y1="595.976" x2="820.857" y2="757.898" gradientUnits="userSpaceOnUse">
<stop stop-color="white"/>
<stop offset="0.0436" stop-color="#B4B4B4"/>
<stop offset="0.1507"/>
<stop offset="0.1714" stop-color="#171717"/>
<stop offset="0.3859" stop-color="white"/>
<stop offset="0.6326" stop-color="#E6E6E6"/>
<stop offset="0.8567" stop-color="#1A1A1A"/>
<stop offset="0.9987"/>
</linearGradient>
<linearGradient id="paint19_linear" x1="1020.79" y1="595.976" x2="820.854" y2="757.9" gradientUnits="userSpaceOnUse">
<stop stop-color="#0522AC"/>
<stop offset="1" stop-color="#34384C" stop-opacity="0"/>
</linearGradient>
<linearGradient id="paint20_linear" x1="1009.57" y1="608.407" x2="854.74" y2="733.796" gradientUnits="userSpaceOnUse">
<stop stop-color="white"/>
<stop offset="0.0436" stop-color="#B4B4B4"/>
<stop offset="0.1507"/>
<stop offset="0.1714" stop-color="#171717"/>
<stop offset="0.3859" stop-color="white"/>
<stop offset="0.6326" stop-color="#E6E6E6"/>
<stop offset="0.8567" stop-color="#1A1A1A"/>
<stop offset="0.9987"/>
</linearGradient>
<linearGradient id="paint21_linear" x1="1009.57" y1="608.407" x2="854.738" y2="733.797" gradientUnits="userSpaceOnUse">
<stop stop-color="#0522AC"/>
<stop offset="1" stop-color="#34384C" stop-opacity="0"/>
</linearGradient>
<linearGradient id="paint22_linear" x1="1000.03" y1="622.107" x2="882.676" y2="717.154" gradientUnits="userSpaceOnUse">
<stop stop-color="white"/>
<stop offset="0.0436" stop-color="#B4B4B4"/>
<stop offset="0.1507"/>
<stop offset="0.1714" stop-color="#171717"/>
<stop offset="0.3859" stop-color="white"/>
<stop offset="0.6326" stop-color="#E6E6E6"/>
<stop offset="0.8567" stop-color="#1A1A1A"/>
<stop offset="0.9987"/>
</linearGradient>
<linearGradient id="paint23_linear" x1="1000.03" y1="622.107" x2="882.676" y2="717.156" gradientUnits="userSpaceOnUse">
<stop stop-color="#0522AC"/>
<stop offset="1" stop-color="#34384C" stop-opacity="0"/>
</linearGradient>
</defs>
</svg>
