<svg width="1028" height="167" viewBox="0 0 1028 167" fill="none" xmlns="http://www.w3.org/2000/svg">
<path d="M6.36172 13.54L9.44172 10C10.2817 9.06 10.8817 7.94 10.8817 6.68C10.8817 4.3 9.18172 2.72 6.56172 2.72C3.94172 2.72 2.42172 4.32 2.10172 6.66L4.48172 7.06C4.64172 5.92 5.30172 5.16 6.46172 5.16C7.48172 5.16 8.20172 5.78 8.20172 6.66C8.20172 7.1 7.84172 7.78 7.30172 8.44L2.18172 14.58V16H11.0017V13.54H6.36172ZM17.963 16.18C21.763 16.18 22.803 13.2 22.803 9.48C22.803 5.7 21.763 2.72 17.963 2.72C14.143 2.72 13.083 5.7 13.083 9.48C13.083 13.2 14.143 16.18 17.963 16.18ZM17.963 13.74C16.263 13.74 15.743 11.86 15.743 9.48C15.743 7.06 16.263 5.16 17.963 5.16C19.643 5.16 20.143 7.06 20.143 9.48C20.143 11.86 19.643 13.74 17.963 13.74ZM28.9398 13.54L32.0198 10C32.8598 9.06 33.4598 7.94 33.4598 6.68C33.4598 4.3 31.7598 2.72 29.1398 2.72C26.5198 2.72 24.9998 4.32 24.6798 6.66L27.0598 7.06C27.2198 5.92 27.8798 5.16 29.0398 5.16C30.0598 5.16 30.7798 5.78 30.7798 6.66C30.7798 7.1 30.4198 7.78 29.8798 8.44L24.7598 14.58V16H33.5798V13.54H28.9398ZM40.5411 16.18C44.3411 16.18 45.3811 13.2 45.3811 9.48C45.3811 5.7 44.3411 2.72 40.5411 2.72C36.7211 2.72 35.6611 5.7 35.6611 9.48C35.6611 13.2 36.7211 16.18 40.5411 16.18ZM40.5411 13.74C38.8411 13.74 38.3211 11.86 38.3211 9.48C38.3211 7.06 38.8411 5.16 40.5411 5.16C42.2211 5.16 42.7211 7.06 42.7211 9.48C42.7211 11.86 42.2211 13.74 40.5411 13.74ZM66.0436 9.12C66.0436 5.22 62.9236 2.06 59.0236 2.06C55.1036 2.06 52.0236 5.22 52.0236 9.12C52.0236 13.02 55.1036 16.2 59.0236 16.2C59.6836 16.2 60.3236 16.1 60.9436 15.94L62.4036 18.34L64.3836 17.14L63.0436 14.94C64.8636 13.66 66.0436 11.52 66.0436 9.12ZM59.0236 13.58C56.5436 13.58 54.8036 11.6 54.8036 9.12C54.8036 6.66 56.5436 4.68 59.0236 4.68C61.4836 4.68 63.2436 6.66 63.2436 9.12C63.2436 10.58 62.6436 11.86 61.6436 12.66L60.2636 10.4L58.3036 11.6L59.4836 13.56C59.3436 13.58 59.1836 13.58 59.0236 13.58ZM72.8467 2.72L67.4067 4.98V7.44L70.4267 6.28V16H73.0667V2.72H72.8467Z" fill="white"/>
<g opacity="0.4">
<circle cx="8.5" cy="37.5" r="7.5" fill="#141519" stroke="#1962F0" stroke-width="2"/>
<rect x="16" y="36.5" width="190.4" height="2" fill="#1962F0"/>
</g>
<path d="M2.65281 70H4.04481V58.56H2.65281V70ZM6.91431 70H8.24231V64.928C8.24231 63.424 9.34631 62.64 10.5783 62.64C11.9223 62.64 12.5463 63.296 12.5463 64.768V70H13.8743V64.864C13.8743 62.432 12.6583 61.488 10.9303 61.488C9.55431 61.488 8.62631 62.176 8.24231 62.96V61.632H6.91431V70ZM16.5088 70H17.8368V61.632H16.5088V70ZM17.1488 59.888C17.6288 59.888 18.0288 59.488 18.0288 59.008C18.0288 58.528 17.6288 58.128 17.1488 58.128C16.6688 58.128 16.2688 58.528 16.2688 59.008C16.2688 59.488 16.6688 59.888 17.1488 59.888ZM23.0989 70.112C23.6429 70.112 23.9629 70.032 24.2349 69.936V68.816C23.9469 68.928 23.6269 68.992 23.2109 68.992C22.5389 68.992 22.1709 68.592 22.1709 67.776V62.752H24.1229V61.632H22.1709V59.728H20.8429V61.632H19.6429V62.752H20.8429V67.904C20.8429 69.216 21.5789 70.112 23.0989 70.112ZM26.2744 70H27.6024V61.632H26.2744V70ZM26.9144 59.888C27.3944 59.888 27.7944 59.488 27.7944 59.008C27.7944 58.528 27.3944 58.128 26.9144 58.128C26.4344 58.128 26.0344 58.528 26.0344 59.008C26.0344 59.488 26.4344 59.888 26.9144 59.888ZM32.4166 70.144C33.6486 70.144 34.4006 69.728 35.0246 68.944V70H36.3526V64.48C36.3526 62.144 34.8966 61.488 33.2966 61.488C31.6806 61.488 30.1606 62.192 29.9846 64.096H31.3126C31.4406 63.072 32.0806 62.592 33.2326 62.592C34.5126 62.592 35.0246 63.152 35.0246 64.48V65.088H33.8246C31.6806 65.088 29.6326 65.744 29.6326 67.68C29.6326 69.392 30.8646 70.144 32.4166 70.144ZM32.5446 69.088C31.3766 69.088 30.9606 68.544 30.9606 67.68C30.9606 66.448 32.1926 66.032 33.8726 66.032H35.0246V67.072C35.0246 68.368 33.9526 69.088 32.5446 69.088ZM38.9932 70H40.3372V57.632H38.9932V70ZM47.3213 70H48.6493V61.632H47.3213V70ZM47.9613 59.888C48.4413 59.888 48.8413 59.488 48.8413 59.008C48.8413 58.528 48.4413 58.128 47.9613 58.128C47.4813 58.128 47.0813 58.528 47.0813 59.008C47.0813 59.488 47.4813 59.888 47.9613 59.888ZM54.5194 70.144C55.7354 70.144 56.9034 69.376 57.3834 68.56V70H58.7114V57.632H57.3834V62.976C56.9034 62.16 56.0394 61.488 54.6474 61.488C52.3434 61.488 50.7434 63.296 50.7434 65.856V65.984C50.7434 68.592 52.3274 70.144 54.5194 70.144ZM54.6634 69.04C53.2554 69.04 52.1194 68.032 52.1194 65.92V65.792C52.1194 63.76 53.1114 62.592 54.7754 62.592C56.4074 62.592 57.4314 63.6 57.4314 65.744V65.872C57.4314 68.016 56.2154 69.04 54.6634 69.04ZM64.8227 70.144C66.7107 70.144 68.1027 69.264 68.3907 67.584H67.0627C66.8867 68.56 66.1347 69.04 64.8387 69.04C63.1267 69.04 62.2147 67.984 62.1507 66.08H68.4547V65.648C68.4547 62.656 66.6307 61.488 64.6947 61.488C62.3907 61.488 60.7747 63.248 60.7747 65.776V65.904C60.7747 68.48 62.4547 70.144 64.8227 70.144ZM62.1987 65.008C62.4227 63.52 63.3347 62.592 64.6947 62.592C66.0707 62.592 66.9667 63.28 67.0947 65.008H62.1987ZM72.6666 70.144C73.8986 70.144 74.6506 69.728 75.2746 68.944V70H76.6026V64.48C76.6026 62.144 75.1466 61.488 73.5466 61.488C71.9306 61.488 70.4106 62.192 70.2346 64.096H71.5626C71.6906 63.072 72.3306 62.592 73.4826 62.592C74.7626 62.592 75.2746 63.152 75.2746 64.48V65.088H74.0746C71.9306 65.088 69.8826 65.744 69.8826 67.68C69.8826 69.392 71.1146 70.144 72.6666 70.144ZM72.7946 69.088C71.6266 69.088 71.2106 68.544 71.2106 67.68C71.2106 66.448 72.4426 66.032 74.1226 66.032H75.2746V67.072C75.2746 68.368 74.2026 69.088 72.7946 69.088Z" fill="#E5E6ED"/>
<path d="M211.91 13.54L214.99 10C215.83 9.06 216.43 7.94 216.43 6.68C216.43 4.3 214.73 2.72 212.11 2.72C209.49 2.72 207.97 4.32 207.65 6.66L210.03 7.06C210.19 5.92 210.85 5.16 212.01 5.16C213.03 5.16 213.75 5.78 213.75 6.66C213.75 7.1 213.39 7.78 212.85 8.44L207.73 14.58V16H216.55V13.54H211.91ZM223.511 16.18C227.311 16.18 228.351 13.2 228.351 9.48C228.351 5.7 227.311 2.72 223.511 2.72C219.691 2.72 218.631 5.7 218.631 9.48C218.631 13.2 219.691 16.18 223.511 16.18ZM223.511 13.74C221.811 13.74 221.291 11.86 221.291 9.48C221.291 7.06 221.811 5.16 223.511 5.16C225.191 5.16 225.691 7.06 225.691 9.48C225.691 11.86 225.191 13.74 223.511 13.74ZM234.488 13.54L237.568 10C238.408 9.06 239.008 7.94 239.008 6.68C239.008 4.3 237.308 2.72 234.688 2.72C232.068 2.72 230.548 4.32 230.228 6.66L232.608 7.06C232.768 5.92 233.428 5.16 234.588 5.16C235.608 5.16 236.328 5.78 236.328 6.66C236.328 7.1 235.968 7.78 235.428 8.44L230.308 14.58V16H239.128V13.54H234.488ZM246.129 2.72L240.689 4.98V7.44L243.709 6.28V16H246.349V2.72H246.129ZM260.627 16.18C264.527 16.18 267.647 13.02 267.647 9.12C267.647 5.2 264.527 2.04 260.627 2.04C256.707 2.04 253.627 5.2 253.627 9.12C253.627 13.02 256.707 16.18 260.627 16.18ZM260.627 13.58C258.147 13.58 256.407 11.6 256.407 9.12C256.407 6.64 258.147 4.66 260.627 4.66C263.087 4.66 264.847 6.64 264.847 9.12C264.847 11.6 263.087 13.58 260.627 13.58ZM274.291 16.18C275.991 16.18 277.351 15.4 278.231 14.18L276.271 12.8C275.851 13.38 275.071 13.74 274.311 13.74C272.831 13.74 271.831 12.68 271.831 11.3C271.831 9.94 272.831 8.88 274.311 8.88C275.071 8.88 275.851 9.24 276.271 9.82L278.231 8.44C277.351 7.24 275.991 6.44 274.291 6.44C271.571 6.44 269.171 8.34 269.171 11.3C269.171 14.26 271.571 16.18 274.291 16.18ZM285.603 6.68H283.623V3.26H281.003V6.68H279.303V8.7H281.003V16H283.623V8.7H285.603V6.68Z" fill="white"/>
<circle cx="213.9" cy="37.5" r="7.5" fill="#141519" stroke="#1962F0" stroke-width="2"/>
<rect x="221.4" y="36.5" width="190.4" height="2" fill="#1962F0"/>
<path d="M213.752 72.352C216.056 72.352 217.944 71.392 218.76 70H217.528C216.536 70.848 215.496 71.296 213.752 71.296C210.184 71.296 208.36 68.72 208.36 65.808C208.36 62.416 210.728 60.048 213.96 60.048C217.256 60.048 219.176 62.016 219.176 64.88C219.176 67.056 218.248 67.968 217.336 67.968C216.728 67.968 216.456 67.552 216.568 66.704L217.048 62.672H215.72L215.608 63.632C215.384 63.088 214.808 62.544 213.672 62.544C211.928 62.544 210.52 64.112 210.52 66.256C210.52 67.984 211.544 69.04 213.096 69.04C214.088 69.04 215.016 68.384 215.48 67.552C215.608 68.384 216.024 68.928 217.32 68.928C218.6 68.928 220.328 67.856 220.328 64.848C220.328 61.552 217.784 58.992 213.96 58.992C210.264 58.992 207.128 61.92 207.128 65.84C207.128 69.248 209.48 72.352 213.752 72.352ZM213.384 68.016C212.52 68.016 211.88 67.36 211.88 66.24C211.88 64.56 212.76 63.6 213.768 63.6C214.808 63.6 215.432 64.192 215.432 65.408C215.432 67.104 214.376 68.016 213.384 68.016ZM222.488 70H229.448V68.864H223.88V64.72H228.136V63.584H223.88V59.696H229.16V58.56H222.488V70ZM233.999 70.112C234.543 70.112 234.863 70.032 235.135 69.936V68.816C234.847 68.928 234.527 68.992 234.111 68.992C233.439 68.992 233.071 68.592 233.071 67.776V62.752H235.023V61.632H233.071V59.728H231.743V61.632H230.543V62.752H231.743V67.904C231.743 69.216 232.479 70.112 233.999 70.112ZM237.142 70H238.47V64.928C238.47 63.424 239.574 62.64 240.806 62.64C242.15 62.64 242.774 63.296 242.774 64.768V70H244.102V64.864C244.102 62.432 242.886 61.488 241.158 61.488C239.782 61.488 238.854 62.176 238.47 62.96V57.632H237.142V70ZM250.129 70.144C252.017 70.144 253.409 69.264 253.697 67.584H252.369C252.193 68.56 251.441 69.04 250.145 69.04C248.433 69.04 247.521 67.984 247.457 66.08H253.761V65.648C253.761 62.656 251.937 61.488 250.001 61.488C247.697 61.488 246.081 63.248 246.081 65.776V65.904C246.081 68.48 247.761 70.144 250.129 70.144ZM247.505 65.008C247.729 63.52 248.641 62.592 250.001 62.592C251.377 62.592 252.273 63.28 252.401 65.008H247.505ZM255.799 70H257.127V65.408C257.127 63.344 258.199 62.816 259.879 62.736V61.488C258.375 61.536 257.655 62.192 257.127 63.136V61.632H255.799V70ZM265.004 70.144C266.892 70.144 268.284 69.264 268.572 67.584H267.244C267.068 68.56 266.316 69.04 265.02 69.04C263.308 69.04 262.396 67.984 262.332 66.08H268.636V65.648C268.636 62.656 266.812 61.488 264.876 61.488C262.572 61.488 260.956 63.248 260.956 65.776V65.904C260.956 68.48 262.636 70.144 265.004 70.144ZM262.38 65.008C262.604 63.52 263.516 62.592 264.876 62.592C266.252 62.592 267.148 63.28 267.276 65.008H262.38ZM273.506 70.144C274.85 70.144 275.778 69.456 276.162 68.672V70H277.49V61.632H276.162V66.704C276.162 68.208 275.042 68.992 273.858 68.992C272.546 68.992 271.922 68.336 271.922 66.864V61.632H270.594V66.928C270.594 69.232 271.842 70.144 273.506 70.144ZM280.174 70H281.502V64.88C281.502 63.376 282.622 62.64 283.71 62.64C284.862 62.64 285.486 63.248 285.486 64.72V70H286.814V64.88C286.814 63.376 287.934 62.64 289.022 62.64C290.174 62.64 290.798 63.248 290.798 64.72V70H292.126V64.816C292.126 62.384 290.814 61.488 289.31 61.488C288.27 61.488 287.022 61.968 286.446 63.056C286.014 61.936 285.07 61.488 283.998 61.488C282.798 61.488 281.886 62.128 281.502 62.912V61.632H280.174V70Z" fill="#E5E6ED"/>
<path d="M417.084 13.54L420.164 10C421.004 9.06 421.604 7.94 421.604 6.68C421.604 4.3 419.904 2.72 417.284 2.72C414.664 2.72 413.144 4.32 412.824 6.66L415.204 7.06C415.364 5.92 416.024 5.16 417.184 5.16C418.204 5.16 418.924 5.78 418.924 6.66C418.924 7.1 418.564 7.78 418.024 8.44L412.904 14.58V16H421.724V13.54H417.084ZM428.685 16.18C432.485 16.18 433.525 13.2 433.525 9.48C433.525 5.7 432.485 2.72 428.685 2.72C424.865 2.72 423.805 5.7 423.805 9.48C423.805 13.2 424.865 16.18 428.685 16.18ZM428.685 13.74C426.985 13.74 426.465 11.86 426.465 9.48C426.465 7.06 426.985 5.16 428.685 5.16C430.365 5.16 430.865 7.06 430.865 9.48C430.865 11.86 430.365 13.74 428.685 13.74ZM439.662 13.54L442.742 10C443.582 9.06 444.182 7.94 444.182 6.68C444.182 4.3 442.482 2.72 439.862 2.72C437.242 2.72 435.722 4.32 435.402 6.66L437.782 7.06C437.942 5.92 438.602 5.16 439.762 5.16C440.782 5.16 441.502 5.78 441.502 6.66C441.502 7.1 441.142 7.78 440.602 8.44L435.482 14.58V16H444.302V13.54H439.662ZM451.303 2.72L445.863 4.98V7.44L448.883 6.28V16H451.523V2.72H451.303ZM472.82 9.12C472.82 5.22 469.7 2.06 465.8 2.06C461.88 2.06 458.8 5.22 458.8 9.12C458.8 13.02 461.88 16.2 465.8 16.2C466.46 16.2 467.1 16.1 467.72 15.94L469.18 18.34L471.16 17.14L469.82 14.94C471.64 13.66 472.82 11.52 472.82 9.12ZM465.8 13.58C463.32 13.58 461.58 11.6 461.58 9.12C461.58 6.66 463.32 4.68 465.8 4.68C468.26 4.68 470.02 6.66 470.02 9.12C470.02 10.58 469.42 11.86 468.42 12.66L467.04 10.4L465.08 11.6L466.26 13.56C466.12 13.58 465.96 13.58 465.8 13.58ZM484.843 11.16H482.843V2.9H481.283L473.863 12.72V13.5H480.183V16H482.843V13.5H484.843V11.16ZM477.603 11.16L480.183 7.7V11.16H477.603Z" fill="white"/>
<circle cx="419.3" cy="37.5" r="7.5" fill="#141519" stroke="#1962F0" stroke-width="2"/>
<circle cx="418.9" cy="37.5" r="2.5" fill="#1962F0"/>
<rect x="426.8" y="36.5" width="190.4" height="2" fill="#1962F0"/>
<path d="M413.24 70H414.52V60.368L418.44 70H418.872L422.664 60.368V70H424.056V58.56H422.136L418.712 67.472L415.176 58.56H413.24V70ZM429.679 70.144C431.023 70.144 431.951 69.456 432.335 68.672V70H433.663V61.632H432.335V66.704C432.335 68.208 431.215 68.992 430.031 68.992C428.719 68.992 428.095 68.336 428.095 66.864V61.632H426.767V66.928C426.767 69.232 428.015 70.144 429.679 70.144ZM436.379 70H437.723V57.632H436.379V70ZM442.985 70.112C443.529 70.112 443.849 70.032 444.121 69.936V68.816C443.833 68.928 443.513 68.992 443.097 68.992C442.425 68.992 442.057 68.592 442.057 67.776V62.752H444.009V61.632H442.057V59.728H440.729V61.632H439.529V62.752H440.729V67.904C440.729 69.216 441.465 70.112 442.985 70.112ZM446.16 70H447.488V61.632H446.16V70ZM446.8 59.888C447.28 59.888 447.68 59.488 447.68 59.008C447.68 58.528 447.28 58.128 446.8 58.128C446.32 58.128 445.92 58.528 445.92 59.008C445.92 59.488 446.32 59.888 446.8 59.888ZM449.823 66.224H453.247V64.976H449.823V66.224ZM459.022 70.144C461.038 70.144 462.494 68.8 462.67 66.992H461.438C461.294 68.352 460.222 69.04 459.038 69.04C457.422 69.04 456.302 67.952 456.302 65.904V65.776C456.302 63.808 457.47 62.592 458.99 62.592C460.142 62.592 461.102 63.088 461.31 64.416H462.622C462.366 62.288 460.734 61.488 458.99 61.488C456.75 61.488 454.926 63.216 454.926 65.776V65.904C454.926 68.496 456.686 70.144 459.022 70.144ZM464.675 70H466.003V64.928C466.003 63.424 467.107 62.64 468.339 62.64C469.683 62.64 470.307 63.296 470.307 64.768V70H471.635V64.864C471.635 62.432 470.419 61.488 468.691 61.488C467.315 61.488 466.387 62.176 466.003 62.96V57.632H464.675V70ZM476.334 70.144C477.566 70.144 478.318 69.728 478.942 68.944V70H480.27V64.48C480.27 62.144 478.814 61.488 477.214 61.488C475.598 61.488 474.078 62.192 473.902 64.096H475.23C475.358 63.072 475.998 62.592 477.15 62.592C478.43 62.592 478.942 63.152 478.942 64.48V65.088H477.742C475.598 65.088 473.55 65.744 473.55 67.68C473.55 69.392 474.782 70.144 476.334 70.144ZM476.462 69.088C475.294 69.088 474.878 68.544 474.878 67.68C474.878 66.448 476.11 66.032 477.79 66.032H478.942V67.072C478.942 68.368 477.87 69.088 476.462 69.088ZM482.91 70H484.238V61.632H482.91V70ZM483.55 59.888C484.03 59.888 484.43 59.488 484.43 59.008C484.43 58.528 484.03 58.128 483.55 58.128C483.07 58.128 482.67 58.528 482.67 59.008C482.67 59.488 483.07 59.888 483.55 59.888ZM486.957 70H488.285V64.928C488.285 63.424 489.389 62.64 490.621 62.64C491.965 62.64 492.589 63.296 492.589 64.768V70H493.917V64.864C493.917 62.432 492.701 61.488 490.973 61.488C489.597 61.488 488.669 62.176 488.285 62.96V61.632H486.957V70ZM497.511 70.08C498.071 70.08 498.535 69.632 498.535 69.056C498.535 68.48 498.071 68.032 497.511 68.032C496.951 68.032 496.487 68.48 496.487 69.056C496.487 69.632 496.951 70.08 497.511 70.08ZM497.511 65.328C498.071 65.328 498.535 64.88 498.535 64.304C498.535 63.728 498.071 63.28 497.511 63.28C496.951 63.28 496.487 63.728 496.487 64.304C496.487 64.88 496.951 65.328 497.511 65.328ZM419.144 102.352C421.448 102.352 423.336 101.392 424.152 100H422.92C421.928 100.848 420.888 101.296 419.144 101.296C415.576 101.296 413.752 98.72 413.752 95.808C413.752 92.416 416.12 90.048 419.352 90.048C422.648 90.048 424.568 92.016 424.568 94.88C424.568 97.056 423.64 97.968 422.728 97.968C422.12 97.968 421.848 97.552 421.96 96.704L422.44 92.672H421.112L421 93.632C420.776 93.088 420.2 92.544 419.064 92.544C417.32 92.544 415.912 94.112 415.912 96.256C415.912 97.984 416.936 99.04 418.488 99.04C419.48 99.04 420.408 98.384 420.872 97.552C421 98.384 421.416 98.928 422.712 98.928C423.992 98.928 425.72 97.856 425.72 94.848C425.72 91.552 423.176 88.992 419.352 88.992C415.656 88.992 412.52 91.92 412.52 95.84C412.52 99.248 414.872 102.352 419.144 102.352ZM418.776 98.016C417.912 98.016 417.272 97.36 417.272 96.24C417.272 94.56 418.152 93.6 419.16 93.6C420.2 93.6 420.824 94.192 420.824 95.408C420.824 97.104 419.768 98.016 418.776 98.016ZM427.881 100H429.273V95.344H431.129C433.305 95.344 435.129 94.4 435.129 91.968V91.904C435.129 89.52 433.321 88.56 431.129 88.56H427.881V100ZM429.273 94.24V89.68H431.225C432.777 89.68 433.737 90.288 433.737 91.904V91.968C433.737 93.44 432.857 94.24 431.225 94.24H429.273ZM440.335 99.04C438.639 99.04 437.599 97.792 437.599 95.888V95.76C437.599 93.84 438.655 92.592 440.335 92.592C441.999 92.592 443.071 93.84 443.071 95.776V95.888C443.071 97.776 442.015 99.04 440.335 99.04ZM440.319 100.144C442.703 100.144 444.447 98.4 444.447 95.872V95.744C444.447 93.232 442.703 91.488 440.335 91.488C437.967 91.488 436.223 93.248 436.223 95.76V95.888C436.223 98.336 437.935 100.144 440.319 100.144ZM446.535 100H447.879V87.632H446.535V100ZM451.349 102.912H452.693L457.317 91.632H455.957L453.637 97.632L451.077 91.632H449.653L452.933 99.136L451.349 102.912ZM462.254 103.056C464.59 103.056 466.238 101.872 466.254 99.44V91.632H464.926V92.976C464.446 92.16 463.582 91.488 462.19 91.488C459.886 91.488 458.286 93.376 458.286 95.648V95.76C458.286 98.064 459.902 99.728 462.094 99.728C463.31 99.728 464.446 98.96 464.926 98.144V99.36C464.926 101.152 463.886 101.936 462.238 101.936C460.814 101.936 460.014 101.44 459.822 100.48H458.462C458.686 101.888 459.774 103.056 462.254 103.056ZM462.238 98.624C460.83 98.624 459.662 97.536 459.662 95.712V95.584C459.662 93.824 460.654 92.592 462.318 92.592C463.95 92.592 464.974 93.68 464.974 95.552V95.664C464.974 97.536 463.79 98.624 462.238 98.624ZM472.429 99.04C470.733 99.04 469.693 97.792 469.693 95.888V95.76C469.693 93.84 470.749 92.592 472.429 92.592C474.093 92.592 475.165 93.84 475.165 95.776V95.888C475.165 97.776 474.109 99.04 472.429 99.04ZM472.413 100.144C474.797 100.144 476.541 98.4 476.541 95.872V95.744C476.541 93.232 474.797 91.488 472.429 91.488C470.061 91.488 468.317 93.248 468.317 95.76V95.888C468.317 98.336 470.029 100.144 472.413 100.144ZM478.597 100H479.925V94.928C479.925 93.424 481.029 92.64 482.261 92.64C483.605 92.64 484.229 93.296 484.229 94.768V100H485.557V94.864C485.557 92.432 484.341 91.488 482.613 91.488C481.237 91.488 480.309 92.176 479.925 92.96V91.632H478.597V100ZM419.144 132.352C421.448 132.352 423.336 131.392 424.152 130H422.92C421.928 130.848 420.888 131.296 419.144 131.296C415.576 131.296 413.752 128.72 413.752 125.808C413.752 122.416 416.12 120.048 419.352 120.048C422.648 120.048 424.568 122.016 424.568 124.88C424.568 127.056 423.64 127.968 422.728 127.968C422.12 127.968 421.848 127.552 421.96 126.704L422.44 122.672H421.112L421 123.632C420.776 123.088 420.2 122.544 419.064 122.544C417.32 122.544 415.912 124.112 415.912 126.256C415.912 127.984 416.936 129.04 418.488 129.04C419.48 129.04 420.408 128.384 420.872 127.552C421 128.384 421.416 128.928 422.712 128.928C423.992 128.928 425.72 127.856 425.72 124.848C425.72 121.552 423.176 118.992 419.352 118.992C415.656 118.992 412.52 121.92 412.52 125.84C412.52 129.248 414.872 132.352 419.144 132.352ZM418.776 128.016C417.912 128.016 417.272 127.36 417.272 126.24C417.272 124.56 418.152 123.6 419.16 123.6C420.2 123.6 420.824 124.192 420.824 125.408C420.824 127.104 419.768 128.016 418.776 128.016ZM427.881 130H431.801C434.089 130 435.561 128.96 435.561 126.8V126.736C435.561 125.248 434.937 124.4 433.273 124C434.585 123.552 435.001 122.624 435.001 121.584V121.52C435.001 119.264 433.449 118.56 431.321 118.56H427.881V130ZM429.241 128.912V124.64H431.577C433.417 124.64 434.201 125.312 434.201 126.72V126.784C434.201 128.176 433.433 128.912 431.769 128.912H429.241ZM429.241 123.552V119.648H431.289C432.889 119.648 433.641 120.176 433.641 121.472V121.536C433.641 122.944 433.001 123.552 431.321 123.552H429.241ZM437.77 130H439.098V121.632H437.77V130ZM438.41 119.888C438.89 119.888 439.29 119.488 439.29 119.008C439.29 118.528 438.89 118.128 438.41 118.128C437.93 118.128 437.53 118.528 437.53 119.008C437.53 119.488 437.93 119.888 438.41 119.888ZM441.816 130H443.144V124.928C443.144 123.424 444.248 122.64 445.48 122.64C446.824 122.64 447.448 123.296 447.448 124.768V130H448.776V124.864C448.776 122.432 447.56 121.488 445.832 121.488C444.456 121.488 443.528 122.176 443.144 122.96V121.632H441.816V130ZM453.474 130.144C454.706 130.144 455.458 129.728 456.082 128.944V130H457.41V124.48C457.41 122.144 455.954 121.488 454.354 121.488C452.738 121.488 451.218 122.192 451.042 124.096H452.37C452.498 123.072 453.138 122.592 454.29 122.592C455.57 122.592 456.082 123.152 456.082 124.48V125.088H454.882C452.738 125.088 450.69 125.744 450.69 127.68C450.69 129.392 451.922 130.144 453.474 130.144ZM453.602 129.088C452.434 129.088 452.018 128.544 452.018 127.68C452.018 126.448 453.25 126.032 454.93 126.032H456.082V127.072C456.082 128.368 455.01 129.088 453.602 129.088ZM460.019 130H461.347V124.928C461.347 123.424 462.451 122.64 463.683 122.64C465.027 122.64 465.651 123.296 465.651 124.768V130H466.979V124.864C466.979 122.432 465.763 121.488 464.035 121.488C462.659 121.488 461.731 122.176 461.347 122.96V121.632H460.019V130ZM473.054 130.144C475.07 130.144 476.526 128.8 476.702 126.992H475.47C475.326 128.352 474.254 129.04 473.07 129.04C471.454 129.04 470.334 127.952 470.334 125.904V125.776C470.334 123.808 471.502 122.592 473.022 122.592C474.174 122.592 475.134 123.088 475.342 124.416H476.654C476.398 122.288 474.766 121.488 473.022 121.488C470.782 121.488 468.958 123.216 468.958 125.776V125.904C468.958 128.496 470.718 130.144 473.054 130.144ZM482.131 130.144C484.019 130.144 485.411 129.264 485.699 127.584H484.371C484.195 128.56 483.443 129.04 482.147 129.04C480.435 129.04 479.523 127.984 479.459 126.08H485.763V125.648C485.763 122.656 483.939 121.488 482.003 121.488C479.699 121.488 478.083 123.248 478.083 125.776V125.904C478.083 128.48 479.763 130.144 482.131 130.144ZM479.507 125.008C479.731 123.52 480.643 122.592 482.003 122.592C483.379 122.592 484.275 123.28 484.403 125.008H479.507ZM419.144 162.352C421.448 162.352 423.336 161.392 424.152 160H422.92C421.928 160.848 420.888 161.296 419.144 161.296C415.576 161.296 413.752 158.72 413.752 155.808C413.752 152.416 416.12 150.048 419.352 150.048C422.648 150.048 424.568 152.016 424.568 154.88C424.568 157.056 423.64 157.968 422.728 157.968C422.12 157.968 421.848 157.552 421.96 156.704L422.44 152.672H421.112L421 153.632C420.776 153.088 420.2 152.544 419.064 152.544C417.32 152.544 415.912 154.112 415.912 156.256C415.912 157.984 416.936 159.04 418.488 159.04C419.48 159.04 420.408 158.384 420.872 157.552C421 158.384 421.416 158.928 422.712 158.928C423.992 158.928 425.72 157.856 425.72 154.848C425.72 151.552 423.176 148.992 419.352 148.992C415.656 148.992 412.52 151.92 412.52 155.84C412.52 159.248 414.872 162.352 419.144 162.352ZM418.776 158.016C417.912 158.016 417.272 157.36 417.272 156.24C417.272 154.56 418.152 153.6 419.16 153.6C420.2 153.6 420.824 154.192 420.824 155.408C420.824 157.104 419.768 158.016 418.776 158.016ZM431.577 160.144C433.849 160.144 435.529 158.688 435.529 156.768C435.529 154.608 434.185 153.84 431.641 153.44C429.305 153.088 428.889 152.512 428.889 151.392C428.889 150.32 429.705 149.536 431.273 149.536C432.857 149.536 433.689 150.128 433.961 151.568H435.209C434.985 149.536 433.561 148.416 431.273 148.416C429.113 148.416 427.593 149.76 427.593 151.52C427.593 153.552 429.017 154.304 431.417 154.672C433.593 155.024 434.185 155.568 434.185 156.864C434.185 158.16 433.049 159.024 431.577 159.024C429.273 159.024 428.729 157.872 428.553 156.512H427.209C427.417 158.464 428.521 160.144 431.577 160.144ZM441.304 159.04C439.608 159.04 438.568 157.792 438.568 155.888V155.76C438.568 153.84 439.624 152.592 441.304 152.592C442.968 152.592 444.04 153.84 444.04 155.776V155.888C444.04 157.776 442.984 159.04 441.304 159.04ZM441.288 160.144C443.672 160.144 445.416 158.4 445.416 155.872V155.744C445.416 153.232 443.672 151.488 441.304 151.488C438.936 151.488 437.192 153.248 437.192 155.76V155.888C437.192 158.336 438.904 160.144 441.288 160.144ZM447.504 160H448.848V147.632H447.504V160ZM453.662 160.144C454.894 160.144 455.646 159.728 456.27 158.944V160H457.598V154.48C457.598 152.144 456.142 151.488 454.542 151.488C452.926 151.488 451.406 152.192 451.23 154.096H452.558C452.686 153.072 453.326 152.592 454.478 152.592C455.758 152.592 456.27 153.152 456.27 154.48V155.088H455.07C452.926 155.088 450.878 155.744 450.878 157.68C450.878 159.392 452.11 160.144 453.662 160.144ZM453.79 159.088C452.622 159.088 452.206 158.544 452.206 157.68C452.206 156.448 453.438 156.032 455.118 156.032H456.27V157.072C456.27 158.368 455.198 159.088 453.79 159.088ZM460.207 160H461.535V154.928C461.535 153.424 462.639 152.64 463.871 152.64C465.215 152.64 465.839 153.296 465.839 154.768V160H467.167V154.864C467.167 152.432 465.951 151.488 464.223 151.488C462.847 151.488 461.919 152.176 461.535 152.96V151.632H460.207V160ZM471.865 160.144C473.097 160.144 473.849 159.728 474.473 158.944V160H475.801V154.48C475.801 152.144 474.345 151.488 472.745 151.488C471.129 151.488 469.609 152.192 469.433 154.096H470.761C470.889 153.072 471.529 152.592 472.681 152.592C473.961 152.592 474.473 153.152 474.473 154.48V155.088H473.273C471.129 155.088 469.081 155.744 469.081 157.68C469.081 159.392 470.313 160.144 471.865 160.144ZM471.993 159.088C470.825 159.088 470.409 158.544 470.409 157.68C470.409 156.448 471.641 156.032 473.321 156.032H474.473V157.072C474.473 158.368 473.401 159.088 471.993 159.088Z" fill="white"/>
<path d="M622.605 13.54L625.685 10C626.525 9.06 627.125 7.94 627.125 6.68C627.125 4.3 625.425 2.72 622.805 2.72C620.185 2.72 618.665 4.32 618.345 6.66L620.725 7.06C620.885 5.92 621.545 5.16 622.705 5.16C623.725 5.16 624.445 5.78 624.445 6.66C624.445 7.1 624.085 7.78 623.545 8.44L618.425 14.58V16H627.245V13.54H622.605ZM634.206 16.18C638.006 16.18 639.046 13.2 639.046 9.48C639.046 5.7 638.006 2.72 634.206 2.72C630.386 2.72 629.326 5.7 629.326 9.48C629.326 13.2 630.386 16.18 634.206 16.18ZM634.206 13.74C632.506 13.74 631.986 11.86 631.986 9.48C631.986 7.06 632.506 5.16 634.206 5.16C635.886 5.16 636.386 7.06 636.386 9.48C636.386 11.86 635.886 13.74 634.206 13.74ZM645.183 13.54L648.263 10C649.103 9.06 649.703 7.94 649.703 6.68C649.703 4.3 648.003 2.72 645.383 2.72C642.763 2.72 641.243 4.32 640.923 6.66L643.303 7.06C643.463 5.92 644.123 5.16 645.283 5.16C646.303 5.16 647.023 5.78 647.023 6.66C647.023 7.1 646.663 7.78 646.123 8.44L641.003 14.58V16H649.823V13.54H645.183ZM655.964 13.54L659.044 10C659.884 9.06 660.484 7.94 660.484 6.68C660.484 4.3 658.784 2.72 656.164 2.72C653.544 2.72 652.024 4.32 651.704 6.66L654.084 7.06C654.244 5.92 654.904 5.16 656.064 5.16C657.084 5.16 657.804 5.78 657.804 6.66C657.804 7.1 657.444 7.78 656.904 8.44L651.784 14.58V16H660.604V13.54H655.964ZM681.271 9.12C681.271 5.22 678.151 2.06 674.251 2.06C670.331 2.06 667.251 5.22 667.251 9.12C667.251 13.02 670.331 16.2 674.251 16.2C674.911 16.2 675.551 16.1 676.171 15.94L677.631 18.34L679.611 17.14L678.271 14.94C680.091 13.66 681.271 11.52 681.271 9.12ZM674.251 13.58C671.771 13.58 670.031 11.6 670.031 9.12C670.031 6.66 671.771 4.68 674.251 4.68C676.711 4.68 678.471 6.66 678.471 9.12C678.471 10.58 677.871 11.86 676.871 12.66L675.491 10.4L673.531 11.6L674.711 13.56C674.571 13.58 674.411 13.58 674.251 13.58ZM687.214 13.54L690.294 10C691.134 9.06 691.734 7.94 691.734 6.68C691.734 4.3 690.034 2.72 687.414 2.72C684.794 2.72 683.274 4.32 682.954 6.66L685.334 7.06C685.494 5.92 686.154 5.16 687.314 5.16C688.334 5.16 689.054 5.78 689.054 6.66C689.054 7.1 688.694 7.78 688.154 8.44L683.034 14.58V16H691.854V13.54H687.214Z" fill="white"/>
<circle cx="624.7" cy="37.5" r="7.5" fill="#141519" stroke="#1962F0" stroke-width="2"/>
<rect x="632.2" y="36.5" width="190.4" height="2" fill="#1962F0"/>
<path d="M620.992 70H622.384V59.696H625.712V58.56H617.664V59.696H620.992V70ZM629.798 69.04C628.102 69.04 627.062 67.792 627.062 65.888V65.76C627.062 63.84 628.118 62.592 629.798 62.592C631.462 62.592 632.534 63.84 632.534 65.776V65.888C632.534 67.776 631.478 69.04 629.798 69.04ZM629.782 70.144C632.166 70.144 633.91 68.4 633.91 65.872V65.744C633.91 63.232 632.166 61.488 629.798 61.488C627.43 61.488 625.686 63.248 625.686 65.76V65.888C625.686 68.336 627.398 70.144 629.782 70.144ZM639.454 69.04C637.758 69.04 636.718 67.792 636.718 65.888V65.76C636.718 63.84 637.774 62.592 639.454 62.592C641.118 62.592 642.19 63.84 642.19 65.776V65.888C642.19 67.776 641.134 69.04 639.454 69.04ZM639.438 70.144C641.822 70.144 643.566 68.4 643.566 65.872V65.744C643.566 63.232 641.822 61.488 639.454 61.488C637.086 61.488 635.342 63.248 635.342 65.76V65.888C635.342 68.336 637.054 70.144 639.438 70.144ZM645.654 70H646.998V57.632H645.654V70ZM653.876 70.144C656.18 70.144 657.684 68.384 657.684 65.824V65.696C657.684 63.088 656.068 61.488 653.876 61.488C652.66 61.488 651.524 62.224 651.044 63.04V57.632H649.716V70H651.044V68.624C651.524 69.456 652.516 70.144 653.876 70.144ZM653.748 69.04C652.116 69.04 650.996 68.032 650.996 65.888V65.76C650.996 63.616 652.18 62.592 653.732 62.592C655.14 62.592 656.308 63.648 656.308 65.76V65.888C656.308 67.92 655.412 69.04 653.748 69.04ZM663.235 69.04C661.539 69.04 660.499 67.792 660.499 65.888V65.76C660.499 63.84 661.555 62.592 663.235 62.592C664.899 62.592 665.971 63.84 665.971 65.776V65.888C665.971 67.776 664.915 69.04 663.235 69.04ZM663.219 70.144C665.603 70.144 667.347 68.4 667.347 65.872V65.744C667.347 63.232 665.603 61.488 663.235 61.488C660.867 61.488 659.123 63.248 659.123 65.76V65.888C659.123 68.336 660.835 70.144 663.219 70.144ZM668.101 70H669.525L671.829 66.624L674.085 70H675.653L672.597 65.6L675.365 61.632H673.925L671.893 64.672L669.845 61.632H668.293L671.093 65.696L668.101 70ZM618.64 100H625.6V98.864H620.032V94.72H624.288V93.584H620.032V89.696H625.312V88.56H618.64V100ZM631.078 100.144C633.094 100.144 634.55 98.8 634.726 96.992H633.494C633.35 98.352 632.278 99.04 631.094 99.04C629.478 99.04 628.358 97.952 628.358 95.904V95.776C628.358 93.808 629.526 92.592 631.046 92.592C632.198 92.592 633.158 93.088 633.366 94.416H634.678C634.422 92.288 632.79 91.488 631.046 91.488C628.806 91.488 626.982 93.216 626.982 95.776V95.904C626.982 98.496 628.742 100.144 631.078 100.144ZM640.219 99.04C638.523 99.04 637.483 97.792 637.483 95.888V95.76C637.483 93.84 638.539 92.592 640.219 92.592C641.883 92.592 642.955 93.84 642.955 95.776V95.888C642.955 97.776 641.899 99.04 640.219 99.04ZM640.203 100.144C642.587 100.144 644.331 98.4 644.331 95.872V95.744C644.331 93.232 642.587 91.488 640.219 91.488C637.851 91.488 636.107 93.248 636.107 95.76V95.888C636.107 98.336 637.819 100.144 640.203 100.144ZM648.98 100.144C651.012 100.144 652.052 99.12 652.052 97.6C652.052 95.824 650.836 95.44 649.108 95.12C647.572 94.848 647.156 94.544 647.156 93.792C647.156 93.072 647.78 92.592 648.74 92.592C649.796 92.592 650.308 92.992 650.5 93.904H651.78C651.556 92.096 650.26 91.488 648.756 91.488C647.444 91.488 645.924 92.288 645.924 93.84C645.924 95.296 646.66 95.904 648.836 96.304C650.132 96.544 650.788 96.832 650.788 97.712C650.788 98.608 650.228 99.04 648.964 99.04C647.62 99.04 647.092 98.416 646.996 97.424H645.7C645.78 99.136 646.98 100.144 648.98 100.144ZM654.671 102.912H656.015L660.639 91.632H659.279L656.959 97.632L654.399 91.632H652.975L656.255 99.136L654.671 102.912ZM664.98 100.144C667.012 100.144 668.052 99.12 668.052 97.6C668.052 95.824 666.836 95.44 665.108 95.12C663.572 94.848 663.156 94.544 663.156 93.792C663.156 93.072 663.78 92.592 664.74 92.592C665.796 92.592 666.308 92.992 666.5 93.904H667.78C667.556 92.096 666.26 91.488 664.756 91.488C663.444 91.488 661.924 92.288 661.924 93.84C661.924 95.296 662.66 95.904 664.836 96.304C666.132 96.544 666.788 96.832 666.788 97.712C666.788 98.608 666.228 99.04 664.964 99.04C663.62 99.04 663.092 98.416 662.996 97.424H661.7C661.78 99.136 662.98 100.144 664.98 100.144ZM672.619 100.112C673.163 100.112 673.483 100.032 673.755 99.936V98.816C673.467 98.928 673.147 98.992 672.731 98.992C672.059 98.992 671.691 98.592 671.691 97.776V92.752H673.643V91.632H671.691V89.728H670.363V91.632H669.163V92.752H670.363V97.904C670.363 99.216 671.099 100.112 672.619 100.112ZM679.187 100.144C681.075 100.144 682.467 99.264 682.755 97.584H681.427C681.251 98.56 680.499 99.04 679.203 99.04C677.491 99.04 676.579 97.984 676.515 96.08H682.819V95.648C682.819 92.656 680.995 91.488 679.059 91.488C676.755 91.488 675.139 93.248 675.139 95.776V95.904C675.139 98.48 676.819 100.144 679.187 100.144ZM676.563 95.008C676.787 93.52 677.699 92.592 679.059 92.592C680.435 92.592 681.331 93.28 681.459 95.008H676.563ZM684.856 100H686.184V94.88C686.184 93.376 687.304 92.64 688.392 92.64C689.544 92.64 690.168 93.248 690.168 94.72V100H691.496V94.88C691.496 93.376 692.616 92.64 693.704 92.64C694.856 92.64 695.48 93.248 695.48 94.72V100H696.808V94.816C696.808 92.384 695.496 91.488 693.992 91.488C692.952 91.488 691.704 91.968 691.128 93.056C690.696 91.936 689.752 91.488 688.68 91.488C687.48 91.488 686.568 92.128 686.184 92.912V91.632H684.856V100ZM618.64 130H625.6V128.864H620.032V124.72H624.288V123.584H620.032V119.696H625.312V118.56H618.64V130ZM626.789 130H628.213L630.517 126.624L632.773 130H634.341L631.285 125.6L634.053 121.632H632.613L630.581 124.672L628.533 121.632H626.981L629.781 125.696L626.789 130ZM636.138 132.912H637.466V128.624C637.946 129.456 638.922 130.144 640.298 130.144C642.602 130.144 644.106 128.384 644.106 125.824V125.696C644.106 123.088 642.49 121.488 640.298 121.488C639.082 121.488 637.946 122.224 637.466 123.04V121.632H636.138V132.912ZM640.17 129.04C638.538 129.04 637.418 128.032 637.418 125.888V125.76C637.418 123.616 638.602 122.592 640.154 122.592C641.562 122.592 642.73 123.648 642.73 125.76V125.888C642.73 127.92 641.834 129.04 640.17 129.04ZM648.265 130.144C649.497 130.144 650.249 129.728 650.873 128.944V130H652.201V124.48C652.201 122.144 650.745 121.488 649.145 121.488C647.529 121.488 646.009 122.192 645.833 124.096H647.161C647.289 123.072 647.929 122.592 649.081 122.592C650.361 122.592 650.873 123.152 650.873 124.48V125.088H649.673C647.529 125.088 645.481 125.744 645.481 127.68C645.481 129.392 646.713 130.144 648.265 130.144ZM648.393 129.088C647.225 129.088 646.809 128.544 646.809 127.68C646.809 126.448 648.041 126.032 649.721 126.032H650.873V127.072C650.873 128.368 649.801 129.088 648.393 129.088ZM654.81 130H656.138V124.928C656.138 123.424 657.242 122.64 658.474 122.64C659.818 122.64 660.442 123.296 660.442 124.768V130H661.77V124.864C661.77 122.432 660.554 121.488 658.826 121.488C657.45 121.488 656.522 122.176 656.138 122.96V121.632H654.81V130ZM666.964 130.144C668.996 130.144 670.036 129.12 670.036 127.6C670.036 125.824 668.82 125.44 667.092 125.12C665.556 124.848 665.14 124.544 665.14 123.792C665.14 123.072 665.764 122.592 666.724 122.592C667.78 122.592 668.292 122.992 668.484 123.904H669.764C669.54 122.096 668.244 121.488 666.74 121.488C665.428 121.488 663.908 122.288 663.908 123.84C663.908 125.296 664.644 125.904 666.82 126.304C668.116 126.544 668.772 126.832 668.772 127.712C668.772 128.608 668.212 129.04 666.948 129.04C665.604 129.04 665.076 128.416 664.98 127.424H663.684C663.764 129.136 664.964 130.144 666.964 130.144ZM672.092 130H673.42V121.632H672.092V130ZM672.732 119.888C673.212 119.888 673.612 119.488 673.612 119.008C673.612 118.528 673.212 118.128 672.732 118.128C672.252 118.128 671.852 118.528 671.852 119.008C671.852 119.488 672.252 119.888 672.732 119.888ZM679.626 129.04C677.93 129.04 676.89 127.792 676.89 125.888V125.76C676.89 123.84 677.946 122.592 679.626 122.592C681.29 122.592 682.362 123.84 682.362 125.776V125.888C682.362 127.776 681.306 129.04 679.626 129.04ZM679.61 130.144C681.994 130.144 683.738 128.4 683.738 125.872V125.744C683.738 123.232 681.994 121.488 679.626 121.488C677.258 121.488 675.514 123.248 675.514 125.76V125.888C675.514 128.336 677.226 130.144 679.61 130.144ZM685.794 130H687.122V124.928C687.122 123.424 688.226 122.64 689.458 122.64C690.802 122.64 691.426 123.296 691.426 124.768V130H692.754V124.864C692.754 122.432 691.538 121.488 689.81 121.488C688.434 121.488 687.506 122.176 687.122 122.96V121.632H685.794V130Z" fill="white"/>
<path d="M827.919 13.54L830.999 10C831.839 9.06 832.439 7.94 832.439 6.68C832.439 4.3 830.739 2.72 828.119 2.72C825.499 2.72 823.979 4.32 823.659 6.66L826.039 7.06C826.199 5.92 826.859 5.16 828.019 5.16C829.039 5.16 829.759 5.78 829.759 6.66C829.759 7.1 829.399 7.78 828.859 8.44L823.739 14.58V16H832.559V13.54H827.919ZM839.52 16.18C843.32 16.18 844.36 13.2 844.36 9.48C844.36 5.7 843.32 2.72 839.52 2.72C835.7 2.72 834.64 5.7 834.64 9.48C834.64 13.2 835.7 16.18 839.52 16.18ZM839.52 13.74C837.82 13.74 837.3 11.86 837.3 9.48C837.3 7.06 837.82 5.16 839.52 5.16C841.2 5.16 841.7 7.06 841.7 9.48C841.7 11.86 841.2 13.74 839.52 13.74ZM850.497 13.54L853.577 10C854.417 9.06 855.017 7.94 855.017 6.68C855.017 4.3 853.317 2.72 850.697 2.72C848.077 2.72 846.557 4.32 846.237 6.66L848.617 7.06C848.777 5.92 849.437 5.16 850.597 5.16C851.617 5.16 852.337 5.78 852.337 6.66C852.337 7.1 851.977 7.78 851.437 8.44L846.317 14.58V16H855.137V13.54H850.497ZM861.278 13.54L864.358 10C865.198 9.06 865.798 7.94 865.798 6.68C865.798 4.3 864.098 2.72 861.478 2.72C858.858 2.72 857.338 4.32 857.018 6.66L859.398 7.06C859.558 5.92 860.218 5.16 861.378 5.16C862.398 5.16 863.118 5.78 863.118 6.66C863.118 7.1 862.758 7.78 862.218 8.44L857.098 14.58V16H865.918V13.54H861.278ZM886.585 9.12C886.585 5.22 883.465 2.06 879.565 2.06C875.645 2.06 872.565 5.22 872.565 9.12C872.565 13.02 875.645 16.2 879.565 16.2C880.225 16.2 880.865 16.1 881.485 15.94L882.945 18.34L884.925 17.14L883.585 14.94C885.405 13.66 886.585 11.52 886.585 9.12ZM879.565 13.58C877.085 13.58 875.345 11.6 875.345 9.12C875.345 6.66 877.085 4.68 879.565 4.68C882.025 4.68 883.785 6.66 883.785 9.12C883.785 10.58 883.185 11.86 882.185 12.66L880.805 10.4L878.845 11.6L880.025 13.56C879.885 13.58 879.725 13.58 879.565 13.58ZM898.608 11.16H896.608V2.9H895.048L887.628 12.72V13.5H893.948V16H896.608V13.5H898.608V11.16ZM891.368 11.16L893.948 7.7V11.16H891.368Z" fill="white"/>
<circle cx="830.1" cy="37.5" r="7.5" fill="#141519" stroke="#1962F0" stroke-width="2"/>
<rect x="837.6" y="36.5" width="190.4" height="2" fill="#1962F0"/>
<path d="M825.432 68.864V59.68H826.984C830.136 59.68 831.416 61.536 831.416 64.176V64.304C831.416 67.104 829.944 68.864 827 68.864H825.432ZM824.04 70H827.032C831.032 70 832.856 67.488 832.856 64.32V64.176C832.856 60.992 831 58.56 827.064 58.56H824.04V70ZM837.181 70.144C838.413 70.144 839.165 69.728 839.789 68.944V70H841.117V64.48C841.117 62.144 839.661 61.488 838.061 61.488C836.445 61.488 834.925 62.192 834.749 64.096H836.077C836.205 63.072 836.845 62.592 837.997 62.592C839.277 62.592 839.789 63.152 839.789 64.48V65.088H838.589C836.445 65.088 834.397 65.744 834.397 67.68C834.397 69.392 835.629 70.144 837.181 70.144ZM837.309 69.088C836.141 69.088 835.725 68.544 835.725 67.68C835.725 66.448 836.957 66.032 838.637 66.032H839.789V67.072C839.789 68.368 838.717 69.088 837.309 69.088ZM846.269 70.112C846.813 70.112 847.133 70.032 847.405 69.936V68.816C847.117 68.928 846.797 68.992 846.381 68.992C845.709 68.992 845.341 68.592 845.341 67.776V62.752H847.293V61.632H845.341V59.728H844.013V61.632H842.813V62.752H844.013V67.904C844.013 69.216 844.749 70.112 846.269 70.112ZM851.587 70.144C852.819 70.144 853.571 69.728 854.195 68.944V70H855.523V64.48C855.523 62.144 854.067 61.488 852.467 61.488C850.851 61.488 849.331 62.192 849.155 64.096H850.483C850.611 63.072 851.251 62.592 852.403 62.592C853.683 62.592 854.195 63.152 854.195 64.48V65.088H852.995C850.851 65.088 848.803 65.744 848.803 67.68C848.803 69.392 850.035 70.144 851.587 70.144ZM851.715 69.088C850.547 69.088 850.131 68.544 850.131 67.68C850.131 66.448 851.363 66.032 853.043 66.032H854.195V67.072C854.195 68.368 853.123 69.088 851.715 69.088ZM862.462 70H866.382C868.67 70 870.142 68.96 870.142 66.8V66.736C870.142 65.248 869.518 64.4 867.854 64C869.166 63.552 869.582 62.624 869.582 61.584V61.52C869.582 59.264 868.03 58.56 865.902 58.56H862.462V70ZM863.822 68.912V64.64H866.158C867.998 64.64 868.782 65.312 868.782 66.72V66.784C868.782 68.176 868.014 68.912 866.35 68.912H863.822ZM863.822 63.552V59.648H865.87C867.47 59.648 868.222 60.176 868.222 61.472V61.536C868.222 62.944 867.582 63.552 865.902 63.552H863.822ZM872.319 70H873.647V65.408C873.647 63.344 874.719 62.816 876.399 62.736V61.488C874.895 61.536 874.175 62.192 873.647 63.136V61.632H872.319V70ZM878.367 70H879.695V61.632H878.367V70ZM879.007 59.888C879.487 59.888 879.887 59.488 879.887 59.008C879.887 58.528 879.487 58.128 879.007 58.128C878.527 58.128 878.127 58.528 878.127 59.008C878.127 59.488 878.527 59.888 879.007 59.888ZM885.565 70.144C886.781 70.144 887.949 69.376 888.429 68.56V70H889.757V57.632H888.429V62.976C887.949 62.16 887.085 61.488 885.693 61.488C883.389 61.488 881.789 63.296 881.789 65.856V65.984C881.789 68.592 883.373 70.144 885.565 70.144ZM885.709 69.04C884.301 69.04 883.165 68.032 883.165 65.92V65.792C883.165 63.76 884.157 62.592 885.821 62.592C887.453 62.592 888.477 63.6 888.477 65.744V65.872C888.477 68.016 887.261 69.04 885.709 69.04ZM895.788 73.056C898.124 73.056 899.772 71.872 899.788 69.44V61.632H898.46V62.976C897.98 62.16 897.116 61.488 895.724 61.488C893.42 61.488 891.82 63.376 891.82 65.648V65.76C891.82 68.064 893.436 69.728 895.628 69.728C896.844 69.728 897.98 68.96 898.46 68.144V69.36C898.46 71.152 897.42 71.936 895.772 71.936C894.348 71.936 893.548 71.44 893.356 70.48H891.996C892.22 71.888 893.308 73.056 895.788 73.056ZM895.772 68.624C894.364 68.624 893.196 67.536 893.196 65.712V65.584C893.196 63.824 894.188 62.592 895.852 62.592C897.484 62.592 898.508 63.68 898.508 65.552V65.664C898.508 67.536 897.324 68.624 895.772 68.624ZM905.899 70.144C907.787 70.144 909.179 69.264 909.467 67.584H908.139C907.963 68.56 907.211 69.04 905.915 69.04C904.203 69.04 903.291 67.984 903.227 66.08H909.531V65.648C909.531 62.656 907.707 61.488 905.771 61.488C903.467 61.488 901.851 63.248 901.851 65.776V65.904C901.851 68.48 903.531 70.144 905.899 70.144ZM903.275 65.008C903.499 63.52 904.411 62.592 905.771 62.592C907.147 62.592 908.043 63.28 908.171 65.008H903.275ZM915.835 70H917.179V57.632H915.835V70ZM921.993 70.144C923.225 70.144 923.977 69.728 924.601 68.944V70H925.929V64.48C925.929 62.144 924.473 61.488 922.873 61.488C921.257 61.488 919.737 62.192 919.561 64.096H920.889C921.017 63.072 921.657 62.592 922.809 62.592C924.089 62.592 924.601 63.152 924.601 64.48V65.088H923.401C921.257 65.088 919.209 65.744 919.209 67.68C919.209 69.392 920.441 70.144 921.993 70.144ZM922.121 69.088C920.953 69.088 920.537 68.544 920.537 67.68C920.537 66.448 921.769 66.032 923.449 66.032H924.601V67.072C924.601 68.368 923.529 69.088 922.121 69.088ZM931.37 70.144C932.714 70.144 933.642 69.456 934.026 68.672V70H935.354V61.632H934.026V66.704C934.026 68.208 932.906 68.992 931.722 68.992C930.41 68.992 929.786 68.336 929.786 66.864V61.632H928.458V66.928C928.458 69.232 929.706 70.144 931.37 70.144ZM938.038 70H939.366V64.928C939.366 63.424 940.47 62.64 941.702 62.64C943.046 62.64 943.67 63.296 943.67 64.768V70H944.998V64.864C944.998 62.432 943.782 61.488 942.054 61.488C940.678 61.488 939.75 62.176 939.366 62.96V61.632H938.038V70ZM951.072 70.144C953.088 70.144 954.544 68.8 954.72 66.992H953.488C953.344 68.352 952.272 69.04 951.088 69.04C949.472 69.04 948.352 67.952 948.352 65.904V65.776C948.352 63.808 949.52 62.592 951.04 62.592C952.192 62.592 953.152 63.088 953.36 64.416H954.672C954.416 62.288 952.784 61.488 951.04 61.488C948.8 61.488 946.976 63.216 946.976 65.776V65.904C946.976 68.496 948.736 70.144 951.072 70.144ZM956.725 70H958.053V64.928C958.053 63.424 959.157 62.64 960.389 62.64C961.733 62.64 962.357 63.296 962.357 64.768V70H963.685V64.864C963.685 62.432 962.469 61.488 960.741 61.488C959.365 61.488 958.437 62.176 958.053 62.96V57.632H956.725V70Z" fill="white"/>
</svg>
