<svg width="1027" height="1030" viewBox="0 0 1027 1030" fill="none" xmlns="http://www.w3.org/2000/svg">
<mask id="mask0" style="mask-type:alpha" maskUnits="userSpaceOnUse" x="132" y="137" width="1303" height="844">
<path d="M1341.51 604.663C1351.64 592.047 1361.03 579.595 1369.61 567.366C1416.74 500.216 1438.52 442.103 1434.33 394.641C1430.05 346.082 1398.36 309.895 1340.16 287.083C1163.43 217.827 1043.54 187.809 964.212 167.945C928.505 159.005 900.302 151.943 879.731 144.393L879.522 145.283L879.731 144.393C845.51 131.833 782.271 137.306 714.696 158.679C641.975 181.679 580.183 217.707 545.163 257.525C496.86 312.445 425.069 358.416 373.349 387.311C313.103 420.969 244.221 451.275 189.089 468.38C153.499 479.423 133.905 502.673 132.428 535.62C129.872 592.669 181.831 671.335 268.031 740.919C308.888 773.902 351.136 808.006 393.482 838.965C440.298 873.192 482.203 899.758 521.592 920.182C568.625 944.572 613.396 961.085 658.463 970.667C708.783 981.367 758.366 983.261 810.044 976.458C898.308 964.838 1057.26 872.632 1196.58 752.228C1253.57 702.976 1302.95 652.644 1341.51 604.663ZM148.92 496.317C158.295 484.651 172.159 475.844 190.227 470.238C245.47 453.098 314.477 422.739 374.82 389.027C426.645 360.074 498.59 314 547.029 258.924C581.874 219.308 643.404 183.445 715.844 160.534C782.969 139.304 845.607 133.801 879.312 146.172C900.028 153.776 928.297 160.853 964.087 169.815C1043.35 189.661 1163.13 219.652 1339.68 288.839C1396.82 311.233 1427.92 346.729 1432.12 394.341C1436.28 441.434 1414.59 499.218 1367.65 566.087C1326.5 624.728 1266.74 688.564 1194.85 750.691C1055.75 870.906 897.178 962.951 809.238 974.527C757.83 981.295 708.521 979.413 658.491 968.775C613.681 959.248 569.153 942.821 522.359 918.557C434.573 873.036 350.558 805.215 269.309 739.628C183.715 670.532 132.114 592.561 134.642 536.14C135.34 520.564 140.177 507.196 148.92 496.317Z" fill="url(#paint0_linear)"/>
</mask>
<g mask="url(#mask0)">
<path d="M1343.7 602.032C1354.08 589.429 1363.7 576.992 1372.5 564.781C1420.86 497.728 1443.59 439.787 1440.06 392.567C1436.45 344.255 1405.11 308.382 1346.9 285.945C1170.2 217.825 1050.08 188.498 970.594 169.092C934.818 160.358 906.56 153.459 885.985 146.039L885.761 146.925L885.985 146.039C851.754 133.694 788.088 139.432 719.833 161.016C646.38 184.242 583.73 220.386 547.945 260.178C498.588 315.063 425.741 361.15 373.321 390.147C312.259 423.924 242.561 454.405 186.88 471.683C150.934 482.838 130.898 506.069 128.941 538.869C125.552 595.663 176.669 673.722 262.346 742.584C302.955 775.224 344.947 808.975 387.082 839.594C433.666 873.446 475.421 899.696 514.734 919.843C561.677 943.902 606.458 960.133 651.636 969.463C702.081 979.881 751.91 981.539 803.971 974.53C892.889 962.558 1054.04 870.054 1195.86 749.573C1253.87 700.289 1304.25 649.966 1343.7 602.032ZM146.088 499.674C155.681 488.019 169.748 479.19 187.997 473.527C243.791 456.214 313.615 425.679 374.775 391.848C427.302 362.792 500.305 316.603 549.802 261.563C585.407 221.971 647.792 185.994 720.961 162.857C788.761 141.418 851.824 135.652 885.538 147.811C906.259 155.284 934.582 162.198 970.441 170.954C1049.86 190.342 1169.87 219.642 1346.4 287.695C1403.53 309.721 1434.3 344.908 1437.84 392.278C1441.34 439.132 1418.7 496.745 1370.55 563.517C1328.32 622.072 1267.32 685.884 1194.14 748.051C1052.55 868.343 891.78 960.685 803.189 972.612C751.4 979.584 701.845 977.938 651.691 967.58C606.771 958.303 562.232 942.158 515.529 918.222C427.911 873.318 344.405 806.2 263.65 741.293C178.575 672.913 127.807 595.544 131.159 539.376C132.085 523.869 137.141 510.543 146.088 499.674Z" fill="url(#paint1_linear)"/>
</g>
<mask id="mask1" style="mask-type:alpha" maskUnits="userSpaceOnUse" x="184" y="160" width="1205" height="778">
<path d="M1304.87 590.77C1312.88 580.794 1320.37 570.935 1327.31 561.226C1371.03 499.993 1391.45 447.006 1388 403.736C1384.5 359.99 1356.38 327.308 1304.41 306.598C1147.71 243.107 1034.45 212.515 959.509 192.273C924.326 182.77 896.537 175.264 875.771 167.542C842.204 155.076 782.231 159.197 719.253 178.296C651.82 198.747 593.795 231.883 560.055 269.209C515.155 319.619 449.502 362.282 402.332 389.196C346.92 420.814 286.006 448.588 235.21 465.396C203.161 476.009 185.665 497.695 184.613 528.111C182.787 580.91 230.613 653.266 309.426 716.942L309.425 716.941C383.733 777.07 460.572 839.247 542.846 881.808C586.182 904.226 627.46 919.44 669.039 928.32C715.422 938.227 761.119 940.087 808.74 934.009C890.598 923.824 1037.95 839.882 1167.06 729.877C1221.54 683.462 1268.57 635.937 1304.87 590.77ZM200.017 490.693C208.367 480.302 220.541 472.352 236.311 467.13C287.206 450.289 348.226 422.468 403.727 390.8C450.99 363.833 516.78 321.076 561.799 270.531C595.367 233.397 653.144 200.414 720.311 180.044C782.866 161.072 842.279 156.92 875.366 169.207C896.25 176.973 924.093 184.494 959.342 194.015C1034.23 214.241 1147.39 244.806 1303.94 308.237C1354.92 328.552 1382.5 360.582 1385.92 403.44C1389.35 446.364 1369.01 499.044 1325.47 560.016C1287.21 613.596 1231.87 671.831 1165.45 728.427C1036.54 838.255 889.551 922.047 807.996 932.194C760.623 938.241 715.18 936.392 669.068 926.544C627.729 917.715 586.677 902.583 543.567 880.28C461.551 837.853 384.828 775.77 310.63 715.731L310.629 715.73C232.378 652.508 184.888 580.797 186.695 528.583C187.209 513.738 191.726 501.011 200.017 490.693Z" fill="url(#paint2_linear)"/>
</mask>
<g mask="url(#mask1)">
<path d="M1306.92 588.32C1315.13 578.354 1322.8 568.506 1329.91 558.811C1374.76 497.663 1396.05 444.83 1393.2 401.778C1390.31 358.253 1362.5 325.853 1310.55 305.478C1153.89 243.004 1040.45 213.076 965.376 193.273C930.135 183.976 902.301 176.633 881.531 169.043C847.957 156.789 787.594 161.167 723.994 180.466C655.895 201.131 597.073 234.379 562.611 271.685C516.739 322.066 450.111 364.831 402.294 391.836C346.121 423.561 284.472 451.485 233.155 468.448C200.776 479.158 182.873 500.823 181.377 531.101C178.783 583.663 225.835 655.461 304.17 718.476L304.169 718.476C378.024 777.981 454.396 839.515 536.514 881.499C579.768 903.612 621.055 918.566 662.736 927.214C709.233 936.861 755.156 938.502 803.127 932.233C885.585 921.72 1034.95 837.493 1166.36 727.41C1221.8 680.961 1269.78 633.442 1306.92 588.32ZM197.404 493.788C205.949 483.407 218.305 475.439 234.236 470.168C285.655 453.172 347.412 425.201 403.674 393.426C451.585 366.368 518.352 323.509 564.346 272.993C598.632 235.878 657.202 202.784 725.032 182.2C788.205 163.03 848.007 158.624 881.099 170.702C901.987 178.336 929.876 185.693 965.184 195.007C1040.19 214.795 1153.54 244.697 1310.05 307.112C1361.01 327.098 1388.29 358.851 1391.11 401.493C1393.94 444.201 1372.74 496.728 1328.08 557.615C1288.84 611.121 1232.36 669.337 1164.76 725.974C1033.56 835.88 884.557 919.956 802.406 930.431C754.684 936.667 709.017 935.036 662.791 925.445C621.35 916.848 580.288 901.975 537.26 879.975C455.401 838.123 379.144 776.683 305.398 717.265L305.397 717.264C227.621 654.698 180.898 583.54 183.464 531.562C184.194 516.784 188.919 504.096 197.404 493.788Z" fill="url(#paint3_linear)"/>
</g>
<mask id="mask2" style="mask-type:alpha" maskUnits="userSpaceOnUse" x="236" y="182" width="1106" height="713">
<path d="M1268.23 577.015C1274.17 569.627 1279.77 562.32 1285.04 555.095C1325.36 499.779 1344.43 451.918 1341.7 412.842C1338.98 373.909 1314.41 344.734 1268.68 326.128C1130.99 267.999 1028.34 238.085 953.387 216.243C919.372 206.33 892.506 198.501 871.821 190.709C838.4 178.148 783.076 180.849 723.828 197.932C661.678 215.853 607.422 246.097 574.97 280.909C499.761 364.1 358.179 435.038 281.362 462.423C252.848 472.606 237.448 492.732 236.827 520.628C235.747 569.176 279.44 635.214 350.854 692.972C414.981 745.009 487.668 803.992 564.13 843.435C603.766 863.88 641.549 877.796 679.64 885.974C722.084 895.087 763.894 896.915 807.459 891.56C845.319 887.166 897.608 866.693 958.668 832.355C1017.32 799.368 1080.86 755.038 1137.58 707.531C1189.55 664.002 1234.23 619.319 1268.23 577.015ZM251.137 485.033C258.454 475.926 268.943 468.847 282.426 464.034C359.38 436.598 501.226 365.523 576.593 282.158C608.877 247.526 662.898 217.423 724.797 199.575C783.645 182.606 838.463 179.873 871.435 192.264C892.21 200.09 919.119 207.933 953.185 217.86C1028.08 239.685 1130.65 269.575 1268.21 327.65C1313.03 345.884 1337.1 374.447 1339.76 412.55C1342.46 451.305 1323.47 498.879 1283.33 553.952C1247.96 602.463 1197.04 655.101 1136.08 706.166C1079.42 753.623 1015.95 797.901 957.371 830.848C896.49 865.085 844.415 885.491 806.774 889.86C763.437 895.185 721.863 893.37 679.669 884.311C641.801 876.181 604.228 862.342 564.801 842.004C488.583 802.687 416.011 743.796 351.982 691.839L351.981 691.838C281.085 634.5 237.707 569.058 238.775 521.052C239.089 506.91 243.286 494.803 251.137 485.033Z" fill="url(#paint4_linear)"/>
</mask>
<g mask="url(#mask2)">
<path d="M1270.14 574.744C1276.22 567.363 1281.96 560.064 1287.36 552.849C1328.7 497.606 1348.56 449.881 1346.37 411C1344.2 372.261 1319.92 343.335 1274.19 325.026C1136.58 267.801 1033.79 238.499 958.737 217.103C924.676 207.393 897.775 199.724 877.087 192.063C843.661 179.715 787.992 182.657 728.171 199.933C665.42 218.055 610.429 248.407 577.298 283.206C500.478 366.355 357.094 437.612 279.458 465.222C250.641 475.489 234.866 495.592 233.841 523.36C232.058 571.686 275.045 637.215 346.025 694.375C409.76 745.875 482.002 804.248 558.321 843.156C597.882 863.323 635.676 877 673.859 884.965C716.408 893.841 758.423 895.467 802.305 889.938C840.438 885.39 893.31 864.772 955.201 830.314C1014.65 797.211 1079.18 752.797 1136.89 705.25C1189.77 661.686 1235.35 617.006 1270.14 574.744ZM248.741 487.865C256.23 478.767 266.878 471.674 280.506 466.82C358.279 439.16 501.931 367.764 578.911 284.442C611.871 249.824 666.624 219.613 729.122 201.563C788.539 184.403 843.699 181.432 876.676 193.613C897.454 201.307 924.399 208.989 958.511 218.713C1033.51 240.092 1136.21 269.372 1273.7 326.543C1318.51 344.486 1342.3 372.805 1344.43 410.718C1346.59 449.279 1326.82 496.719 1285.66 551.719C1249.4 600.166 1197.44 652.792 1135.4 703.899C1077.75 751.394 1013.3 795.758 953.919 828.82C892.21 863.177 839.553 883.727 801.642 888.248C757.988 893.748 716.21 892.132 673.912 883.309C635.952 875.392 598.369 861.79 559.016 841.728C482.941 802.945 410.813 744.663 347.176 693.242L347.174 693.242C276.709 636.497 234.031 571.56 235.794 523.773C236.313 509.696 240.707 497.626 248.741 487.865Z" fill="url(#paint5_linear)"/>
</g>
<mask id="mask3" style="mask-type:alpha" maskUnits="userSpaceOnUse" x="289" y="205" width="1007" height="647">
<path d="M1231.6 563.42C1235.5 558.559 1239.24 553.74 1242.82 548.957C1279.74 499.558 1297.45 456.824 1295.45 421.942C1293.49 387.82 1272.46 362.152 1232.94 345.652C1113.01 292.313 1015.86 261.761 944.928 239.454C914.362 229.841 887.965 221.539 867.873 213.872C835.086 201.402 782.949 202.783 728.405 217.566C671.528 232.981 621.04 260.333 589.887 292.607C559.761 325.344 514.973 360.053 460.355 392.993C416.514 419.432 368.096 443.655 327.513 459.449C302.519 469.199 289.212 487.774 289.034 513.165C288.72 557.46 328.282 617.172 392.28 668.997C459.306 723.575 520.105 771.486 585.412 805.059C621.347 823.534 655.636 836.148 690.238 843.624C728.743 851.943 766.668 853.738 806.175 849.109C841.037 845.405 888.987 827.257 944.831 796.627C998.255 767.323 1056.25 727.744 1108.13 685.181C1157.61 644.594 1199.95 602.807 1231.6 563.42ZM302.242 479.305C308.518 471.494 317.329 465.309 328.544 460.933C369.198 445.112 417.693 420.851 461.597 394.374C516.314 361.374 561.195 326.59 591.388 293.781C622.378 261.676 672.642 234.452 729.283 219.102C783.458 204.418 835.13 203.003 867.504 215.317C887.663 223.009 914.092 231.321 944.693 240.944C1015.57 263.235 1112.64 293.764 1232.47 347.057C1271.16 363.207 1291.73 388.301 1293.64 421.653C1295.62 456.238 1277.99 498.707 1241.23 547.882C1208.75 591.328 1162.25 638.365 1106.75 683.903C1054.92 726.419 996.994 765.952 943.637 795.218C887.964 825.755 840.214 843.843 805.553 847.525C766.251 852.13 728.545 850.348 690.27 842.078C655.872 834.646 621.776 822.101 586.033 803.726C520.941 770.263 460.252 722.436 393.332 667.946L393.329 667.944C329.806 616.502 290.537 557.339 290.847 513.541C290.942 500.066 294.815 488.548 302.242 479.305Z" fill="url(#paint6_linear)"/>
</mask>
<g mask="url(#mask3)">
<path d="M1233.36 561.327C1237.36 556.471 1241.19 551.657 1244.85 546.88C1282.69 497.542 1301.11 454.926 1299.6 420.216C1298.12 386.261 1277.35 360.81 1237.84 344.569C1118.01 292.03 1020.77 262.066 949.759 240.189C919.163 230.762 892.739 222.62 872.644 215.081C839.855 202.819 787.409 204.433 732.351 219.398C674.937 235.003 623.776 262.459 591.987 294.726C561.224 327.448 515.689 362.202 460.295 395.239C415.832 421.757 366.797 446.089 325.762 461.996C300.49 471.815 286.842 490.365 286.298 515.639C285.347 559.728 324.27 618.98 387.879 670.27C454.493 724.284 514.94 771.693 580.127 804.81C615.996 823.033 650.294 835.43 684.981 842.713C723.579 850.816 761.688 852.428 801.482 847.639C836.59 843.792 885.067 825.509 941.66 794.764C995.8 765.352 1054.69 725.691 1107.47 683.088C1157.8 642.462 1200.98 600.676 1233.36 561.327ZM300.066 481.876C306.489 474.072 315.438 467.876 326.778 463.469C367.884 447.534 416.997 423.164 461.524 396.609C517.019 363.511 562.648 328.683 593.479 295.887C625.103 263.79 676.036 236.462 733.211 220.923C787.898 206.058 839.876 204.413 872.253 216.52C892.413 224.084 918.869 232.236 949.502 241.674C1020.45 263.535 1117.62 293.475 1237.35 345.969C1276.02 361.866 1296.34 386.748 1297.79 419.936C1299.28 454.35 1280.94 496.702 1243.28 545.817C1209.99 589.21 1162.56 636.242 1106.09 681.822C1053.37 724.379 994.553 763.993 940.48 793.367C884.059 824.019 835.785 842.241 800.878 846.065C761.292 850.829 723.404 849.229 685.034 841.174C650.552 833.934 616.448 821.605 580.771 803.48C515.799 770.472 455.459 723.147 388.951 669.218L388.949 669.216C325.812 618.306 287.175 559.599 288.116 516.004C288.405 502.591 292.465 491.11 300.066 481.876Z" fill="url(#paint7_linear)"/>
</g>
<mask id="mask4" style="mask-type:alpha" maskUnits="userSpaceOnUse" x="341" y="227" width="909" height="582">
<path d="M1194.98 550.052C1196.93 547.634 1198.82 545.227 1200.67 542.831C1234.19 499.35 1250.54 461.745 1249.27 431.058C1248.06 401.741 1230.54 379.579 1197.21 365.191C1093.51 315.817 1000.55 284.278 932.674 261.249C905.758 252.117 882.514 244.231 863.941 237.053C831.289 224.483 783.564 224.543 733.004 237.218C681.384 250.159 634.666 274.618 604.83 304.323C547.962 364.804 445.154 425.595 373.695 456.487C352.204 465.809 340.991 482.844 341.267 505.751C341.747 545.787 377.18 599.157 433.737 645.031L433.734 645.028C490.779 691.675 546.936 736.082 606.721 766.687C638.954 783.188 669.748 794.502 700.863 801.277C735.427 808.802 769.463 810.563 804.914 806.659C836.788 803.646 880.405 787.824 931.038 760.906C979.238 735.281 1031.7 700.453 1078.75 662.841C1125.74 625.274 1165.74 586.443 1194.98 550.052ZM353.361 473.497C358.582 466.999 365.723 461.735 374.695 457.843C446.265 426.903 549.242 366.008 606.207 305.42C635.886 275.875 682.392 251.532 733.789 238.647C784.005 226.058 831.316 225.964 863.589 238.388C882.204 245.58 905.468 253.474 932.408 262.614C1000.23 285.625 1093.12 317.14 1196.74 366.473C1229.31 380.537 1246.41 402.163 1247.6 430.771C1248.86 461.184 1232.58 498.547 1199.21 541.824C1169.61 580.194 1127.53 621.64 1077.47 661.649C1030.48 699.219 978.083 734.002 929.947 759.594C879.472 786.428 836.042 802.196 804.353 805.192C769.087 809.075 735.249 807.327 700.895 799.847C669.968 793.114 639.35 781.863 607.294 765.452C547.71 734.95 491.661 690.626 434.715 644.06L434.712 644.057C378.584 598.531 343.422 545.66 342.947 506.076C342.791 493.212 346.337 482.238 353.361 473.497Z" fill="url(#paint8_linear)"/>
</mask>
<g mask="url(#mask4)">
<path d="M1196.6 548.136C1198.59 545.72 1200.53 543.316 1202.42 540.922C1236.76 497.49 1253.74 459.984 1252.9 429.446C1252.1 400.271 1234.81 378.293 1201.5 364.125C1097.93 315.457 1004.91 284.492 936.984 261.882C910.05 252.916 886.79 245.174 868.217 238.114C835.563 225.753 787.573 226.033 736.55 238.881C684.457 251.999 637.128 276.558 606.699 306.262C548.646 366.724 444.393 427.704 372.093 458.781C350.349 468.158 338.829 485.166 338.776 507.965C338.684 547.812 373.547 600.771 429.759 646.172L429.756 646.168C486.449 692.337 542.279 736.279 601.957 766.467C634.132 782.743 664.934 793.863 696.125 800.463C730.773 807.794 764.973 809.391 800.678 805.342C832.772 802.196 876.859 786.248 928.16 759.222C976.996 733.495 1030.25 698.588 1078.1 660.934C1125.9 623.326 1166.67 584.493 1196.6 548.136ZM351.401 475.805C356.745 469.314 364.001 464.041 373.079 460.126C445.491 429.001 549.916 367.916 608.068 307.348C638.337 277.804 685.45 253.36 737.318 240.299C787.995 227.538 835.57 227.227 867.844 239.444C886.459 246.518 909.739 254.268 936.697 263.242C1004.57 285.835 1097.51 316.775 1201.01 365.403C1233.56 379.251 1250.44 400.699 1251.22 429.168C1252.05 459.434 1235.14 496.698 1200.97 539.927C1170.65 578.254 1127.74 619.701 1076.84 659.754C1029.04 697.365 975.853 732.228 927.081 757.921C875.94 784.862 832.042 800.756 800.134 803.885C764.616 807.912 730.615 806.327 696.178 799.04C665.176 792.48 634.55 781.422 602.55 765.235C543.074 735.149 487.351 691.288 430.757 645.2L430.754 645.197C374.968 600.141 340.37 547.678 340.462 508.28C340.489 495.477 344.213 484.538 351.401 475.805Z" fill="url(#paint9_linear)"/>
</g>
<mask id="mask5" style="mask-type:alpha" maskUnits="userSpaceOnUse" x="393" y="249" width="811" height="517">
<path d="M1158.4 536.98C1158.47 536.89 1158.54 536.802 1158.61 536.712C1188.74 499.151 1203.74 466.674 1203.2 440.184C1202.7 415.66 1188.66 397.002 1161.49 384.727C1072.36 338.143 981.015 304.804 914.32 280.462C893.436 272.84 875.398 266.256 860.016 260.238C827.957 247.744 783.344 246.519 737.616 256.876C691.23 267.381 648.284 288.946 619.788 316.042C594.824 341.894 560.734 369.066 518.45 396.82C486.642 417.698 450.719 438.367 419.89 453.53C401.882 462.427 392.76 477.94 393.51 498.394C394.82 534.162 426.126 581.167 475.209 621.062C522.789 660.179 573.787 700.685 628.044 728.313C656.574 742.84 683.872 752.854 711.499 758.927C742.122 765.659 772.269 767.385 803.665 764.206C860.93 759.602 959.704 709.889 1049.44 640.506C1093.97 606.067 1131.65 570.275 1158.4 536.98ZM404.463 467.555C408.611 462.393 414.095 458.095 420.862 454.751C451.73 439.57 487.697 418.875 519.542 397.973C561.891 370.177 596.04 342.955 621.042 317.065C649.383 290.116 692.13 268.654 738.306 258.196C783.724 247.91 827.965 249.1 859.685 261.461C875.088 267.488 893.136 274.075 914.033 281.702C980.673 306.025 1071.94 339.336 1161.01 385.883C1187.51 397.856 1201.17 416.019 1201.65 439.895C1202.19 466.136 1187.26 498.393 1157.28 535.771C1157.21 535.858 1157.14 535.95 1157.07 536.038C1130.37 569.275 1092.76 605.006 1048.28 639.399C958.711 708.654 860.207 758.268 803.165 762.854C771.933 766.016 741.965 764.3 711.531 757.611C684.074 751.576 656.935 741.619 628.565 727.172C574.498 699.642 523.604 659.216 476.11 620.17L476.106 620.166C427.407 580.582 396.348 534.024 395.053 498.663C394.599 486.331 397.813 475.832 404.463 467.555Z" fill="url(#paint10_linear)"/>
</mask>
<g mask="url(#mask5)">
<path d="M1159.86 535.239C1159.94 535.15 1160.01 535.062 1160.08 534.972C1190.92 497.447 1206.47 465.051 1206.3 438.686C1206.15 414.279 1192.31 395.771 1165.16 383.679C1076.2 337.72 984.829 304.956 918.112 281.033C897.22 273.542 879.176 267.072 863.795 261.152C831.737 248.864 786.893 247.85 740.761 258.368C693.966 269.038 650.469 290.7 621.425 317.802C595.95 343.648 561.279 370.851 518.361 398.671C486.075 419.598 449.655 440.337 418.436 455.57C400.199 464.509 390.803 479.992 391.263 500.348C392.066 535.944 422.871 582.587 471.654 622.072C518.937 660.788 569.637 700.872 623.799 728.123C652.279 742.452 679.586 752.294 707.28 758.211C737.977 764.771 768.267 766.351 799.883 763.043C857.534 758.196 957.574 708.26 1048.81 638.786C1094.09 604.302 1132.48 568.503 1159.86 535.239ZM402.721 469.602C406.966 464.444 412.543 460.142 419.395 456.782C450.654 441.529 487.119 420.765 519.443 399.814C562.427 371.951 597.158 344.699 622.671 318.814C651.558 291.86 694.852 270.3 741.436 259.679C787.255 249.232 831.725 250.213 863.445 262.372C878.847 268.3 896.901 274.773 917.804 282.269C984.467 306.172 1075.76 338.909 1164.66 384.831C1191.14 396.627 1204.61 414.643 1204.76 438.406C1204.92 464.523 1189.44 496.699 1158.76 534.041C1158.69 534.129 1158.61 534.22 1158.54 534.308C1131.21 567.513 1092.88 603.252 1047.65 637.689C956.593 707.035 856.827 756.871 799.4 761.698C767.949 764.99 737.838 763.419 707.331 756.901C679.807 751.02 652.66 741.234 624.34 726.985C570.368 699.83 519.77 659.826 472.573 621.179L472.569 621.176C424.168 581.999 393.605 535.799 392.811 500.608C392.532 488.336 395.915 477.871 402.721 469.602Z" fill="url(#paint11_linear)"/>
</g>
<mask id="mask6" style="mask-type:alpha" maskUnits="userSpaceOnUse" x="445" y="271" width="713" height="452">
<path d="M1121.99 524.199C1145.23 495.272 1157.1 470.119 1157.28 449.349C1157.46 429.605 1146.88 414.447 1125.82 404.291C1049.86 358.811 955.345 322.075 886.329 295.251C875.5 291.043 865.269 287.066 856.106 283.437C824.134 270.823 783.699 268.378 742.25 276.55C700.457 284.79 662.287 302.983 634.774 327.776C616.865 345.703 564.617 393.521 466.116 450.583C451.56 459.067 444.529 473.089 445.786 491.138C447.976 522.616 475.153 563.216 516.708 597.092C555.366 629.098 600.689 665.309 649.395 689.939C700.868 715.968 750.928 726.374 802.437 721.754C828.37 720.12 863.359 708.96 903.604 689.481C941.937 670.927 982.265 646.278 1020.23 618.196C1059.43 589.197 1092.79 558.918 1116.69 530.629C1118.52 528.466 1120.29 526.322 1121.99 524.199ZM455.553 461.416C458.597 457.627 462.445 454.36 467.068 451.665C482.826 442.537 514.368 423.657 548.558 399.784C584.449 374.725 613.837 350.817 635.906 328.723C663.268 304.067 701.253 285.963 742.847 277.762C784.015 269.645 824.128 272.056 855.797 284.55C864.964 288.181 875.197 292.158 886.03 296.369C954.994 323.171 1049.44 359.88 1125.27 405.288L1125.34 405.33C1145.77 415.172 1156.05 429.884 1155.87 449.056C1155.68 470.814 1141.72 498.717 1115.49 529.753C1091.63 557.988 1058.33 588.218 1019.18 617.173C981.27 645.219 940.998 669.834 902.723 688.361C862.615 707.774 827.785 718.894 802 720.517C750.785 725.112 701.028 714.768 649.866 688.896C601.339 664.357 556.116 628.226 517.538 596.285L517.532 596.28C476.31 562.677 449.357 522.47 447.192 491.348C446.363 479.421 449.225 469.291 455.553 461.416Z" fill="url(#paint12_linear)"/>
</mask>
<g mask="url(#mask6)">
<path d="M1123.3 522.631C1147.09 493.731 1159.38 468.64 1159.87 447.965C1160.33 428.312 1149.9 413.272 1128.87 403.26C1053.15 358.338 958.627 322.206 889.61 295.824C878.781 291.685 868.55 287.773 859.388 284.203C827.418 271.795 786.792 269.546 744.993 277.871C702.846 286.266 664.201 304.55 636.177 329.355C617.91 347.281 564.681 395.119 464.807 452.37C450.047 460.881 442.775 474.871 443.779 492.831C445.528 524.154 472.273 564.442 513.574 597.97C551.988 629.651 597.044 665.486 645.669 689.778C697.055 715.451 747.246 725.579 799.11 720.743C825.212 718.998 860.558 707.729 901.309 688.154C940.123 669.51 981.032 644.789 1019.61 616.662C1059.45 587.617 1093.43 557.324 1117.88 529.056C1119.74 526.895 1121.55 524.752 1123.3 522.631ZM454.028 463.202C457.145 459.416 461.06 456.146 465.749 453.442C481.726 444.285 513.717 425.347 548.442 401.427C584.895 376.318 614.792 352.385 637.302 330.293C665.172 305.624 703.63 287.43 745.575 279.075C787.091 270.807 827.394 273.022 859.061 285.312C868.227 288.885 878.46 292.796 889.293 296.938C958.258 323.299 1052.71 359.405 1128.3 404.254L1128.38 404.296C1148.78 413.999 1158.9 428.596 1158.45 447.679C1157.94 469.338 1143.5 497.177 1116.68 528.189C1092.28 556.404 1058.36 586.647 1018.58 615.649C980.047 643.739 939.195 668.426 900.439 687.044C859.827 706.551 824.642 717.78 798.689 719.514C747.12 724.323 697.233 714.256 646.157 688.739C597.711 664.536 552.755 628.779 514.42 597.163L514.414 597.158C473.444 563.9 446.919 524.002 445.189 493.034C444.528 481.166 447.552 471.07 454.028 463.202Z" fill="url(#paint13_linear)"/>
</g>
<mask id="mask7" style="mask-type:alpha" maskUnits="userSpaceOnUse" x="497" y="293" width="615" height="387">
<path d="M1085.29 512.574C1101.78 492.045 1110.83 473.572 1111.64 458.603C1112.45 443.576 1105.22 431.884 1090.15 423.848C1027.03 376.735 904.537 327.621 852.223 306.646C786.828 280.524 703.591 294.045 649.806 339.525C609.918 377.713 554.979 417.101 522.155 440.634C518.67 443.133 515.4 445.477 512.386 447.649C501.236 455.74 496.306 468.33 498.122 484.055C501.258 511.201 524.301 545.333 558.254 573.128C592.462 601.722 629.773 631.017 670.784 651.562C714.551 673.487 757.224 682.559 801.24 679.295C846.418 677.447 920.973 644.728 991.157 595.941C1024.9 572.482 1053.88 547.822 1074.96 524.625C1078.68 520.54 1082.12 516.516 1085.29 512.574ZM506.593 454.943C508.488 452.585 510.732 450.457 513.32 448.579C516.333 446.408 519.602 444.065 523.087 441.566C555.93 418.019 610.899 378.608 650.812 340.396C704.283 295.183 786.996 281.71 851.936 307.65C904.201 328.605 1026.6 377.681 1089.52 424.669L1089.58 424.709L1089.63 424.741C1104.17 432.475 1111.15 443.764 1110.37 458.295C1109.42 475.945 1096.81 498.602 1073.9 523.81C1052.86 546.96 1023.93 571.579 990.235 595.001C920.196 643.687 845.867 676.335 800.87 678.176C703.117 685.422 627.789 629.896 559.008 572.401L559.001 572.395C525.332 544.834 502.489 511.039 499.389 484.2C498.034 472.462 500.512 462.513 506.593 454.943Z" fill="url(#paint14_linear)"/>
</mask>
<g mask="url(#mask7)">
<path d="M1086.42 511.176C1103.3 490.665 1112.67 472.235 1113.69 457.331C1114.72 442.37 1107.62 430.764 1092.59 422.834C1029.79 376.228 907.311 327.902 855.005 307.263C789.617 281.562 705.716 295.403 650.971 340.922C610.308 379.118 554.492 418.578 521.143 442.154C517.602 444.658 514.28 447.006 511.217 449.182C499.888 457.287 494.749 469.842 496.349 485.487C499.111 512.494 521.792 546.363 555.537 573.874C589.525 602.181 626.625 631.169 667.572 651.431C711.27 673.055 754.053 681.889 798.365 678.438C843.824 676.391 919.272 643.479 990.555 594.593C1024.83 571.087 1054.33 546.406 1075.86 523.219C1079.65 519.135 1083.18 515.115 1086.42 511.176ZM505.286 456.469C507.226 454.113 509.514 451.985 512.144 450.103C515.205 447.928 518.526 445.581 522.067 443.077C555.434 419.487 611.282 380.005 651.97 341.784C706.394 296.533 789.769 282.742 854.702 308.264C906.959 328.883 1029.34 377.171 1091.94 423.654L1092 423.694L1092.05 423.725C1106.56 431.358 1113.41 442.563 1112.42 457.03C1111.21 474.604 1098.2 497.215 1074.8 522.412C1053.31 545.554 1023.86 570.192 989.641 593.661C918.506 642.446 843.286 675.286 798.009 677.326C699.6 684.988 624.646 630.062 556.306 573.147L556.299 573.141C522.836 545.861 500.352 512.327 497.62 485.625C496.427 473.947 499.062 464.032 505.286 456.469Z" fill="url(#paint15_linear)"/>
</g>
<mask id="mask8" style="mask-type:alpha" maskUnits="userSpaceOnUse" x="549" y="314" width="518" height="324">
<path d="M1049.04 501.82C1059.12 489.28 1065.17 477.787 1066.46 468.087C1067.85 457.64 1063.84 449.335 1054.53 443.401C1040.27 426.964 1009.83 406.564 964.039 382.764C930.683 365.427 888.519 346.137 848.361 329.843C783.899 303.77 715.306 311.779 664.876 351.267C648.488 366.022 630.97 381.053 614.028 395.589C592.118 414.388 571.424 432.145 558.682 444.715C548.013 455.336 546.788 472.336 555.219 492.572C563.21 511.752 579.466 532.373 599.825 549.148C645.896 588.199 673.393 603.878 692.201 613.174C728.242 630.986 763.525 638.723 800.069 636.825C839.419 636.347 901.565 612.209 962.229 573.831C1000.98 549.316 1031.27 523.94 1049.04 501.82ZM557.465 447.854C558.13 447.026 558.844 446.233 559.607 445.471C572.329 432.92 593.014 415.172 614.914 396.382C631.859 381.843 649.38 366.809 665.755 352.064C715.884 312.814 784.056 304.836 848.098 330.739C888.212 347.016 930.326 366.282 963.642 383.599C1009.33 407.347 1039.65 427.656 1053.75 443.964L1053.82 444.047L1053.92 444.108C1062.83 449.748 1066.66 457.703 1065.33 467.75C1061.79 494.352 1021.98 534.671 961.434 572.973C900.905 611.265 838.959 635.349 799.769 635.825C763.436 637.712 728.378 630.025 692.569 612.326C656.916 594.705 624.642 568.964 600.507 548.507L600.499 548.5C580.311 531.866 564.194 511.431 556.279 492.433C548.601 474.001 549.054 458.324 557.465 447.854Z" fill="url(#paint16_linear)"/>
</mask>
<g mask="url(#mask8)">
<path d="M1049.98 500.586C1060.3 488.056 1066.55 476.588 1067.99 466.926C1069.54 456.52 1065.62 448.271 1056.35 442.407C1042.25 426.11 1011.92 405.943 966.215 382.462C932.918 365.357 890.793 346.348 850.641 330.312C786.187 304.654 717.088 312.942 665.799 352.483C649.105 367.246 631.271 382.289 614.022 396.837C591.716 415.651 570.647 433.422 557.651 445.994C546.768 456.617 545.291 473.544 553.478 493.65C561.237 512.706 577.289 533.158 597.522 549.764C643.292 588.426 670.72 603.907 689.501 613.074C725.49 630.64 760.863 638.179 797.642 636.122C837.224 635.466 900.073 611.152 961.636 572.669C1000.96 548.088 1031.79 522.687 1049.98 500.586ZM556.383 449.125C557.063 448.297 557.792 447.505 558.57 446.743C571.547 434.19 592.606 416.427 614.902 397.622C632.153 383.071 649.991 368.025 666.672 353.272C717.653 313.97 786.33 305.715 850.363 331.205C890.471 347.224 932.547 366.21 965.803 383.294C1011.41 406.724 1041.61 426.802 1055.56 442.971L1055.63 443.054L1055.72 443.114C1064.6 448.687 1068.34 456.588 1066.85 466.596C1062.91 493.094 1022.29 533.412 960.849 571.819C899.423 610.215 836.775 634.474 797.355 635.129C760.788 637.174 725.641 629.683 689.883 612.229C654.281 594.852 622.194 569.376 598.217 549.122L598.209 549.116C578.146 532.651 562.232 512.382 554.546 493.507C547.091 475.193 547.772 459.586 556.383 449.125Z" fill="url(#paint17_linear)"/>
</g>
<mask id="mask9" style="mask-type:alpha" maskUnits="userSpaceOnUse" x="601" y="335" width="423" height="260">
<path d="M1013.62 492.826C1017.78 487.645 1020.65 482.819 1022.06 478.492C1024.12 472.164 1023.09 466.951 1019.01 462.993C1016.72 446.654 982.894 423.651 954.862 407.202C923.255 388.656 882.017 368.4 844.551 353.016C812.297 339.805 783.465 334.106 756.408 335.595C728.777 337.116 703.793 346.081 680.029 363C646.644 390.473 617.219 421.392 605.052 441.785C599.185 451.755 600.066 466.132 607.533 482.269C614.518 497.364 626.884 512.994 641.463 525.15C679.366 557.991 731.521 595.532 798.962 594.336C832.228 595.235 882.357 579.521 933.033 552.303C970.064 532.412 999.369 510.56 1013.62 492.826ZM617.864 425.599C632.801 407.005 655.669 384.385 680.781 363.72C704.4 346.904 729.24 337.988 756.697 336.477C783.579 334.997 812.238 340.665 844.314 353.803C914.342 382.556 1014.54 435.462 1018.03 463.057L1018.05 463.229L1018.2 463.369C1022.1 467.048 1023.07 471.996 1021.09 478.078C1014.9 497.069 980.082 525.896 932.374 551.518C881.822 578.671 831.863 594.346 798.733 593.451C731.686 594.64 679.793 557.275 642.072 524.591L642.062 524.582C627.619 512.54 615.368 497.059 608.451 482.109C601.1 466.222 600.217 452.092 605.965 442.323C608.953 437.317 612.986 431.672 617.864 425.599Z" fill="url(#paint18_linear)"/>
</mask>
<g mask="url(#mask9)">
<path d="M1014.35 491.746C1018.61 486.57 1021.57 481.752 1023.05 477.438C1025.21 471.129 1024.25 465.943 1020.2 462.022C1018.14 445.767 984.447 423.021 956.491 406.775C924.969 388.458 883.785 368.481 846.324 353.339C814.074 340.335 785.158 334.794 757.923 336.401C730.11 338.042 704.851 347.081 680.706 364.034C646.73 391.538 616.686 422.454 604.154 442.811C598.109 452.764 598.787 467.072 606.064 483.102C612.87 498.098 625.083 513.601 639.57 525.636C677.217 558.156 729.131 595.289 796.98 593.788C830.425 594.53 881.073 578.657 932.436 551.328C969.969 531.355 999.76 509.467 1014.35 491.746ZM617.275 426.638C632.566 408.059 655.895 385.436 681.451 364.748C705.45 347.898 730.562 338.907 758.2 337.277C785.259 335.681 814.003 341.191 846.074 354.123C916.093 382.426 1016.1 434.635 1019.22 462.09L1019.23 462.261L1019.38 462.4C1023.25 466.044 1024.16 470.966 1022.08 477.03C1015.58 495.965 980.139 524.822 931.784 550.549C880.547 577.812 830.071 593.648 796.762 592.909C729.31 594.4 677.657 557.441 640.191 525.076L640.181 525.068C625.828 513.146 613.73 497.79 606.989 482.939C599.826 467.157 599.142 453.095 605.065 443.342C608.143 438.345 612.28 432.707 617.275 426.638Z" fill="url(#paint19_linear)"/>
</g>
<mask id="mask10" style="mask-type:alpha" maskUnits="userSpaceOnUse" x="651" y="354" width="337" height="199">
<path d="M981.123 488.348C982.919 486.114 983.932 484.096 984.064 482.361C987.794 479.149 988.744 474.917 986.893 469.786C981.479 454.774 953.604 435.217 931.174 421.455C904.484 405.079 870.867 387.956 841.249 375.651C807.736 361.746 783.162 355.286 761.568 354.708C738.531 354.091 717.517 360.29 695.434 374.22C671.645 391.142 654.424 416.372 651.543 438.511C649.055 458.42 665.702 485.872 683.233 500.915C718.717 532.925 757.404 550.021 798.216 551.725C814.391 553.074 833.926 551.165 856.255 546.053C875.588 541.626 896.458 534.872 916.61 526.521C948.157 513.445 972.88 498.609 981.123 488.348ZM983.209 481.907L983.203 482.029C983.114 483.71 982.139 485.675 980.389 487.854C962.248 510.442 860.705 556.181 798.076 550.962C757.504 549.267 719.056 532.271 683.778 500.444L683.767 500.434C666.425 485.556 649.952 458.42 652.409 438.765C655.271 416.775 672.402 391.693 696.055 374.868C718 361.026 738.877 354.861 761.742 355.473C783.203 356.048 807.658 362.481 841.039 376.331C870.602 388.614 904.158 405.705 930.797 422.05C953.076 435.719 980.749 455.109 986.067 469.855C987.833 474.748 986.901 478.779 983.3 481.83L983.209 481.907Z" fill="url(#paint20_linear)"/>
</mask>
<g mask="url(#mask10)">
<path d="M981.522 487.408C983.36 485.175 984.408 483.162 984.566 481.434C988.364 478.22 989.38 474.003 987.593 468.903C982.364 453.984 954.612 434.643 932.252 421.046C905.645 404.867 872.082 387.975 842.472 375.862C808.968 362.173 784.346 355.856 762.636 355.379C739.476 354.871 718.251 361.139 695.84 375.108C671.671 392.062 653.986 417.258 650.768 439.31C647.979 459.14 664.324 486.393 681.739 501.287C716.964 532.99 755.626 549.831 796.648 551.34C812.896 552.608 832.571 550.618 855.103 545.426C874.61 540.93 895.698 534.111 916.086 525.705C948.004 512.543 973.082 497.661 981.522 487.408ZM983.712 480.986L983.704 481.108C983.591 482.782 982.582 484.743 980.79 486.919C962.219 509.489 859.432 555.488 796.518 550.58C755.738 549.08 717.315 532.337 682.294 500.816L682.283 500.806C665.056 486.075 648.881 459.137 651.636 439.559C654.832 417.655 672.424 392.607 696.456 375.75C718.726 361.869 739.812 355.636 762.801 356.14C784.376 356.615 808.879 362.906 842.251 376.54C871.807 388.632 905.308 405.492 931.864 421.64C954.074 435.145 981.626 454.321 986.761 468.975C988.466 473.838 987.47 477.856 983.805 480.909L983.712 480.986Z" fill="url(#paint21_linear)"/>
</g>
<mask id="mask11" style="mask-type:alpha" maskUnits="userSpaceOnUse" x="693" y="372" width="271" height="141">
<path d="M961.224 494.116C963.018 491.881 963.722 489.242 963.323 486.208C962.32 478.6 953.713 464.601 918.398 441.119C894.726 425.378 864.48 409.209 837.491 397.866C805.595 384.462 784.894 376.129 766.401 373.445C747.27 370.669 731.108 374.026 710.615 385.031C699.319 391.095 693.475 400.292 693.24 412.361C692.737 438.459 718.419 469.711 724.803 476.049C736.729 487.887 753.252 496.986 773.915 503.094C791.701 508.351 812.596 511.421 836.02 512.219C878.361 513.662 921.766 507.3 948.268 500.865C954.506 499.351 958.833 497.092 961.224 494.116ZM700.247 394.339C702.98 390.935 706.599 388.019 711.096 385.605C731.457 374.672 747.494 371.334 766.45 374.084C784.834 376.752 805.483 385.065 837.309 398.441C886.516 419.122 959.445 462.249 962.591 486.133C963.484 492.913 958.552 497.659 947.927 500.239C921.47 506.662 878.141 513.013 835.877 511.573C812.526 510.778 791.706 507.72 773.994 502.484C753.492 496.424 737.11 487.409 725.303 475.688C718.966 469.399 693.477 438.388 693.976 412.521C694.113 405.438 696.214 399.358 700.247 394.339Z" fill="url(#paint22_linear)"/>
</mask>
<g mask="url(#mask11)">
<path d="M961.265 493.246C963.102 491.013 963.849 488.382 963.491 485.363C962.593 477.794 954.137 463.897 918.957 440.68C895.374 425.118 865.185 409.16 838.203 397.991C806.314 384.792 785.613 376.591 767.051 374.005C747.849 371.329 731.543 374.745 710.771 385.795C699.32 391.885 693.309 401.068 692.898 413.084C692.014 439.069 717.394 470.065 723.723 476.345C735.547 488.076 752.035 497.059 772.731 503.045C790.544 508.197 811.517 511.158 835.067 511.844C877.635 513.086 921.385 506.553 948.136 500.025C954.432 498.489 958.817 496.22 961.265 493.246ZM700.207 395.109C703.005 391.709 706.688 388.789 711.246 386.365C731.885 375.387 748.064 371.989 767.091 374.641C785.543 377.212 806.193 385.394 838.011 398.564C887.207 418.927 959.937 461.529 962.756 485.293C963.556 492.038 958.526 496.786 947.802 499.403C921.097 505.92 877.423 512.441 834.932 511.201C811.456 510.517 790.558 507.568 772.819 502.437C752.285 496.498 735.937 487.598 724.231 475.984C717.948 469.751 692.759 438.995 693.636 413.24C693.876 406.188 696.078 400.126 700.207 395.109Z" fill="url(#paint23_linear)"/>
</g>
<defs>
<linearGradient id="paint0_linear" x1="654.192" y1="158.349" x2="759.228" y2="982.935" gradientUnits="userSpaceOnUse">
<stop stop-color="white"/>
<stop offset="0.0436" stop-color="#B4B4B4"/>
<stop offset="0.1507"/>
<stop offset="0.1714" stop-color="#171717"/>
<stop offset="0.3859" stop-color="white"/>
<stop offset="0.6326" stop-color="#E6E6E6"/>
<stop offset="0.8567" stop-color="#1A1A1A"/>
<stop offset="0.9987"/>
</linearGradient>
<linearGradient id="paint1_linear" x1="659" y1="160.965" x2="765.756" y2="979.518" gradientUnits="userSpaceOnUse">
<stop stop-color="#0522AC"/>
<stop offset="1" stop-color="#34384C" stop-opacity="0"/>
</linearGradient>
<linearGradient id="paint2_linear" x1="665.629" y1="178.743" x2="762.582" y2="939.889" gradientUnits="userSpaceOnUse">
<stop stop-color="white"/>
<stop offset="0.0436" stop-color="#B4B4B4"/>
<stop offset="0.1507"/>
<stop offset="0.1714" stop-color="#171717"/>
<stop offset="0.3859" stop-color="white"/>
<stop offset="0.6326" stop-color="#E6E6E6"/>
<stop offset="0.8567" stop-color="#1A1A1A"/>
<stop offset="0.9987"/>
</linearGradient>
<linearGradient id="paint3_linear" x1="670.066" y1="181.159" x2="768.608" y2="936.736" gradientUnits="userSpaceOnUse">
<stop stop-color="#0522AC"/>
<stop offset="1" stop-color="#34384C" stop-opacity="0"/>
</linearGradient>
<linearGradient id="paint4_linear" x1="677.004" y1="198.924" x2="765.905" y2="896.862" gradientUnits="userSpaceOnUse">
<stop stop-color="white"/>
<stop offset="0.0436" stop-color="#B4B4B4"/>
<stop offset="0.1507"/>
<stop offset="0.1714" stop-color="#171717"/>
<stop offset="0.3859" stop-color="white"/>
<stop offset="0.6326" stop-color="#E6E6E6"/>
<stop offset="0.8567" stop-color="#1A1A1A"/>
<stop offset="0.9987"/>
</linearGradient>
<linearGradient id="paint5_linear" x1="681.074" y1="201.136" x2="771.431" y2="893.974" gradientUnits="userSpaceOnUse">
<stop stop-color="#0522AC"/>
<stop offset="1" stop-color="#34384C" stop-opacity="0"/>
</linearGradient>
<linearGradient id="paint6_linear" x1="688.403" y1="219.098" x2="769.252" y2="853.844" gradientUnits="userSpaceOnUse">
<stop stop-color="white"/>
<stop offset="0.0436" stop-color="#B4B4B4"/>
<stop offset="0.1507"/>
<stop offset="0.1714" stop-color="#171717"/>
<stop offset="0.3859" stop-color="white"/>
<stop offset="0.6326" stop-color="#E6E6E6"/>
<stop offset="0.8567" stop-color="#1A1A1A"/>
<stop offset="0.9987"/>
</linearGradient>
<linearGradient id="paint7_linear" x1="692.104" y1="221.106" x2="774.279" y2="851.218" gradientUnits="userSpaceOnUse">
<stop stop-color="#0522AC"/>
<stop offset="1" stop-color="#34384C" stop-opacity="0"/>
</linearGradient>
<linearGradient id="paint8_linear" x1="699.755" y1="239.048" x2="772.584" y2="810.85" gradientUnits="userSpaceOnUse">
<stop stop-color="white"/>
<stop offset="0.0436" stop-color="#B4B4B4"/>
<stop offset="0.1507"/>
<stop offset="0.1714" stop-color="#171717"/>
<stop offset="0.3859" stop-color="white"/>
<stop offset="0.6326" stop-color="#E6E6E6"/>
<stop offset="0.8567" stop-color="#1A1A1A"/>
<stop offset="0.9987"/>
</linearGradient>
<linearGradient id="paint9_linear" x1="703.089" y1="240.854" x2="777.112" y2="808.487" gradientUnits="userSpaceOnUse">
<stop stop-color="#0522AC"/>
<stop offset="1" stop-color="#34384C" stop-opacity="0"/>
</linearGradient>
<linearGradient id="paint10_linear" x1="711.118" y1="258.889" x2="775.942" y2="767.874" gradientUnits="userSpaceOnUse">
<stop stop-color="white"/>
<stop offset="0.0436" stop-color="#B4B4B4"/>
<stop offset="0.1507"/>
<stop offset="0.1714" stop-color="#171717"/>
<stop offset="0.3859" stop-color="white"/>
<stop offset="0.6326" stop-color="#E6E6E6"/>
<stop offset="0.8567" stop-color="#1A1A1A"/>
<stop offset="0.9987"/>
</linearGradient>
<linearGradient id="paint11_linear" x1="714.087" y1="260.494" x2="779.975" y2="765.775" gradientUnits="userSpaceOnUse">
<stop stop-color="#0522AC"/>
<stop offset="1" stop-color="#34384C" stop-opacity="0"/>
</linearGradient>
<linearGradient id="paint12_linear" x1="722.463" y1="278.468" x2="779.322" y2="724.947" gradientUnits="userSpaceOnUse">
<stop stop-color="white"/>
<stop offset="0.0436" stop-color="#B4B4B4"/>
<stop offset="0.1507"/>
<stop offset="0.1714" stop-color="#171717"/>
<stop offset="0.3859" stop-color="white"/>
<stop offset="0.6326" stop-color="#E6E6E6"/>
<stop offset="0.8567" stop-color="#1A1A1A"/>
<stop offset="0.9987"/>
</linearGradient>
<linearGradient id="paint13_linear" x1="725.066" y1="279.871" x2="782.86" y2="723.111" gradientUnits="userSpaceOnUse">
<stop stop-color="#0522AC"/>
<stop offset="1" stop-color="#34384C" stop-opacity="0"/>
</linearGradient>
<linearGradient id="paint14_linear" x1="733.827" y1="297.74" x2="782.767" y2="682.073" gradientUnits="userSpaceOnUse">
<stop stop-color="white"/>
<stop offset="0.0436" stop-color="#B4B4B4"/>
<stop offset="0.1507"/>
<stop offset="0.1714" stop-color="#171717"/>
<stop offset="0.3859" stop-color="white"/>
<stop offset="0.6326" stop-color="#E6E6E6"/>
<stop offset="0.8567" stop-color="#1A1A1A"/>
<stop offset="0.9987"/>
</linearGradient>
<linearGradient id="paint15_linear" x1="736.068" y1="298.942" x2="785.813" y2="680.497" gradientUnits="userSpaceOnUse">
<stop stop-color="#0522AC"/>
<stop offset="1" stop-color="#34384C" stop-opacity="0"/>
</linearGradient>
<linearGradient id="paint16_linear" x1="745.316" y1="316.73" x2="786.388" y2="639.319" gradientUnits="userSpaceOnUse">
<stop stop-color="white"/>
<stop offset="0.0436" stop-color="#B4B4B4"/>
<stop offset="0.1507"/>
<stop offset="0.1714" stop-color="#171717"/>
<stop offset="0.3859" stop-color="white"/>
<stop offset="0.6326" stop-color="#E6E6E6"/>
<stop offset="0.8567" stop-color="#1A1A1A"/>
<stop offset="0.9987"/>
</linearGradient>
<linearGradient id="paint17_linear" x1="747.197" y1="317.731" x2="788.946" y2="638.002" gradientUnits="userSpaceOnUse">
<stop stop-color="#0522AC"/>
<stop offset="1" stop-color="#34384C" stop-opacity="0"/>
</linearGradient>
<linearGradient id="paint18_linear" x1="757.131" y1="335.119" x2="790.443" y2="596.803" gradientUnits="userSpaceOnUse">
<stop stop-color="white"/>
<stop offset="0.0436" stop-color="#B4B4B4"/>
<stop offset="0.1507"/>
<stop offset="0.1714" stop-color="#171717"/>
<stop offset="0.3859" stop-color="white"/>
<stop offset="0.6326" stop-color="#E6E6E6"/>
<stop offset="0.8567" stop-color="#1A1A1A"/>
<stop offset="0.9987"/>
</linearGradient>
<linearGradient id="paint19_linear" x1="758.657" y1="335.924" x2="792.52" y2="595.744" gradientUnits="userSpaceOnUse">
<stop stop-color="#0522AC"/>
<stop offset="1" stop-color="#34384C" stop-opacity="0"/>
</linearGradient>
<linearGradient id="paint20_linear" x1="774.107" y1="351.782" x2="799.926" y2="554.581" gradientUnits="userSpaceOnUse">
<stop stop-color="white"/>
<stop offset="0.0436" stop-color="#B4B4B4"/>
<stop offset="0.1507"/>
<stop offset="0.1714" stop-color="#171717"/>
<stop offset="0.3859" stop-color="white"/>
<stop offset="0.6326" stop-color="#E6E6E6"/>
<stop offset="0.8567" stop-color="#1A1A1A"/>
<stop offset="0.9987"/>
</linearGradient>
<linearGradient id="paint21_linear" x1="775.29" y1="352.411" x2="801.534" y2="553.758" gradientUnits="userSpaceOnUse">
<stop stop-color="#0522AC"/>
<stop offset="1" stop-color="#34384C" stop-opacity="0"/>
</linearGradient>
<linearGradient id="paint22_linear" x1="792.36" y1="367.05" x2="811.894" y2="520.51" gradientUnits="userSpaceOnUse">
<stop stop-color="white"/>
<stop offset="0.0436" stop-color="#B4B4B4"/>
<stop offset="0.1507"/>
<stop offset="0.1714" stop-color="#171717"/>
<stop offset="0.3859" stop-color="white"/>
<stop offset="0.6326" stop-color="#E6E6E6"/>
<stop offset="0.8567" stop-color="#1A1A1A"/>
<stop offset="0.9987"/>
</linearGradient>
<linearGradient id="paint23_linear" x1="793.255" y1="367.518" x2="813.111" y2="519.892" gradientUnits="userSpaceOnUse">
<stop stop-color="#0522AC"/>
<stop offset="1" stop-color="#34384C" stop-opacity="0"/>
</linearGradient>
</defs>
</svg>
