<svg width="375" height="573" viewBox="0 0 375 573" fill="none" xmlns="http://www.w3.org/2000/svg">
<g opacity="0.4">
<circle cx="189.5" cy="10.5" r="7.5" transform="rotate(90 189.5 10.5)" fill="#141519" stroke="#1962F0" stroke-width="2"/>
<rect x="190.5" y="18" width="65" height="2" transform="rotate(90 190.5 18)" fill="#1962F0"/>
</g>
<circle cx="189.5" cy="90.5" r="7.5" transform="rotate(90 189.5 90.5)" fill="#141519" stroke="#1962F0" stroke-width="2"/>
<rect x="190.5" y="98" width="95" height="2" transform="rotate(90 190.5 98)" fill="#1962F0"/>
<circle cx="189.5" cy="200.5" r="7.5" transform="rotate(90 189.5 200.5)" fill="#141519" stroke="#1962F0" stroke-width="2"/>
<circle cx="189.5" cy="200.1" r="2.5" transform="rotate(90 189.5 200.1)" fill="#1962F0"/>
<rect x="190.5" y="208" width="125" height="2" transform="rotate(90 190.5 208)" fill="#1962F0"/>
<circle cx="189.5" cy="340.5" r="7.5" transform="rotate(90 189.5 340.5)" fill="#141519" stroke="#1962F0" stroke-width="2"/>
<rect x="190.5" y="348" width="125" height="2" transform="rotate(90 190.5 348)" fill="#1962F0"/>
<circle cx="189.5" cy="480.5" r="7.5" transform="rotate(90 189.5 480.5)" fill="#141519" stroke="#1962F0" stroke-width="2"/>
<rect x="190.5" y="488" width="85" height="2" transform="rotate(90 190.5 488)" fill="#1962F0"/>
<path d="M97.6234 13.54L100.703 10C101.543 9.06 102.143 7.94 102.143 6.68C102.143 4.3 100.443 2.72 97.8234 2.72C95.2034 2.72 93.6834 4.32 93.3634 6.66L95.7434 7.06C95.9034 5.92 96.5634 5.16 97.7234 5.16C98.7434 5.16 99.4634 5.78 99.4634 6.66C99.4634 7.1 99.1034 7.78 98.5634 8.44L93.4434 14.58V16H102.263V13.54H97.6234ZM109.225 16.18C113.025 16.18 114.065 13.2 114.065 9.48C114.065 5.7 113.025 2.72 109.225 2.72C105.405 2.72 104.345 5.7 104.345 9.48C104.345 13.2 105.405 16.18 109.225 16.18ZM109.225 13.74C107.525 13.74 107.005 11.86 107.005 9.48C107.005 7.06 107.525 5.16 109.225 5.16C110.905 5.16 111.405 7.06 111.405 9.48C111.405 11.86 110.905 13.74 109.225 13.74ZM120.202 13.54L123.282 10C124.122 9.06 124.722 7.94 124.722 6.68C124.722 4.3 123.022 2.72 120.402 2.72C117.782 2.72 116.262 4.32 115.942 6.66L118.322 7.06C118.482 5.92 119.142 5.16 120.302 5.16C121.322 5.16 122.042 5.78 122.042 6.66C122.042 7.1 121.682 7.78 121.142 8.44L116.022 14.58V16H124.842V13.54H120.202ZM131.803 16.18C135.603 16.18 136.643 13.2 136.643 9.48C136.643 5.7 135.603 2.72 131.803 2.72C127.983 2.72 126.923 5.7 126.923 9.48C126.923 13.2 127.983 16.18 131.803 16.18ZM131.803 13.74C130.103 13.74 129.583 11.86 129.583 9.48C129.583 7.06 130.103 5.16 131.803 5.16C133.483 5.16 133.983 7.06 133.983 9.48C133.983 11.86 133.483 13.74 131.803 13.74ZM157.305 9.12C157.305 5.22 154.185 2.06 150.285 2.06C146.365 2.06 143.285 5.22 143.285 9.12C143.285 13.02 146.365 16.2 150.285 16.2C150.945 16.2 151.585 16.1 152.205 15.94L153.665 18.34L155.645 17.14L154.305 14.94C156.125 13.66 157.305 11.52 157.305 9.12ZM150.285 13.58C147.805 13.58 146.065 11.6 146.065 9.12C146.065 6.66 147.805 4.68 150.285 4.68C152.745 4.68 154.505 6.66 154.505 9.12C154.505 10.58 153.905 11.86 152.905 12.66L151.525 10.4L149.565 11.6L150.745 13.56C150.605 13.58 150.445 13.58 150.285 13.58ZM164.108 2.72L158.668 4.98V7.44L161.688 6.28V16H164.328V2.72H164.108Z" fill="white"/>
<path d="M90.7856 55H92.1776V43.56H90.7856V55ZM95.0471 55H96.3751V49.928C96.3751 48.424 97.4791 47.64 98.7111 47.64C100.055 47.64 100.679 48.296 100.679 49.768V55H102.007V49.864C102.007 47.432 100.791 46.488 99.0631 46.488C97.6871 46.488 96.7591 47.176 96.3751 47.96V46.632H95.0471V55ZM104.642 55H105.97V46.632H104.642V55ZM105.282 44.888C105.762 44.888 106.162 44.488 106.162 44.008C106.162 43.528 105.762 43.128 105.282 43.128C104.802 43.128 104.402 43.528 104.402 44.008C104.402 44.488 104.802 44.888 105.282 44.888ZM111.232 55.112C111.776 55.112 112.096 55.032 112.368 54.936V53.816C112.08 53.928 111.76 53.992 111.344 53.992C110.672 53.992 110.304 53.592 110.304 52.776V47.752H112.256V46.632H110.304V44.728H108.976V46.632H107.776V47.752H108.976V52.904C108.976 54.216 109.712 55.112 111.232 55.112ZM114.407 55H115.735V46.632H114.407V55ZM115.047 44.888C115.527 44.888 115.927 44.488 115.927 44.008C115.927 43.528 115.527 43.128 115.047 43.128C114.567 43.128 114.167 43.528 114.167 44.008C114.167 44.488 114.567 44.888 115.047 44.888ZM120.549 55.144C121.781 55.144 122.533 54.728 123.157 53.944V55H124.485V49.48C124.485 47.144 123.029 46.488 121.429 46.488C119.813 46.488 118.293 47.192 118.117 49.096H119.445C119.573 48.072 120.213 47.592 121.365 47.592C122.645 47.592 123.157 48.152 123.157 49.48V50.088H121.957C119.813 50.088 117.765 50.744 117.765 52.68C117.765 54.392 118.997 55.144 120.549 55.144ZM120.677 54.088C119.509 54.088 119.093 53.544 119.093 52.68C119.093 51.448 120.325 51.032 122.005 51.032H123.157V52.072C123.157 53.368 122.085 54.088 120.677 54.088ZM127.126 55H128.47V42.632H127.126V55ZM135.454 55H136.782V46.632H135.454V55ZM136.094 44.888C136.574 44.888 136.974 44.488 136.974 44.008C136.974 43.528 136.574 43.128 136.094 43.128C135.614 43.128 135.214 43.528 135.214 44.008C135.214 44.488 135.614 44.888 136.094 44.888ZM142.652 55.144C143.868 55.144 145.036 54.376 145.516 53.56V55H146.844V42.632H145.516V47.976C145.036 47.16 144.172 46.488 142.78 46.488C140.476 46.488 138.876 48.296 138.876 50.856V50.984C138.876 53.592 140.46 55.144 142.652 55.144ZM142.796 54.04C141.388 54.04 140.252 53.032 140.252 50.92V50.792C140.252 48.76 141.244 47.592 142.908 47.592C144.54 47.592 145.564 48.6 145.564 50.744V50.872C145.564 53.016 144.348 54.04 142.796 54.04ZM152.956 55.144C154.844 55.144 156.236 54.264 156.524 52.584H155.196C155.02 53.56 154.268 54.04 152.972 54.04C151.26 54.04 150.348 52.984 150.284 51.08H156.588V50.648C156.588 47.656 154.764 46.488 152.828 46.488C150.524 46.488 148.908 48.248 148.908 50.776V50.904C148.908 53.48 150.588 55.144 152.956 55.144ZM150.332 50.008C150.556 48.52 151.468 47.592 152.828 47.592C154.204 47.592 155.1 48.28 155.228 50.008H150.332ZM160.799 55.144C162.031 55.144 162.783 54.728 163.407 53.944V55H164.735V49.48C164.735 47.144 163.279 46.488 161.679 46.488C160.063 46.488 158.543 47.192 158.367 49.096H159.695C159.823 48.072 160.463 47.592 161.615 47.592C162.895 47.592 163.407 48.152 163.407 49.48V50.088H162.207C160.063 50.088 158.015 50.744 158.015 52.68C158.015 54.392 159.247 55.144 160.799 55.144ZM160.927 54.088C159.759 54.088 159.343 53.544 159.343 52.68C159.343 51.448 160.575 51.032 162.255 51.032H163.407V52.072C163.407 53.368 162.335 54.088 160.927 54.088Z" fill="#E5E6ED"/>
<path d="M97.4672 204.54L100.547 201C101.387 200.06 101.987 198.94 101.987 197.68C101.987 195.3 100.287 193.72 97.6672 193.72C95.0472 193.72 93.5272 195.32 93.2072 197.66L95.5872 198.06C95.7472 196.92 96.4072 196.16 97.5672 196.16C98.5872 196.16 99.3072 196.78 99.3072 197.66C99.3072 198.1 98.9472 198.78 98.4072 199.44L93.2872 205.58V207H102.107V204.54H97.4672ZM109.068 207.18C112.868 207.18 113.908 204.2 113.908 200.48C113.908 196.7 112.868 193.72 109.068 193.72C105.248 193.72 104.188 196.7 104.188 200.48C104.188 204.2 105.248 207.18 109.068 207.18ZM109.068 204.74C107.368 204.74 106.848 202.86 106.848 200.48C106.848 198.06 107.368 196.16 109.068 196.16C110.748 196.16 111.248 198.06 111.248 200.48C111.248 202.86 110.748 204.74 109.068 204.74ZM120.045 204.54L123.125 201C123.965 200.06 124.565 198.94 124.565 197.68C124.565 195.3 122.865 193.72 120.245 193.72C117.625 193.72 116.105 195.32 115.785 197.66L118.165 198.06C118.325 196.92 118.985 196.16 120.145 196.16C121.165 196.16 121.885 196.78 121.885 197.66C121.885 198.1 121.525 198.78 120.985 199.44L115.865 205.58V207H124.685V204.54H120.045ZM131.687 193.72L126.247 195.98V198.44L129.267 197.28V207H131.907V193.72H131.687ZM153.204 200.12C153.204 196.22 150.084 193.06 146.184 193.06C142.264 193.06 139.184 196.22 139.184 200.12C139.184 204.02 142.264 207.2 146.184 207.2C146.844 207.2 147.484 207.1 148.104 206.94L149.564 209.34L151.544 208.14L150.204 205.94C152.024 204.66 153.204 202.52 153.204 200.12ZM146.184 204.58C143.704 204.58 141.964 202.6 141.964 200.12C141.964 197.66 143.704 195.68 146.184 195.68C148.644 195.68 150.404 197.66 150.404 200.12C150.404 201.58 149.804 202.86 148.804 203.66L147.424 201.4L145.464 202.6L146.644 204.56C146.504 204.58 146.344 204.58 146.184 204.58ZM165.227 202.16H163.227V193.9H161.667L154.247 203.72V204.5H160.567V207H163.227V204.5H165.227V202.16ZM157.987 202.16L160.567 198.7V202.16H157.987Z" fill="white"/>
<path d="M79.3931 246H80.6731V236.368L84.5931 246H85.0251L88.8171 236.368V246H90.2091V234.56H88.2891L84.8651 243.472L81.3291 234.56H79.3931V246ZM95.8323 246.144C97.1763 246.144 98.1043 245.456 98.4883 244.672V246H99.8163V237.632H98.4883V242.704C98.4883 244.208 97.3683 244.992 96.1843 244.992C94.8723 244.992 94.2483 244.336 94.2483 242.864V237.632H92.9203V242.928C92.9203 245.232 94.1683 246.144 95.8323 246.144ZM102.532 246H103.876V233.632H102.532V246ZM109.138 246.112C109.682 246.112 110.002 246.032 110.274 245.936V244.816C109.986 244.928 109.666 244.992 109.25 244.992C108.578 244.992 108.21 244.592 108.21 243.776V238.752H110.162V237.632H108.21V235.728H106.882V237.632H105.682V238.752H106.882V243.904C106.882 245.216 107.618 246.112 109.138 246.112ZM112.314 246H113.642V237.632H112.314V246ZM112.954 235.888C113.434 235.888 113.834 235.488 113.834 235.008C113.834 234.528 113.434 234.128 112.954 234.128C112.474 234.128 112.074 234.528 112.074 235.008C112.074 235.488 112.474 235.888 112.954 235.888ZM115.976 242.224H119.4V240.976H115.976V242.224ZM125.175 246.144C127.191 246.144 128.647 244.8 128.823 242.992H127.591C127.447 244.352 126.375 245.04 125.191 245.04C123.575 245.04 122.455 243.952 122.455 241.904V241.776C122.455 239.808 123.623 238.592 125.143 238.592C126.295 238.592 127.255 239.088 127.463 240.416H128.775C128.519 238.288 126.887 237.488 125.143 237.488C122.903 237.488 121.079 239.216 121.079 241.776V241.904C121.079 244.496 122.839 246.144 125.175 246.144ZM130.828 246H132.156V240.928C132.156 239.424 133.26 238.64 134.492 238.64C135.836 238.64 136.46 239.296 136.46 240.768V246H137.788V240.864C137.788 238.432 136.572 237.488 134.844 237.488C133.468 237.488 132.54 238.176 132.156 238.96V233.632H130.828V246ZM142.487 246.144C143.719 246.144 144.471 245.728 145.095 244.944V246H146.423V240.48C146.423 238.144 144.967 237.488 143.367 237.488C141.751 237.488 140.231 238.192 140.055 240.096H141.383C141.511 239.072 142.151 238.592 143.303 238.592C144.583 238.592 145.095 239.152 145.095 240.48V241.088H143.895C141.751 241.088 139.703 241.744 139.703 243.68C139.703 245.392 140.935 246.144 142.487 246.144ZM142.615 245.088C141.447 245.088 141.031 244.544 141.031 243.68C141.031 242.448 142.263 242.032 143.943 242.032H145.095V243.072C145.095 244.368 144.023 245.088 142.615 245.088ZM149.064 246H150.392V237.632H149.064V246ZM149.704 235.888C150.184 235.888 150.584 235.488 150.584 235.008C150.584 234.528 150.184 234.128 149.704 234.128C149.224 234.128 148.824 234.528 148.824 235.008C148.824 235.488 149.224 235.888 149.704 235.888ZM153.11 246H154.438V240.928C154.438 239.424 155.542 238.64 156.774 238.64C158.118 238.64 158.742 239.296 158.742 240.768V246H160.07V240.864C160.07 238.432 158.854 237.488 157.126 237.488C155.75 237.488 154.822 238.176 154.438 238.96V237.632H153.11V246ZM163.664 246.08C164.224 246.08 164.688 245.632 164.688 245.056C164.688 244.48 164.224 244.032 163.664 244.032C163.104 244.032 162.64 244.48 162.64 245.056C162.64 245.632 163.104 246.08 163.664 246.08ZM163.664 241.328C164.224 241.328 164.688 240.88 164.688 240.304C164.688 239.728 164.224 239.28 163.664 239.28C163.104 239.28 162.64 239.728 162.64 240.304C162.64 240.88 163.104 241.328 163.664 241.328ZM98.3284 272.352C100.632 272.352 102.52 271.392 103.336 270H102.104C101.112 270.848 100.072 271.296 98.3284 271.296C94.7604 271.296 92.9364 268.72 92.9364 265.808C92.9364 262.416 95.3044 260.048 98.5364 260.048C101.832 260.048 103.752 262.016 103.752 264.88C103.752 267.056 102.824 267.968 101.912 267.968C101.304 267.968 101.032 267.552 101.144 266.704L101.624 262.672H100.296L100.184 263.632C99.9604 263.088 99.3844 262.544 98.2484 262.544C96.5044 262.544 95.0964 264.112 95.0964 266.256C95.0964 267.984 96.1204 269.04 97.6724 269.04C98.6644 269.04 99.5924 268.384 100.056 267.552C100.184 268.384 100.6 268.928 101.896 268.928C103.176 268.928 104.904 267.856 104.904 264.848C104.904 261.552 102.36 258.992 98.5364 258.992C94.8404 258.992 91.7044 261.92 91.7044 265.84C91.7044 269.248 94.0564 272.352 98.3284 272.352ZM97.9604 268.016C97.0964 268.016 96.4564 267.36 96.4564 266.24C96.4564 264.56 97.3364 263.6 98.3444 263.6C99.3844 263.6 100.008 264.192 100.008 265.408C100.008 267.104 98.9524 268.016 97.9604 268.016ZM107.065 270H108.457V265.344H110.313C112.489 265.344 114.313 264.4 114.313 261.968V261.904C114.313 259.52 112.505 258.56 110.313 258.56H107.065V270ZM108.457 264.24V259.68H110.409C111.961 259.68 112.921 260.288 112.921 261.904V261.968C112.921 263.44 112.041 264.24 110.409 264.24H108.457ZM119.52 269.04C117.824 269.04 116.784 267.792 116.784 265.888V265.76C116.784 263.84 117.84 262.592 119.52 262.592C121.184 262.592 122.256 263.84 122.256 265.776V265.888C122.256 267.776 121.2 269.04 119.52 269.04ZM119.504 270.144C121.888 270.144 123.632 268.4 123.632 265.872V265.744C123.632 263.232 121.888 261.488 119.52 261.488C117.152 261.488 115.408 263.248 115.408 265.76V265.888C115.408 268.336 117.12 270.144 119.504 270.144ZM125.72 270H127.064V257.632H125.72V270ZM130.534 272.912H131.878L136.502 261.632H135.142L132.822 267.632L130.262 261.632H128.838L132.118 269.136L130.534 272.912ZM141.438 273.056C143.774 273.056 145.422 271.872 145.438 269.44V261.632H144.11V262.976C143.63 262.16 142.766 261.488 141.374 261.488C139.07 261.488 137.47 263.376 137.47 265.648V265.76C137.47 268.064 139.086 269.728 141.278 269.728C142.494 269.728 143.63 268.96 144.11 268.144V269.36C144.11 271.152 143.07 271.936 141.422 271.936C139.998 271.936 139.198 271.44 139.006 270.48H137.646C137.87 271.888 138.958 273.056 141.438 273.056ZM141.422 268.624C140.014 268.624 138.846 267.536 138.846 265.712V265.584C138.846 263.824 139.838 262.592 141.502 262.592C143.134 262.592 144.158 263.68 144.158 265.552V265.664C144.158 267.536 142.974 268.624 141.422 268.624ZM151.613 269.04C149.917 269.04 148.877 267.792 148.877 265.888V265.76C148.877 263.84 149.933 262.592 151.613 262.592C153.277 262.592 154.349 263.84 154.349 265.776V265.888C154.349 267.776 153.293 269.04 151.613 269.04ZM151.597 270.144C153.981 270.144 155.725 268.4 155.725 265.872V265.744C155.725 263.232 153.981 261.488 151.613 261.488C149.245 261.488 147.501 263.248 147.501 265.76V265.888C147.501 268.336 149.213 270.144 151.597 270.144ZM157.782 270H159.11V264.928C159.11 263.424 160.214 262.64 161.446 262.64C162.79 262.64 163.414 263.296 163.414 264.768V270H164.742V264.864C164.742 262.432 163.526 261.488 161.798 261.488C160.422 261.488 159.494 262.176 159.11 262.96V261.632H157.782V270ZM98.6878 296.352C100.992 296.352 102.88 295.392 103.696 294H102.464C101.472 294.848 100.432 295.296 98.6878 295.296C95.1198 295.296 93.2958 292.72 93.2958 289.808C93.2958 286.416 95.6638 284.048 98.8958 284.048C102.192 284.048 104.112 286.016 104.112 288.88C104.112 291.056 103.184 291.968 102.272 291.968C101.664 291.968 101.392 291.552 101.504 290.704L101.984 286.672H100.656L100.544 287.632C100.32 287.088 99.7438 286.544 98.6078 286.544C96.8638 286.544 95.4557 288.112 95.4557 290.256C95.4557 291.984 96.4798 293.04 98.0318 293.04C99.0238 293.04 99.9518 292.384 100.416 291.552C100.544 292.384 100.96 292.928 102.256 292.928C103.536 292.928 105.264 291.856 105.264 288.848C105.264 285.552 102.72 282.992 98.8958 282.992C95.1998 282.992 92.0638 285.92 92.0638 289.84C92.0638 293.248 94.4158 296.352 98.6878 296.352ZM98.3198 292.016C97.4558 292.016 96.8158 291.36 96.8158 290.24C96.8158 288.56 97.6958 287.6 98.7038 287.6C99.7438 287.6 100.368 288.192 100.368 289.408C100.368 291.104 99.3118 292.016 98.3198 292.016ZM107.424 294H111.344C113.632 294 115.104 292.96 115.104 290.8V290.736C115.104 289.248 114.48 288.4 112.816 288C114.128 287.552 114.544 286.624 114.544 285.584V285.52C114.544 283.264 112.992 282.56 110.864 282.56H107.424V294ZM108.784 292.912V288.64H111.12C112.96 288.64 113.744 289.312 113.744 290.72V290.784C113.744 292.176 112.976 292.912 111.312 292.912H108.784ZM108.784 287.552V283.648H110.832C112.432 283.648 113.184 284.176 113.184 285.472V285.536C113.184 286.944 112.544 287.552 110.864 287.552H108.784ZM117.314 294H118.642V285.632H117.314V294ZM117.954 283.888C118.434 283.888 118.834 283.488 118.834 283.008C118.834 282.528 118.434 282.128 117.954 282.128C117.474 282.128 117.074 282.528 117.074 283.008C117.074 283.488 117.474 283.888 117.954 283.888ZM121.36 294H122.688V288.928C122.688 287.424 123.792 286.64 125.024 286.64C126.368 286.64 126.992 287.296 126.992 288.768V294H128.32V288.864C128.32 286.432 127.104 285.488 125.376 285.488C124 285.488 123.072 286.176 122.688 286.96V285.632H121.36V294ZM133.018 294.144C134.25 294.144 135.002 293.728 135.626 292.944V294H136.954V288.48C136.954 286.144 135.498 285.488 133.898 285.488C132.282 285.488 130.762 286.192 130.586 288.096H131.914C132.042 287.072 132.682 286.592 133.834 286.592C135.114 286.592 135.626 287.152 135.626 288.48V289.088H134.426C132.282 289.088 130.234 289.744 130.234 291.68C130.234 293.392 131.466 294.144 133.018 294.144ZM133.146 293.088C131.978 293.088 131.562 292.544 131.562 291.68C131.562 290.448 132.794 290.032 134.474 290.032H135.626V291.072C135.626 292.368 134.554 293.088 133.146 293.088ZM139.563 294H140.891V288.928C140.891 287.424 141.995 286.64 143.227 286.64C144.571 286.64 145.195 287.296 145.195 288.768V294H146.523V288.864C146.523 286.432 145.307 285.488 143.579 285.488C142.203 285.488 141.275 286.176 140.891 286.96V285.632H139.563V294ZM152.597 294.144C154.613 294.144 156.069 292.8 156.245 290.992H155.013C154.869 292.352 153.797 293.04 152.613 293.04C150.997 293.04 149.877 291.952 149.877 289.904V289.776C149.877 287.808 151.045 286.592 152.565 286.592C153.717 286.592 154.677 287.088 154.885 288.416H156.197C155.941 286.288 154.309 285.488 152.565 285.488C150.325 285.488 148.501 287.216 148.501 289.776V289.904C148.501 292.496 150.261 294.144 152.597 294.144ZM161.674 294.144C163.562 294.144 164.954 293.264 165.242 291.584H163.914C163.738 292.56 162.986 293.04 161.69 293.04C159.978 293.04 159.066 291.984 159.002 290.08H165.306V289.648C165.306 286.656 163.482 285.488 161.546 285.488C159.242 285.488 157.626 287.248 157.626 289.776V289.904C157.626 292.48 159.306 294.144 161.674 294.144ZM159.05 289.008C159.274 287.52 160.186 286.592 161.546 286.592C162.922 286.592 163.818 287.28 163.946 289.008H159.05ZM108.078 320.352C110.382 320.352 112.27 319.392 113.086 318H111.854C110.862 318.848 109.822 319.296 108.078 319.296C104.51 319.296 102.686 316.72 102.686 313.808C102.686 310.416 105.054 308.048 108.286 308.048C111.582 308.048 113.502 310.016 113.502 312.88C113.502 315.056 112.574 315.968 111.662 315.968C111.054 315.968 110.782 315.552 110.894 314.704L111.374 310.672H110.046L109.934 311.632C109.71 311.088 109.134 310.544 107.998 310.544C106.254 310.544 104.846 312.112 104.846 314.256C104.846 315.984 105.87 317.04 107.422 317.04C108.414 317.04 109.342 316.384 109.806 315.552C109.934 316.384 110.35 316.928 111.646 316.928C112.926 316.928 114.654 315.856 114.654 312.848C114.654 309.552 112.11 306.992 108.286 306.992C104.59 306.992 101.454 309.92 101.454 313.84C101.454 317.248 103.806 320.352 108.078 320.352ZM107.71 316.016C106.846 316.016 106.206 315.36 106.206 314.24C106.206 312.56 107.086 311.6 108.094 311.6C109.134 311.6 109.758 312.192 109.758 313.408C109.758 315.104 108.702 316.016 107.71 316.016ZM120.511 318.144C122.783 318.144 124.463 316.688 124.463 314.768C124.463 312.608 123.119 311.84 120.575 311.44C118.239 311.088 117.823 310.512 117.823 309.392C117.823 308.32 118.639 307.536 120.207 307.536C121.791 307.536 122.623 308.128 122.895 309.568H124.143C123.919 307.536 122.495 306.416 120.207 306.416C118.047 306.416 116.527 307.76 116.527 309.52C116.527 311.552 117.951 312.304 120.351 312.672C122.527 313.024 123.119 313.568 123.119 314.864C123.119 316.16 121.983 317.024 120.511 317.024C118.207 317.024 117.663 315.872 117.487 314.512H116.143C116.351 316.464 117.455 318.144 120.511 318.144ZM130.238 317.04C128.542 317.04 127.502 315.792 127.502 313.888V313.76C127.502 311.84 128.558 310.592 130.238 310.592C131.902 310.592 132.974 311.84 132.974 313.776V313.888C132.974 315.776 131.918 317.04 130.238 317.04ZM130.222 318.144C132.606 318.144 134.35 316.4 134.35 313.872V313.744C134.35 311.232 132.606 309.488 130.238 309.488C127.87 309.488 126.126 311.248 126.126 313.76V313.888C126.126 316.336 127.838 318.144 130.222 318.144ZM136.439 318H137.783V305.632H136.439V318ZM142.596 318.144C143.828 318.144 144.58 317.728 145.204 316.944V318H146.532V312.48C146.532 310.144 145.076 309.488 143.476 309.488C141.86 309.488 140.34 310.192 140.164 312.096H141.492C141.62 311.072 142.26 310.592 143.412 310.592C144.692 310.592 145.204 311.152 145.204 312.48V313.088H144.004C141.86 313.088 139.812 313.744 139.812 315.68C139.812 317.392 141.044 318.144 142.596 318.144ZM142.724 317.088C141.556 317.088 141.14 316.544 141.14 315.68C141.14 314.448 142.372 314.032 144.052 314.032H145.204V315.072C145.204 316.368 144.132 317.088 142.724 317.088ZM149.141 318H150.469V312.928C150.469 311.424 151.573 310.64 152.805 310.64C154.149 310.64 154.773 311.296 154.773 312.768V318H156.101V312.864C156.101 310.432 154.885 309.488 153.157 309.488C151.781 309.488 150.853 310.176 150.469 310.96V309.632H149.141V318ZM160.799 318.144C162.031 318.144 162.783 317.728 163.407 316.944V318H164.735V312.48C164.735 310.144 163.279 309.488 161.679 309.488C160.063 309.488 158.543 310.192 158.367 312.096H159.695C159.823 311.072 160.463 310.592 161.615 310.592C162.895 310.592 163.407 311.152 163.407 312.48V313.088H162.207C160.063 313.088 158.015 313.744 158.015 315.68C158.015 317.392 159.247 318.144 160.799 318.144ZM160.927 317.088C159.759 317.088 159.343 316.544 159.343 315.68C159.343 314.448 160.575 314.032 162.255 314.032H163.407V315.072C163.407 316.368 162.335 317.088 160.927 317.088Z" fill="white"/>
<path d="M94.5375 485.54L97.6175 482C98.4575 481.06 99.0575 479.94 99.0575 478.68C99.0575 476.3 97.3575 474.72 94.7375 474.72C92.1175 474.72 90.5975 476.32 90.2775 478.66L92.6575 479.06C92.8175 477.92 93.4775 477.16 94.6375 477.16C95.6575 477.16 96.3775 477.78 96.3775 478.66C96.3775 479.1 96.0175 479.78 95.4775 480.44L90.3575 486.58V488H99.1775V485.54H94.5375ZM106.139 488.18C109.939 488.18 110.979 485.2 110.979 481.48C110.979 477.7 109.939 474.72 106.139 474.72C102.319 474.72 101.259 477.7 101.259 481.48C101.259 485.2 102.319 488.18 106.139 488.18ZM106.139 485.74C104.439 485.74 103.919 483.86 103.919 481.48C103.919 479.06 104.439 477.16 106.139 477.16C107.819 477.16 108.319 479.06 108.319 481.48C108.319 483.86 107.819 485.74 106.139 485.74ZM117.116 485.54L120.196 482C121.036 481.06 121.636 479.94 121.636 478.68C121.636 476.3 119.936 474.72 117.316 474.72C114.696 474.72 113.176 476.32 112.856 478.66L115.236 479.06C115.396 477.92 116.056 477.16 117.216 477.16C118.236 477.16 118.956 477.78 118.956 478.66C118.956 479.1 118.596 479.78 118.056 480.44L112.936 486.58V488H121.756V485.54H117.116ZM127.897 485.54L130.977 482C131.817 481.06 132.417 479.94 132.417 478.68C132.417 476.3 130.717 474.72 128.097 474.72C125.477 474.72 123.957 476.32 123.637 478.66L126.017 479.06C126.177 477.92 126.837 477.16 127.997 477.16C129.017 477.16 129.737 477.78 129.737 478.66C129.737 479.1 129.377 479.78 128.837 480.44L123.717 486.58V488H132.537V485.54H127.897ZM153.204 481.12C153.204 477.22 150.084 474.06 146.184 474.06C142.264 474.06 139.184 477.22 139.184 481.12C139.184 485.02 142.264 488.2 146.184 488.2C146.844 488.2 147.484 488.1 148.104 487.94L149.564 490.34L151.544 489.14L150.204 486.94C152.024 485.66 153.204 483.52 153.204 481.12ZM146.184 485.58C143.704 485.58 141.964 483.6 141.964 481.12C141.964 478.66 143.704 476.68 146.184 476.68C148.644 476.68 150.404 478.66 150.404 481.12C150.404 482.58 149.804 483.86 148.804 484.66L147.424 482.4L145.464 483.6L146.644 485.56C146.504 485.58 146.344 485.58 146.184 485.58ZM165.227 483.16H163.227V474.9H161.667L154.247 484.72V485.5H160.567V488H163.227V485.5H165.227V483.16ZM157.987 483.16L160.567 479.7V483.16H157.987Z" fill="white"/>
<path d="M26.4883 525.864V516.68H28.0403C31.1923 516.68 32.4722 518.536 32.4722 521.176V521.304C32.4722 524.104 31.0003 525.864 28.0563 525.864H26.4883ZM25.0963 527H28.0883C32.0883 527 33.9123 524.488 33.9123 521.32V521.176C33.9123 517.992 32.0563 515.56 28.1203 515.56H25.0963V527ZM38.2369 527.144C39.4689 527.144 40.2209 526.728 40.8449 525.944V527H42.1729V521.48C42.1729 519.144 40.7169 518.488 39.1169 518.488C37.5009 518.488 35.9809 519.192 35.8049 521.096H37.1329C37.2609 520.072 37.9009 519.592 39.0529 519.592C40.3329 519.592 40.8449 520.152 40.8449 521.48V522.088H39.6449C37.5009 522.088 35.4529 522.744 35.4529 524.68C35.4529 526.392 36.6849 527.144 38.2369 527.144ZM38.3649 526.088C37.1969 526.088 36.7809 525.544 36.7809 524.68C36.7809 523.448 38.0129 523.032 39.6929 523.032H40.8449V524.072C40.8449 525.368 39.7729 526.088 38.3649 526.088ZM47.3255 527.112C47.8695 527.112 48.1895 527.032 48.4615 526.936V525.816C48.1735 525.928 47.8535 525.992 47.4375 525.992C46.7655 525.992 46.3975 525.592 46.3975 524.776V519.752H48.3495V518.632H46.3975V516.728H45.0695V518.632H43.8695V519.752H45.0695V524.904C45.0695 526.216 45.8055 527.112 47.3255 527.112ZM52.6431 527.144C53.8751 527.144 54.6271 526.728 55.2511 525.944V527H56.5791V521.48C56.5791 519.144 55.1231 518.488 53.5231 518.488C51.9071 518.488 50.3871 519.192 50.2111 521.096H51.5391C51.6671 520.072 52.3071 519.592 53.4591 519.592C54.7391 519.592 55.2511 520.152 55.2511 521.48V522.088H54.0511C51.9071 522.088 49.8591 522.744 49.8591 524.68C49.8591 526.392 51.0911 527.144 52.6431 527.144ZM52.7711 526.088C51.6031 526.088 51.1871 525.544 51.1871 524.68C51.1871 523.448 52.4191 523.032 54.0991 523.032H55.2511V524.072C55.2511 525.368 54.1791 526.088 52.7711 526.088ZM63.5181 527H67.4381C69.7261 527 71.1981 525.96 71.1981 523.8V523.736C71.1981 522.248 70.5741 521.4 68.9101 521C70.2221 520.552 70.6381 519.624 70.6381 518.584V518.52C70.6381 516.264 69.0861 515.56 66.9581 515.56H63.5181V527ZM64.8781 525.912V521.64H67.2141C69.0541 521.64 69.8381 522.312 69.8381 523.72V523.784C69.8381 525.176 69.0701 525.912 67.4061 525.912H64.8781ZM64.8781 520.552V516.648H66.9261C68.5261 516.648 69.2781 517.176 69.2781 518.472V518.536C69.2781 519.944 68.6381 520.552 66.9581 520.552H64.8781ZM73.3753 527H74.7033V522.408C74.7033 520.344 75.7753 519.816 77.4553 519.736V518.488C75.9513 518.536 75.2313 519.192 74.7033 520.136V518.632H73.3753V527ZM79.4229 527H80.7509V518.632H79.4229V527ZM80.0629 516.888C80.5429 516.888 80.9429 516.488 80.9429 516.008C80.9429 515.528 80.5429 515.128 80.0629 515.128C79.5829 515.128 79.1829 515.528 79.1829 516.008C79.1829 516.488 79.5829 516.888 80.0629 516.888ZM86.621 527.144C87.837 527.144 89.005 526.376 89.485 525.56V527H90.813V514.632H89.485V519.976C89.005 519.16 88.141 518.488 86.749 518.488C84.445 518.488 82.845 520.296 82.845 522.856V522.984C82.845 525.592 84.429 527.144 86.621 527.144ZM86.765 526.04C85.357 526.04 84.221 525.032 84.221 522.92V522.792C84.221 520.76 85.213 519.592 86.877 519.592C88.509 519.592 89.533 520.6 89.533 522.744V522.872C89.533 525.016 88.317 526.04 86.765 526.04ZM96.8443 530.056C99.1803 530.056 100.828 528.872 100.844 526.44V518.632H99.5163V519.976C99.0363 519.16 98.1723 518.488 96.7803 518.488C94.4763 518.488 92.8763 520.376 92.8763 522.648V522.76C92.8763 525.064 94.4923 526.728 96.6843 526.728C97.9003 526.728 99.0363 525.96 99.5163 525.144V526.36C99.5163 528.152 98.4763 528.936 96.8283 528.936C95.4043 528.936 94.6043 528.44 94.4123 527.48H93.0523C93.2763 528.888 94.3643 530.056 96.8443 530.056ZM96.8283 525.624C95.4203 525.624 94.2523 524.536 94.2523 522.712V522.584C94.2523 520.824 95.2443 519.592 96.9083 519.592C98.5403 519.592 99.5643 520.68 99.5643 522.552V522.664C99.5643 524.536 98.3803 525.624 96.8283 525.624ZM106.956 527.144C108.844 527.144 110.236 526.264 110.524 524.584H109.196C109.02 525.56 108.268 526.04 106.972 526.04C105.26 526.04 104.348 524.984 104.284 523.08H110.588V522.648C110.588 519.656 108.764 518.488 106.828 518.488C104.524 518.488 102.908 520.248 102.908 522.776V522.904C102.908 525.48 104.588 527.144 106.956 527.144ZM104.332 522.008C104.556 520.52 105.468 519.592 106.828 519.592C108.204 519.592 109.1 520.28 109.228 522.008H104.332ZM116.892 527H118.236V514.632H116.892V527ZM123.049 527.144C124.281 527.144 125.033 526.728 125.657 525.944V527H126.985V521.48C126.985 519.144 125.529 518.488 123.929 518.488C122.313 518.488 120.793 519.192 120.617 521.096H121.945C122.073 520.072 122.713 519.592 123.865 519.592C125.145 519.592 125.657 520.152 125.657 521.48V522.088H124.457C122.313 522.088 120.265 522.744 120.265 524.68C120.265 526.392 121.497 527.144 123.049 527.144ZM123.177 526.088C122.009 526.088 121.593 525.544 121.593 524.68C121.593 523.448 122.825 523.032 124.505 523.032H125.657V524.072C125.657 525.368 124.585 526.088 123.177 526.088ZM132.426 527.144C133.77 527.144 134.698 526.456 135.082 525.672V527H136.41V518.632H135.082V523.704C135.082 525.208 133.962 525.992 132.778 525.992C131.466 525.992 130.842 525.336 130.842 523.864V518.632H129.514V523.928C129.514 526.232 130.762 527.144 132.426 527.144ZM139.094 527H140.422V521.928C140.422 520.424 141.526 519.64 142.758 519.64C144.102 519.64 144.726 520.296 144.726 521.768V527H146.054V521.864C146.054 519.432 144.838 518.488 143.11 518.488C141.734 518.488 140.806 519.176 140.422 519.96V518.632H139.094V527ZM152.129 527.144C154.145 527.144 155.601 525.8 155.777 523.992H154.545C154.401 525.352 153.329 526.04 152.145 526.04C150.529 526.04 149.409 524.952 149.409 522.904V522.776C149.409 520.808 150.577 519.592 152.097 519.592C153.249 519.592 154.209 520.088 154.417 521.416H155.729C155.473 519.288 153.841 518.488 152.097 518.488C149.857 518.488 148.033 520.216 148.033 522.776V522.904C148.033 525.496 149.793 527.144 152.129 527.144ZM157.782 527H159.11V521.928C159.11 520.424 160.214 519.64 161.446 519.64C162.79 519.64 163.414 520.296 163.414 521.768V527H164.742V521.864C164.742 519.432 163.526 518.488 161.798 518.488C160.422 518.488 159.494 519.176 159.11 519.96V514.632H157.782V527Z" fill="white"/>
<path d="M211.1 124.54L214.18 121C215.02 120.06 215.62 118.94 215.62 117.68C215.62 115.3 213.92 113.72 211.3 113.72C208.68 113.72 207.16 115.32 206.84 117.66L209.22 118.06C209.38 116.92 210.04 116.16 211.2 116.16C212.22 116.16 212.94 116.78 212.94 117.66C212.94 118.1 212.58 118.78 212.04 119.44L206.92 125.58V127H215.74V124.54H211.1ZM222.701 127.18C226.501 127.18 227.541 124.2 227.541 120.48C227.541 116.7 226.501 113.72 222.701 113.72C218.881 113.72 217.821 116.7 217.821 120.48C217.821 124.2 218.881 127.18 222.701 127.18ZM222.701 124.74C221.001 124.74 220.481 122.86 220.481 120.48C220.481 118.06 221.001 116.16 222.701 116.16C224.381 116.16 224.881 118.06 224.881 120.48C224.881 122.86 224.381 124.74 222.701 124.74ZM233.678 124.54L236.758 121C237.598 120.06 238.198 118.94 238.198 117.68C238.198 115.3 236.498 113.72 233.878 113.72C231.258 113.72 229.738 115.32 229.418 117.66L231.798 118.06C231.958 116.92 232.618 116.16 233.778 116.16C234.798 116.16 235.518 116.78 235.518 117.66C235.518 118.1 235.158 118.78 234.618 119.44L229.498 125.58V127H238.318V124.54H233.678ZM245.319 113.72L239.879 115.98V118.44L242.899 117.28V127H245.539V113.72H245.319ZM259.817 127.18C263.717 127.18 266.837 124.02 266.837 120.12C266.837 116.2 263.717 113.04 259.817 113.04C255.897 113.04 252.817 116.2 252.817 120.12C252.817 124.02 255.897 127.18 259.817 127.18ZM259.817 124.58C257.337 124.58 255.597 122.6 255.597 120.12C255.597 117.64 257.337 115.66 259.817 115.66C262.277 115.66 264.037 117.64 264.037 120.12C264.037 122.6 262.277 124.58 259.817 124.58ZM273.481 127.18C275.181 127.18 276.541 126.4 277.421 125.18L275.461 123.8C275.041 124.38 274.261 124.74 273.501 124.74C272.021 124.74 271.021 123.68 271.021 122.3C271.021 120.94 272.021 119.88 273.501 119.88C274.261 119.88 275.041 120.24 275.461 120.82L277.421 119.44C276.541 118.24 275.181 117.44 273.481 117.44C270.761 117.44 268.361 119.34 268.361 122.3C268.361 125.26 270.761 127.18 273.481 127.18ZM284.793 117.68H282.813V114.26H280.193V117.68H278.493V119.7H280.193V127H282.813V119.7H284.793V117.68Z" fill="white"/>
<path d="M213.344 168.352C215.648 168.352 217.536 167.392 218.352 166H217.12C216.128 166.848 215.088 167.296 213.344 167.296C209.776 167.296 207.952 164.72 207.952 161.808C207.952 158.416 210.32 156.048 213.552 156.048C216.848 156.048 218.768 158.016 218.768 160.88C218.768 163.056 217.84 163.968 216.928 163.968C216.32 163.968 216.048 163.552 216.16 162.704L216.64 158.672H215.312L215.2 159.632C214.976 159.088 214.4 158.544 213.264 158.544C211.52 158.544 210.112 160.112 210.112 162.256C210.112 163.984 211.136 165.04 212.688 165.04C213.68 165.04 214.608 164.384 215.072 163.552C215.2 164.384 215.616 164.928 216.912 164.928C218.192 164.928 219.92 163.856 219.92 160.848C219.92 157.552 217.376 154.992 213.552 154.992C209.856 154.992 206.72 157.92 206.72 161.84C206.72 165.248 209.072 168.352 213.344 168.352ZM212.976 164.016C212.112 164.016 211.472 163.36 211.472 162.24C211.472 160.56 212.352 159.6 213.36 159.6C214.4 159.6 215.024 160.192 215.024 161.408C215.024 163.104 213.968 164.016 212.976 164.016ZM222.081 166H229.041V164.864H223.473V160.72H227.729V159.584H223.473V155.696H228.753V154.56H222.081V166ZM233.591 166.112C234.135 166.112 234.455 166.032 234.727 165.936V164.816C234.439 164.928 234.119 164.992 233.703 164.992C233.031 164.992 232.663 164.592 232.663 163.776V158.752H234.615V157.632H232.663V155.728H231.335V157.632H230.135V158.752H231.335V163.904C231.335 165.216 232.071 166.112 233.591 166.112ZM236.735 166H238.063V160.928C238.063 159.424 239.167 158.64 240.399 158.64C241.743 158.64 242.367 159.296 242.367 160.768V166H243.695V160.864C243.695 158.432 242.479 157.488 240.751 157.488C239.375 157.488 238.447 158.176 238.063 158.96V153.632H236.735V166ZM249.721 166.144C251.609 166.144 253.001 165.264 253.289 163.584H251.961C251.785 164.56 251.033 165.04 249.737 165.04C248.025 165.04 247.113 163.984 247.049 162.08H253.353V161.648C253.353 158.656 251.529 157.488 249.593 157.488C247.289 157.488 245.673 159.248 245.673 161.776V161.904C245.673 164.48 247.353 166.144 249.721 166.144ZM247.097 161.008C247.321 159.52 248.233 158.592 249.593 158.592C250.969 158.592 251.865 159.28 251.993 161.008H247.097ZM255.391 166H256.719V161.408C256.719 159.344 257.791 158.816 259.471 158.736V157.488C257.967 157.536 257.247 158.192 256.719 159.136V157.632H255.391V166ZM264.596 166.144C266.484 166.144 267.876 165.264 268.164 163.584H266.836C266.66 164.56 265.908 165.04 264.612 165.04C262.9 165.04 261.988 163.984 261.924 162.08H268.228V161.648C268.228 158.656 266.404 157.488 264.468 157.488C262.164 157.488 260.548 159.248 260.548 161.776V161.904C260.548 164.48 262.228 166.144 264.596 166.144ZM261.972 161.008C262.196 159.52 263.108 158.592 264.468 158.592C265.844 158.592 266.74 159.28 266.868 161.008H261.972ZM273.098 166.144C274.442 166.144 275.37 165.456 275.754 164.672V166H277.082V157.632H275.754V162.704C275.754 164.208 274.634 164.992 273.45 164.992C272.138 164.992 271.514 164.336 271.514 162.864V157.632H270.186V162.928C270.186 165.232 271.434 166.144 273.098 166.144ZM279.766 166H281.094V160.88C281.094 159.376 282.214 158.64 283.302 158.64C284.454 158.64 285.078 159.248 285.078 160.72V166H286.406V160.88C286.406 159.376 287.526 158.64 288.614 158.64C289.766 158.64 290.39 159.248 290.39 160.72V166H291.718V160.816C291.718 158.384 290.406 157.488 288.902 157.488C287.862 157.488 286.614 157.968 286.038 159.056C285.606 157.936 284.662 157.488 283.59 157.488C282.39 157.488 281.478 158.128 281.094 158.912V157.632H279.766V166Z" fill="#E5E6ED"/>
<path d="M212.1 343.54L215.18 340C216.02 339.06 216.62 337.94 216.62 336.68C216.62 334.3 214.92 332.72 212.3 332.72C209.68 332.72 208.16 334.32 207.84 336.66L210.22 337.06C210.38 335.92 211.04 335.16 212.2 335.16C213.22 335.16 213.94 335.78 213.94 336.66C213.94 337.1 213.58 337.78 213.04 338.44L207.92 344.58V346H216.74V343.54H212.1ZM223.701 346.18C227.501 346.18 228.541 343.2 228.541 339.48C228.541 335.7 227.501 332.72 223.701 332.72C219.881 332.72 218.821 335.7 218.821 339.48C218.821 343.2 219.881 346.18 223.701 346.18ZM223.701 343.74C222.001 343.74 221.481 341.86 221.481 339.48C221.481 337.06 222.001 335.16 223.701 335.16C225.381 335.16 225.881 337.06 225.881 339.48C225.881 341.86 225.381 343.74 223.701 343.74ZM234.678 343.54L237.758 340C238.598 339.06 239.198 337.94 239.198 336.68C239.198 334.3 237.498 332.72 234.878 332.72C232.258 332.72 230.738 334.32 230.418 336.66L232.798 337.06C232.958 335.92 233.618 335.16 234.778 335.16C235.798 335.16 236.518 335.78 236.518 336.66C236.518 337.1 236.158 337.78 235.618 338.44L230.498 344.58V346H239.318V343.54H234.678ZM245.459 343.54L248.539 340C249.379 339.06 249.979 337.94 249.979 336.68C249.979 334.3 248.279 332.72 245.659 332.72C243.039 332.72 241.519 334.32 241.199 336.66L243.579 337.06C243.739 335.92 244.399 335.16 245.559 335.16C246.579 335.16 247.299 335.78 247.299 336.66C247.299 337.1 246.939 337.78 246.399 338.44L241.279 344.58V346H250.099V343.54H245.459ZM270.766 339.12C270.766 335.22 267.646 332.06 263.746 332.06C259.826 332.06 256.746 335.22 256.746 339.12C256.746 343.02 259.826 346.2 263.746 346.2C264.406 346.2 265.046 346.1 265.666 345.94L267.126 348.34L269.106 347.14L267.766 344.94C269.586 343.66 270.766 341.52 270.766 339.12ZM263.746 343.58C261.266 343.58 259.526 341.6 259.526 339.12C259.526 336.66 261.266 334.68 263.746 334.68C266.206 334.68 267.966 336.66 267.966 339.12C267.966 340.58 267.366 341.86 266.366 342.66L264.986 340.4L263.026 341.6L264.206 343.56C264.066 343.58 263.906 343.58 263.746 343.58ZM276.709 343.54L279.789 340C280.629 339.06 281.229 337.94 281.229 336.68C281.229 334.3 279.529 332.72 276.909 332.72C274.289 332.72 272.769 334.32 272.449 336.66L274.829 337.06C274.989 335.92 275.649 335.16 276.809 335.16C277.829 335.16 278.549 335.78 278.549 336.66C278.549 337.1 278.189 337.78 277.649 338.44L272.529 344.58V346H281.349V343.54H276.709Z" fill="white"/>
<path d="M210.792 385H212.184V374.696H215.512V373.56H207.464V374.696H210.792V385ZM219.598 384.04C217.902 384.04 216.862 382.792 216.862 380.888V380.76C216.862 378.84 217.918 377.592 219.598 377.592C221.262 377.592 222.334 378.84 222.334 380.776V380.888C222.334 382.776 221.278 384.04 219.598 384.04ZM219.582 385.144C221.966 385.144 223.71 383.4 223.71 380.872V380.744C223.71 378.232 221.966 376.488 219.598 376.488C217.23 376.488 215.486 378.248 215.486 380.76V380.888C215.486 383.336 217.198 385.144 219.582 385.144ZM229.254 384.04C227.558 384.04 226.518 382.792 226.518 380.888V380.76C226.518 378.84 227.574 377.592 229.254 377.592C230.918 377.592 231.99 378.84 231.99 380.776V380.888C231.99 382.776 230.934 384.04 229.254 384.04ZM229.238 385.144C231.622 385.144 233.366 383.4 233.366 380.872V380.744C233.366 378.232 231.622 376.488 229.254 376.488C226.886 376.488 225.142 378.248 225.142 380.76V380.888C225.142 383.336 226.854 385.144 229.238 385.144ZM235.454 385H236.798V372.632H235.454V385ZM243.676 385.144C245.98 385.144 247.484 383.384 247.484 380.824V380.696C247.484 378.088 245.868 376.488 243.676 376.488C242.46 376.488 241.324 377.224 240.844 378.04V372.632H239.516V385H240.844V383.624C241.324 384.456 242.316 385.144 243.676 385.144ZM243.548 384.04C241.916 384.04 240.796 383.032 240.796 380.888V380.76C240.796 378.616 241.98 377.592 243.532 377.592C244.94 377.592 246.108 378.648 246.108 380.76V380.888C246.108 382.92 245.212 384.04 243.548 384.04ZM253.035 384.04C251.339 384.04 250.299 382.792 250.299 380.888V380.76C250.299 378.84 251.355 377.592 253.035 377.592C254.699 377.592 255.771 378.84 255.771 380.776V380.888C255.771 382.776 254.715 384.04 253.035 384.04ZM253.019 385.144C255.403 385.144 257.147 383.4 257.147 380.872V380.744C257.147 378.232 255.403 376.488 253.035 376.488C250.667 376.488 248.923 378.248 248.923 380.76V380.888C248.923 383.336 250.635 385.144 253.019 385.144ZM257.901 385H259.325L261.629 381.624L263.885 385H265.453L262.397 380.6L265.165 376.632H263.725L261.693 379.672L259.645 376.632H258.093L260.893 380.696L257.901 385ZM208.44 409H215.4V407.864H209.832V403.72H214.088V402.584H209.832V398.696H215.112V397.56H208.44V409ZM220.879 409.144C222.895 409.144 224.351 407.8 224.527 405.992H223.295C223.151 407.352 222.079 408.04 220.895 408.04C219.279 408.04 218.159 406.952 218.159 404.904V404.776C218.159 402.808 219.327 401.592 220.847 401.592C221.999 401.592 222.959 402.088 223.167 403.416H224.479C224.223 401.288 222.591 400.488 220.847 400.488C218.607 400.488 216.783 402.216 216.783 404.776V404.904C216.783 407.496 218.543 409.144 220.879 409.144ZM230.02 408.04C228.324 408.04 227.284 406.792 227.284 404.888V404.76C227.284 402.84 228.34 401.592 230.02 401.592C231.684 401.592 232.756 402.84 232.756 404.776V404.888C232.756 406.776 231.7 408.04 230.02 408.04ZM230.004 409.144C232.388 409.144 234.132 407.4 234.132 404.872V404.744C234.132 402.232 232.388 400.488 230.02 400.488C227.652 400.488 225.908 402.248 225.908 404.76V404.888C225.908 407.336 227.62 409.144 230.004 409.144ZM238.78 409.144C240.812 409.144 241.852 408.12 241.852 406.6C241.852 404.824 240.636 404.44 238.908 404.12C237.372 403.848 236.956 403.544 236.956 402.792C236.956 402.072 237.58 401.592 238.54 401.592C239.596 401.592 240.108 401.992 240.3 402.904H241.58C241.356 401.096 240.06 400.488 238.556 400.488C237.244 400.488 235.724 401.288 235.724 402.84C235.724 404.296 236.46 404.904 238.636 405.304C239.932 405.544 240.588 405.832 240.588 406.712C240.588 407.608 240.028 408.04 238.764 408.04C237.42 408.04 236.892 407.416 236.796 406.424H235.5C235.58 408.136 236.78 409.144 238.78 409.144ZM244.471 411.912H245.815L250.439 400.632H249.079L246.759 406.632L244.199 400.632H242.775L246.055 408.136L244.471 411.912ZM254.78 409.144C256.812 409.144 257.852 408.12 257.852 406.6C257.852 404.824 256.636 404.44 254.908 404.12C253.372 403.848 252.956 403.544 252.956 402.792C252.956 402.072 253.58 401.592 254.54 401.592C255.596 401.592 256.108 401.992 256.3 402.904H257.58C257.356 401.096 256.06 400.488 254.556 400.488C253.244 400.488 251.724 401.288 251.724 402.84C251.724 404.296 252.46 404.904 254.636 405.304C255.932 405.544 256.588 405.832 256.588 406.712C256.588 407.608 256.028 408.04 254.764 408.04C253.42 408.04 252.892 407.416 252.796 406.424H251.5C251.58 408.136 252.78 409.144 254.78 409.144ZM262.419 409.112C262.963 409.112 263.283 409.032 263.555 408.936V407.816C263.267 407.928 262.947 407.992 262.531 407.992C261.859 407.992 261.491 407.592 261.491 406.776V401.752H263.443V400.632H261.491V398.728H260.163V400.632H258.963V401.752H260.163V406.904C260.163 408.216 260.899 409.112 262.419 409.112ZM268.987 409.144C270.875 409.144 272.267 408.264 272.555 406.584H271.227C271.051 407.56 270.299 408.04 269.003 408.04C267.291 408.04 266.379 406.984 266.315 405.08H272.619V404.648C272.619 401.656 270.795 400.488 268.859 400.488C266.555 400.488 264.939 402.248 264.939 404.776V404.904C264.939 407.48 266.619 409.144 268.987 409.144ZM266.363 404.008C266.587 402.52 267.499 401.592 268.859 401.592C270.235 401.592 271.131 402.28 271.259 404.008H266.363ZM274.657 409H275.985V403.88C275.985 402.376 277.105 401.64 278.193 401.64C279.345 401.64 279.969 402.248 279.969 403.72V409H281.297V403.88C281.297 402.376 282.417 401.64 283.505 401.64C284.657 401.64 285.281 402.248 285.281 403.72V409H286.609V403.816C286.609 401.384 285.297 400.488 283.793 400.488C282.753 400.488 281.505 400.968 280.929 402.056C280.497 400.936 279.553 400.488 278.481 400.488C277.281 400.488 276.369 401.128 275.985 401.912V400.632H274.657V409ZM208.44 433H215.4V431.864H209.832V427.72H214.088V426.584H209.832V422.696H215.112V421.56H208.44V433ZM216.589 433H218.013L220.317 429.624L222.573 433H224.141L221.085 428.6L223.853 424.632H222.413L220.381 427.672L218.333 424.632H216.781L219.581 428.696L216.589 433ZM225.938 435.912H227.266V431.624C227.746 432.456 228.722 433.144 230.098 433.144C232.402 433.144 233.906 431.384 233.906 428.824V428.696C233.906 426.088 232.29 424.488 230.098 424.488C228.882 424.488 227.746 425.224 227.266 426.04V424.632H225.938V435.912ZM229.97 432.04C228.338 432.04 227.218 431.032 227.218 428.888V428.76C227.218 426.616 228.402 425.592 229.954 425.592C231.362 425.592 232.53 426.648 232.53 428.76V428.888C232.53 430.92 231.634 432.04 229.97 432.04ZM238.065 433.144C239.297 433.144 240.049 432.728 240.673 431.944V433H242.001V427.48C242.001 425.144 240.545 424.488 238.945 424.488C237.329 424.488 235.809 425.192 235.633 427.096H236.961C237.089 426.072 237.729 425.592 238.881 425.592C240.161 425.592 240.673 426.152 240.673 427.48V428.088H239.473C237.329 428.088 235.281 428.744 235.281 430.68C235.281 432.392 236.513 433.144 238.065 433.144ZM238.193 432.088C237.025 432.088 236.609 431.544 236.609 430.68C236.609 429.448 237.841 429.032 239.521 429.032H240.673V430.072C240.673 431.368 239.601 432.088 238.193 432.088ZM244.61 433H245.938V427.928C245.938 426.424 247.042 425.64 248.274 425.64C249.618 425.64 250.242 426.296 250.242 427.768V433H251.57V427.864C251.57 425.432 250.354 424.488 248.626 424.488C247.25 424.488 246.322 425.176 245.938 425.96V424.632H244.61V433ZM256.764 433.144C258.796 433.144 259.836 432.12 259.836 430.6C259.836 428.824 258.62 428.44 256.892 428.12C255.356 427.848 254.94 427.544 254.94 426.792C254.94 426.072 255.564 425.592 256.524 425.592C257.58 425.592 258.092 425.992 258.284 426.904H259.564C259.34 425.096 258.044 424.488 256.54 424.488C255.228 424.488 253.708 425.288 253.708 426.84C253.708 428.296 254.444 428.904 256.62 429.304C257.916 429.544 258.572 429.832 258.572 430.712C258.572 431.608 258.012 432.04 256.748 432.04C255.404 432.04 254.876 431.416 254.78 430.424H253.484C253.564 432.136 254.764 433.144 256.764 433.144ZM261.892 433H263.22V424.632H261.892V433ZM262.532 422.888C263.012 422.888 263.412 422.488 263.412 422.008C263.412 421.528 263.012 421.128 262.532 421.128C262.052 421.128 261.652 421.528 261.652 422.008C261.652 422.488 262.052 422.888 262.532 422.888ZM269.426 432.04C267.73 432.04 266.69 430.792 266.69 428.888V428.76C266.69 426.84 267.746 425.592 269.426 425.592C271.09 425.592 272.162 426.84 272.162 428.776V428.888C272.162 430.776 271.106 432.04 269.426 432.04ZM269.41 433.144C271.794 433.144 273.538 431.4 273.538 428.872V428.744C273.538 426.232 271.794 424.488 269.426 424.488C267.058 424.488 265.314 426.248 265.314 428.76V428.888C265.314 431.336 267.026 433.144 269.41 433.144ZM275.594 433H276.922V427.928C276.922 426.424 278.026 425.64 279.258 425.64C280.602 425.64 281.226 426.296 281.226 427.768V433H282.554V427.864C282.554 425.432 281.338 424.488 279.61 424.488C278.234 424.488 277.306 425.176 276.922 425.96V424.632H275.594V433Z" fill="white"/>
</svg>
